G75*
G70*
%OFA0B0*%
%FSLAX24Y24*%
%IPPOS*%
%LPD*%
%AMOC8*
5,1,8,0,0,1.08239X$1,22.5*
%
%ADD10OC8,0.0560*%
%ADD11C,0.0600*%
%ADD12C,0.0886*%
%ADD13C,0.0520*%
%ADD14R,0.0827X0.0827*%
%ADD15C,0.0550*%
%ADD16OC8,0.1000*%
%ADD17OC8,0.0600*%
%ADD18C,0.0250*%
%ADD19C,0.0400*%
%ADD20C,0.0560*%
%ADD21C,0.0396*%
%ADD22C,0.0160*%
%ADD23C,0.0500*%
%ADD24R,0.0396X0.0396*%
%ADD25C,0.0860*%
D10*
X003490Y021155D03*
X004490Y021155D03*
X004490Y022155D03*
X003490Y022155D03*
X003490Y023155D03*
X004490Y023155D03*
X006140Y031955D03*
X007140Y031955D03*
X008140Y031955D03*
X009140Y031955D03*
X010140Y031955D03*
X010140Y032955D03*
X009140Y032955D03*
X008140Y032955D03*
X007140Y032955D03*
X006140Y032955D03*
X015890Y032955D03*
X015890Y031955D03*
X016890Y031955D03*
X017890Y031955D03*
X018890Y031955D03*
X019890Y031955D03*
X019890Y032955D03*
X018890Y032955D03*
X017890Y032955D03*
X016890Y032955D03*
X025640Y032955D03*
X026640Y032955D03*
X026640Y031955D03*
X025640Y031955D03*
X027640Y031955D03*
X028640Y031955D03*
X029640Y031955D03*
X029640Y032955D03*
X028640Y032955D03*
X027640Y032955D03*
X028390Y022905D03*
X028390Y021905D03*
X028390Y020905D03*
X028390Y019905D03*
X028390Y018905D03*
X029390Y018905D03*
X029390Y019905D03*
X029390Y020905D03*
X029390Y021905D03*
X029390Y022905D03*
D11*
X029310Y025665D02*
X029910Y025665D01*
X029910Y027445D02*
X029310Y027445D01*
X031870Y027445D02*
X032470Y027445D01*
X032990Y028705D02*
X032990Y029305D01*
X032990Y030105D02*
X032990Y030705D01*
X033990Y030705D02*
X033990Y030105D01*
X033990Y029305D02*
X033990Y028705D01*
X034990Y028705D02*
X034990Y029305D01*
X034990Y030105D02*
X034990Y030705D01*
X034990Y031505D02*
X034990Y032105D01*
X033990Y032105D02*
X033990Y031505D01*
X032990Y031505D02*
X032990Y032105D01*
X032990Y032905D02*
X032990Y033505D01*
X033990Y033505D02*
X033990Y032905D01*
X034990Y032905D02*
X034990Y033505D01*
X035990Y033505D02*
X035990Y032905D01*
X035990Y032105D02*
X035990Y031505D01*
X035990Y030705D02*
X035990Y030105D01*
X035990Y029305D02*
X035990Y028705D01*
X032470Y025665D02*
X031870Y025665D01*
X025990Y027155D02*
X025990Y027755D01*
X024990Y027755D02*
X024990Y027155D01*
X023990Y027155D02*
X023990Y027755D01*
X022990Y027755D02*
X022990Y027155D01*
X021990Y027155D02*
X021990Y027755D01*
X020990Y027755D02*
X020990Y027155D01*
X019990Y027155D02*
X019990Y027755D01*
X018990Y027755D02*
X018990Y027155D01*
X017990Y027155D02*
X017990Y027755D01*
X014990Y027755D02*
X014990Y027155D01*
X013990Y027155D02*
X013990Y027755D01*
X012990Y027755D02*
X012990Y027155D01*
X011990Y027155D02*
X011990Y027755D01*
X010990Y027755D02*
X010990Y027155D01*
X009990Y027155D02*
X009990Y027755D01*
X008990Y027755D02*
X008990Y027155D01*
X007990Y027155D02*
X007990Y027755D01*
X006990Y027755D02*
X006990Y027155D01*
X004590Y026855D02*
X003990Y026855D01*
X003990Y025855D02*
X004590Y025855D01*
X001640Y025705D02*
X001040Y025705D01*
X001040Y024705D02*
X001640Y024705D01*
X001640Y023705D02*
X001040Y023705D01*
X001040Y022705D02*
X001640Y022705D01*
X001640Y021705D02*
X001040Y021705D01*
X001040Y020705D02*
X001640Y020705D01*
X006990Y017755D02*
X006990Y017155D01*
X007990Y017155D02*
X007990Y017755D01*
X008990Y017755D02*
X008990Y017155D01*
X009990Y017155D02*
X009990Y017755D01*
X010990Y017755D02*
X010990Y017155D01*
X011990Y017155D02*
X011990Y017755D01*
X012990Y017755D02*
X012990Y017155D01*
X013990Y017155D02*
X013990Y017755D01*
X017990Y017755D02*
X017990Y017155D01*
X018990Y017155D02*
X018990Y017755D01*
X019990Y017755D02*
X019990Y017155D01*
X020990Y017155D02*
X020990Y017755D01*
X021990Y017755D02*
X021990Y017155D01*
X022990Y017155D02*
X022990Y017755D01*
X023990Y017755D02*
X023990Y017155D01*
X024990Y017155D02*
X024990Y017755D01*
X025990Y017755D02*
X025990Y017155D01*
D12*
X038823Y010182D02*
X039709Y010182D01*
X039705Y008611D02*
X038819Y008611D01*
X038819Y007040D02*
X039705Y007040D01*
D13*
X024268Y020969D03*
X022924Y022312D03*
D14*
X022256Y012488D03*
X020603Y012488D03*
X018949Y012488D03*
X018949Y010323D03*
X020603Y010323D03*
X022256Y010323D03*
X023910Y010323D03*
X025563Y010323D03*
X027217Y010323D03*
X028870Y010323D03*
X030524Y010323D03*
X032177Y010323D03*
X033831Y010323D03*
X033831Y012488D03*
X032177Y012488D03*
X030524Y012488D03*
X028870Y012488D03*
X027217Y012488D03*
X025563Y012488D03*
X023910Y012488D03*
D15*
X024140Y006705D03*
X023140Y006705D03*
X022140Y006705D03*
X021140Y006705D03*
X021640Y005705D03*
X022640Y005705D03*
X023640Y005705D03*
X020640Y005705D03*
X018040Y006705D03*
X017040Y006705D03*
X016040Y006705D03*
X015040Y006705D03*
X015540Y005705D03*
X014540Y005705D03*
X016540Y005705D03*
X017540Y005705D03*
X026740Y005705D03*
X027740Y005705D03*
X028740Y005705D03*
X029740Y005705D03*
X030240Y006705D03*
X029240Y006705D03*
X028240Y006705D03*
X027240Y006705D03*
X032840Y005705D03*
X033840Y005705D03*
X034840Y005705D03*
X035840Y005705D03*
X036340Y006705D03*
X035340Y006705D03*
X034340Y006705D03*
X033340Y006705D03*
D16*
X037190Y015755D03*
X037190Y026255D03*
D17*
X015990Y027455D03*
X014990Y017455D03*
D18*
X018990Y017455D02*
X019240Y017005D01*
X019690Y016555D01*
X023690Y016555D01*
X023690Y014505D01*
X022840Y013555D02*
X023540Y012855D01*
X023910Y012488D01*
X024290Y012855D01*
X024690Y012855D01*
X025040Y013205D01*
X026490Y013205D01*
X026840Y012855D01*
X027217Y012488D01*
X026890Y016555D02*
X023690Y016555D01*
X022840Y013555D02*
X011190Y013555D01*
X010390Y014355D01*
X008640Y016405D02*
X006890Y016405D01*
X005590Y017705D01*
X003140Y017705D01*
X001790Y016905D02*
X001790Y020455D01*
X001340Y020705D01*
X026890Y016555D02*
X029140Y018805D01*
X029390Y018905D01*
X032240Y021505D02*
X032240Y021955D01*
X033040Y021955D01*
X037340Y017655D01*
X037340Y016255D01*
X037390Y016155D01*
X037190Y015755D01*
X032240Y021955D02*
X032240Y024605D01*
X033090Y025455D01*
X033090Y028455D01*
X032990Y029005D01*
D19*
X032590Y026655D03*
X033840Y026655D03*
X032840Y021455D03*
X032240Y021505D03*
X030990Y021005D03*
X027140Y016105D03*
X027840Y015405D03*
X023690Y014505D03*
X017090Y013055D03*
X015740Y012605D03*
X015740Y011255D03*
X013790Y011255D03*
X013190Y012605D03*
X013840Y009955D03*
X013190Y007755D03*
X010390Y014355D03*
X008640Y016405D03*
X013040Y015505D03*
X014240Y018905D03*
X013840Y019505D03*
X013640Y020005D03*
X013090Y020055D03*
X012890Y020555D03*
X012390Y021005D03*
X003140Y017705D03*
X001790Y016905D03*
X020990Y007655D03*
X026690Y028255D03*
X026540Y029555D03*
X025490Y029955D03*
D20*
X024140Y008705D02*
X024140Y008555D01*
X024290Y008555D01*
X025590Y008555D01*
X026190Y008555D01*
X024290Y008555D02*
X024140Y008405D01*
X022190Y008405D01*
X019790Y008405D01*
X018090Y006705D01*
X018040Y006705D01*
X018040Y006755D01*
X017540Y006255D01*
X017540Y006105D01*
X017590Y006105D01*
X017040Y006655D01*
X017040Y006705D01*
X017540Y006105D02*
X017540Y005705D01*
X016540Y005705D02*
X016540Y005205D01*
X016540Y005705D02*
X015540Y005705D01*
X016040Y006205D01*
X016040Y006705D01*
X021590Y005605D02*
X021640Y005655D01*
X021640Y005705D01*
X022640Y005705D01*
X022640Y005105D01*
X022640Y005705D02*
X022640Y005755D01*
X022140Y006255D01*
X022140Y006705D01*
X023140Y006705D02*
X024090Y006705D01*
X024140Y006755D01*
X024140Y008555D01*
X024140Y006755D02*
X024140Y006705D01*
X023640Y006205D02*
X023140Y006705D01*
X023640Y006205D02*
X023640Y005705D01*
X027690Y005655D02*
X027740Y005705D01*
X027740Y005755D01*
X028240Y006255D01*
X028740Y005755D01*
X028740Y005705D01*
X028740Y005055D01*
X027790Y005755D02*
X027740Y005705D01*
X028240Y006255D02*
X028240Y006705D01*
X029240Y006705D02*
X029240Y006755D01*
X029290Y006705D01*
X030190Y006705D01*
X030120Y006775D01*
X030120Y008355D01*
X030190Y008455D01*
X030990Y008055D01*
X035090Y008055D01*
X035340Y007805D01*
X035340Y006705D01*
X035290Y006705D01*
X035840Y006155D01*
X036340Y006655D01*
X036340Y006705D01*
X035840Y006155D02*
X035840Y005705D01*
X034840Y005705D02*
X034840Y005655D01*
X034340Y006155D01*
X034340Y006705D01*
X034340Y006155D02*
X033890Y005705D01*
X033840Y005705D01*
X033840Y004855D01*
X033715Y004730D01*
X033640Y004655D01*
X030240Y006705D02*
X030190Y006705D01*
X030240Y006705D02*
X029740Y006205D01*
X029740Y005705D01*
X030120Y008355D02*
X030120Y008655D01*
D21*
X018890Y019355D03*
X017340Y018905D03*
X015990Y018355D03*
X017390Y021005D03*
X016740Y021505D03*
X015040Y021905D03*
X016090Y023255D03*
X017740Y023105D03*
X011940Y021355D03*
X011340Y021855D03*
D22*
X001085Y020225D02*
X001085Y002337D01*
X013324Y002337D01*
X013144Y002518D01*
X012996Y002773D01*
X012920Y003058D01*
X012920Y003353D01*
X012996Y003638D01*
X013144Y003893D01*
X013352Y004101D01*
X013608Y004249D01*
X013892Y004325D01*
X014187Y004325D01*
X014472Y004249D01*
X014728Y004101D01*
X014936Y003893D01*
X015084Y003638D01*
X015160Y003353D01*
X015160Y003058D01*
X015084Y002773D01*
X014936Y002518D01*
X014756Y002337D01*
X017824Y002337D01*
X017644Y002518D01*
X017496Y002773D01*
X017420Y003058D01*
X017420Y003353D01*
X017496Y003638D01*
X017644Y003893D01*
X017736Y003985D01*
X017223Y003985D01*
X016957Y003985D01*
X016710Y004087D01*
X015972Y004826D01*
X015870Y005072D01*
X015870Y005185D01*
X015436Y005185D01*
X015245Y005264D01*
X015099Y005411D01*
X015037Y005560D01*
X014976Y005414D01*
X014832Y005269D01*
X014642Y005190D01*
X014437Y005190D01*
X014248Y005269D01*
X014103Y005414D01*
X014025Y005603D01*
X014025Y005808D01*
X014103Y005997D01*
X014248Y006142D01*
X014437Y006220D01*
X014642Y006220D01*
X014832Y006142D01*
X014976Y005997D01*
X015037Y005850D01*
X015099Y006000D01*
X015245Y006146D01*
X015520Y006421D01*
X015520Y006518D01*
X015476Y006414D01*
X015332Y006269D01*
X015142Y006190D01*
X014937Y006190D01*
X014748Y006269D01*
X014603Y006414D01*
X014525Y006603D01*
X014525Y006808D01*
X014603Y006997D01*
X014748Y007142D01*
X014937Y007220D01*
X015142Y007220D01*
X015332Y007142D01*
X015476Y006997D01*
X015537Y006850D01*
X015599Y007000D01*
X015745Y007146D01*
X015936Y007225D01*
X016143Y007225D01*
X016334Y007146D01*
X016481Y007000D01*
X016560Y006809D01*
X016560Y006309D01*
X016560Y006225D01*
X016643Y006225D01*
X016834Y006146D01*
X016981Y006000D01*
X017060Y005809D01*
X017060Y005633D01*
X017090Y005603D01*
X017085Y005615D01*
X017085Y005698D01*
X017532Y005698D01*
X017532Y005713D01*
X017085Y005713D01*
X017085Y005796D01*
X017154Y005963D01*
X017282Y006091D01*
X017449Y006160D01*
X017532Y006160D01*
X017532Y005713D01*
X017547Y005713D01*
X017547Y006160D01*
X017630Y006160D01*
X017798Y006091D01*
X017926Y005963D01*
X017995Y005796D01*
X017995Y005713D01*
X017548Y005713D01*
X017548Y005698D01*
X017995Y005698D01*
X017995Y005615D01*
X017926Y005448D01*
X017803Y005325D01*
X020292Y005325D01*
X020203Y005414D01*
X020125Y005603D01*
X020125Y005808D01*
X020203Y005997D01*
X020320Y006114D01*
X020320Y006969D01*
X020369Y007087D01*
X020459Y007177D01*
X020653Y007370D01*
X020617Y007406D01*
X020550Y007568D01*
X020550Y007743D01*
X020617Y007904D01*
X020741Y008028D01*
X020902Y008095D01*
X021077Y008095D01*
X021239Y008028D01*
X021363Y007904D01*
X021430Y007743D01*
X021430Y007568D01*
X021363Y007406D01*
X021310Y007353D01*
X021310Y007319D01*
X021310Y007192D01*
X021432Y007142D01*
X021576Y006997D01*
X021637Y006850D01*
X021699Y007000D01*
X021845Y007146D01*
X022036Y007225D01*
X022243Y007225D01*
X022434Y007146D01*
X022581Y007000D01*
X022660Y006809D01*
X022660Y006471D01*
X023081Y006050D01*
X023160Y005859D01*
X023160Y005809D01*
X023160Y005533D01*
X023367Y005325D01*
X023376Y005325D01*
X023254Y005448D01*
X023185Y005615D01*
X023185Y005698D01*
X023632Y005698D01*
X023632Y005713D01*
X023185Y005713D01*
X023185Y005796D01*
X023254Y005963D01*
X023382Y006091D01*
X023549Y006160D01*
X023632Y006160D01*
X023632Y005713D01*
X023647Y005713D01*
X023647Y006160D01*
X023730Y006160D01*
X023898Y006091D01*
X024026Y005963D01*
X024095Y005796D01*
X024095Y005713D01*
X023648Y005713D01*
X023648Y005698D01*
X024095Y005698D01*
X024095Y005615D01*
X024026Y005448D01*
X023903Y005325D01*
X026392Y005325D01*
X026303Y005414D01*
X026225Y005603D01*
X026225Y005808D01*
X026303Y005997D01*
X026448Y006142D01*
X026637Y006220D01*
X026842Y006220D01*
X027032Y006142D01*
X027176Y005997D01*
X027223Y005886D01*
X027249Y005950D01*
X027264Y005964D01*
X027299Y006050D01*
X027508Y006259D01*
X027342Y006190D01*
X027137Y006190D01*
X026948Y006269D01*
X026803Y006414D01*
X026725Y006603D01*
X026725Y006808D01*
X026803Y006997D01*
X026948Y007142D01*
X027137Y007220D01*
X027342Y007220D01*
X027532Y007142D01*
X027676Y006997D01*
X027737Y006850D01*
X027799Y007000D01*
X027945Y007146D01*
X028136Y007225D01*
X028343Y007225D01*
X028534Y007146D01*
X028681Y007000D01*
X028760Y006809D01*
X028760Y006471D01*
X029181Y006050D01*
X029260Y005859D01*
X029260Y005809D01*
X029260Y005483D01*
X029417Y005325D01*
X029476Y005325D01*
X029354Y005448D01*
X029285Y005615D01*
X029285Y005698D01*
X029732Y005698D01*
X029732Y005713D01*
X029285Y005713D01*
X029285Y005796D01*
X029354Y005963D01*
X029482Y006091D01*
X029649Y006160D01*
X029732Y006160D01*
X029732Y005713D01*
X029747Y005713D01*
X029747Y006160D01*
X029830Y006160D01*
X029998Y006091D01*
X030126Y005963D01*
X030195Y005796D01*
X030195Y005713D01*
X029748Y005713D01*
X029748Y005698D01*
X030195Y005698D01*
X030195Y005615D01*
X030126Y005448D01*
X030003Y005325D01*
X032492Y005325D01*
X032403Y005414D01*
X032325Y005603D01*
X032325Y005808D01*
X032403Y005997D01*
X032548Y006142D01*
X032737Y006220D01*
X032942Y006220D01*
X033132Y006142D01*
X033276Y005997D01*
X033337Y005850D01*
X033399Y006000D01*
X033545Y006146D01*
X033631Y006181D01*
X033820Y006371D01*
X033820Y006519D01*
X033776Y006414D01*
X033632Y006269D01*
X033442Y006190D01*
X033237Y006190D01*
X033048Y006269D01*
X032903Y006414D01*
X032825Y006603D01*
X032825Y006808D01*
X032903Y006997D01*
X033048Y007142D01*
X033237Y007220D01*
X033442Y007220D01*
X033632Y007142D01*
X033776Y006997D01*
X033837Y006850D01*
X033899Y007000D01*
X034045Y007146D01*
X034236Y007225D01*
X034443Y007225D01*
X034634Y007146D01*
X034781Y007000D01*
X034860Y006809D01*
X034860Y006371D01*
X035049Y006181D01*
X035134Y006146D01*
X035281Y006000D01*
X035360Y005809D01*
X035360Y005759D01*
X035360Y005552D01*
X035281Y005361D01*
X035134Y005214D01*
X034943Y005135D01*
X034736Y005135D01*
X034545Y005214D01*
X034360Y005400D01*
X034360Y005075D01*
X035912Y005075D01*
X036060Y005223D01*
X036307Y005325D01*
X036362Y005325D01*
X036460Y005423D01*
X036631Y005494D01*
X036870Y005733D01*
X036870Y007228D01*
X036772Y007326D01*
X036670Y007572D01*
X036670Y007839D01*
X036670Y010075D01*
X036538Y009846D01*
X036339Y009647D01*
X036094Y009506D01*
X035822Y009433D01*
X035540Y009433D01*
X035268Y009506D01*
X035024Y009647D01*
X034825Y009846D01*
X034684Y010090D01*
X034611Y010363D01*
X034611Y010645D01*
X034684Y010917D01*
X034825Y011161D01*
X035024Y011360D01*
X035268Y011501D01*
X035540Y011574D01*
X035822Y011574D01*
X035961Y011537D01*
X035680Y011818D01*
X033698Y011818D01*
X033657Y011835D01*
X033370Y011835D01*
X033281Y011871D01*
X033214Y011939D01*
X033177Y012027D01*
X033177Y012315D01*
X033161Y012355D01*
X033161Y012621D01*
X033177Y012661D01*
X033177Y012949D01*
X033214Y013037D01*
X033281Y013105D01*
X033370Y013141D01*
X033657Y013141D01*
X033698Y013158D01*
X035824Y013158D01*
X036091Y013158D01*
X036337Y013056D01*
X037719Y011673D01*
X037908Y011485D01*
X038010Y011239D01*
X038010Y007983D01*
X038108Y007885D01*
X038210Y007639D01*
X038210Y007354D01*
X038240Y007427D01*
X038432Y007619D01*
X038683Y007723D01*
X039841Y007723D01*
X040092Y007619D01*
X040095Y007616D01*
X040095Y008036D01*
X040092Y008032D01*
X039841Y007928D01*
X038683Y007928D01*
X038432Y008032D01*
X038240Y008224D01*
X038136Y008475D01*
X038136Y008747D01*
X038240Y008998D01*
X038432Y009190D01*
X038683Y009294D01*
X039841Y009294D01*
X040092Y009190D01*
X040095Y009187D01*
X040095Y009603D01*
X039845Y009499D01*
X038687Y009499D01*
X038436Y009603D01*
X038244Y009795D01*
X038140Y010046D01*
X038140Y010318D01*
X038244Y010569D01*
X038436Y010761D01*
X038687Y010865D01*
X039845Y010865D01*
X040095Y010761D01*
X040095Y032704D01*
X040037Y032642D01*
X040037Y032642D01*
X040037Y032642D01*
X039604Y032391D01*
X039604Y032391D01*
X039115Y032280D01*
X039115Y032280D01*
X038616Y032317D01*
X038616Y032317D01*
X038150Y032500D01*
X038150Y032500D01*
X037758Y032813D01*
X037758Y032813D01*
X037758Y032813D01*
X037476Y033226D01*
X037476Y033226D01*
X037329Y033705D01*
X037329Y033705D01*
X037329Y034206D01*
X037329Y034206D01*
X037476Y034684D01*
X037476Y034684D01*
X037742Y035073D01*
X003469Y035073D01*
X003628Y034902D01*
X003628Y034902D01*
X003845Y034450D01*
X003920Y033955D01*
X003845Y033460D01*
X003845Y033460D01*
X003628Y033009D01*
X003628Y033009D01*
X003287Y032642D01*
X003287Y032642D01*
X002854Y032391D01*
X002854Y032391D01*
X002365Y032280D01*
X002365Y032280D01*
X001866Y032317D01*
X001866Y032317D01*
X001400Y032500D01*
X001400Y032500D01*
X001085Y032752D01*
X001085Y026245D01*
X001747Y026245D01*
X001946Y026163D01*
X002098Y026011D01*
X002180Y025813D01*
X002180Y025598D01*
X002098Y025399D01*
X001946Y025247D01*
X001844Y025205D01*
X001946Y025163D01*
X002098Y025011D01*
X002154Y024875D01*
X010604Y024875D01*
X010721Y024827D01*
X010811Y024737D01*
X010811Y024736D01*
X015872Y019675D01*
X018590Y019675D01*
X018642Y019727D01*
X018803Y019793D01*
X018977Y019793D01*
X019138Y019727D01*
X019261Y019603D01*
X019328Y019442D01*
X019328Y019268D01*
X019261Y019107D01*
X019138Y018984D01*
X018977Y018917D01*
X018803Y018917D01*
X018642Y018984D01*
X018590Y019035D01*
X017760Y019035D01*
X017778Y018992D01*
X017778Y018818D01*
X017739Y018725D01*
X026007Y018725D01*
X026352Y019070D01*
X026352Y019301D01*
X026388Y019389D01*
X026456Y019457D01*
X026544Y019493D01*
X026849Y019493D01*
X019688Y026655D01*
X019663Y026671D01*
X019643Y026699D01*
X019619Y026724D01*
X019607Y026751D01*
X019591Y026775D01*
X019586Y026795D01*
X019532Y026849D01*
X019490Y026951D01*
X019448Y026849D01*
X019296Y026697D01*
X019097Y026615D01*
X018882Y026615D01*
X018684Y026697D01*
X018532Y026849D01*
X018490Y026951D01*
X018448Y026849D01*
X018296Y026697D01*
X018097Y026615D01*
X017882Y026615D01*
X017684Y026697D01*
X017532Y026849D01*
X017450Y027048D01*
X017450Y027863D01*
X017532Y028061D01*
X017684Y028213D01*
X017882Y028295D01*
X017977Y028295D01*
X018070Y028388D01*
X018070Y031435D01*
X017675Y031435D01*
X017624Y031486D01*
X014323Y028186D01*
X014448Y028061D01*
X014490Y027959D01*
X014532Y028061D01*
X014684Y028213D01*
X014882Y028295D01*
X015097Y028295D01*
X015296Y028213D01*
X015448Y028061D01*
X015530Y027863D01*
X015530Y027674D01*
X015791Y027935D01*
X015970Y027935D01*
X015970Y027476D01*
X016010Y027476D01*
X016010Y027935D01*
X016189Y027935D01*
X016470Y027654D01*
X016470Y027475D01*
X016010Y027475D01*
X016010Y027435D01*
X016010Y026975D01*
X016189Y026975D01*
X016470Y027256D01*
X016470Y027435D01*
X016010Y027435D01*
X015970Y027435D01*
X015970Y026975D01*
X015791Y026975D01*
X015530Y027237D01*
X015530Y027048D01*
X015448Y026849D01*
X015296Y026697D01*
X015097Y026615D01*
X014882Y026615D01*
X014684Y026697D01*
X014532Y026849D01*
X014490Y026951D01*
X014448Y026849D01*
X014296Y026697D01*
X014097Y026615D01*
X013882Y026615D01*
X013826Y026639D01*
X013571Y026384D01*
X013454Y026335D01*
X013326Y026335D01*
X012676Y026335D01*
X012559Y026384D01*
X012469Y026474D01*
X012260Y026683D01*
X012097Y026615D01*
X011882Y026615D01*
X011684Y026697D01*
X011532Y026849D01*
X011490Y026951D01*
X011448Y026849D01*
X011296Y026697D01*
X011097Y026615D01*
X010882Y026615D01*
X010684Y026697D01*
X010532Y026849D01*
X010490Y026951D01*
X010448Y026849D01*
X010296Y026697D01*
X010097Y026615D01*
X009882Y026615D01*
X009684Y026697D01*
X009532Y026849D01*
X009490Y026951D01*
X009448Y026849D01*
X009296Y026697D01*
X009097Y026615D01*
X008882Y026615D01*
X008684Y026697D01*
X008532Y026849D01*
X008490Y026951D01*
X008448Y026849D01*
X008296Y026697D01*
X008097Y026615D01*
X007882Y026615D01*
X007684Y026697D01*
X007532Y026849D01*
X007490Y026951D01*
X007448Y026849D01*
X007296Y026697D01*
X007097Y026615D01*
X006882Y026615D01*
X006684Y026697D01*
X006532Y026849D01*
X006450Y027048D01*
X006450Y027863D01*
X006473Y027919D01*
X005319Y029074D01*
X005270Y029192D01*
X005270Y029319D01*
X005270Y033219D01*
X005319Y033337D01*
X005409Y033427D01*
X005759Y033777D01*
X005876Y033825D01*
X006004Y033825D01*
X006404Y033825D01*
X006521Y033777D01*
X006611Y033687D01*
X006874Y033424D01*
X006925Y033475D01*
X007355Y033475D01*
X007640Y033191D01*
X007925Y033475D01*
X008355Y033475D01*
X008640Y033191D01*
X008925Y033475D01*
X009355Y033475D01*
X009431Y033399D01*
X009669Y033637D01*
X009759Y033727D01*
X009876Y033775D01*
X010276Y033775D01*
X010404Y033775D01*
X010521Y033727D01*
X011021Y033227D01*
X011111Y033137D01*
X011160Y033019D01*
X011160Y028269D01*
X011296Y028213D01*
X011448Y028061D01*
X011490Y027959D01*
X011532Y028061D01*
X011684Y028213D01*
X011820Y028269D01*
X011820Y030419D01*
X011869Y030537D01*
X011959Y030627D01*
X015409Y034077D01*
X015526Y034125D01*
X015654Y034125D01*
X017804Y034125D01*
X017921Y034077D01*
X018011Y033987D01*
X018599Y033399D01*
X018675Y033475D01*
X019105Y033475D01*
X019390Y033191D01*
X019675Y033475D01*
X020105Y033475D01*
X020410Y033171D01*
X020410Y032740D01*
X020105Y032435D01*
X019675Y032435D01*
X019390Y032720D01*
X019125Y032455D01*
X019410Y032171D01*
X019410Y031740D01*
X019210Y031540D01*
X019210Y028249D01*
X019296Y028213D01*
X019448Y028061D01*
X019490Y027959D01*
X019532Y028061D01*
X019684Y028213D01*
X019820Y028269D01*
X019820Y028669D01*
X019869Y028787D01*
X019959Y028877D01*
X025159Y034077D01*
X025276Y034125D01*
X025404Y034125D01*
X027554Y034125D01*
X027671Y034077D01*
X027761Y033987D01*
X028349Y033399D01*
X028425Y033475D01*
X028855Y033475D01*
X029140Y033191D01*
X029425Y033475D01*
X029855Y033475D01*
X030160Y033171D01*
X030160Y032740D01*
X029855Y032435D01*
X029425Y032435D01*
X029140Y032720D01*
X028875Y032455D01*
X029160Y032171D01*
X029160Y031740D01*
X028855Y031435D01*
X028837Y031435D01*
X028811Y031374D01*
X026980Y029543D01*
X026980Y029468D01*
X026913Y029306D01*
X026789Y029182D01*
X026627Y029115D01*
X026460Y029115D01*
X026460Y028636D01*
X026602Y028695D01*
X026677Y028695D01*
X029477Y031495D01*
X029449Y031495D01*
X029180Y031765D01*
X029180Y031945D01*
X029630Y031945D01*
X029630Y031965D01*
X029180Y031965D01*
X029180Y032146D01*
X029449Y032415D01*
X029630Y032415D01*
X029630Y031966D01*
X029650Y031966D01*
X029650Y032415D01*
X029830Y032415D01*
X030100Y032146D01*
X030100Y032118D01*
X032309Y034327D01*
X032426Y034375D01*
X032554Y034375D01*
X034304Y034375D01*
X034421Y034327D01*
X034511Y034237D01*
X034755Y033992D01*
X034882Y034045D01*
X035097Y034045D01*
X035296Y033963D01*
X035448Y033811D01*
X035490Y033709D01*
X035532Y033811D01*
X035684Y033963D01*
X035882Y034045D01*
X036097Y034045D01*
X036296Y033963D01*
X036448Y033811D01*
X036530Y033613D01*
X036530Y032798D01*
X036448Y032599D01*
X036354Y032505D01*
X036448Y032411D01*
X036530Y032213D01*
X036530Y031398D01*
X036448Y031199D01*
X036354Y031105D01*
X036448Y031011D01*
X036530Y030813D01*
X036530Y029998D01*
X036448Y029799D01*
X036354Y029705D01*
X036448Y029611D01*
X036530Y029413D01*
X036530Y028598D01*
X036448Y028399D01*
X036296Y028247D01*
X036097Y028165D01*
X035882Y028165D01*
X035826Y028189D01*
X034280Y026643D01*
X034280Y026568D01*
X034213Y026406D01*
X034089Y026282D01*
X033927Y026215D01*
X033752Y026215D01*
X033591Y026282D01*
X033467Y026406D01*
X033455Y026435D01*
X033455Y025383D01*
X033399Y025249D01*
X033297Y025146D01*
X032605Y024454D01*
X032605Y022320D01*
X033113Y022320D01*
X033247Y022265D01*
X033349Y022162D01*
X037547Y017965D01*
X037649Y017862D01*
X037705Y017728D01*
X037705Y016349D01*
X037713Y016340D01*
X037728Y016295D01*
X037749Y016254D01*
X037750Y016242D01*
X037930Y016062D01*
X037930Y015449D01*
X037496Y015015D01*
X036883Y015015D01*
X036450Y015449D01*
X036450Y016062D01*
X036883Y016495D01*
X036975Y016495D01*
X036975Y017504D01*
X033231Y021249D01*
X033213Y021206D01*
X033089Y021082D01*
X032927Y021015D01*
X032852Y021015D01*
X032711Y020874D01*
X032621Y020784D01*
X032510Y020738D01*
X032510Y014119D01*
X032510Y013992D01*
X032510Y013141D01*
X032638Y013141D01*
X032727Y013105D01*
X032794Y013037D01*
X032831Y012949D01*
X032831Y012027D01*
X032794Y011939D01*
X032727Y011871D01*
X032638Y011835D01*
X031716Y011835D01*
X031628Y011871D01*
X031560Y011939D01*
X031524Y012027D01*
X031524Y012949D01*
X031560Y013037D01*
X031628Y013105D01*
X031716Y013141D01*
X031870Y013141D01*
X031870Y013735D01*
X023176Y013735D01*
X023770Y013141D01*
X024060Y013141D01*
X024083Y013165D01*
X024086Y013166D01*
X024089Y013168D01*
X024154Y013194D01*
X024217Y013220D01*
X024221Y013220D01*
X024224Y013221D01*
X024294Y013220D01*
X024539Y013220D01*
X024730Y013412D01*
X024833Y013515D01*
X024967Y013570D01*
X026417Y013570D01*
X026563Y013570D01*
X026697Y013515D01*
X027070Y013141D01*
X027678Y013141D01*
X027766Y013105D01*
X027834Y013037D01*
X027870Y012949D01*
X027870Y012027D01*
X027834Y011939D01*
X027766Y011871D01*
X027678Y011835D01*
X026756Y011835D01*
X026667Y011871D01*
X026600Y011939D01*
X026563Y012027D01*
X026563Y012615D01*
X026533Y012645D01*
X026532Y012647D01*
X026339Y012840D01*
X026156Y012840D01*
X026156Y012546D01*
X025621Y012546D01*
X025621Y012430D01*
X025621Y011895D01*
X026051Y011895D01*
X026156Y012000D01*
X026156Y012430D01*
X025621Y012430D01*
X025505Y012430D01*
X024970Y012430D01*
X024970Y012000D01*
X025075Y011895D01*
X025505Y011895D01*
X025505Y012430D01*
X025505Y012546D01*
X024970Y012546D01*
X024970Y012619D01*
X024897Y012546D01*
X024763Y012490D01*
X024617Y012490D01*
X024563Y012490D01*
X024563Y012027D01*
X024526Y011939D01*
X024459Y011871D01*
X024371Y011835D01*
X023448Y011835D01*
X023360Y011871D01*
X023293Y011939D01*
X023256Y012027D01*
X023256Y012623D01*
X023231Y012648D01*
X023231Y012648D01*
X022689Y013190D01*
X017510Y013190D01*
X017530Y013143D01*
X017530Y012968D01*
X017463Y012806D01*
X017339Y012682D01*
X017177Y012615D01*
X017002Y012615D01*
X016841Y012682D01*
X016788Y012735D01*
X016162Y012735D01*
X016180Y012693D01*
X016180Y012518D01*
X016113Y012356D01*
X016060Y012303D01*
X016060Y011558D01*
X016113Y011504D01*
X016180Y011343D01*
X016180Y011168D01*
X016113Y011006D01*
X015989Y010882D01*
X015827Y010815D01*
X015652Y010815D01*
X015491Y010882D01*
X015367Y011006D01*
X015300Y011168D01*
X015300Y011343D01*
X015367Y011504D01*
X015420Y011558D01*
X015420Y012303D01*
X015367Y012356D01*
X015360Y012373D01*
X014230Y011243D01*
X014230Y011168D01*
X014163Y011006D01*
X014039Y010882D01*
X013877Y010815D01*
X013702Y010815D01*
X013541Y010882D01*
X013510Y010913D01*
X013510Y010247D01*
X013591Y010328D01*
X013752Y010395D01*
X013927Y010395D01*
X014089Y010328D01*
X014142Y010275D01*
X016026Y010275D01*
X016051Y010275D01*
X016028Y010363D01*
X016028Y010645D01*
X016101Y010917D01*
X016242Y011161D01*
X016441Y011360D01*
X016685Y011501D01*
X016958Y011574D01*
X017240Y011574D01*
X017512Y011501D01*
X017756Y011360D01*
X017955Y011161D01*
X018096Y010917D01*
X018169Y010645D01*
X018169Y010363D01*
X018096Y010090D01*
X017955Y009846D01*
X017834Y009725D01*
X017857Y009725D01*
X018275Y010143D01*
X018279Y010151D01*
X018296Y010166D01*
X018296Y010784D01*
X018332Y010872D01*
X018400Y010939D01*
X018488Y010976D01*
X019410Y010976D01*
X019498Y010939D01*
X019566Y010872D01*
X019602Y010784D01*
X019602Y009861D01*
X019566Y009773D01*
X019498Y009706D01*
X019410Y009669D01*
X018706Y009669D01*
X018171Y009134D01*
X018054Y009085D01*
X017926Y009085D01*
X016576Y009085D01*
X016459Y009134D01*
X016369Y009224D01*
X016369Y009224D01*
X015957Y009635D01*
X014142Y009635D01*
X014089Y009582D01*
X013927Y009515D01*
X013752Y009515D01*
X013591Y009582D01*
X013510Y009663D01*
X013510Y008058D01*
X013563Y008004D01*
X013630Y007843D01*
X013630Y007668D01*
X013563Y007506D01*
X013439Y007382D01*
X013277Y007315D01*
X013102Y007315D01*
X012941Y007382D01*
X012817Y007506D01*
X012750Y007668D01*
X012750Y007843D01*
X012817Y008004D01*
X012870Y008058D01*
X012870Y012303D01*
X012817Y012356D01*
X012750Y012518D01*
X012750Y012693D01*
X012817Y012854D01*
X012941Y012978D01*
X013102Y013045D01*
X013277Y013045D01*
X013439Y012978D01*
X013563Y012854D01*
X013630Y012693D01*
X013630Y012518D01*
X013563Y012356D01*
X013510Y012303D01*
X013510Y011597D01*
X013541Y011628D01*
X013702Y011695D01*
X013777Y011695D01*
X015272Y013190D01*
X011117Y013190D01*
X010983Y013246D01*
X010880Y013349D01*
X010314Y013915D01*
X010302Y013915D01*
X010141Y013982D01*
X010017Y014106D01*
X009950Y014268D01*
X009950Y014443D01*
X010017Y014604D01*
X010141Y014728D01*
X010302Y014795D01*
X010477Y014795D01*
X010639Y014728D01*
X010763Y014604D01*
X010765Y014599D01*
X010845Y014792D01*
X011041Y014988D01*
X011297Y015094D01*
X011574Y015094D01*
X011830Y014988D01*
X012026Y014792D01*
X012132Y014536D01*
X012132Y014259D01*
X012026Y014003D01*
X011943Y013920D01*
X013522Y013920D01*
X011240Y016203D01*
X010721Y015684D01*
X010604Y015635D01*
X010476Y015635D01*
X004176Y015635D01*
X004059Y015684D01*
X003969Y015774D01*
X002419Y017324D01*
X002370Y017442D01*
X002370Y017569D01*
X002370Y017969D01*
X002419Y018087D01*
X002509Y018177D01*
X003070Y018738D01*
X003070Y020840D01*
X002970Y020940D01*
X002970Y021371D01*
X003255Y021655D01*
X002970Y021940D01*
X002970Y022371D01*
X003275Y022675D01*
X003705Y022675D01*
X003990Y022391D01*
X004255Y022655D01*
X003970Y022940D01*
X003970Y023371D01*
X003985Y023385D01*
X003910Y023385D01*
X003950Y023346D01*
X003950Y023165D01*
X003500Y023165D01*
X003500Y023145D01*
X003500Y022695D01*
X003680Y022695D01*
X003950Y022965D01*
X003950Y023145D01*
X003500Y023145D01*
X003480Y023145D01*
X003480Y022695D01*
X003299Y022695D01*
X003030Y022965D01*
X003030Y023145D01*
X003480Y023145D01*
X003480Y023165D01*
X003030Y023165D01*
X003030Y023346D01*
X003069Y023385D01*
X002084Y023385D01*
X001946Y023247D01*
X001844Y023205D01*
X001946Y023163D01*
X002098Y023011D01*
X002180Y022813D01*
X002180Y022598D01*
X002098Y022399D01*
X001946Y022247D01*
X001765Y022173D01*
X001912Y022112D01*
X002047Y021977D01*
X002120Y021801D01*
X002120Y021725D01*
X001360Y021725D01*
X001360Y021685D01*
X001360Y021225D01*
X001735Y021225D01*
X001912Y021298D01*
X002047Y021433D01*
X002120Y021610D01*
X002120Y021685D01*
X001360Y021685D01*
X001320Y021685D01*
X001320Y021225D01*
X001085Y021225D01*
X001085Y021185D01*
X001320Y021185D01*
X001320Y020726D01*
X001360Y020726D01*
X001360Y021185D01*
X001735Y021185D01*
X001912Y021112D01*
X002047Y020977D01*
X002120Y020801D01*
X002120Y020725D01*
X001360Y020725D01*
X001360Y020685D01*
X001360Y020225D01*
X001735Y020225D01*
X001912Y020298D01*
X002047Y020433D01*
X002120Y020610D01*
X002120Y020685D01*
X001360Y020685D01*
X001320Y020685D01*
X001320Y020225D01*
X001085Y020225D01*
X001085Y020188D02*
X003070Y020188D01*
X003070Y020346D02*
X001960Y020346D01*
X002076Y020505D02*
X003070Y020505D01*
X003070Y020663D02*
X002120Y020663D01*
X002111Y020822D02*
X003070Y020822D01*
X002970Y020980D02*
X002044Y020980D01*
X001847Y021139D02*
X002970Y021139D01*
X002970Y021298D02*
X001910Y021298D01*
X002056Y021456D02*
X003055Y021456D01*
X003214Y021615D02*
X002120Y021615D01*
X002120Y021773D02*
X003137Y021773D01*
X002978Y021932D02*
X002066Y021932D01*
X001934Y022090D02*
X002970Y022090D01*
X002970Y022249D02*
X001947Y022249D01*
X002101Y022407D02*
X003007Y022407D01*
X003165Y022566D02*
X002167Y022566D01*
X002180Y022724D02*
X003270Y022724D01*
X003480Y022724D02*
X003500Y022724D01*
X003500Y022883D02*
X003480Y022883D01*
X003480Y023042D02*
X003500Y023042D01*
X003710Y022724D02*
X004185Y022724D01*
X004165Y022566D02*
X003815Y022566D01*
X003973Y022407D02*
X004007Y022407D01*
X004027Y022883D02*
X003868Y022883D01*
X003950Y023042D02*
X003970Y023042D01*
X003970Y023200D02*
X003950Y023200D01*
X003937Y023359D02*
X003970Y023359D01*
X003043Y023359D02*
X002057Y023359D01*
X001856Y023200D02*
X003030Y023200D01*
X003030Y023042D02*
X002067Y023042D01*
X002151Y022883D02*
X003112Y022883D01*
X001340Y023705D02*
X010690Y023705D01*
X015340Y018905D01*
X017340Y018905D01*
X017778Y018919D02*
X018797Y018919D01*
X018982Y018919D02*
X026201Y018919D01*
X026352Y019078D02*
X019232Y019078D01*
X019315Y019236D02*
X026352Y019236D01*
X026394Y019395D02*
X019328Y019395D01*
X019282Y019554D02*
X026789Y019554D01*
X026631Y019712D02*
X019153Y019712D01*
X018890Y019355D02*
X015740Y019355D01*
X010540Y024555D01*
X001890Y024555D01*
X001340Y024705D01*
X002006Y025103D02*
X021240Y025103D01*
X021081Y025261D02*
X001959Y025261D01*
X002106Y025420D02*
X003662Y025420D01*
X003684Y025397D02*
X003882Y025315D01*
X004697Y025315D01*
X004896Y025397D01*
X005048Y025549D01*
X005130Y025748D01*
X005130Y025963D01*
X005048Y026161D01*
X004896Y026313D01*
X004794Y026355D01*
X004896Y026397D01*
X005048Y026549D01*
X005130Y026748D01*
X005130Y026963D01*
X005048Y027161D01*
X004896Y027313D01*
X004697Y027395D01*
X003882Y027395D01*
X003684Y027313D01*
X003532Y027161D01*
X003450Y026963D01*
X003450Y026748D01*
X003532Y026549D01*
X003684Y026397D01*
X003786Y026355D01*
X003684Y026313D01*
X003532Y026161D01*
X003450Y025963D01*
X003450Y025748D01*
X003532Y025549D01*
X003684Y025397D01*
X003520Y025578D02*
X002172Y025578D01*
X002180Y025737D02*
X003454Y025737D01*
X003450Y025895D02*
X002146Y025895D01*
X002055Y026054D02*
X003488Y026054D01*
X003583Y026212D02*
X001827Y026212D01*
X001085Y026371D02*
X003748Y026371D01*
X003552Y026529D02*
X001085Y026529D01*
X001085Y026688D02*
X003475Y026688D01*
X003450Y026847D02*
X001085Y026847D01*
X001085Y027005D02*
X003468Y027005D01*
X003535Y027164D02*
X001085Y027164D01*
X001085Y027322D02*
X003706Y027322D01*
X004874Y027322D02*
X006450Y027322D01*
X006450Y027164D02*
X005045Y027164D01*
X005112Y027005D02*
X006468Y027005D01*
X006535Y026847D02*
X005130Y026847D01*
X005105Y026688D02*
X006707Y026688D01*
X007273Y026688D02*
X007707Y026688D01*
X007535Y026847D02*
X007445Y026847D01*
X007990Y027455D02*
X008140Y028005D01*
X008140Y031955D01*
X007757Y031603D02*
X007438Y031603D01*
X007330Y031495D02*
X007600Y031765D01*
X007600Y031945D01*
X007150Y031945D01*
X007150Y031495D01*
X007330Y031495D01*
X007130Y031495D02*
X007130Y031945D01*
X007150Y031945D01*
X007150Y031965D01*
X007600Y031965D01*
X007600Y032146D01*
X007330Y032415D01*
X007150Y032415D01*
X007150Y031966D01*
X007130Y031966D01*
X007130Y032415D01*
X006949Y032415D01*
X006680Y032146D01*
X006680Y031965D01*
X007130Y031965D01*
X007130Y031945D01*
X006680Y031945D01*
X006680Y031765D01*
X006949Y031495D01*
X007130Y031495D01*
X007130Y031603D02*
X007150Y031603D01*
X007150Y031761D02*
X007130Y031761D01*
X007130Y031920D02*
X007150Y031920D01*
X007150Y032079D02*
X007130Y032079D01*
X007130Y032237D02*
X007150Y032237D01*
X007150Y032396D02*
X007130Y032396D01*
X006930Y032396D02*
X006350Y032396D01*
X006330Y032415D02*
X006150Y032415D01*
X006150Y031966D01*
X006130Y031966D01*
X006130Y032415D01*
X005949Y032415D01*
X005910Y032376D01*
X005910Y032535D01*
X005949Y032495D01*
X006130Y032495D01*
X006130Y032945D01*
X006150Y032945D01*
X006150Y032495D01*
X006330Y032495D01*
X006600Y032765D01*
X006600Y032793D01*
X006609Y032784D01*
X006620Y032779D01*
X006620Y032740D01*
X006925Y032435D01*
X007355Y032435D01*
X007640Y032720D01*
X007905Y032455D01*
X007620Y032171D01*
X007620Y031740D01*
X007820Y031540D01*
X007820Y028269D01*
X007684Y028213D01*
X007532Y028061D01*
X007490Y027959D01*
X007448Y028061D01*
X007296Y028213D01*
X007097Y028295D01*
X007002Y028295D01*
X005910Y029388D01*
X005910Y031535D01*
X005949Y031495D01*
X006130Y031495D01*
X006130Y031945D01*
X006150Y031945D01*
X006150Y031495D01*
X006330Y031495D01*
X006600Y031765D01*
X006600Y031945D01*
X006150Y031945D01*
X006150Y031965D01*
X006600Y031965D01*
X006600Y032146D01*
X006330Y032415D01*
X006389Y032554D02*
X006806Y032554D01*
X006647Y032713D02*
X006548Y032713D01*
X006150Y032713D02*
X006130Y032713D01*
X006130Y032871D02*
X006150Y032871D01*
X006130Y032554D02*
X006150Y032554D01*
X006150Y032396D02*
X006130Y032396D01*
X006130Y032237D02*
X006150Y032237D01*
X006150Y032079D02*
X006130Y032079D01*
X006130Y031920D02*
X006150Y031920D01*
X006150Y031761D02*
X006130Y031761D01*
X006130Y031603D02*
X006150Y031603D01*
X005910Y031444D02*
X007820Y031444D01*
X007820Y031286D02*
X005910Y031286D01*
X005910Y031127D02*
X007820Y031127D01*
X007820Y030969D02*
X005910Y030969D01*
X005910Y030810D02*
X007820Y030810D01*
X007820Y030652D02*
X005910Y030652D01*
X005910Y030493D02*
X007820Y030493D01*
X007820Y030335D02*
X005910Y030335D01*
X005910Y030176D02*
X007820Y030176D01*
X007820Y030017D02*
X005910Y030017D01*
X005910Y029859D02*
X007820Y029859D01*
X007820Y029700D02*
X005910Y029700D01*
X005910Y029542D02*
X007820Y029542D01*
X007820Y029383D02*
X005914Y029383D01*
X006073Y029225D02*
X007820Y029225D01*
X007820Y029066D02*
X006232Y029066D01*
X006390Y028908D02*
X007820Y028908D01*
X007820Y028749D02*
X006549Y028749D01*
X006707Y028591D02*
X007820Y028591D01*
X007820Y028432D02*
X006866Y028432D01*
X007150Y028273D02*
X007820Y028273D01*
X007586Y028115D02*
X007394Y028115D01*
X006840Y028005D02*
X006990Y027455D01*
X006450Y027481D02*
X001085Y027481D01*
X001085Y027639D02*
X006450Y027639D01*
X006450Y027798D02*
X001085Y027798D01*
X001085Y027956D02*
X006436Y027956D01*
X006278Y028115D02*
X001085Y028115D01*
X001085Y028273D02*
X006119Y028273D01*
X005961Y028432D02*
X001085Y028432D01*
X001085Y028591D02*
X005802Y028591D01*
X005644Y028749D02*
X001085Y028749D01*
X001085Y028908D02*
X005485Y028908D01*
X005326Y029066D02*
X001085Y029066D01*
X001085Y029225D02*
X005270Y029225D01*
X005270Y029383D02*
X001085Y029383D01*
X001085Y029542D02*
X005270Y029542D01*
X005270Y029700D02*
X001085Y029700D01*
X001085Y029859D02*
X005270Y029859D01*
X005270Y030017D02*
X001085Y030017D01*
X001085Y030176D02*
X005270Y030176D01*
X005270Y030335D02*
X001085Y030335D01*
X001085Y030493D02*
X005270Y030493D01*
X005270Y030652D02*
X001085Y030652D01*
X001085Y030810D02*
X005270Y030810D01*
X005270Y030969D02*
X001085Y030969D01*
X001085Y031127D02*
X005270Y031127D01*
X005270Y031286D02*
X001085Y031286D01*
X001085Y031444D02*
X005270Y031444D01*
X005270Y031603D02*
X001085Y031603D01*
X001085Y031761D02*
X005270Y031761D01*
X005270Y031920D02*
X001085Y031920D01*
X001085Y032079D02*
X005270Y032079D01*
X005270Y032237D02*
X001085Y032237D01*
X001085Y032396D02*
X001667Y032396D01*
X001332Y032554D02*
X001085Y032554D01*
X001085Y032713D02*
X001134Y032713D01*
X002861Y032396D02*
X005270Y032396D01*
X005270Y032554D02*
X003136Y032554D01*
X003353Y032713D02*
X005270Y032713D01*
X005270Y032871D02*
X003500Y032871D01*
X003638Y033030D02*
X005270Y033030D01*
X005270Y033188D02*
X003714Y033188D01*
X003791Y033347D02*
X005329Y033347D01*
X005487Y033505D02*
X003852Y033505D01*
X003876Y033664D02*
X005646Y033664D01*
X005870Y033822D02*
X003900Y033822D01*
X003916Y033981D02*
X015313Y033981D01*
X015155Y033822D02*
X006410Y033822D01*
X006634Y033664D02*
X009696Y033664D01*
X009538Y033505D02*
X006792Y033505D01*
X006790Y033055D02*
X006340Y033505D01*
X005940Y033505D01*
X005590Y033155D01*
X005590Y029255D01*
X006840Y028005D01*
X008273Y026688D02*
X008707Y026688D01*
X008535Y026847D02*
X008445Y026847D01*
X009273Y026688D02*
X009707Y026688D01*
X009535Y026847D02*
X009445Y026847D01*
X009990Y027455D02*
X009840Y028005D01*
X009240Y028605D01*
X009240Y031705D01*
X009140Y031955D01*
X009660Y031920D02*
X009680Y031920D01*
X009680Y031945D02*
X009680Y031765D01*
X009949Y031495D01*
X010130Y031495D01*
X010130Y031945D01*
X010150Y031945D01*
X010150Y031495D01*
X010330Y031495D01*
X010520Y031685D01*
X010520Y028032D01*
X010490Y027959D01*
X010448Y028061D01*
X010296Y028213D01*
X010097Y028295D01*
X010002Y028295D01*
X009560Y028738D01*
X009560Y031640D01*
X009660Y031740D01*
X009660Y032171D01*
X009375Y032455D01*
X009640Y032720D01*
X009925Y032435D01*
X010355Y032435D01*
X010520Y032600D01*
X010520Y032226D01*
X010330Y032415D01*
X010150Y032415D01*
X010150Y031966D01*
X010130Y031966D01*
X010130Y032415D01*
X009949Y032415D01*
X009680Y032146D01*
X009680Y031965D01*
X010130Y031965D01*
X010130Y031945D01*
X009680Y031945D01*
X009680Y032079D02*
X009660Y032079D01*
X009593Y032237D02*
X009771Y032237D01*
X009930Y032396D02*
X009435Y032396D01*
X009474Y032554D02*
X009806Y032554D01*
X009647Y032713D02*
X009633Y032713D01*
X009540Y033055D02*
X009390Y033055D01*
X009140Y032955D01*
X009540Y033055D02*
X009940Y033455D01*
X010340Y033455D01*
X010840Y032955D01*
X010840Y028005D01*
X010990Y027455D01*
X011445Y026847D02*
X011535Y026847D01*
X011707Y026688D02*
X011273Y026688D01*
X010707Y026688D02*
X010273Y026688D01*
X010445Y026847D02*
X010535Y026847D01*
X010520Y028115D02*
X010394Y028115D01*
X010520Y028273D02*
X010150Y028273D01*
X009866Y028432D02*
X010520Y028432D01*
X010520Y028591D02*
X009707Y028591D01*
X009560Y028749D02*
X010520Y028749D01*
X010520Y028908D02*
X009560Y028908D01*
X009560Y029066D02*
X010520Y029066D01*
X010520Y029225D02*
X009560Y029225D01*
X009560Y029383D02*
X010520Y029383D01*
X010520Y029542D02*
X009560Y029542D01*
X009560Y029700D02*
X010520Y029700D01*
X010520Y029859D02*
X009560Y029859D01*
X009560Y030017D02*
X010520Y030017D01*
X010520Y030176D02*
X009560Y030176D01*
X009560Y030335D02*
X010520Y030335D01*
X010520Y030493D02*
X009560Y030493D01*
X009560Y030652D02*
X010520Y030652D01*
X010520Y030810D02*
X009560Y030810D01*
X009560Y030969D02*
X010520Y030969D01*
X010520Y031127D02*
X009560Y031127D01*
X009560Y031286D02*
X010520Y031286D01*
X010520Y031444D02*
X009560Y031444D01*
X009560Y031603D02*
X009842Y031603D01*
X009683Y031761D02*
X009660Y031761D01*
X010130Y031761D02*
X010150Y031761D01*
X010150Y031603D02*
X010130Y031603D01*
X010438Y031603D02*
X010520Y031603D01*
X010150Y031920D02*
X010130Y031920D01*
X010130Y032079D02*
X010150Y032079D01*
X010150Y032237D02*
X010130Y032237D01*
X010130Y032396D02*
X010150Y032396D01*
X010350Y032396D02*
X010520Y032396D01*
X010520Y032554D02*
X010474Y032554D01*
X010509Y032237D02*
X010520Y032237D01*
X011160Y032237D02*
X013569Y032237D01*
X013411Y032079D02*
X011160Y032079D01*
X011160Y031920D02*
X013252Y031920D01*
X013094Y031761D02*
X011160Y031761D01*
X011160Y031603D02*
X012935Y031603D01*
X012776Y031444D02*
X011160Y031444D01*
X011160Y031286D02*
X012618Y031286D01*
X012459Y031127D02*
X011160Y031127D01*
X011160Y030969D02*
X012301Y030969D01*
X012142Y030810D02*
X011160Y030810D01*
X011160Y030652D02*
X011984Y030652D01*
X011851Y030493D02*
X011160Y030493D01*
X011160Y030335D02*
X011820Y030335D01*
X011820Y030176D02*
X011160Y030176D01*
X011160Y030017D02*
X011820Y030017D01*
X011820Y029859D02*
X011160Y029859D01*
X011160Y029700D02*
X011820Y029700D01*
X011820Y029542D02*
X011160Y029542D01*
X011160Y029383D02*
X011820Y029383D01*
X011820Y029225D02*
X011160Y029225D01*
X011160Y029066D02*
X011820Y029066D01*
X011820Y028908D02*
X011160Y028908D01*
X011160Y028749D02*
X011820Y028749D01*
X011820Y028591D02*
X011160Y028591D01*
X011160Y028432D02*
X011820Y028432D01*
X011820Y028273D02*
X011160Y028273D01*
X011394Y028115D02*
X011586Y028115D01*
X012140Y028005D02*
X011990Y027455D01*
X012490Y026905D02*
X012740Y026655D01*
X013390Y026655D01*
X013740Y027005D01*
X013990Y027455D01*
X014445Y026847D02*
X014535Y026847D01*
X014707Y026688D02*
X014273Y026688D01*
X013717Y026529D02*
X019813Y026529D01*
X019972Y026371D02*
X013540Y026371D01*
X012590Y026371D02*
X004832Y026371D01*
X004996Y026212D02*
X020130Y026212D01*
X020289Y026054D02*
X005092Y026054D01*
X005130Y025895D02*
X020447Y025895D01*
X020606Y025737D02*
X005125Y025737D01*
X005060Y025578D02*
X020764Y025578D01*
X020923Y025420D02*
X004918Y025420D01*
X005028Y026529D02*
X012413Y026529D01*
X012490Y026905D02*
X012490Y030305D01*
X015690Y033505D01*
X017040Y033505D01*
X017490Y033055D01*
X017640Y033055D01*
X017890Y032955D01*
X018390Y032755D02*
X018090Y032455D01*
X017690Y032455D01*
X017290Y032855D01*
X017140Y032855D01*
X016890Y032955D01*
X016556Y032554D02*
X016139Y032554D01*
X016080Y032495D02*
X016350Y032765D01*
X016350Y032945D01*
X015900Y032945D01*
X015900Y032495D01*
X016080Y032495D01*
X016080Y032415D02*
X015900Y032415D01*
X015900Y031966D01*
X015880Y031966D01*
X015880Y032415D01*
X015699Y032415D01*
X015430Y032146D01*
X015430Y031965D01*
X015880Y031965D01*
X015880Y031945D01*
X015900Y031945D01*
X015900Y031495D01*
X016080Y031495D01*
X016350Y031765D01*
X016350Y031945D01*
X015900Y031945D01*
X015900Y031965D01*
X016350Y031965D01*
X016350Y032146D01*
X016080Y032415D01*
X016100Y032396D02*
X016680Y032396D01*
X016699Y032415D02*
X016430Y032146D01*
X016430Y031965D01*
X016880Y031965D01*
X016880Y031945D01*
X016430Y031945D01*
X016430Y031765D01*
X016699Y031495D01*
X016727Y031495D01*
X013807Y028575D01*
X013654Y028575D01*
X013526Y028575D01*
X013409Y028527D01*
X013154Y028272D01*
X013097Y028295D01*
X012882Y028295D01*
X012810Y028265D01*
X012810Y030173D01*
X015430Y032793D01*
X015430Y032765D01*
X015699Y032495D01*
X015880Y032495D01*
X015880Y032945D01*
X015900Y032945D01*
X015900Y032965D01*
X016350Y032965D01*
X016350Y033146D01*
X016310Y033185D01*
X016385Y033185D01*
X016370Y033171D01*
X016370Y032740D01*
X016675Y032435D01*
X017105Y032435D01*
X017181Y032511D01*
X017419Y032274D01*
X017446Y032247D01*
X017370Y032171D01*
X017370Y032131D01*
X017359Y032127D01*
X017350Y032118D01*
X017350Y032146D01*
X017080Y032415D01*
X016900Y032415D01*
X016900Y031966D01*
X016880Y031966D01*
X016880Y032415D01*
X016699Y032415D01*
X016880Y032396D02*
X016900Y032396D01*
X016900Y032237D02*
X016880Y032237D01*
X016880Y032079D02*
X016900Y032079D01*
X017100Y032396D02*
X017297Y032396D01*
X017259Y032237D02*
X017436Y032237D01*
X017419Y032274D02*
X017419Y032274D01*
X017540Y031855D02*
X013940Y028255D01*
X013590Y028255D01*
X013240Y027905D01*
X012990Y027455D01*
X012140Y028005D02*
X012140Y030355D01*
X015590Y033805D01*
X017740Y033805D01*
X018390Y033155D01*
X018390Y032755D01*
X018790Y032705D02*
X018890Y032955D01*
X018790Y032705D02*
X018790Y032555D01*
X018390Y032155D01*
X018390Y028255D01*
X018140Y028005D01*
X017990Y027455D01*
X017450Y027481D02*
X016470Y027481D01*
X016470Y027639D02*
X017450Y027639D01*
X017450Y027798D02*
X016326Y027798D01*
X016010Y027798D02*
X015970Y027798D01*
X015970Y027639D02*
X016010Y027639D01*
X016010Y027481D02*
X015970Y027481D01*
X015970Y027322D02*
X016010Y027322D01*
X016010Y027164D02*
X015970Y027164D01*
X015970Y027005D02*
X016010Y027005D01*
X016219Y027005D02*
X017468Y027005D01*
X017450Y027164D02*
X016377Y027164D01*
X016470Y027322D02*
X017450Y027322D01*
X017535Y026847D02*
X015445Y026847D01*
X015512Y027005D02*
X015761Y027005D01*
X015603Y027164D02*
X015530Y027164D01*
X015530Y027798D02*
X015654Y027798D01*
X015491Y027956D02*
X017489Y027956D01*
X017586Y028115D02*
X015394Y028115D01*
X015150Y028273D02*
X017830Y028273D01*
X018070Y028432D02*
X014569Y028432D01*
X014411Y028273D02*
X014830Y028273D01*
X014586Y028115D02*
X014394Y028115D01*
X014728Y028591D02*
X018070Y028591D01*
X018070Y028749D02*
X014886Y028749D01*
X015045Y028908D02*
X018070Y028908D01*
X018070Y029066D02*
X015203Y029066D01*
X015362Y029225D02*
X018070Y029225D01*
X018070Y029383D02*
X015520Y029383D01*
X015679Y029542D02*
X018070Y029542D01*
X018070Y029700D02*
X015838Y029700D01*
X015996Y029859D02*
X018070Y029859D01*
X018070Y030017D02*
X016155Y030017D01*
X016313Y030176D02*
X018070Y030176D01*
X018070Y030335D02*
X016472Y030335D01*
X016630Y030493D02*
X018070Y030493D01*
X018070Y030652D02*
X016789Y030652D01*
X016947Y030810D02*
X018070Y030810D01*
X018070Y030969D02*
X017106Y030969D01*
X017264Y031127D02*
X018070Y031127D01*
X018070Y031286D02*
X017423Y031286D01*
X017581Y031444D02*
X017665Y031444D01*
X017640Y031855D02*
X017890Y031955D01*
X017640Y031855D02*
X017540Y031855D01*
X016676Y031444D02*
X014081Y031444D01*
X013923Y031286D02*
X016518Y031286D01*
X016359Y031127D02*
X013764Y031127D01*
X013606Y030969D02*
X016201Y030969D01*
X016042Y030810D02*
X013447Y030810D01*
X013289Y030652D02*
X015884Y030652D01*
X015725Y030493D02*
X013130Y030493D01*
X012972Y030335D02*
X015567Y030335D01*
X015408Y030176D02*
X012813Y030176D01*
X012810Y030017D02*
X015250Y030017D01*
X015091Y029859D02*
X012810Y029859D01*
X012810Y029700D02*
X014932Y029700D01*
X014774Y029542D02*
X012810Y029542D01*
X012810Y029383D02*
X014615Y029383D01*
X014457Y029225D02*
X012810Y029225D01*
X012810Y029066D02*
X014298Y029066D01*
X014140Y028908D02*
X012810Y028908D01*
X012810Y028749D02*
X013981Y028749D01*
X013823Y028591D02*
X012810Y028591D01*
X012810Y028432D02*
X013314Y028432D01*
X013156Y028273D02*
X013150Y028273D01*
X012830Y028273D02*
X012810Y028273D01*
X015273Y026688D02*
X017707Y026688D01*
X018273Y026688D02*
X018707Y026688D01*
X018535Y026847D02*
X018445Y026847D01*
X018990Y027455D02*
X018890Y028005D01*
X018890Y031955D01*
X019273Y031603D02*
X019592Y031603D01*
X019699Y031495D02*
X019880Y031495D01*
X019880Y031945D01*
X019900Y031945D01*
X019900Y031495D01*
X020080Y031495D01*
X020350Y031765D01*
X020350Y031945D01*
X019900Y031945D01*
X019900Y031965D01*
X020350Y031965D01*
X020350Y032146D01*
X020080Y032415D01*
X019900Y032415D01*
X019900Y031966D01*
X019880Y031966D01*
X019880Y032415D01*
X019699Y032415D01*
X019430Y032146D01*
X019430Y031965D01*
X019880Y031965D01*
X019880Y031945D01*
X019430Y031945D01*
X019430Y031765D01*
X019699Y031495D01*
X019880Y031603D02*
X019900Y031603D01*
X019900Y031761D02*
X019880Y031761D01*
X019880Y031920D02*
X019900Y031920D01*
X019900Y032079D02*
X019880Y032079D01*
X019880Y032237D02*
X019900Y032237D01*
X019900Y032396D02*
X019880Y032396D01*
X019680Y032396D02*
X019185Y032396D01*
X019224Y032554D02*
X019556Y032554D01*
X019397Y032713D02*
X019383Y032713D01*
X019343Y032237D02*
X019521Y032237D01*
X019430Y032079D02*
X019410Y032079D01*
X019410Y031920D02*
X019430Y031920D01*
X019433Y031761D02*
X019410Y031761D01*
X019210Y031444D02*
X022526Y031444D01*
X022368Y031286D02*
X019210Y031286D01*
X019210Y031127D02*
X022209Y031127D01*
X022051Y030969D02*
X019210Y030969D01*
X019210Y030810D02*
X021892Y030810D01*
X021734Y030652D02*
X019210Y030652D01*
X019210Y030493D02*
X021575Y030493D01*
X021417Y030335D02*
X019210Y030335D01*
X019210Y030176D02*
X021258Y030176D01*
X021100Y030017D02*
X019210Y030017D01*
X019210Y029859D02*
X020941Y029859D01*
X020782Y029700D02*
X019210Y029700D01*
X019210Y029542D02*
X020624Y029542D01*
X020465Y029383D02*
X019210Y029383D01*
X019210Y029225D02*
X020307Y029225D01*
X020148Y029066D02*
X019210Y029066D01*
X019210Y028908D02*
X019990Y028908D01*
X019853Y028749D02*
X019210Y028749D01*
X019210Y028591D02*
X019820Y028591D01*
X019820Y028432D02*
X019210Y028432D01*
X019210Y028273D02*
X019820Y028273D01*
X019586Y028115D02*
X019394Y028115D01*
X020140Y028005D02*
X019990Y027455D01*
X019890Y026905D01*
X027790Y019005D01*
X028140Y019005D01*
X028390Y018905D01*
X028794Y019236D02*
X029071Y019236D01*
X029175Y019385D02*
X029605Y019385D01*
X029910Y019690D01*
X029910Y020121D01*
X029625Y020405D01*
X029905Y020685D01*
X030688Y020685D01*
X030741Y020632D01*
X030902Y020565D01*
X031077Y020565D01*
X031239Y020632D01*
X031363Y020756D01*
X031372Y020778D01*
X031476Y020735D01*
X031604Y020735D01*
X031870Y020735D01*
X031870Y014375D01*
X013972Y014375D01*
X013237Y015111D01*
X013289Y015132D01*
X013413Y015256D01*
X013480Y015418D01*
X013480Y015593D01*
X013413Y015754D01*
X013360Y015808D01*
X013360Y016762D01*
X013448Y016849D01*
X013490Y016951D01*
X013532Y016849D01*
X013684Y016697D01*
X013882Y016615D01*
X014097Y016615D01*
X014296Y016697D01*
X014448Y016849D01*
X014530Y017048D01*
X014530Y017152D01*
X014766Y016915D01*
X015214Y016915D01*
X015530Y017232D01*
X015530Y017443D01*
X016004Y017917D01*
X016077Y017917D01*
X016238Y017984D01*
X016339Y018085D01*
X017641Y018085D01*
X017583Y018027D01*
X017510Y017851D01*
X017510Y017475D01*
X017970Y017475D01*
X017970Y017435D01*
X018010Y017435D01*
X018010Y016675D01*
X018085Y016675D01*
X018262Y016748D01*
X018397Y016883D01*
X018470Y017060D01*
X018470Y017435D01*
X018010Y017435D01*
X018010Y017475D01*
X018470Y017475D01*
X018470Y017851D01*
X018397Y018027D01*
X018339Y018085D01*
X018641Y018085D01*
X018583Y018027D01*
X018510Y017851D01*
X018510Y017475D01*
X018970Y017475D01*
X018970Y017435D01*
X019010Y017435D01*
X019010Y016675D01*
X019085Y016675D01*
X019262Y016748D01*
X019397Y016883D01*
X019457Y017030D01*
X019532Y016849D01*
X019684Y016697D01*
X019882Y016615D01*
X020097Y016615D01*
X020296Y016697D01*
X020448Y016849D01*
X020490Y016951D01*
X020532Y016849D01*
X020684Y016697D01*
X020882Y016615D01*
X021097Y016615D01*
X021296Y016697D01*
X021448Y016849D01*
X021490Y016951D01*
X021532Y016849D01*
X021684Y016697D01*
X021882Y016615D01*
X022097Y016615D01*
X022296Y016697D01*
X022448Y016849D01*
X022490Y016951D01*
X022532Y016849D01*
X022684Y016697D01*
X022882Y016615D01*
X023097Y016615D01*
X023296Y016697D01*
X023448Y016849D01*
X023490Y016951D01*
X023532Y016849D01*
X023684Y016697D01*
X023882Y016615D01*
X024097Y016615D01*
X024296Y016697D01*
X024448Y016849D01*
X024490Y016951D01*
X024532Y016849D01*
X024684Y016697D01*
X024882Y016615D01*
X025097Y016615D01*
X025296Y016697D01*
X025448Y016849D01*
X025490Y016951D01*
X025532Y016849D01*
X025684Y016697D01*
X025882Y016615D01*
X026097Y016615D01*
X026296Y016697D01*
X026448Y016849D01*
X026530Y017048D01*
X026530Y017863D01*
X026448Y018061D01*
X026348Y018161D01*
X026804Y018617D01*
X027036Y018617D01*
X027124Y018654D01*
X027191Y018721D01*
X027228Y018809D01*
X027228Y019115D01*
X027609Y018734D01*
X027726Y018685D01*
X027854Y018685D01*
X027875Y018685D01*
X028175Y018385D01*
X028605Y018385D01*
X028910Y018690D01*
X028910Y019121D01*
X028625Y019405D01*
X028890Y019670D01*
X029175Y019385D01*
X029165Y019395D02*
X028635Y019395D01*
X028774Y019554D02*
X029006Y019554D01*
X029199Y019365D02*
X028930Y019096D01*
X028930Y018915D01*
X029380Y018915D01*
X029380Y018895D01*
X029400Y018895D01*
X029400Y018445D01*
X029580Y018445D01*
X029850Y018715D01*
X029850Y018895D01*
X029400Y018895D01*
X029400Y018915D01*
X029850Y018915D01*
X029850Y019096D01*
X029580Y019365D01*
X029400Y019365D01*
X029400Y018916D01*
X029380Y018916D01*
X029380Y019365D01*
X029199Y019365D01*
X029380Y019236D02*
X029400Y019236D01*
X029400Y019078D02*
X029380Y019078D01*
X029380Y018919D02*
X029400Y018919D01*
X029380Y018895D02*
X028930Y018895D01*
X028930Y018715D01*
X029199Y018445D01*
X029380Y018445D01*
X029380Y018895D01*
X029380Y018761D02*
X029400Y018761D01*
X029400Y018602D02*
X029380Y018602D01*
X029042Y018602D02*
X028822Y018602D01*
X028910Y018761D02*
X028930Y018761D01*
X028930Y018919D02*
X028910Y018919D01*
X028910Y019078D02*
X028930Y019078D01*
X028664Y018444D02*
X031870Y018444D01*
X031870Y018602D02*
X029737Y018602D01*
X029850Y018761D02*
X031870Y018761D01*
X031870Y018919D02*
X029850Y018919D01*
X029850Y019078D02*
X031870Y019078D01*
X031870Y019236D02*
X029709Y019236D01*
X029615Y019395D02*
X031870Y019395D01*
X031870Y019554D02*
X029774Y019554D01*
X029910Y019712D02*
X031870Y019712D01*
X031870Y019871D02*
X029910Y019871D01*
X029910Y020029D02*
X031870Y020029D01*
X031870Y020188D02*
X029843Y020188D01*
X029684Y020346D02*
X031870Y020346D01*
X031870Y020505D02*
X029725Y020505D01*
X029883Y020663D02*
X030710Y020663D01*
X030990Y021005D02*
X029640Y021005D01*
X029390Y020905D01*
X028890Y020705D02*
X028890Y021105D01*
X028490Y021505D01*
X028490Y021655D01*
X028390Y021905D01*
X028782Y022249D02*
X028998Y022249D01*
X028890Y022141D02*
X028625Y022405D01*
X028910Y022690D01*
X028910Y023121D01*
X028605Y023425D01*
X028175Y023425D01*
X028075Y023325D01*
X027372Y023325D01*
X024082Y026615D01*
X024097Y026615D01*
X024296Y026697D01*
X024448Y026849D01*
X024490Y026951D01*
X024532Y026849D01*
X024684Y026697D01*
X024882Y026615D01*
X025097Y026615D01*
X025260Y026683D01*
X025469Y026474D01*
X025559Y026384D01*
X025676Y026335D01*
X032288Y026335D01*
X032341Y026282D01*
X032502Y026215D01*
X032677Y026215D01*
X032725Y026235D01*
X032725Y026144D01*
X032577Y026205D01*
X031762Y026205D01*
X031564Y026123D01*
X031412Y025971D01*
X031330Y025773D01*
X031330Y025558D01*
X031412Y025359D01*
X031564Y025207D01*
X031762Y025125D01*
X032244Y025125D01*
X031930Y024812D01*
X031875Y024678D01*
X031875Y024533D01*
X031875Y022028D01*
X031875Y021883D01*
X031875Y021763D01*
X031867Y021754D01*
X031800Y021593D01*
X031800Y021418D01*
X031818Y021375D01*
X031672Y021375D01*
X031061Y021987D01*
X030971Y022077D01*
X030854Y022125D01*
X029905Y022125D01*
X029605Y022425D01*
X029175Y022425D01*
X028890Y022141D01*
X028627Y022407D02*
X029157Y022407D01*
X029199Y022445D02*
X028930Y022715D01*
X028930Y022895D01*
X029380Y022895D01*
X029400Y022895D01*
X029400Y022445D01*
X029580Y022445D01*
X029850Y022715D01*
X029850Y022895D01*
X029400Y022895D01*
X029400Y022915D01*
X029850Y022915D01*
X029850Y023096D01*
X029580Y023365D01*
X029400Y023365D01*
X029400Y022916D01*
X029380Y022916D01*
X029380Y023365D01*
X029199Y023365D01*
X028930Y023096D01*
X028930Y022915D01*
X029380Y022915D01*
X029380Y022895D01*
X029380Y022445D01*
X029199Y022445D01*
X029079Y022566D02*
X028786Y022566D01*
X028910Y022724D02*
X028930Y022724D01*
X028930Y022883D02*
X028910Y022883D01*
X028910Y023042D02*
X028930Y023042D01*
X028830Y023200D02*
X029034Y023200D01*
X029193Y023359D02*
X028672Y023359D01*
X028390Y022905D02*
X028140Y023005D01*
X027240Y023005D01*
X023240Y027005D01*
X022990Y027455D01*
X023490Y027959D02*
X023448Y028061D01*
X023296Y028213D01*
X023097Y028295D01*
X022882Y028295D01*
X022684Y028213D01*
X022532Y028061D01*
X022490Y027959D01*
X022460Y028032D01*
X022460Y030073D01*
X025180Y032793D01*
X025180Y032765D01*
X025449Y032495D01*
X025630Y032495D01*
X025630Y032945D01*
X025650Y032945D01*
X025650Y032495D01*
X025830Y032495D01*
X026100Y032765D01*
X026100Y032945D01*
X025650Y032945D01*
X025650Y032965D01*
X026100Y032965D01*
X026100Y033146D01*
X026060Y033185D01*
X026135Y033185D01*
X026120Y033171D01*
X026120Y032740D01*
X026425Y032435D01*
X026855Y032435D01*
X026931Y032511D01*
X027169Y032274D01*
X027196Y032247D01*
X027120Y032171D01*
X027120Y032038D01*
X027100Y032018D01*
X027100Y032146D01*
X026830Y032415D01*
X026650Y032415D01*
X026650Y031966D01*
X026630Y031966D01*
X026630Y032415D01*
X026449Y032415D01*
X026180Y032146D01*
X026180Y031965D01*
X026630Y031965D01*
X026630Y031945D01*
X026180Y031945D01*
X026180Y031765D01*
X026449Y031495D01*
X026577Y031495D01*
X025477Y030395D01*
X025402Y030395D01*
X025241Y030328D01*
X025117Y030204D01*
X025050Y030043D01*
X025050Y029868D01*
X025117Y029706D01*
X025241Y029582D01*
X025402Y029515D01*
X025577Y029515D01*
X025739Y029582D01*
X025820Y029663D01*
X025820Y028269D01*
X025684Y028213D01*
X025532Y028061D01*
X025490Y027959D01*
X025448Y028061D01*
X025296Y028213D01*
X025097Y028295D01*
X024882Y028295D01*
X024684Y028213D01*
X024532Y028061D01*
X024490Y027959D01*
X024448Y028061D01*
X024296Y028213D01*
X024097Y028295D01*
X023882Y028295D01*
X023684Y028213D01*
X023532Y028061D01*
X023490Y027959D01*
X023394Y028115D02*
X023586Y028115D01*
X023830Y028273D02*
X023150Y028273D01*
X022830Y028273D02*
X022460Y028273D01*
X022460Y028115D02*
X022586Y028115D01*
X022460Y028432D02*
X025820Y028432D01*
X025820Y028273D02*
X025150Y028273D01*
X025394Y028115D02*
X025586Y028115D01*
X026140Y028005D02*
X025990Y027455D01*
X026530Y027481D02*
X028830Y027481D01*
X028830Y027465D02*
X028830Y027541D01*
X028903Y027717D01*
X029038Y027852D01*
X029214Y027925D01*
X029590Y027925D01*
X029590Y027466D01*
X029630Y027466D01*
X029630Y027925D01*
X030005Y027925D01*
X030182Y027852D01*
X030317Y027717D01*
X030390Y027541D01*
X030390Y027465D01*
X029630Y027465D01*
X029630Y027425D01*
X030390Y027425D01*
X030390Y027350D01*
X030317Y027173D01*
X030182Y027038D01*
X030029Y026975D01*
X031750Y026975D01*
X031598Y027038D01*
X031463Y027173D01*
X031390Y027350D01*
X031390Y027425D01*
X032150Y027425D01*
X032150Y027465D01*
X031390Y027465D01*
X031390Y027541D01*
X031463Y027717D01*
X031598Y027852D01*
X031774Y027925D01*
X032150Y027925D01*
X032150Y027466D01*
X032190Y027466D01*
X032190Y027925D01*
X032565Y027925D01*
X032725Y027859D01*
X032725Y028231D01*
X032684Y028247D01*
X032532Y028399D01*
X032450Y028598D01*
X032450Y029413D01*
X032532Y029611D01*
X032626Y029705D01*
X032532Y029799D01*
X032450Y029998D01*
X032450Y030813D01*
X032532Y031011D01*
X032626Y031105D01*
X032532Y031199D01*
X032450Y031398D01*
X032450Y032213D01*
X032532Y032411D01*
X032626Y032505D01*
X032532Y032599D01*
X032450Y032798D01*
X032450Y033563D01*
X027130Y028243D01*
X027130Y028168D01*
X027063Y028006D01*
X026939Y027882D01*
X026777Y027815D01*
X026602Y027815D01*
X026530Y027845D01*
X026530Y027048D01*
X026500Y026975D01*
X029190Y026975D01*
X029038Y027038D01*
X028903Y027173D01*
X028830Y027350D01*
X028830Y027425D01*
X029590Y027425D01*
X029590Y027465D01*
X028830Y027465D01*
X028841Y027322D02*
X026530Y027322D01*
X026530Y027164D02*
X028913Y027164D01*
X029118Y027005D02*
X026512Y027005D01*
X026530Y027639D02*
X028871Y027639D01*
X028984Y027798D02*
X026530Y027798D01*
X026140Y028005D02*
X026140Y029755D01*
X028140Y031755D01*
X028140Y032155D01*
X028540Y032555D01*
X028540Y032705D01*
X028640Y032955D01*
X028984Y033347D02*
X029296Y033347D01*
X029984Y033347D02*
X031329Y033347D01*
X031488Y033505D02*
X028242Y033505D01*
X028084Y033664D02*
X031646Y033664D01*
X031805Y033822D02*
X027925Y033822D01*
X027767Y033981D02*
X031963Y033981D01*
X032122Y034140D02*
X003892Y034140D01*
X003868Y034298D02*
X032280Y034298D01*
X032490Y034055D02*
X026690Y028255D01*
X027013Y027956D02*
X032725Y027956D01*
X032725Y028115D02*
X027108Y028115D01*
X027161Y028273D02*
X032658Y028273D01*
X032519Y028432D02*
X027319Y028432D01*
X027478Y028591D02*
X032453Y028591D01*
X032450Y028749D02*
X027636Y028749D01*
X027795Y028908D02*
X032450Y028908D01*
X032450Y029066D02*
X027953Y029066D01*
X028112Y029225D02*
X032450Y029225D01*
X032450Y029383D02*
X028270Y029383D01*
X028429Y029542D02*
X032503Y029542D01*
X032621Y029700D02*
X028588Y029700D01*
X028746Y029859D02*
X032507Y029859D01*
X032450Y030017D02*
X028905Y030017D01*
X029063Y030176D02*
X032450Y030176D01*
X032450Y030335D02*
X029222Y030335D01*
X029380Y030493D02*
X032450Y030493D01*
X032450Y030652D02*
X029539Y030652D01*
X029697Y030810D02*
X032450Y030810D01*
X032515Y030969D02*
X029856Y030969D01*
X030014Y031127D02*
X032604Y031127D01*
X032496Y031286D02*
X030173Y031286D01*
X030331Y031444D02*
X032450Y031444D01*
X032450Y031603D02*
X030490Y031603D01*
X030649Y031761D02*
X032450Y031761D01*
X032450Y031920D02*
X030807Y031920D01*
X030966Y032079D02*
X032450Y032079D01*
X032460Y032237D02*
X031124Y032237D01*
X031283Y032396D02*
X032526Y032396D01*
X032577Y032554D02*
X031441Y032554D01*
X031600Y032713D02*
X032485Y032713D01*
X032450Y032871D02*
X031758Y032871D01*
X031917Y033030D02*
X032450Y033030D01*
X032450Y033188D02*
X032075Y033188D01*
X032234Y033347D02*
X032450Y033347D01*
X032450Y033505D02*
X032393Y033505D01*
X032490Y034055D02*
X034240Y034055D01*
X034640Y033655D01*
X034740Y033655D01*
X034990Y033205D01*
X035436Y033822D02*
X035543Y033822D01*
X035727Y033981D02*
X035252Y033981D01*
X034608Y034140D02*
X037329Y034140D01*
X037329Y033981D02*
X036252Y033981D01*
X036436Y033822D02*
X037329Y033822D01*
X037341Y033664D02*
X036509Y033664D01*
X036530Y033505D02*
X037390Y033505D01*
X037439Y033347D02*
X036530Y033347D01*
X036530Y033188D02*
X037502Y033188D01*
X037610Y033030D02*
X036530Y033030D01*
X036530Y032871D02*
X037718Y032871D01*
X037884Y032713D02*
X036495Y032713D01*
X036402Y032554D02*
X038082Y032554D01*
X038417Y032396D02*
X036454Y032396D01*
X036520Y032237D02*
X040095Y032237D01*
X040095Y032079D02*
X036530Y032079D01*
X036530Y031920D02*
X040095Y031920D01*
X040095Y031761D02*
X036530Y031761D01*
X036530Y031603D02*
X040095Y031603D01*
X040095Y031444D02*
X036530Y031444D01*
X036483Y031286D02*
X040095Y031286D01*
X040095Y031127D02*
X036376Y031127D01*
X036465Y030969D02*
X040095Y030969D01*
X040095Y030810D02*
X036530Y030810D01*
X036530Y030652D02*
X040095Y030652D01*
X040095Y030493D02*
X036530Y030493D01*
X036530Y030335D02*
X040095Y030335D01*
X040095Y030176D02*
X036530Y030176D01*
X036530Y030017D02*
X040095Y030017D01*
X040095Y029859D02*
X036472Y029859D01*
X036358Y029700D02*
X040095Y029700D01*
X040095Y029542D02*
X036476Y029542D01*
X036530Y029383D02*
X040095Y029383D01*
X040095Y029225D02*
X036530Y029225D01*
X036530Y029066D02*
X040095Y029066D01*
X040095Y028908D02*
X036530Y028908D01*
X036530Y028749D02*
X040095Y028749D01*
X040095Y028591D02*
X036527Y028591D01*
X036461Y028432D02*
X040095Y028432D01*
X040095Y028273D02*
X036322Y028273D01*
X035752Y028115D02*
X040095Y028115D01*
X040095Y027956D02*
X035594Y027956D01*
X035435Y027798D02*
X040095Y027798D01*
X040095Y027639D02*
X035276Y027639D01*
X035118Y027481D02*
X040095Y027481D01*
X040095Y027322D02*
X034959Y027322D01*
X034801Y027164D02*
X040095Y027164D01*
X040095Y027005D02*
X034642Y027005D01*
X034484Y026847D02*
X036820Y026847D01*
X036908Y026935D02*
X036510Y026537D01*
X036510Y026275D01*
X037170Y026275D01*
X037170Y026235D01*
X037210Y026235D01*
X037210Y025575D01*
X037472Y025575D01*
X037870Y025974D01*
X037870Y026235D01*
X037210Y026235D01*
X037210Y026275D01*
X037870Y026275D01*
X037870Y026537D01*
X037472Y026935D01*
X037210Y026935D01*
X037210Y026276D01*
X037170Y026276D01*
X037170Y026935D01*
X036908Y026935D01*
X037170Y026847D02*
X037210Y026847D01*
X037210Y026688D02*
X037170Y026688D01*
X037170Y026529D02*
X037210Y026529D01*
X037210Y026371D02*
X037170Y026371D01*
X037170Y026235D02*
X036510Y026235D01*
X036510Y025974D01*
X036908Y025575D01*
X037170Y025575D01*
X037170Y026235D01*
X037170Y026212D02*
X037210Y026212D01*
X037210Y026054D02*
X037170Y026054D01*
X037170Y025895D02*
X037210Y025895D01*
X037210Y025737D02*
X037170Y025737D01*
X037170Y025578D02*
X037210Y025578D01*
X037474Y025578D02*
X040095Y025578D01*
X040095Y025420D02*
X033455Y025420D01*
X033455Y025578D02*
X036905Y025578D01*
X036747Y025737D02*
X033455Y025737D01*
X033455Y025895D02*
X036588Y025895D01*
X036510Y026054D02*
X033455Y026054D01*
X033455Y026212D02*
X036510Y026212D01*
X036510Y026371D02*
X034178Y026371D01*
X034264Y026529D02*
X036510Y026529D01*
X036661Y026688D02*
X034325Y026688D01*
X033840Y026655D02*
X035740Y028555D01*
X035990Y029005D01*
X034897Y028165D02*
X033827Y027095D01*
X033752Y027095D01*
X033591Y027028D01*
X033467Y026904D01*
X033455Y026875D01*
X033455Y028416D01*
X033455Y028417D01*
X033522Y028580D01*
X033583Y028433D01*
X033718Y028298D01*
X033894Y028225D01*
X033970Y028225D01*
X033970Y028985D01*
X034010Y028985D01*
X034010Y028225D01*
X034085Y028225D01*
X034262Y028298D01*
X034397Y028433D01*
X034457Y028580D01*
X034532Y028399D01*
X034684Y028247D01*
X034882Y028165D01*
X034897Y028165D01*
X034847Y028115D02*
X033455Y028115D01*
X033455Y028273D02*
X033778Y028273D01*
X033970Y028273D02*
X034010Y028273D01*
X034010Y028432D02*
X033970Y028432D01*
X033970Y028591D02*
X034010Y028591D01*
X034010Y028749D02*
X033970Y028749D01*
X033970Y028908D02*
X034010Y028908D01*
X034010Y029026D02*
X033970Y029026D01*
X033970Y029625D01*
X033970Y030385D01*
X034010Y030385D01*
X034010Y029625D01*
X034010Y029026D01*
X034010Y029066D02*
X033970Y029066D01*
X033970Y029225D02*
X034010Y029225D01*
X034010Y029383D02*
X033970Y029383D01*
X033970Y029542D02*
X034010Y029542D01*
X034010Y029700D02*
X033970Y029700D01*
X033970Y029859D02*
X034010Y029859D01*
X034010Y030017D02*
X033970Y030017D01*
X033970Y030176D02*
X034010Y030176D01*
X034010Y030335D02*
X033970Y030335D01*
X033970Y030426D02*
X033970Y031025D01*
X033970Y031785D01*
X034010Y031785D01*
X034010Y031025D01*
X034010Y030426D01*
X033970Y030426D01*
X033970Y030493D02*
X034010Y030493D01*
X034010Y030652D02*
X033970Y030652D01*
X033970Y030810D02*
X034010Y030810D01*
X034010Y030969D02*
X033970Y030969D01*
X033970Y031127D02*
X034010Y031127D01*
X034010Y031286D02*
X033970Y031286D01*
X033970Y031444D02*
X034010Y031444D01*
X034010Y031603D02*
X033970Y031603D01*
X033970Y031761D02*
X034010Y031761D01*
X034010Y031826D02*
X033970Y031826D01*
X033970Y032425D01*
X033970Y033185D01*
X034010Y033185D01*
X034010Y032425D01*
X034010Y031826D01*
X034010Y031920D02*
X033970Y031920D01*
X033970Y032079D02*
X034010Y032079D01*
X034010Y032237D02*
X033970Y032237D01*
X033970Y032396D02*
X034010Y032396D01*
X034010Y032554D02*
X033970Y032554D01*
X033970Y032713D02*
X034010Y032713D01*
X034010Y032871D02*
X033970Y032871D01*
X033970Y033030D02*
X034010Y033030D01*
X034450Y034298D02*
X037357Y034298D01*
X037406Y034457D02*
X003842Y034457D01*
X003766Y034615D02*
X037455Y034615D01*
X037537Y034774D02*
X003690Y034774D01*
X003599Y034932D02*
X037645Y034932D01*
X039886Y032554D02*
X040095Y032554D01*
X040095Y032396D02*
X039611Y032396D01*
X034658Y028273D02*
X034202Y028273D01*
X034395Y028432D02*
X034519Y028432D01*
X034689Y027956D02*
X033455Y027956D01*
X033455Y027798D02*
X034530Y027798D01*
X034371Y027639D02*
X033455Y027639D01*
X033455Y027481D02*
X034213Y027481D01*
X034054Y027322D02*
X033455Y027322D01*
X033455Y027164D02*
X033896Y027164D01*
X033568Y027005D02*
X033455Y027005D01*
X033455Y026371D02*
X033502Y026371D01*
X032725Y026212D02*
X024485Y026212D01*
X024644Y026054D02*
X028935Y026054D01*
X029004Y026123D02*
X028852Y025971D01*
X028770Y025773D01*
X028770Y025558D01*
X028852Y025359D01*
X029004Y025207D01*
X029202Y025125D01*
X030017Y025125D01*
X030216Y025207D01*
X030368Y025359D01*
X030450Y025558D01*
X030450Y025773D01*
X030368Y025971D01*
X030216Y026123D01*
X030017Y026205D01*
X029202Y026205D01*
X029004Y026123D01*
X028821Y025895D02*
X024802Y025895D01*
X024961Y025737D02*
X028770Y025737D01*
X028770Y025578D02*
X025119Y025578D01*
X025278Y025420D02*
X028827Y025420D01*
X028950Y025261D02*
X025437Y025261D01*
X025595Y025103D02*
X032221Y025103D01*
X032063Y024944D02*
X025754Y024944D01*
X025912Y024786D02*
X031920Y024786D01*
X031875Y024627D02*
X026071Y024627D01*
X026229Y024468D02*
X031875Y024468D01*
X031875Y024310D02*
X026388Y024310D01*
X026546Y024151D02*
X031875Y024151D01*
X031875Y023993D02*
X026705Y023993D01*
X026863Y023834D02*
X031875Y023834D01*
X031875Y023676D02*
X027022Y023676D01*
X027181Y023517D02*
X031875Y023517D01*
X031875Y023359D02*
X029587Y023359D01*
X029400Y023359D02*
X029380Y023359D01*
X029380Y023200D02*
X029400Y023200D01*
X029400Y023042D02*
X029380Y023042D01*
X029380Y022883D02*
X029400Y022883D01*
X029400Y022724D02*
X029380Y022724D01*
X029380Y022566D02*
X029400Y022566D01*
X029623Y022407D02*
X031875Y022407D01*
X031875Y022249D02*
X029782Y022249D01*
X029701Y022566D02*
X031875Y022566D01*
X031875Y022724D02*
X029850Y022724D01*
X029850Y022883D02*
X031875Y022883D01*
X031875Y023042D02*
X029850Y023042D01*
X029746Y023200D02*
X031875Y023200D01*
X032605Y023200D02*
X040095Y023200D01*
X040095Y023042D02*
X032605Y023042D01*
X032605Y022883D02*
X040095Y022883D01*
X040095Y022724D02*
X032605Y022724D01*
X032605Y022566D02*
X040095Y022566D01*
X040095Y022407D02*
X032605Y022407D01*
X033263Y022249D02*
X040095Y022249D01*
X040095Y022090D02*
X033421Y022090D01*
X033580Y021932D02*
X040095Y021932D01*
X040095Y021773D02*
X033738Y021773D01*
X033897Y021615D02*
X040095Y021615D01*
X040095Y021456D02*
X034055Y021456D01*
X034214Y021298D02*
X040095Y021298D01*
X040095Y021139D02*
X034372Y021139D01*
X034531Y020980D02*
X040095Y020980D01*
X040095Y020822D02*
X034689Y020822D01*
X034848Y020663D02*
X040095Y020663D01*
X040095Y020505D02*
X035006Y020505D01*
X035165Y020346D02*
X040095Y020346D01*
X040095Y020188D02*
X035324Y020188D01*
X035482Y020029D02*
X040095Y020029D01*
X040095Y019871D02*
X035641Y019871D01*
X035799Y019712D02*
X040095Y019712D01*
X040095Y019554D02*
X035958Y019554D01*
X036116Y019395D02*
X040095Y019395D01*
X040095Y019236D02*
X036275Y019236D01*
X036433Y019078D02*
X040095Y019078D01*
X040095Y018919D02*
X036592Y018919D01*
X036750Y018761D02*
X040095Y018761D01*
X040095Y018602D02*
X036909Y018602D01*
X037068Y018444D02*
X040095Y018444D01*
X040095Y018285D02*
X037226Y018285D01*
X037385Y018127D02*
X040095Y018127D01*
X040095Y017968D02*
X037543Y017968D01*
X037671Y017810D02*
X040095Y017810D01*
X040095Y017651D02*
X037705Y017651D01*
X037705Y017493D02*
X040095Y017493D01*
X040095Y017334D02*
X037705Y017334D01*
X037705Y017175D02*
X040095Y017175D01*
X040095Y017017D02*
X037705Y017017D01*
X037705Y016858D02*
X040095Y016858D01*
X040095Y016700D02*
X037705Y016700D01*
X037705Y016541D02*
X040095Y016541D01*
X040095Y016383D02*
X037705Y016383D01*
X037767Y016224D02*
X040095Y016224D01*
X040095Y016066D02*
X037926Y016066D01*
X037930Y015907D02*
X040095Y015907D01*
X040095Y015749D02*
X037930Y015749D01*
X037930Y015590D02*
X040095Y015590D01*
X040095Y015431D02*
X037913Y015431D01*
X037754Y015273D02*
X040095Y015273D01*
X040095Y015114D02*
X037596Y015114D01*
X036784Y015114D02*
X032510Y015114D01*
X032510Y014956D02*
X040095Y014956D01*
X040095Y014797D02*
X032510Y014797D01*
X032510Y014639D02*
X040095Y014639D01*
X040095Y014480D02*
X032510Y014480D01*
X032510Y014322D02*
X040095Y014322D01*
X040095Y014163D02*
X032510Y014163D01*
X032510Y014005D02*
X040095Y014005D01*
X040095Y013846D02*
X032510Y013846D01*
X032510Y013687D02*
X040095Y013687D01*
X040095Y013529D02*
X032510Y013529D01*
X032510Y013370D02*
X040095Y013370D01*
X040095Y013212D02*
X032510Y013212D01*
X032778Y013053D02*
X033230Y013053D01*
X033177Y012895D02*
X032831Y012895D01*
X032831Y012736D02*
X033177Y012736D01*
X033161Y012578D02*
X032831Y012578D01*
X032831Y012419D02*
X033161Y012419D01*
X033177Y012261D02*
X032831Y012261D01*
X032831Y012102D02*
X033177Y012102D01*
X033212Y011944D02*
X032796Y011944D01*
X032177Y012488D02*
X032190Y012855D01*
X032190Y014055D01*
X013840Y014055D01*
X011240Y016655D01*
X010540Y015955D01*
X004240Y015955D01*
X002690Y017505D01*
X002690Y017905D01*
X003390Y018605D01*
X003390Y020905D01*
X003490Y021155D01*
X003070Y020029D02*
X001085Y020029D01*
X001085Y019871D02*
X003070Y019871D01*
X003070Y019712D02*
X001085Y019712D01*
X001085Y019554D02*
X003070Y019554D01*
X003070Y019395D02*
X001085Y019395D01*
X001085Y019236D02*
X003070Y019236D01*
X003070Y019078D02*
X001085Y019078D01*
X001085Y018919D02*
X003070Y018919D01*
X003070Y018761D02*
X001085Y018761D01*
X001085Y018602D02*
X002934Y018602D01*
X002776Y018444D02*
X001085Y018444D01*
X001085Y018285D02*
X002617Y018285D01*
X002459Y018127D02*
X001085Y018127D01*
X001085Y017968D02*
X002370Y017968D01*
X002370Y017810D02*
X001085Y017810D01*
X001085Y017651D02*
X002370Y017651D01*
X002370Y017493D02*
X001085Y017493D01*
X001085Y017334D02*
X002414Y017334D01*
X002567Y017175D02*
X001085Y017175D01*
X001085Y017017D02*
X002726Y017017D01*
X002884Y016858D02*
X001085Y016858D01*
X001085Y016700D02*
X003043Y016700D01*
X003201Y016541D02*
X001085Y016541D01*
X001085Y016383D02*
X003360Y016383D01*
X003518Y016224D02*
X001085Y016224D01*
X001085Y016066D02*
X003677Y016066D01*
X003836Y015907D02*
X001085Y015907D01*
X001085Y015749D02*
X003994Y015749D01*
X001085Y015590D02*
X011853Y015590D01*
X012011Y015431D02*
X001085Y015431D01*
X001085Y015273D02*
X012170Y015273D01*
X012328Y015114D02*
X001085Y015114D01*
X001085Y014956D02*
X011009Y014956D01*
X010850Y014797D02*
X001085Y014797D01*
X001085Y014639D02*
X010051Y014639D01*
X009965Y014480D02*
X001085Y014480D01*
X001085Y014322D02*
X009950Y014322D01*
X009993Y014163D02*
X001085Y014163D01*
X001085Y014005D02*
X010118Y014005D01*
X010383Y013846D02*
X001085Y013846D01*
X001085Y013687D02*
X010541Y013687D01*
X010700Y013529D02*
X001085Y013529D01*
X001085Y013370D02*
X010859Y013370D01*
X011065Y013212D02*
X001085Y013212D01*
X001085Y013053D02*
X015135Y013053D01*
X014977Y012895D02*
X013523Y012895D01*
X013612Y012736D02*
X014818Y012736D01*
X014660Y012578D02*
X013630Y012578D01*
X013589Y012419D02*
X014501Y012419D01*
X014343Y012261D02*
X013510Y012261D01*
X013510Y012102D02*
X014184Y012102D01*
X014026Y011944D02*
X013510Y011944D01*
X013510Y011785D02*
X013867Y011785D01*
X013539Y011626D02*
X013510Y011626D01*
X013790Y011255D02*
X015590Y013055D01*
X017090Y013055D01*
X017500Y012895D02*
X018296Y012895D01*
X018296Y012949D02*
X018332Y013037D01*
X018400Y013105D01*
X018488Y013141D01*
X019410Y013141D01*
X019498Y013105D01*
X019566Y013037D01*
X019602Y012949D01*
X019602Y012027D01*
X019566Y011939D01*
X019498Y011871D01*
X019410Y011835D01*
X018488Y011835D01*
X018400Y011871D01*
X018332Y011939D01*
X018296Y012027D01*
X018296Y012949D01*
X018348Y013053D02*
X017530Y013053D01*
X017393Y012736D02*
X018296Y012736D01*
X018296Y012578D02*
X016180Y012578D01*
X016139Y012419D02*
X018296Y012419D01*
X018296Y012261D02*
X016060Y012261D01*
X016060Y012102D02*
X018296Y012102D01*
X018330Y011944D02*
X016060Y011944D01*
X016060Y011785D02*
X035713Y011785D01*
X035871Y011626D02*
X016060Y011626D01*
X016128Y011468D02*
X016628Y011468D01*
X016390Y011309D02*
X016180Y011309D01*
X016173Y011151D02*
X016236Y011151D01*
X016145Y010992D02*
X016099Y010992D01*
X016079Y010834D02*
X015872Y010834D01*
X016036Y010675D02*
X013510Y010675D01*
X013510Y010517D02*
X016028Y010517D01*
X016029Y010358D02*
X014017Y010358D01*
X013663Y010358D02*
X013510Y010358D01*
X013510Y010834D02*
X013658Y010834D01*
X013922Y010834D02*
X015608Y010834D01*
X015381Y010992D02*
X014149Y010992D01*
X014223Y011151D02*
X015307Y011151D01*
X015300Y011309D02*
X014296Y011309D01*
X014455Y011468D02*
X015352Y011468D01*
X015420Y011626D02*
X014614Y011626D01*
X014772Y011785D02*
X015420Y011785D01*
X015420Y011944D02*
X014931Y011944D01*
X015089Y012102D02*
X015420Y012102D01*
X015420Y012261D02*
X015248Y012261D01*
X015740Y012605D02*
X015740Y011255D01*
X016090Y009955D02*
X016640Y009405D01*
X017990Y009405D01*
X018540Y009955D01*
X018949Y010323D01*
X019602Y010358D02*
X019949Y010358D01*
X019949Y010200D02*
X019602Y010200D01*
X019602Y010041D02*
X019949Y010041D01*
X019949Y009882D02*
X019602Y009882D01*
X019516Y009724D02*
X020035Y009724D01*
X020053Y009706D02*
X020141Y009669D01*
X021064Y009669D01*
X021152Y009706D01*
X021219Y009773D01*
X021256Y009861D01*
X021256Y010784D01*
X021219Y010872D01*
X021152Y010939D01*
X021064Y010976D01*
X020141Y010976D01*
X020053Y010939D01*
X019986Y010872D01*
X019949Y010784D01*
X019949Y009861D01*
X019986Y009773D01*
X020053Y009706D01*
X019949Y010517D02*
X019602Y010517D01*
X019602Y010675D02*
X019949Y010675D01*
X019970Y010834D02*
X019582Y010834D01*
X020053Y011871D02*
X020141Y011835D01*
X021064Y011835D01*
X021152Y011871D01*
X021219Y011939D01*
X021256Y012027D01*
X021256Y012949D01*
X021219Y013037D01*
X021152Y013105D01*
X021064Y013141D01*
X020141Y013141D01*
X020053Y013105D01*
X019986Y013037D01*
X019949Y012949D01*
X019949Y012027D01*
X019986Y011939D01*
X020053Y011871D01*
X019984Y011944D02*
X019568Y011944D01*
X019602Y012102D02*
X019949Y012102D01*
X019949Y012261D02*
X019602Y012261D01*
X019602Y012419D02*
X019949Y012419D01*
X019949Y012578D02*
X019602Y012578D01*
X019602Y012736D02*
X019949Y012736D01*
X019949Y012895D02*
X019602Y012895D01*
X019550Y013053D02*
X020002Y013053D01*
X021203Y013053D02*
X021740Y013053D01*
X021768Y013081D02*
X021663Y012976D01*
X021663Y012546D01*
X022198Y012546D01*
X022198Y013081D01*
X021768Y013081D01*
X021663Y012895D02*
X021256Y012895D01*
X021256Y012736D02*
X021663Y012736D01*
X021663Y012578D02*
X021256Y012578D01*
X021256Y012419D02*
X021663Y012419D01*
X021663Y012430D02*
X021663Y012000D01*
X021768Y011895D01*
X022198Y011895D01*
X022198Y012430D01*
X021663Y012430D01*
X021663Y012261D02*
X021256Y012261D01*
X021256Y012102D02*
X021663Y012102D01*
X021719Y011944D02*
X021221Y011944D01*
X022198Y011944D02*
X022314Y011944D01*
X022314Y011895D02*
X022744Y011895D01*
X022849Y012000D01*
X022849Y012430D01*
X022314Y012430D01*
X022314Y012546D01*
X022198Y012546D01*
X022198Y012430D01*
X022314Y012430D01*
X022314Y011895D01*
X022314Y012102D02*
X022198Y012102D01*
X022198Y012261D02*
X022314Y012261D01*
X022314Y012419D02*
X022198Y012419D01*
X022198Y012578D02*
X022314Y012578D01*
X022314Y012546D02*
X022314Y013081D01*
X022744Y013081D01*
X022849Y012976D01*
X022849Y012546D01*
X022314Y012546D01*
X022314Y012736D02*
X022198Y012736D01*
X022198Y012895D02*
X022314Y012895D01*
X022314Y013053D02*
X022198Y013053D01*
X022772Y013053D02*
X022826Y013053D01*
X022849Y012895D02*
X022984Y012895D01*
X022849Y012736D02*
X023143Y012736D01*
X023256Y012578D02*
X022849Y012578D01*
X022849Y012419D02*
X023256Y012419D01*
X023256Y012261D02*
X022849Y012261D01*
X022849Y012102D02*
X023256Y012102D01*
X023291Y011944D02*
X022793Y011944D01*
X022744Y010916D02*
X022314Y010916D01*
X022314Y010381D01*
X022198Y010381D01*
X022198Y010916D01*
X021768Y010916D01*
X021663Y010811D01*
X021663Y010380D01*
X022198Y010380D01*
X022198Y010265D01*
X021663Y010265D01*
X021663Y009835D01*
X021768Y009729D01*
X022198Y009729D01*
X022198Y010265D01*
X022314Y010265D01*
X022314Y010380D01*
X022849Y010380D01*
X022849Y010811D01*
X022744Y010916D01*
X022826Y010834D02*
X023277Y010834D01*
X023293Y010872D02*
X023256Y010784D01*
X023256Y009861D01*
X023293Y009773D01*
X023360Y009706D01*
X023448Y009669D01*
X024371Y009669D01*
X024459Y009706D01*
X024526Y009773D01*
X024563Y009861D01*
X024563Y010784D01*
X024526Y010872D01*
X024459Y010939D01*
X024371Y010976D01*
X023448Y010976D01*
X023360Y010939D01*
X023293Y010872D01*
X023256Y010675D02*
X022849Y010675D01*
X022849Y010517D02*
X023256Y010517D01*
X023256Y010358D02*
X022314Y010358D01*
X022314Y010265D02*
X022849Y010265D01*
X022849Y009835D01*
X022744Y009729D01*
X022314Y009729D01*
X022314Y010265D01*
X022314Y010200D02*
X022198Y010200D01*
X022198Y010358D02*
X021256Y010358D01*
X021256Y010200D02*
X021663Y010200D01*
X021663Y010041D02*
X021256Y010041D01*
X021256Y009882D02*
X021663Y009882D01*
X021170Y009724D02*
X023342Y009724D01*
X023256Y009882D02*
X022849Y009882D01*
X022849Y010041D02*
X023256Y010041D01*
X023256Y010200D02*
X022849Y010200D01*
X022314Y010041D02*
X022198Y010041D01*
X022198Y009882D02*
X022314Y009882D01*
X022314Y010517D02*
X022198Y010517D01*
X022198Y010675D02*
X022314Y010675D01*
X022314Y010834D02*
X022198Y010834D01*
X021686Y010834D02*
X021235Y010834D01*
X021256Y010675D02*
X021663Y010675D01*
X021663Y010517D02*
X021256Y010517D01*
X018603Y009565D02*
X035165Y009565D01*
X034947Y009724D02*
X034398Y009724D01*
X034380Y009706D02*
X034448Y009773D01*
X034484Y009861D01*
X034484Y010784D01*
X034448Y010872D01*
X034380Y010939D01*
X034292Y010976D01*
X033370Y010976D01*
X033281Y010939D01*
X033214Y010872D01*
X033177Y010784D01*
X033177Y009861D01*
X033214Y009773D01*
X033281Y009706D01*
X033370Y009669D01*
X034292Y009669D01*
X034380Y009706D01*
X034484Y009882D02*
X034804Y009882D01*
X034712Y010041D02*
X034484Y010041D01*
X034484Y010200D02*
X034654Y010200D01*
X034612Y010358D02*
X034484Y010358D01*
X034484Y010517D02*
X034611Y010517D01*
X034619Y010675D02*
X034484Y010675D01*
X034464Y010834D02*
X034661Y010834D01*
X034727Y010992D02*
X018053Y010992D01*
X018118Y010834D02*
X018316Y010834D01*
X018296Y010675D02*
X018161Y010675D01*
X018169Y010517D02*
X018296Y010517D01*
X018296Y010358D02*
X018168Y010358D01*
X018125Y010200D02*
X018296Y010200D01*
X018173Y010041D02*
X018068Y010041D01*
X018015Y009882D02*
X017976Y009882D01*
X018444Y009407D02*
X036670Y009407D01*
X036670Y009565D02*
X036197Y009565D01*
X036415Y009724D02*
X036670Y009724D01*
X036670Y009882D02*
X036559Y009882D01*
X036650Y010041D02*
X036670Y010041D01*
X036670Y009248D02*
X018285Y009248D01*
X018064Y009090D02*
X036670Y009090D01*
X036670Y008931D02*
X013510Y008931D01*
X013510Y008773D02*
X036670Y008773D01*
X036670Y008614D02*
X013510Y008614D01*
X013510Y008456D02*
X036670Y008456D01*
X036670Y008297D02*
X013510Y008297D01*
X013510Y008138D02*
X036670Y008138D01*
X036670Y007980D02*
X021287Y007980D01*
X021397Y007821D02*
X036670Y007821D01*
X036670Y007663D02*
X021430Y007663D01*
X021404Y007504D02*
X036698Y007504D01*
X036764Y007346D02*
X021310Y007346D01*
X021322Y007187D02*
X021945Y007187D01*
X021728Y007029D02*
X021545Y007029D01*
X021629Y006870D02*
X021645Y006870D01*
X022335Y007187D02*
X027058Y007187D01*
X026835Y007029D02*
X024460Y007029D01*
X024398Y007091D02*
X024230Y007160D01*
X024147Y007160D01*
X024147Y006713D01*
X024132Y006713D01*
X024132Y006698D01*
X023685Y006698D01*
X023685Y006615D01*
X023754Y006448D01*
X023882Y006320D01*
X024049Y006250D01*
X024132Y006250D01*
X024132Y006698D01*
X024147Y006698D01*
X024147Y006250D01*
X024230Y006250D01*
X024398Y006320D01*
X024526Y006448D01*
X024595Y006615D01*
X024595Y006698D01*
X024148Y006698D01*
X024148Y006713D01*
X024595Y006713D01*
X024595Y006796D01*
X024526Y006963D01*
X024398Y007091D01*
X024147Y007029D02*
X024132Y007029D01*
X024132Y007160D02*
X024049Y007160D01*
X023882Y007091D01*
X023754Y006963D01*
X023685Y006796D01*
X023685Y006713D01*
X024132Y006713D01*
X024132Y007160D01*
X024132Y006870D02*
X024147Y006870D01*
X024148Y006712D02*
X026725Y006712D01*
X026751Y006870D02*
X024564Y006870D01*
X024569Y006553D02*
X026746Y006553D01*
X026822Y006394D02*
X024473Y006394D01*
X024147Y006394D02*
X024132Y006394D01*
X024132Y006553D02*
X024147Y006553D01*
X024132Y006712D02*
X023148Y006712D01*
X023148Y006713D02*
X023595Y006713D01*
X023595Y006796D01*
X023526Y006963D01*
X023398Y007091D01*
X023230Y007160D01*
X023147Y007160D01*
X023147Y006713D01*
X023132Y006713D01*
X023132Y006698D01*
X022685Y006698D01*
X022685Y006615D01*
X022754Y006448D01*
X022882Y006320D01*
X023049Y006250D01*
X023132Y006250D01*
X023132Y006698D01*
X023147Y006698D01*
X023147Y006250D01*
X023230Y006250D01*
X023398Y006320D01*
X023526Y006448D01*
X023595Y006615D01*
X023595Y006698D01*
X023148Y006698D01*
X023148Y006713D01*
X023132Y006713D02*
X023132Y007160D01*
X023049Y007160D01*
X022882Y007091D01*
X022754Y006963D01*
X022685Y006796D01*
X022685Y006713D01*
X023132Y006713D01*
X023132Y006712D02*
X022660Y006712D01*
X022660Y006553D02*
X022710Y006553D01*
X022736Y006394D02*
X022807Y006394D01*
X022895Y006236D02*
X027027Y006236D01*
X027096Y006077D02*
X027327Y006077D01*
X027236Y005919D02*
X027209Y005919D01*
X027453Y006236D02*
X027485Y006236D01*
X027729Y006870D02*
X027745Y006870D01*
X027828Y007029D02*
X027645Y007029D01*
X027422Y007187D02*
X028045Y007187D01*
X028435Y007187D02*
X033158Y007187D01*
X032935Y007029D02*
X030560Y007029D01*
X030498Y007091D02*
X030330Y007160D01*
X030247Y007160D01*
X030247Y006713D01*
X030232Y006713D01*
X030232Y006698D01*
X029785Y006698D01*
X029785Y006615D01*
X029854Y006448D01*
X029982Y006320D01*
X030149Y006250D01*
X030232Y006250D01*
X030232Y006698D01*
X030247Y006698D01*
X030247Y006250D01*
X030330Y006250D01*
X030498Y006320D01*
X030626Y006448D01*
X030695Y006615D01*
X030695Y006698D01*
X030248Y006698D01*
X030248Y006713D01*
X030695Y006713D01*
X030695Y006796D01*
X030626Y006963D01*
X030498Y007091D01*
X030247Y007029D02*
X030232Y007029D01*
X030232Y007160D02*
X030149Y007160D01*
X029982Y007091D01*
X029854Y006963D01*
X029785Y006796D01*
X029785Y006713D01*
X030232Y006713D01*
X030232Y007160D01*
X030232Y006870D02*
X030247Y006870D01*
X030248Y006712D02*
X032825Y006712D01*
X032851Y006870D02*
X030664Y006870D01*
X030669Y006553D02*
X032846Y006553D01*
X032922Y006394D02*
X030573Y006394D01*
X030247Y006394D02*
X030232Y006394D01*
X030232Y006553D02*
X030247Y006553D01*
X030232Y006712D02*
X029248Y006712D01*
X029248Y006713D02*
X029695Y006713D01*
X029695Y006796D01*
X029626Y006963D01*
X029498Y007091D01*
X029330Y007160D01*
X029247Y007160D01*
X029247Y006713D01*
X029232Y006713D01*
X029232Y006698D01*
X028785Y006698D01*
X028785Y006615D01*
X028854Y006448D01*
X028982Y006320D01*
X029149Y006250D01*
X029232Y006250D01*
X029232Y006698D01*
X029247Y006698D01*
X029247Y006250D01*
X029330Y006250D01*
X029498Y006320D01*
X029626Y006448D01*
X029695Y006615D01*
X029695Y006698D01*
X029248Y006698D01*
X029248Y006713D01*
X029232Y006713D02*
X029232Y007160D01*
X029149Y007160D01*
X028982Y007091D01*
X028854Y006963D01*
X028785Y006796D01*
X028785Y006713D01*
X029232Y006713D01*
X029232Y006712D02*
X028760Y006712D01*
X028760Y006553D02*
X028810Y006553D01*
X028836Y006394D02*
X028907Y006394D01*
X028995Y006236D02*
X033127Y006236D01*
X033196Y006077D02*
X033477Y006077D01*
X033553Y006236D02*
X033685Y006236D01*
X033757Y006394D02*
X033820Y006394D01*
X033366Y005919D02*
X033309Y005919D01*
X032484Y006077D02*
X030011Y006077D01*
X030144Y005919D02*
X032371Y005919D01*
X032325Y005760D02*
X030195Y005760D01*
X030189Y005602D02*
X032325Y005602D01*
X032391Y005443D02*
X030121Y005443D01*
X029747Y005760D02*
X029732Y005760D01*
X029732Y005919D02*
X029747Y005919D01*
X029732Y006077D02*
X029747Y006077D01*
X029469Y006077D02*
X029153Y006077D01*
X029235Y005919D02*
X029336Y005919D01*
X029285Y005760D02*
X029260Y005760D01*
X029260Y005602D02*
X029290Y005602D01*
X029299Y005443D02*
X029358Y005443D01*
X029247Y006394D02*
X029232Y006394D01*
X029232Y006553D02*
X029247Y006553D01*
X029232Y006870D02*
X029247Y006870D01*
X029232Y007029D02*
X029247Y007029D01*
X029560Y007029D02*
X029920Y007029D01*
X029816Y006870D02*
X029664Y006870D01*
X029669Y006553D02*
X029810Y006553D01*
X029907Y006394D02*
X029573Y006394D01*
X028816Y006870D02*
X028734Y006870D01*
X028652Y007029D02*
X028920Y007029D01*
X026384Y006077D02*
X023911Y006077D01*
X024044Y005919D02*
X026271Y005919D01*
X026225Y005760D02*
X024095Y005760D01*
X024089Y005602D02*
X026225Y005602D01*
X026291Y005443D02*
X024021Y005443D01*
X023647Y005760D02*
X023632Y005760D01*
X023632Y005919D02*
X023647Y005919D01*
X023632Y006077D02*
X023647Y006077D01*
X023369Y006077D02*
X023053Y006077D01*
X023135Y005919D02*
X023236Y005919D01*
X023185Y005760D02*
X023160Y005760D01*
X023160Y005602D02*
X023190Y005602D01*
X023249Y005443D02*
X023258Y005443D01*
X023147Y006394D02*
X023132Y006394D01*
X023132Y006553D02*
X023147Y006553D01*
X023132Y006870D02*
X023147Y006870D01*
X023132Y007029D02*
X023147Y007029D01*
X023460Y007029D02*
X023820Y007029D01*
X023716Y006870D02*
X023564Y006870D01*
X023569Y006553D02*
X023710Y006553D01*
X023807Y006394D02*
X023473Y006394D01*
X022716Y006870D02*
X022634Y006870D01*
X022552Y007029D02*
X022820Y007029D01*
X020990Y007255D02*
X020640Y006905D01*
X020640Y005705D01*
X020284Y006077D02*
X017811Y006077D01*
X017944Y005919D02*
X020171Y005919D01*
X020125Y005760D02*
X017995Y005760D01*
X017989Y005602D02*
X020125Y005602D01*
X020191Y005443D02*
X017921Y005443D01*
X017547Y005760D02*
X017532Y005760D01*
X017532Y005919D02*
X017547Y005919D01*
X017532Y006077D02*
X017547Y006077D01*
X017269Y006077D02*
X016903Y006077D01*
X016949Y006250D02*
X016782Y006320D01*
X016654Y006448D01*
X016585Y006615D01*
X016585Y006698D01*
X017032Y006698D01*
X017032Y006713D01*
X016585Y006713D01*
X016585Y006796D01*
X016654Y006963D01*
X016782Y007091D01*
X016949Y007160D01*
X017032Y007160D01*
X017032Y006713D01*
X017047Y006713D01*
X017047Y007160D01*
X017130Y007160D01*
X017298Y007091D01*
X017426Y006963D01*
X017495Y006796D01*
X017495Y006713D01*
X017048Y006713D01*
X017048Y006698D01*
X017495Y006698D01*
X017495Y006615D01*
X017426Y006448D01*
X017298Y006320D01*
X017130Y006250D01*
X017047Y006250D01*
X017047Y006698D01*
X017032Y006698D01*
X017032Y006250D01*
X016949Y006250D01*
X017032Y006394D02*
X017047Y006394D01*
X017032Y006553D02*
X017047Y006553D01*
X017048Y006712D02*
X018032Y006712D01*
X018032Y006713D02*
X018032Y006698D01*
X017585Y006698D01*
X017585Y006615D01*
X017654Y006448D01*
X017782Y006320D01*
X017949Y006250D01*
X018032Y006250D01*
X018032Y006698D01*
X018047Y006698D01*
X018047Y006250D01*
X018130Y006250D01*
X018298Y006320D01*
X018426Y006448D01*
X018495Y006615D01*
X018495Y006698D01*
X018048Y006698D01*
X018048Y006713D01*
X018495Y006713D01*
X018495Y006796D01*
X018426Y006963D01*
X018298Y007091D01*
X018130Y007160D01*
X018047Y007160D01*
X018047Y006713D01*
X018032Y006713D01*
X017585Y006713D01*
X017585Y006796D01*
X017654Y006963D01*
X017782Y007091D01*
X017949Y007160D01*
X018032Y007160D01*
X018032Y006713D01*
X018048Y006712D02*
X020320Y006712D01*
X020320Y006870D02*
X018464Y006870D01*
X018360Y007029D02*
X020345Y007029D01*
X020469Y007187D02*
X016235Y007187D01*
X016452Y007029D02*
X016720Y007029D01*
X016616Y006870D02*
X016534Y006870D01*
X016560Y006712D02*
X017032Y006712D01*
X017032Y006870D02*
X017047Y006870D01*
X017032Y007029D02*
X017047Y007029D01*
X017360Y007029D02*
X017720Y007029D01*
X017616Y006870D02*
X017464Y006870D01*
X017469Y006553D02*
X017610Y006553D01*
X017707Y006394D02*
X017373Y006394D01*
X017136Y005919D02*
X017014Y005919D01*
X017060Y005760D02*
X017085Y005760D01*
X016560Y006236D02*
X020320Y006236D01*
X020320Y006394D02*
X018373Y006394D01*
X018469Y006553D02*
X020320Y006553D01*
X020628Y007346D02*
X013351Y007346D01*
X013561Y007504D02*
X020576Y007504D01*
X020550Y007663D02*
X013628Y007663D01*
X013630Y007821D02*
X020582Y007821D01*
X020692Y007980D02*
X013573Y007980D01*
X013190Y007755D02*
X013190Y012605D01*
X012791Y012419D02*
X001085Y012419D01*
X001085Y012261D02*
X012870Y012261D01*
X012870Y012102D02*
X001085Y012102D01*
X001085Y011944D02*
X012870Y011944D01*
X012870Y011785D02*
X001085Y011785D01*
X001085Y011626D02*
X012870Y011626D01*
X012870Y011468D02*
X001085Y011468D01*
X001085Y011309D02*
X012870Y011309D01*
X012870Y011151D02*
X001085Y011151D01*
X001085Y010992D02*
X012870Y010992D01*
X012870Y010834D02*
X001085Y010834D01*
X001085Y010675D02*
X012870Y010675D01*
X012870Y010517D02*
X001085Y010517D01*
X001085Y010358D02*
X012870Y010358D01*
X012870Y010200D02*
X001085Y010200D01*
X001085Y010041D02*
X012870Y010041D01*
X012870Y009882D02*
X001085Y009882D01*
X001085Y009724D02*
X012870Y009724D01*
X012870Y009565D02*
X001085Y009565D01*
X001085Y009407D02*
X012870Y009407D01*
X012870Y009248D02*
X001085Y009248D01*
X001085Y009090D02*
X012870Y009090D01*
X012870Y008931D02*
X001085Y008931D01*
X001085Y008773D02*
X012870Y008773D01*
X012870Y008614D02*
X001085Y008614D01*
X001085Y008456D02*
X012870Y008456D01*
X012870Y008297D02*
X001085Y008297D01*
X001085Y008138D02*
X012870Y008138D01*
X012807Y007980D02*
X001085Y007980D01*
X001085Y007821D02*
X012750Y007821D01*
X012752Y007663D02*
X001085Y007663D01*
X001085Y007504D02*
X012819Y007504D01*
X013029Y007346D02*
X001085Y007346D01*
X001085Y007187D02*
X014858Y007187D01*
X014635Y007029D02*
X001085Y007029D01*
X001085Y006870D02*
X011140Y006870D01*
X011278Y006927D02*
X010986Y006806D01*
X010763Y006583D01*
X010642Y006291D01*
X010642Y005974D01*
X010763Y005682D01*
X010986Y005459D01*
X011278Y005337D01*
X011595Y005337D01*
X011887Y005459D01*
X012111Y005682D01*
X012232Y005974D01*
X012232Y006291D01*
X012111Y006583D01*
X011887Y006806D01*
X011595Y006927D01*
X011278Y006927D01*
X010892Y006712D02*
X001085Y006712D01*
X001085Y006553D02*
X010750Y006553D01*
X010685Y006394D02*
X001085Y006394D01*
X001085Y006236D02*
X010642Y006236D01*
X010642Y006077D02*
X001085Y006077D01*
X001085Y005919D02*
X010665Y005919D01*
X010730Y005760D02*
X001085Y005760D01*
X001085Y005602D02*
X010843Y005602D01*
X011023Y005443D02*
X001085Y005443D01*
X001085Y005285D02*
X014232Y005285D01*
X014091Y005443D02*
X011850Y005443D01*
X012030Y005602D02*
X014025Y005602D01*
X014025Y005760D02*
X012143Y005760D01*
X012209Y005919D02*
X014071Y005919D01*
X014184Y006077D02*
X012232Y006077D01*
X012232Y006236D02*
X014827Y006236D01*
X014896Y006077D02*
X015177Y006077D01*
X015253Y006236D02*
X015335Y006236D01*
X015457Y006394D02*
X015494Y006394D01*
X015066Y005919D02*
X015009Y005919D01*
X014989Y005443D02*
X015086Y005443D01*
X015225Y005285D02*
X014848Y005285D01*
X015870Y005126D02*
X001085Y005126D01*
X001085Y004968D02*
X015913Y004968D01*
X015989Y004809D02*
X001085Y004809D01*
X001085Y004651D02*
X016147Y004651D01*
X016306Y004492D02*
X001085Y004492D01*
X001085Y004333D02*
X016464Y004333D01*
X016623Y004175D02*
X014600Y004175D01*
X014813Y004016D02*
X016882Y004016D01*
X017532Y003699D02*
X015048Y003699D01*
X015110Y003541D02*
X017470Y003541D01*
X017428Y003382D02*
X015152Y003382D01*
X015160Y003224D02*
X017420Y003224D01*
X017420Y003065D02*
X015160Y003065D01*
X015119Y002907D02*
X017460Y002907D01*
X017511Y002748D02*
X015069Y002748D01*
X014978Y002589D02*
X017602Y002589D01*
X017730Y002431D02*
X014849Y002431D01*
X014956Y003858D02*
X017623Y003858D01*
X018032Y006394D02*
X018047Y006394D01*
X018032Y006553D02*
X018047Y006553D01*
X018032Y006870D02*
X018047Y006870D01*
X018032Y007029D02*
X018047Y007029D01*
X016707Y006394D02*
X016560Y006394D01*
X016560Y006553D02*
X016610Y006553D01*
X015845Y007187D02*
X015222Y007187D01*
X015445Y007029D02*
X015628Y007029D01*
X015545Y006870D02*
X015529Y006870D01*
X014551Y006870D02*
X011733Y006870D01*
X011982Y006712D02*
X014525Y006712D01*
X014546Y006553D02*
X012123Y006553D01*
X012189Y006394D02*
X014622Y006394D01*
X013479Y004175D02*
X001085Y004175D01*
X001085Y004016D02*
X013267Y004016D01*
X013123Y003858D02*
X001085Y003858D01*
X001085Y003699D02*
X013032Y003699D01*
X012970Y003541D02*
X001085Y003541D01*
X001085Y003382D02*
X012928Y003382D01*
X012920Y003224D02*
X001085Y003224D01*
X001085Y003065D02*
X012920Y003065D01*
X012960Y002907D02*
X001085Y002907D01*
X001085Y002748D02*
X013011Y002748D01*
X013102Y002589D02*
X001085Y002589D01*
X001085Y002431D02*
X013230Y002431D01*
X020990Y007255D02*
X020990Y007655D01*
X024477Y009724D02*
X029956Y009724D01*
X029974Y009706D02*
X030063Y009669D01*
X030985Y009669D01*
X031073Y009706D01*
X031141Y009773D01*
X031177Y009861D01*
X031177Y010784D01*
X031141Y010872D01*
X031073Y010939D01*
X030985Y010976D01*
X030063Y010976D01*
X029974Y010939D01*
X029907Y010872D01*
X029870Y010784D01*
X029870Y009861D01*
X029907Y009773D01*
X029974Y009706D01*
X029870Y009882D02*
X029464Y009882D01*
X029464Y009835D02*
X029464Y010265D01*
X028928Y010265D01*
X028928Y010380D01*
X029464Y010380D01*
X029464Y010811D01*
X029358Y010916D01*
X028928Y010916D01*
X028928Y010381D01*
X028812Y010381D01*
X028812Y010916D01*
X028382Y010916D01*
X028277Y010811D01*
X028277Y010380D01*
X028812Y010380D01*
X028812Y010265D01*
X028277Y010265D01*
X028277Y009835D01*
X028382Y009729D01*
X028812Y009729D01*
X028812Y010265D01*
X028928Y010265D01*
X028928Y009729D01*
X029358Y009729D01*
X029464Y009835D01*
X029464Y010041D02*
X029870Y010041D01*
X029870Y010200D02*
X029464Y010200D01*
X029464Y010517D02*
X029870Y010517D01*
X029870Y010675D02*
X029464Y010675D01*
X029440Y010834D02*
X029891Y010834D01*
X029870Y010358D02*
X028928Y010358D01*
X028812Y010358D02*
X027275Y010358D01*
X027275Y010380D02*
X027810Y010380D01*
X027810Y010811D01*
X027705Y010916D01*
X027274Y010916D01*
X027274Y010381D01*
X027159Y010381D01*
X027159Y010916D01*
X026729Y010916D01*
X026623Y010811D01*
X026623Y010380D01*
X027159Y010380D01*
X027159Y010265D01*
X026623Y010265D01*
X026623Y009835D01*
X026729Y009729D01*
X027159Y009729D01*
X027159Y010265D01*
X027274Y010265D01*
X027274Y009729D01*
X027705Y009729D01*
X027810Y009835D01*
X027810Y010265D01*
X027275Y010265D01*
X027275Y010380D01*
X027159Y010358D02*
X025621Y010358D01*
X025621Y010380D02*
X026156Y010380D01*
X026156Y010811D01*
X026051Y010916D01*
X025621Y010916D01*
X025621Y010381D01*
X025505Y010381D01*
X025505Y010916D01*
X025075Y010916D01*
X024970Y010811D01*
X024970Y010380D01*
X025505Y010380D01*
X025505Y010265D01*
X024970Y010265D01*
X024970Y009835D01*
X025075Y009729D01*
X025505Y009729D01*
X025505Y010265D01*
X025621Y010265D01*
X025621Y010380D01*
X025621Y010265D02*
X026156Y010265D01*
X026156Y009835D01*
X026051Y009729D01*
X025621Y009729D01*
X025621Y010265D01*
X025621Y010200D02*
X025505Y010200D01*
X025505Y010358D02*
X024563Y010358D01*
X024563Y010200D02*
X024970Y010200D01*
X024970Y010041D02*
X024563Y010041D01*
X024563Y009882D02*
X024970Y009882D01*
X025505Y009882D02*
X025621Y009882D01*
X025621Y010041D02*
X025505Y010041D01*
X025505Y010517D02*
X025621Y010517D01*
X025621Y010675D02*
X025505Y010675D01*
X025505Y010834D02*
X025621Y010834D01*
X026133Y010834D02*
X026646Y010834D01*
X026623Y010675D02*
X026156Y010675D01*
X026156Y010517D02*
X026623Y010517D01*
X026623Y010200D02*
X026156Y010200D01*
X026156Y010041D02*
X026623Y010041D01*
X026623Y009882D02*
X026156Y009882D01*
X027159Y009882D02*
X027274Y009882D01*
X027274Y010041D02*
X027159Y010041D01*
X027159Y010200D02*
X027274Y010200D01*
X027274Y010517D02*
X027159Y010517D01*
X027159Y010675D02*
X027274Y010675D01*
X027274Y010834D02*
X027159Y010834D01*
X027787Y010834D02*
X028300Y010834D01*
X028277Y010675D02*
X027810Y010675D01*
X027810Y010517D02*
X028277Y010517D01*
X028277Y010200D02*
X027810Y010200D01*
X027810Y010041D02*
X028277Y010041D01*
X028277Y009882D02*
X027810Y009882D01*
X028812Y009882D02*
X028928Y009882D01*
X028928Y010041D02*
X028812Y010041D01*
X028812Y010200D02*
X028928Y010200D01*
X028928Y010517D02*
X028812Y010517D01*
X028812Y010675D02*
X028928Y010675D01*
X028928Y010834D02*
X028812Y010834D01*
X028812Y011895D02*
X028382Y011895D01*
X028277Y012000D01*
X028277Y012430D01*
X028812Y012430D01*
X028812Y012546D01*
X028277Y012546D01*
X028277Y012976D01*
X028382Y013081D01*
X028812Y013081D01*
X028812Y012546D01*
X028928Y012546D01*
X028928Y013081D01*
X029358Y013081D01*
X029464Y012976D01*
X029464Y012546D01*
X028928Y012546D01*
X028928Y012430D01*
X028928Y011895D01*
X029358Y011895D01*
X029464Y012000D01*
X029464Y012430D01*
X028928Y012430D01*
X028812Y012430D01*
X028812Y011895D01*
X028812Y011944D02*
X028928Y011944D01*
X028928Y012102D02*
X028812Y012102D01*
X028812Y012261D02*
X028928Y012261D01*
X028928Y012419D02*
X028812Y012419D01*
X028812Y012578D02*
X028928Y012578D01*
X028928Y012736D02*
X028812Y012736D01*
X028812Y012895D02*
X028928Y012895D01*
X028928Y013053D02*
X028812Y013053D01*
X028354Y013053D02*
X027817Y013053D01*
X027870Y012895D02*
X028277Y012895D01*
X028277Y012736D02*
X027870Y012736D01*
X027870Y012578D02*
X028277Y012578D01*
X028277Y012419D02*
X027870Y012419D01*
X027870Y012261D02*
X028277Y012261D01*
X028277Y012102D02*
X027870Y012102D01*
X027836Y011944D02*
X028333Y011944D01*
X029407Y011944D02*
X029905Y011944D01*
X029907Y011939D02*
X029974Y011871D01*
X030063Y011835D01*
X030985Y011835D01*
X031073Y011871D01*
X031141Y011939D01*
X031177Y012027D01*
X031177Y012949D01*
X031141Y013037D01*
X031073Y013105D01*
X030985Y013141D01*
X030063Y013141D01*
X029974Y013105D01*
X029907Y013037D01*
X029870Y012949D01*
X029870Y012027D01*
X029907Y011939D01*
X029870Y012102D02*
X029464Y012102D01*
X029464Y012261D02*
X029870Y012261D01*
X029870Y012419D02*
X029464Y012419D01*
X029464Y012578D02*
X029870Y012578D01*
X029870Y012736D02*
X029464Y012736D01*
X029464Y012895D02*
X029870Y012895D01*
X029923Y013053D02*
X029386Y013053D01*
X031125Y013053D02*
X031576Y013053D01*
X031524Y012895D02*
X031177Y012895D01*
X031177Y012736D02*
X031524Y012736D01*
X031524Y012578D02*
X031177Y012578D01*
X031177Y012419D02*
X031524Y012419D01*
X031524Y012261D02*
X031177Y012261D01*
X031177Y012102D02*
X031524Y012102D01*
X031558Y011944D02*
X031143Y011944D01*
X031628Y010939D02*
X031560Y010872D01*
X031524Y010784D01*
X031524Y009861D01*
X031560Y009773D01*
X031628Y009706D01*
X031716Y009669D01*
X032638Y009669D01*
X032727Y009706D01*
X032794Y009773D01*
X032831Y009861D01*
X032831Y010784D01*
X032794Y010872D01*
X032727Y010939D01*
X032638Y010976D01*
X031716Y010976D01*
X031628Y010939D01*
X031545Y010834D02*
X031156Y010834D01*
X031177Y010675D02*
X031524Y010675D01*
X031524Y010517D02*
X031177Y010517D01*
X031177Y010358D02*
X031524Y010358D01*
X031524Y010200D02*
X031177Y010200D01*
X031177Y010041D02*
X031524Y010041D01*
X031524Y009882D02*
X031177Y009882D01*
X031091Y009724D02*
X031610Y009724D01*
X032745Y009724D02*
X033263Y009724D01*
X033177Y009882D02*
X032831Y009882D01*
X032831Y010041D02*
X033177Y010041D01*
X033177Y010200D02*
X032831Y010200D01*
X032831Y010358D02*
X033177Y010358D01*
X033177Y010517D02*
X032831Y010517D01*
X032831Y010675D02*
X033177Y010675D01*
X033198Y010834D02*
X032810Y010834D01*
X034819Y011151D02*
X017961Y011151D01*
X017807Y011309D02*
X034973Y011309D01*
X035210Y011468D02*
X017570Y011468D01*
X016090Y009955D02*
X013840Y009955D01*
X014048Y009565D02*
X016027Y009565D01*
X016186Y009407D02*
X013510Y009407D01*
X013510Y009565D02*
X013631Y009565D01*
X013510Y009248D02*
X016344Y009248D01*
X016565Y009090D02*
X013510Y009090D01*
X012750Y012578D02*
X001085Y012578D01*
X001085Y012736D02*
X012768Y012736D01*
X012857Y012895D02*
X001085Y012895D01*
X006940Y017405D02*
X006990Y017455D01*
X007090Y017555D01*
X007090Y018155D01*
X010790Y021855D01*
X011340Y021855D01*
X011540Y021355D02*
X007990Y017805D01*
X007990Y017455D01*
X007990Y017405D01*
X008990Y017455D02*
X009240Y017905D01*
X012390Y021005D01*
X011940Y021355D02*
X011540Y021355D01*
X012890Y020555D02*
X010240Y017905D01*
X009990Y017455D01*
X010990Y017455D02*
X011040Y018005D01*
X013090Y020055D01*
X013140Y019655D02*
X013290Y019655D01*
X013640Y020005D01*
X013840Y019505D02*
X012240Y017905D01*
X011990Y017455D01*
X011490Y016905D02*
X011490Y018005D01*
X013140Y019655D01*
X014240Y018905D02*
X013240Y017905D01*
X012990Y017455D01*
X013040Y016905D01*
X013040Y015505D01*
X013246Y015114D02*
X027509Y015114D01*
X027467Y015156D02*
X027591Y015032D01*
X027752Y014965D01*
X027927Y014965D01*
X028089Y015032D01*
X028213Y015156D01*
X028280Y015318D01*
X028280Y015493D01*
X028213Y015654D01*
X028089Y015778D01*
X027927Y015845D01*
X027852Y015845D01*
X027580Y016118D01*
X027580Y016193D01*
X027513Y016354D01*
X027389Y016478D01*
X027227Y016545D01*
X027052Y016545D01*
X026891Y016478D01*
X026767Y016354D01*
X026700Y016193D01*
X026700Y016018D01*
X026767Y015856D01*
X026891Y015732D01*
X027052Y015665D01*
X027127Y015665D01*
X027400Y015393D01*
X027400Y015318D01*
X027467Y015156D01*
X027418Y015273D02*
X013420Y015273D01*
X013480Y015431D02*
X027361Y015431D01*
X027203Y015590D02*
X013480Y015590D01*
X013415Y015749D02*
X026874Y015749D01*
X026746Y015907D02*
X013360Y015907D01*
X013360Y016066D02*
X026700Y016066D01*
X026713Y016224D02*
X013360Y016224D01*
X013360Y016383D02*
X026795Y016383D01*
X027043Y016541D02*
X013360Y016541D01*
X013360Y016700D02*
X013682Y016700D01*
X013528Y016858D02*
X013451Y016858D01*
X014298Y016700D02*
X017835Y016700D01*
X017894Y016675D02*
X017970Y016675D01*
X017970Y017435D01*
X017510Y017435D01*
X017510Y017060D01*
X017583Y016883D01*
X017718Y016748D01*
X017894Y016675D01*
X017970Y016700D02*
X018010Y016700D01*
X018145Y016700D02*
X018835Y016700D01*
X018894Y016675D02*
X018970Y016675D01*
X018970Y017435D01*
X018510Y017435D01*
X018510Y017060D01*
X018583Y016883D01*
X018718Y016748D01*
X018894Y016675D01*
X018970Y016700D02*
X019010Y016700D01*
X019145Y016700D02*
X019682Y016700D01*
X019528Y016858D02*
X019372Y016858D01*
X019452Y017017D02*
X019463Y017017D01*
X019010Y017017D02*
X018970Y017017D01*
X018970Y017175D02*
X019010Y017175D01*
X019010Y017334D02*
X018970Y017334D01*
X018970Y016858D02*
X019010Y016858D01*
X018608Y016858D02*
X018372Y016858D01*
X018452Y017017D02*
X018528Y017017D01*
X018510Y017175D02*
X018470Y017175D01*
X018470Y017334D02*
X018510Y017334D01*
X018510Y017493D02*
X018470Y017493D01*
X018470Y017651D02*
X018510Y017651D01*
X018510Y017810D02*
X018470Y017810D01*
X018421Y017968D02*
X018559Y017968D01*
X018010Y017334D02*
X017970Y017334D01*
X017970Y017175D02*
X018010Y017175D01*
X018010Y017017D02*
X017970Y017017D01*
X017970Y016858D02*
X018010Y016858D01*
X017608Y016858D02*
X014451Y016858D01*
X014517Y017017D02*
X014665Y017017D01*
X014990Y017455D02*
X015240Y017605D01*
X015990Y018355D01*
X016040Y018405D01*
X026140Y018405D01*
X026790Y019055D01*
X027228Y019078D02*
X027265Y019078D01*
X027228Y018919D02*
X027423Y018919D01*
X027582Y018761D02*
X027208Y018761D01*
X026789Y018602D02*
X027957Y018602D01*
X028116Y018444D02*
X026631Y018444D01*
X026472Y018285D02*
X031870Y018285D01*
X031870Y018127D02*
X026382Y018127D01*
X026486Y017968D02*
X031870Y017968D01*
X031870Y017810D02*
X026530Y017810D01*
X026530Y017651D02*
X031870Y017651D01*
X031870Y017493D02*
X026530Y017493D01*
X026530Y017334D02*
X031870Y017334D01*
X031870Y017175D02*
X026530Y017175D01*
X026517Y017017D02*
X031870Y017017D01*
X031870Y016858D02*
X026451Y016858D01*
X026298Y016700D02*
X031870Y016700D01*
X031870Y016541D02*
X027237Y016541D01*
X027485Y016383D02*
X031870Y016383D01*
X031870Y016224D02*
X027567Y016224D01*
X027632Y016066D02*
X031870Y016066D01*
X031870Y015907D02*
X027791Y015907D01*
X028119Y015749D02*
X031870Y015749D01*
X031870Y015590D02*
X028240Y015590D01*
X028280Y015431D02*
X031870Y015431D01*
X031870Y015273D02*
X028261Y015273D01*
X028171Y015114D02*
X031870Y015114D01*
X031870Y014956D02*
X013392Y014956D01*
X013550Y014797D02*
X031870Y014797D01*
X031870Y014639D02*
X013709Y014639D01*
X013868Y014480D02*
X031870Y014480D01*
X032190Y014055D02*
X032190Y021055D01*
X032440Y021055D01*
X032840Y021455D01*
X033146Y021139D02*
X033340Y021139D01*
X033499Y020980D02*
X032818Y020980D01*
X032659Y020822D02*
X033657Y020822D01*
X033816Y020663D02*
X032510Y020663D01*
X032510Y020505D02*
X033974Y020505D01*
X034133Y020346D02*
X032510Y020346D01*
X032510Y020188D02*
X034291Y020188D01*
X034450Y020029D02*
X032510Y020029D01*
X032510Y019871D02*
X034608Y019871D01*
X034767Y019712D02*
X032510Y019712D01*
X032510Y019554D02*
X034925Y019554D01*
X035084Y019395D02*
X032510Y019395D01*
X032510Y019236D02*
X035242Y019236D01*
X035401Y019078D02*
X032510Y019078D01*
X032510Y018919D02*
X035560Y018919D01*
X035718Y018761D02*
X032510Y018761D01*
X032510Y018602D02*
X035877Y018602D01*
X036035Y018444D02*
X032510Y018444D01*
X032510Y018285D02*
X036194Y018285D01*
X036352Y018127D02*
X032510Y018127D01*
X032510Y017968D02*
X036511Y017968D01*
X036669Y017810D02*
X032510Y017810D01*
X032510Y017651D02*
X036828Y017651D01*
X036975Y017493D02*
X032510Y017493D01*
X032510Y017334D02*
X036975Y017334D01*
X036975Y017175D02*
X032510Y017175D01*
X032510Y017017D02*
X036975Y017017D01*
X036975Y016858D02*
X032510Y016858D01*
X032510Y016700D02*
X036975Y016700D01*
X036975Y016541D02*
X032510Y016541D01*
X032510Y016383D02*
X036771Y016383D01*
X036612Y016224D02*
X032510Y016224D01*
X032510Y016066D02*
X036454Y016066D01*
X036450Y015907D02*
X032510Y015907D01*
X032510Y015749D02*
X036450Y015749D01*
X036450Y015590D02*
X032510Y015590D01*
X032510Y015431D02*
X036467Y015431D01*
X036626Y015273D02*
X032510Y015273D01*
X031870Y013687D02*
X023224Y013687D01*
X023382Y013529D02*
X024868Y013529D01*
X024689Y013370D02*
X023541Y013370D01*
X023699Y013212D02*
X024197Y013212D01*
X024563Y012419D02*
X024970Y012419D01*
X024970Y012261D02*
X024563Y012261D01*
X024563Y012102D02*
X024970Y012102D01*
X025026Y011944D02*
X024528Y011944D01*
X024928Y012578D02*
X024970Y012578D01*
X025505Y012419D02*
X025621Y012419D01*
X025621Y012261D02*
X025505Y012261D01*
X025505Y012102D02*
X025621Y012102D01*
X025621Y011944D02*
X025505Y011944D01*
X026100Y011944D02*
X026598Y011944D01*
X026563Y012102D02*
X026156Y012102D01*
X026156Y012261D02*
X026563Y012261D01*
X026563Y012419D02*
X026156Y012419D01*
X026156Y012578D02*
X026563Y012578D01*
X026443Y012736D02*
X026156Y012736D01*
X026841Y013370D02*
X031870Y013370D01*
X031870Y013212D02*
X026999Y013212D01*
X026662Y013529D02*
X031870Y013529D01*
X027840Y015405D02*
X027140Y016105D01*
X025682Y016700D02*
X025298Y016700D01*
X025451Y016858D02*
X025528Y016858D01*
X024682Y016700D02*
X024298Y016700D01*
X024451Y016858D02*
X024528Y016858D01*
X023682Y016700D02*
X023298Y016700D01*
X023451Y016858D02*
X023528Y016858D01*
X022682Y016700D02*
X022298Y016700D01*
X022451Y016858D02*
X022528Y016858D01*
X021682Y016700D02*
X021298Y016700D01*
X021451Y016858D02*
X021528Y016858D01*
X020682Y016700D02*
X020298Y016700D01*
X020451Y016858D02*
X020528Y016858D01*
X017754Y018761D02*
X026043Y018761D01*
X026472Y019871D02*
X015677Y019871D01*
X015518Y020029D02*
X026313Y020029D01*
X026155Y020188D02*
X015360Y020188D01*
X015201Y020346D02*
X025996Y020346D01*
X025838Y020505D02*
X024454Y020505D01*
X024367Y020469D02*
X024551Y020545D01*
X024692Y020686D01*
X024768Y020869D01*
X024768Y021068D01*
X024692Y021252D01*
X024551Y021393D01*
X024367Y021469D01*
X024168Y021469D01*
X023984Y021393D01*
X023917Y021325D01*
X022412Y021325D01*
X022900Y021812D01*
X023024Y021812D01*
X023207Y021888D01*
X023348Y022029D01*
X023424Y022213D01*
X023424Y022412D01*
X023348Y022596D01*
X023207Y022736D01*
X023024Y022812D01*
X022825Y022812D01*
X022641Y022736D01*
X022500Y022596D01*
X022424Y022412D01*
X022424Y022242D01*
X022007Y021825D01*
X017039Y021825D01*
X016988Y021877D01*
X016827Y021943D01*
X016653Y021943D01*
X016492Y021877D01*
X016369Y021753D01*
X016302Y021592D01*
X016302Y021418D01*
X016369Y021257D01*
X016492Y021134D01*
X016653Y021067D01*
X016827Y021067D01*
X016965Y021124D01*
X016952Y021092D01*
X016952Y020918D01*
X017019Y020757D01*
X017142Y020634D01*
X017303Y020567D01*
X017477Y020567D01*
X017638Y020634D01*
X017689Y020685D01*
X023844Y020685D01*
X023984Y020545D01*
X024168Y020469D01*
X024367Y020469D01*
X024081Y020505D02*
X015043Y020505D01*
X014884Y020663D02*
X017112Y020663D01*
X016992Y020822D02*
X014726Y020822D01*
X014567Y020980D02*
X016952Y020980D01*
X017390Y021005D02*
X024240Y021005D01*
X024276Y020969D01*
X024268Y020969D01*
X024276Y020969D02*
X024290Y020955D01*
X024748Y020822D02*
X025521Y020822D01*
X025679Y020663D02*
X024669Y020663D01*
X024768Y020980D02*
X025362Y020980D01*
X025204Y021139D02*
X024738Y021139D01*
X024646Y021298D02*
X025045Y021298D01*
X024887Y021456D02*
X024398Y021456D01*
X024138Y021456D02*
X022543Y021456D01*
X022702Y021615D02*
X024728Y021615D01*
X024569Y021773D02*
X022860Y021773D01*
X023251Y021932D02*
X024411Y021932D01*
X024252Y022090D02*
X023373Y022090D01*
X023424Y022249D02*
X024094Y022249D01*
X023935Y022407D02*
X023424Y022407D01*
X023360Y022566D02*
X023777Y022566D01*
X023618Y022724D02*
X023219Y022724D01*
X023460Y022883D02*
X012665Y022883D01*
X012823Y022724D02*
X022629Y022724D01*
X022488Y022566D02*
X012982Y022566D01*
X013140Y022407D02*
X022424Y022407D01*
X022424Y022249D02*
X013299Y022249D01*
X013457Y022090D02*
X022272Y022090D01*
X022114Y021932D02*
X016855Y021932D01*
X016625Y021932D02*
X013616Y021932D01*
X013774Y021773D02*
X016388Y021773D01*
X016311Y021615D02*
X013933Y021615D01*
X014092Y021456D02*
X016302Y021456D01*
X016352Y021298D02*
X014250Y021298D01*
X014409Y021139D02*
X016487Y021139D01*
X016740Y021505D02*
X022140Y021505D01*
X022940Y022305D01*
X022933Y022312D01*
X022924Y022312D01*
X023301Y023042D02*
X012506Y023042D01*
X012348Y023200D02*
X023143Y023200D01*
X022984Y023359D02*
X012189Y023359D01*
X012031Y023517D02*
X022825Y023517D01*
X022667Y023676D02*
X011872Y023676D01*
X011713Y023834D02*
X022508Y023834D01*
X022350Y023993D02*
X011555Y023993D01*
X011396Y024151D02*
X022191Y024151D01*
X022033Y024310D02*
X011238Y024310D01*
X011079Y024468D02*
X021874Y024468D01*
X021716Y024627D02*
X010921Y024627D01*
X010762Y024786D02*
X021557Y024786D01*
X021399Y024944D02*
X002125Y024944D01*
X001360Y021615D02*
X001320Y021615D01*
X001320Y021456D02*
X001360Y021456D01*
X001360Y021298D02*
X001320Y021298D01*
X001320Y021139D02*
X001360Y021139D01*
X001360Y020980D02*
X001320Y020980D01*
X001320Y020822D02*
X001360Y020822D01*
X001360Y020663D02*
X001320Y020663D01*
X001320Y020505D02*
X001360Y020505D01*
X001360Y020346D02*
X001320Y020346D01*
X010786Y015749D02*
X011694Y015749D01*
X011536Y015907D02*
X010944Y015907D01*
X011103Y016066D02*
X011377Y016066D01*
X011240Y016655D02*
X011490Y016905D01*
X011862Y014956D02*
X012487Y014956D01*
X012645Y014797D02*
X012021Y014797D01*
X012089Y014639D02*
X012804Y014639D01*
X012962Y014480D02*
X012132Y014480D01*
X012132Y014322D02*
X013121Y014322D01*
X013279Y014163D02*
X012092Y014163D01*
X012026Y014005D02*
X013438Y014005D01*
X010781Y014639D02*
X010729Y014639D01*
X015315Y017017D02*
X017528Y017017D01*
X017510Y017175D02*
X015474Y017175D01*
X015530Y017334D02*
X017510Y017334D01*
X017510Y017493D02*
X015580Y017493D01*
X015738Y017651D02*
X017510Y017651D01*
X017510Y017810D02*
X015897Y017810D01*
X016200Y017968D02*
X017559Y017968D01*
X018627Y019712D02*
X015836Y019712D01*
X017668Y020663D02*
X023866Y020663D01*
X027339Y023359D02*
X028108Y023359D01*
X029390Y021905D02*
X029640Y021805D01*
X030790Y021805D01*
X031540Y021055D01*
X032190Y021055D01*
X031870Y020663D02*
X031270Y020663D01*
X031592Y021456D02*
X031800Y021456D01*
X031809Y021615D02*
X031433Y021615D01*
X031275Y021773D02*
X031875Y021773D01*
X031875Y021932D02*
X031116Y021932D01*
X030938Y022090D02*
X031875Y022090D01*
X032605Y023359D02*
X040095Y023359D01*
X040095Y023517D02*
X032605Y023517D01*
X032605Y023676D02*
X040095Y023676D01*
X040095Y023834D02*
X032605Y023834D01*
X032605Y023993D02*
X040095Y023993D01*
X040095Y024151D02*
X032605Y024151D01*
X032605Y024310D02*
X040095Y024310D01*
X040095Y024468D02*
X032619Y024468D01*
X032778Y024627D02*
X040095Y024627D01*
X040095Y024786D02*
X032936Y024786D01*
X033095Y024944D02*
X040095Y024944D01*
X040095Y025103D02*
X033253Y025103D01*
X033405Y025261D02*
X040095Y025261D01*
X040095Y025737D02*
X037633Y025737D01*
X037792Y025895D02*
X040095Y025895D01*
X040095Y026054D02*
X037870Y026054D01*
X037870Y026212D02*
X040095Y026212D01*
X040095Y026371D02*
X037870Y026371D01*
X037870Y026529D02*
X040095Y026529D01*
X040095Y026688D02*
X037719Y026688D01*
X037560Y026847D02*
X040095Y026847D01*
X033584Y028432D02*
X033461Y028432D01*
X032190Y027798D02*
X032150Y027798D01*
X032150Y027639D02*
X032190Y027639D01*
X032190Y027481D02*
X032150Y027481D01*
X031678Y027005D02*
X030102Y027005D01*
X030307Y027164D02*
X031473Y027164D01*
X031401Y027322D02*
X030378Y027322D01*
X030390Y027481D02*
X031390Y027481D01*
X031431Y027639D02*
X030349Y027639D01*
X030236Y027798D02*
X031544Y027798D01*
X032590Y026655D02*
X025740Y026655D01*
X025390Y027005D01*
X025240Y027005D01*
X024990Y027455D01*
X024535Y026847D02*
X024445Y026847D01*
X024273Y026688D02*
X024707Y026688D01*
X024327Y026371D02*
X025590Y026371D01*
X025413Y026529D02*
X024168Y026529D01*
X024394Y028115D02*
X024586Y028115D01*
X024830Y028273D02*
X024150Y028273D01*
X025338Y029542D02*
X022460Y029542D01*
X022460Y029700D02*
X025123Y029700D01*
X025054Y029859D02*
X022460Y029859D01*
X022460Y030017D02*
X025050Y030017D01*
X025105Y030176D02*
X022563Y030176D01*
X022722Y030335D02*
X025256Y030335D01*
X025575Y030493D02*
X022880Y030493D01*
X023039Y030652D02*
X025734Y030652D01*
X025892Y030810D02*
X023197Y030810D01*
X023356Y030969D02*
X026051Y030969D01*
X026209Y031127D02*
X023514Y031127D01*
X023673Y031286D02*
X026368Y031286D01*
X026526Y031444D02*
X023831Y031444D01*
X023990Y031603D02*
X025342Y031603D01*
X025449Y031495D02*
X025630Y031495D01*
X025630Y031945D01*
X025650Y031945D01*
X025650Y031495D01*
X025830Y031495D01*
X026100Y031765D01*
X026100Y031945D01*
X025650Y031945D01*
X025650Y031965D01*
X026100Y031965D01*
X026100Y032146D01*
X025830Y032415D01*
X025650Y032415D01*
X025650Y031966D01*
X025630Y031966D01*
X025630Y032415D01*
X025449Y032415D01*
X025180Y032146D01*
X025180Y031965D01*
X025630Y031965D01*
X025630Y031945D01*
X025180Y031945D01*
X025180Y031765D01*
X025449Y031495D01*
X025630Y031603D02*
X025650Y031603D01*
X025650Y031761D02*
X025630Y031761D01*
X025630Y031920D02*
X025650Y031920D01*
X025650Y032079D02*
X025630Y032079D01*
X025630Y032237D02*
X025650Y032237D01*
X025650Y032396D02*
X025630Y032396D01*
X025630Y032554D02*
X025650Y032554D01*
X025650Y032713D02*
X025630Y032713D01*
X025630Y032871D02*
X025650Y032871D01*
X025889Y032554D02*
X026306Y032554D01*
X026430Y032396D02*
X025850Y032396D01*
X026009Y032237D02*
X026271Y032237D01*
X026180Y032079D02*
X026100Y032079D01*
X026100Y031920D02*
X026180Y031920D01*
X026183Y031761D02*
X026097Y031761D01*
X025938Y031603D02*
X026342Y031603D01*
X026630Y032079D02*
X026650Y032079D01*
X026650Y032237D02*
X026630Y032237D01*
X026630Y032396D02*
X026650Y032396D01*
X026850Y032396D02*
X027047Y032396D01*
X027009Y032237D02*
X027186Y032237D01*
X027120Y032079D02*
X027100Y032079D01*
X027390Y031855D02*
X027640Y031955D01*
X027390Y031855D02*
X025490Y029955D01*
X025641Y029542D02*
X025820Y029542D01*
X025820Y029383D02*
X022460Y029383D01*
X022460Y029225D02*
X025820Y029225D01*
X025820Y029066D02*
X022460Y029066D01*
X022460Y028908D02*
X025820Y028908D01*
X025820Y028749D02*
X022460Y028749D01*
X022460Y028591D02*
X025820Y028591D01*
X026460Y028749D02*
X026731Y028749D01*
X026890Y028908D02*
X026460Y028908D01*
X026460Y029066D02*
X027048Y029066D01*
X027207Y029225D02*
X026832Y029225D01*
X026945Y029383D02*
X027365Y029383D01*
X027524Y029542D02*
X026980Y029542D01*
X027138Y029700D02*
X027682Y029700D01*
X027841Y029859D02*
X027296Y029859D01*
X027455Y030017D02*
X028000Y030017D01*
X028158Y030176D02*
X027613Y030176D01*
X027772Y030335D02*
X028317Y030335D01*
X028475Y030493D02*
X027930Y030493D01*
X028089Y030652D02*
X028634Y030652D01*
X028792Y030810D02*
X028247Y030810D01*
X028406Y030969D02*
X028951Y030969D01*
X029109Y031127D02*
X028564Y031127D01*
X028723Y031286D02*
X029268Y031286D01*
X029426Y031444D02*
X028864Y031444D01*
X029023Y031603D02*
X029342Y031603D01*
X029183Y031761D02*
X029160Y031761D01*
X029160Y031920D02*
X029180Y031920D01*
X029180Y032079D02*
X029160Y032079D01*
X029093Y032237D02*
X029271Y032237D01*
X029430Y032396D02*
X028935Y032396D01*
X028974Y032554D02*
X029306Y032554D01*
X029147Y032713D02*
X029133Y032713D01*
X029630Y032396D02*
X029650Y032396D01*
X029650Y032237D02*
X029630Y032237D01*
X029630Y032079D02*
X029650Y032079D01*
X029850Y032396D02*
X030378Y032396D01*
X030536Y032554D02*
X029974Y032554D01*
X030133Y032713D02*
X030695Y032713D01*
X030853Y032871D02*
X030160Y032871D01*
X030160Y033030D02*
X031012Y033030D01*
X031170Y033188D02*
X030142Y033188D01*
X030219Y032237D02*
X030009Y032237D01*
X028640Y031955D02*
X028540Y031705D01*
X028540Y031555D01*
X026540Y029555D01*
X025183Y031761D02*
X024149Y031761D01*
X024307Y031920D02*
X025180Y031920D01*
X025180Y032079D02*
X024466Y032079D01*
X024624Y032237D02*
X025271Y032237D01*
X025430Y032396D02*
X024783Y032396D01*
X024941Y032554D02*
X025391Y032554D01*
X025232Y032713D02*
X025100Y032713D01*
X025440Y033505D02*
X022140Y030205D01*
X022140Y028005D01*
X021990Y027455D01*
X022190Y026955D01*
X028140Y021005D01*
X028390Y020905D01*
X028590Y020405D02*
X027840Y020405D01*
X021240Y027005D01*
X020990Y027455D01*
X020140Y028005D02*
X020140Y028605D01*
X025340Y033805D01*
X027490Y033805D01*
X028140Y033155D01*
X028140Y032755D01*
X027840Y032455D01*
X027440Y032455D01*
X027040Y032855D01*
X026890Y032855D01*
X026640Y032955D01*
X026120Y033030D02*
X026100Y033030D01*
X026100Y032871D02*
X026120Y032871D01*
X026147Y032713D02*
X026048Y032713D01*
X025440Y033505D02*
X026790Y033505D01*
X027240Y033055D01*
X027390Y033055D01*
X027640Y032955D01*
X025063Y033981D02*
X018017Y033981D01*
X018175Y033822D02*
X024905Y033822D01*
X024746Y033664D02*
X018334Y033664D01*
X018492Y033505D02*
X024587Y033505D01*
X024429Y033347D02*
X020234Y033347D01*
X020392Y033188D02*
X024270Y033188D01*
X024112Y033030D02*
X020410Y033030D01*
X020410Y032871D02*
X023953Y032871D01*
X023795Y032713D02*
X020383Y032713D01*
X020224Y032554D02*
X023636Y032554D01*
X023478Y032396D02*
X020100Y032396D01*
X020259Y032237D02*
X023319Y032237D01*
X023161Y032079D02*
X020350Y032079D01*
X020350Y031920D02*
X023002Y031920D01*
X022844Y031761D02*
X020347Y031761D01*
X020188Y031603D02*
X022685Y031603D01*
X019546Y033347D02*
X019234Y033347D01*
X016521Y032237D02*
X016259Y032237D01*
X016350Y032079D02*
X016430Y032079D01*
X016430Y031920D02*
X016350Y031920D01*
X016347Y031761D02*
X016433Y031761D01*
X016592Y031603D02*
X016188Y031603D01*
X015900Y031603D02*
X015880Y031603D01*
X015880Y031495D02*
X015880Y031945D01*
X015430Y031945D01*
X015430Y031765D01*
X015699Y031495D01*
X015880Y031495D01*
X015880Y031761D02*
X015900Y031761D01*
X015900Y031920D02*
X015880Y031920D01*
X015880Y032079D02*
X015900Y032079D01*
X015900Y032237D02*
X015880Y032237D01*
X015880Y032396D02*
X015900Y032396D01*
X015900Y032554D02*
X015880Y032554D01*
X015880Y032713D02*
X015900Y032713D01*
X015900Y032871D02*
X015880Y032871D01*
X015641Y032554D02*
X015191Y032554D01*
X015033Y032396D02*
X015680Y032396D01*
X015521Y032237D02*
X014874Y032237D01*
X014716Y032079D02*
X015430Y032079D01*
X015430Y031920D02*
X014557Y031920D01*
X014399Y031761D02*
X015433Y031761D01*
X015592Y031603D02*
X014240Y031603D01*
X013728Y032396D02*
X011160Y032396D01*
X011160Y032554D02*
X013886Y032554D01*
X014045Y032713D02*
X011160Y032713D01*
X011160Y032871D02*
X014203Y032871D01*
X014362Y033030D02*
X011155Y033030D01*
X011059Y033188D02*
X014520Y033188D01*
X014679Y033347D02*
X010901Y033347D01*
X010742Y033505D02*
X014837Y033505D01*
X014996Y033664D02*
X010584Y033664D01*
X008796Y033347D02*
X008484Y033347D01*
X007796Y033347D02*
X007484Y033347D01*
X007140Y032955D02*
X006890Y033055D01*
X006790Y033055D01*
X006771Y032237D02*
X006509Y032237D01*
X006600Y032079D02*
X006680Y032079D01*
X006680Y031920D02*
X006600Y031920D01*
X006597Y031761D02*
X006683Y031761D01*
X006842Y031603D02*
X006438Y031603D01*
X005930Y032396D02*
X005910Y032396D01*
X007350Y032396D02*
X007845Y032396D01*
X007806Y032554D02*
X007474Y032554D01*
X007633Y032713D02*
X007647Y032713D01*
X007686Y032237D02*
X007509Y032237D01*
X007600Y032079D02*
X007620Y032079D01*
X007620Y031920D02*
X007600Y031920D01*
X007597Y031761D02*
X007620Y031761D01*
X015350Y032713D02*
X015482Y032713D01*
X016298Y032713D02*
X016397Y032713D01*
X016370Y032871D02*
X016350Y032871D01*
X016350Y033030D02*
X016370Y033030D01*
X019445Y026847D02*
X019535Y026847D01*
X019651Y026688D02*
X019273Y026688D01*
X016090Y023255D02*
X016240Y023105D01*
X015040Y021905D01*
X016240Y023105D02*
X017740Y023105D01*
X028590Y020405D02*
X028890Y020705D01*
X030269Y025261D02*
X031510Y025261D01*
X031387Y025420D02*
X030393Y025420D01*
X030450Y025578D02*
X031330Y025578D01*
X031330Y025737D02*
X030450Y025737D01*
X030399Y025895D02*
X031381Y025895D01*
X031495Y026054D02*
X030285Y026054D01*
X029630Y027481D02*
X029590Y027481D01*
X029590Y027639D02*
X029630Y027639D01*
X029630Y027798D02*
X029590Y027798D01*
X036339Y013053D02*
X040095Y013053D01*
X040095Y012895D02*
X036498Y012895D01*
X036656Y012736D02*
X040095Y012736D01*
X040095Y012578D02*
X036815Y012578D01*
X036974Y012419D02*
X040095Y012419D01*
X040095Y012261D02*
X037132Y012261D01*
X037291Y012102D02*
X040095Y012102D01*
X040095Y011944D02*
X037449Y011944D01*
X037608Y011785D02*
X040095Y011785D01*
X040095Y011626D02*
X037766Y011626D01*
X037915Y011468D02*
X040095Y011468D01*
X040095Y011309D02*
X037981Y011309D01*
X038010Y011151D02*
X040095Y011151D01*
X040095Y010992D02*
X038010Y010992D01*
X038010Y010834D02*
X038612Y010834D01*
X038350Y010675D02*
X038010Y010675D01*
X038010Y010517D02*
X038222Y010517D01*
X038157Y010358D02*
X038010Y010358D01*
X038010Y010200D02*
X038140Y010200D01*
X038142Y010041D02*
X038010Y010041D01*
X038010Y009882D02*
X038208Y009882D01*
X038315Y009724D02*
X038010Y009724D01*
X038010Y009565D02*
X038527Y009565D01*
X038573Y009248D02*
X038010Y009248D01*
X038010Y009090D02*
X038332Y009090D01*
X038212Y008931D02*
X038010Y008931D01*
X038010Y008773D02*
X038147Y008773D01*
X038136Y008614D02*
X038010Y008614D01*
X038010Y008456D02*
X038144Y008456D01*
X038210Y008297D02*
X038010Y008297D01*
X038010Y008138D02*
X038326Y008138D01*
X038559Y007980D02*
X038013Y007980D01*
X038134Y007821D02*
X040095Y007821D01*
X040095Y007663D02*
X039986Y007663D01*
X039965Y007980D02*
X040095Y007980D01*
X040095Y009248D02*
X039951Y009248D01*
X040095Y009407D02*
X038010Y009407D01*
X039920Y010834D02*
X040095Y010834D01*
X040095Y009565D02*
X040004Y009565D01*
X038538Y007663D02*
X038200Y007663D01*
X038210Y007504D02*
X038317Y007504D01*
X036870Y007187D02*
X034535Y007187D01*
X034752Y007029D02*
X035020Y007029D01*
X035082Y007091D02*
X034954Y006963D01*
X034885Y006796D01*
X034885Y006713D01*
X035332Y006713D01*
X035332Y006698D01*
X034885Y006698D01*
X034885Y006615D01*
X034954Y006448D01*
X035082Y006320D01*
X035249Y006250D01*
X035332Y006250D01*
X035332Y006698D01*
X035347Y006698D01*
X035347Y006250D01*
X035430Y006250D01*
X035598Y006320D01*
X035726Y006448D01*
X035795Y006615D01*
X035795Y006698D01*
X035348Y006698D01*
X035348Y006713D01*
X035795Y006713D01*
X035795Y006796D01*
X035726Y006963D01*
X035598Y007091D01*
X035430Y007160D01*
X035347Y007160D01*
X035347Y006713D01*
X035332Y006713D01*
X035332Y007160D01*
X035249Y007160D01*
X035082Y007091D01*
X035332Y007029D02*
X035347Y007029D01*
X035332Y006870D02*
X035347Y006870D01*
X035348Y006712D02*
X036332Y006712D01*
X036332Y006713D02*
X036332Y006698D01*
X035885Y006698D01*
X035885Y006615D01*
X035954Y006448D01*
X036082Y006320D01*
X036249Y006250D01*
X036332Y006250D01*
X036332Y006698D01*
X036347Y006698D01*
X036347Y006250D01*
X036430Y006250D01*
X036598Y006320D01*
X036726Y006448D01*
X036795Y006615D01*
X036795Y006698D01*
X036348Y006698D01*
X036348Y006713D01*
X036795Y006713D01*
X036795Y006796D01*
X036726Y006963D01*
X036598Y007091D01*
X036430Y007160D01*
X036347Y007160D01*
X036347Y006713D01*
X036332Y006713D01*
X035885Y006713D01*
X035885Y006796D01*
X035954Y006963D01*
X036082Y007091D01*
X036249Y007160D01*
X036332Y007160D01*
X036332Y006713D01*
X036348Y006712D02*
X036870Y006712D01*
X036870Y006870D02*
X036764Y006870D01*
X036660Y007029D02*
X036870Y007029D01*
X036870Y006553D02*
X036769Y006553D01*
X036673Y006394D02*
X036870Y006394D01*
X036870Y006236D02*
X034995Y006236D01*
X035007Y006394D02*
X034860Y006394D01*
X034860Y006553D02*
X034910Y006553D01*
X034860Y006712D02*
X035332Y006712D01*
X035332Y006553D02*
X035347Y006553D01*
X035332Y006394D02*
X035347Y006394D01*
X035673Y006394D02*
X036007Y006394D01*
X035910Y006553D02*
X035769Y006553D01*
X035764Y006870D02*
X035916Y006870D01*
X036020Y007029D02*
X035660Y007029D01*
X036332Y007029D02*
X036347Y007029D01*
X036332Y006870D02*
X036347Y006870D01*
X036332Y006553D02*
X036347Y006553D01*
X036332Y006394D02*
X036347Y006394D01*
X036098Y006091D02*
X035930Y006160D01*
X035847Y006160D01*
X035847Y005713D01*
X035832Y005713D01*
X035832Y005698D01*
X035385Y005698D01*
X035385Y005615D01*
X035454Y005448D01*
X035582Y005320D01*
X035749Y005250D01*
X035832Y005250D01*
X035832Y005698D01*
X035847Y005698D01*
X035847Y005250D01*
X035930Y005250D01*
X036098Y005320D01*
X036226Y005448D01*
X036295Y005615D01*
X036295Y005698D01*
X035848Y005698D01*
X035848Y005713D01*
X036295Y005713D01*
X036295Y005796D01*
X036226Y005963D01*
X036098Y006091D01*
X036111Y006077D02*
X036870Y006077D01*
X036870Y005919D02*
X036244Y005919D01*
X036295Y005760D02*
X036870Y005760D01*
X036739Y005602D02*
X036289Y005602D01*
X036221Y005443D02*
X036509Y005443D01*
X036209Y005285D02*
X036014Y005285D01*
X035847Y005285D02*
X035832Y005285D01*
X035832Y005443D02*
X035847Y005443D01*
X035832Y005602D02*
X035847Y005602D01*
X035832Y005713D02*
X035385Y005713D01*
X035385Y005796D01*
X035454Y005963D01*
X035582Y006091D01*
X035749Y006160D01*
X035832Y006160D01*
X035832Y005713D01*
X035832Y005760D02*
X035847Y005760D01*
X035832Y005919D02*
X035847Y005919D01*
X035832Y006077D02*
X035847Y006077D01*
X035569Y006077D02*
X035203Y006077D01*
X035314Y005919D02*
X035436Y005919D01*
X035385Y005760D02*
X035360Y005760D01*
X035360Y005602D02*
X035390Y005602D01*
X035458Y005443D02*
X035315Y005443D01*
X035205Y005285D02*
X035666Y005285D01*
X035963Y005126D02*
X034360Y005126D01*
X034360Y005285D02*
X034475Y005285D01*
X034834Y006870D02*
X034916Y006870D01*
X034145Y007187D02*
X033522Y007187D01*
X033745Y007029D02*
X033928Y007029D01*
X033845Y006870D02*
X033829Y006870D01*
X024970Y010517D02*
X024563Y010517D01*
X024563Y010675D02*
X024970Y010675D01*
X024993Y010834D02*
X024542Y010834D01*
D23*
X025540Y010323D02*
X025540Y012488D01*
X025563Y012488D01*
X025540Y010323D02*
X025563Y010323D01*
X025540Y010323D02*
X025540Y010205D01*
X025590Y010205D01*
X027090Y010205D01*
X027207Y010323D01*
X027217Y010323D01*
X028870Y010323D01*
X028870Y012525D01*
X028790Y012605D01*
X028870Y012525D02*
X028870Y012488D01*
X028870Y010323D02*
X028923Y010323D01*
X028940Y010305D01*
X030120Y008655D02*
X030140Y008655D01*
X030140Y008555D01*
X026190Y008555D01*
X025590Y008555D02*
X025590Y010205D01*
X022256Y010171D02*
X022240Y010155D01*
X022256Y010171D02*
X022256Y010323D01*
X022256Y008521D01*
X022190Y008455D01*
X022190Y008405D01*
X022256Y010323D02*
X022256Y012488D01*
D24*
X026790Y019055D03*
D25*
X033831Y012488D02*
X035957Y012488D01*
X037340Y011105D01*
X037340Y007705D01*
X037540Y007505D01*
X037540Y005455D01*
X036940Y004855D01*
X036840Y004855D01*
X036640Y004655D01*
X036440Y004655D01*
X036190Y004405D01*
X034040Y004405D01*
X033715Y004730D01*
X033640Y004655D02*
X029190Y004655D01*
X029190Y004605D01*
X029140Y004655D01*
X023090Y004655D01*
X022990Y004755D01*
X022890Y004655D01*
X017090Y004655D01*
X016540Y005205D01*
X022640Y005105D02*
X022990Y004755D01*
X028740Y005055D02*
X029140Y004655D01*
X029190Y004655D01*
M02*
