%
M48
M72
T01C0.0240
T02C0.0320
T03C0.0350
T04C0.0360
T05C0.0400
T06C0.0430
T07C0.0550
T08C0.0590
T09C0.0630
T10C0.1180
T11C0.1280
%
T01
X13190Y7755
X13840Y9955
X13790Y11255
X13190Y12605
X15740Y12605
X15740Y11255
X17090Y13055
X13040Y15505
X10390Y14355
X8640Y16405
X13090Y20055
X12890Y20555
X12390Y21005
X11940Y21355
X11340Y21855
X13640Y20005
X13840Y19505
X14240Y18905
X15990Y18355
X17340Y18905
X18890Y19355
X17390Y21005
X16740Y21505
X15040Y21905
X16090Y23255
X17740Y23105
X25490Y29955
X26540Y29555
X26690Y28255
X32590Y26655
X33840Y26655
X32840Y21455
X32240Y21505
X30990Y21005
X26790Y19055
X27140Y16105
X27840Y15405
X23690Y14505
X20990Y7655
X3140Y17705
X1790Y16905
T02
X22924Y22312
X24268Y20969
T03
X24140Y6705
X23140Y6705
X22140Y6705
X21140Y6705
X21640Y5705
X22640Y5705
X23640Y5705
X20640Y5705
X18040Y6705
X17040Y6705
X16040Y6705
X15040Y6705
X15540Y5705
X14540Y5705
X16540Y5705
X17540Y5705
X26740Y5705
X27740Y5705
X28740Y5705
X29740Y5705
X30240Y6705
X29240Y6705
X28240Y6705
X27240Y6705
X32840Y5705
X33840Y5705
X34840Y5705
X35840Y5705
X36340Y6705
X35340Y6705
X34340Y6705
X33340Y6705
T04
X29390Y18905
X28390Y18905
X28390Y19905
X28390Y20905
X29390Y20905
X29390Y19905
X29390Y21905
X28390Y21905
X28390Y22905
X29390Y22905
X29640Y31955
X28640Y31955
X27640Y31955
X26640Y31955
X25640Y31955
X25640Y32955
X26640Y32955
X27640Y32955
X28640Y32955
X29640Y32955
X19890Y32955
X19890Y31955
X18890Y31955
X17890Y31955
X16890Y31955
X15890Y31955
X15890Y32955
X16890Y32955
X17890Y32955
X18890Y32955
X10140Y32955
X9140Y32955
X9140Y31955
X10140Y31955
X8140Y31955
X7140Y31955
X6140Y31955
X6140Y32955
X7140Y32955
X8140Y32955
X4490Y23155
X3490Y23155
X3490Y22155
X4490Y22155
X4490Y21155
X3490Y21155
T05
X1340Y20705
X1340Y21705
X1340Y22705
X1340Y23705
X1340Y24705
X1340Y25705
X4290Y25855
X4290Y26855
X6990Y27455
X7990Y27455
X8990Y27455
X9990Y27455
X10990Y27455
X11990Y27455
X12990Y27455
X13990Y27455
X14990Y27455
X15990Y27455
X17990Y27455
X18990Y27455
X19990Y27455
X20990Y27455
X21990Y27455
X22990Y27455
X23990Y27455
X24990Y27455
X25990Y27455
X29610Y27445
X29610Y25665
X32170Y25665
X32170Y27445
X32990Y29005
X33990Y29005
X34990Y29005
X35990Y29005
X35990Y30405
X34990Y30405
X33990Y30405
X32990Y30405
X32990Y31805
X33990Y31805
X34990Y31805
X35990Y31805
X35990Y33205
X34990Y33205
X33990Y33205
X32990Y33205
X37190Y26255
X25990Y17455
X24990Y17455
X23990Y17455
X22990Y17455
X21990Y17455
X20990Y17455
X19990Y17455
X18990Y17455
X17990Y17455
X14990Y17455
X13990Y17455
X12990Y17455
X11990Y17455
X10990Y17455
X9990Y17455
X8990Y17455
X7990Y17455
X6990Y17455
X37190Y15755
T06
X11435Y14398
T07
X18949Y12488
X20603Y12488
X22256Y12488
X23910Y12488
X25563Y12488
X27217Y12488
X28870Y12488
X30524Y12488
X32177Y12488
X33831Y12488
X33831Y10323
X32177Y10323
X30524Y10323
X28870Y10323
X27217Y10323
X25563Y10323
X23910Y10323
X22256Y10323
X20603Y10323
X18949Y10323
T08
X39266Y10182
X39262Y8611
X39262Y7040
T09
X11437Y6132
T10
X17099Y10504
X35681Y10504
X38990Y3455
X38990Y33955
X2240Y33955
T11
X14040Y3205
X18540Y3205
X20140Y3205
X24640Y3205
X26240Y3205
X30740Y3205
X32340Y3205
X36840Y3205
M30
