G75*
G70*
%OFA0B0*%
%FSLAX24Y24*%
%IPPOS*%
%LPD*%
%AMOC8*
5,1,8,0,0,1.08239X$1,22.5*
%
%ADD10C,0.0000*%
%ADD11C,0.0030*%
%ADD12C,0.0020*%
%ADD13C,0.0040*%
%ADD14C,0.0080*%
%ADD15C,0.0010*%
%ADD16C,0.0070*%
%ADD17C,0.0120*%
%ADD18C,0.0160*%
%ADD19C,0.0060*%
%ADD20R,0.0290X0.0690*%
%ADD21C,0.0050*%
%ADD22R,0.0200X0.0200*%
%ADD23R,0.0669X0.0295*%
%ADD24R,0.0049X0.0197*%
%ADD25R,0.0128X0.0089*%
%ADD26R,0.0089X0.0049*%
%ADD27R,0.0049X0.0167*%
%ADD28R,0.0138X0.0197*%
%ADD29R,0.0049X0.0236*%
%ADD30R,0.0118X0.0669*%
%ADD31R,0.0276X0.0669*%
%ADD32R,0.0167X0.0128*%
%ADD33R,0.0138X0.0138*%
%ADD34R,0.0295X0.0669*%
%ADD35R,0.0690X0.0290*%
%ADD36C,0.0180*%
%ADD37C,0.0100*%
%ADD38R,0.0157X0.0453*%
%ADD39R,0.0157X0.0453*%
%ADD40R,0.0158X0.0453*%
%ADD41R,0.0453X0.0157*%
%ADD42R,0.0453X0.0157*%
%ADD43R,0.0453X0.0158*%
%ADD44R,0.0433X0.0193*%
%ADD45C,0.0240*%
%ADD46C,0.0320*%
%ADD47R,0.0320X0.0460*%
D10*
X000605Y001857D02*
X000605Y035553D01*
X040575Y035553D01*
X040575Y001857D01*
X000605Y001857D01*
X011122Y006132D02*
X011158Y006278D01*
X011258Y006391D01*
X011399Y006445D01*
X011549Y006427D01*
X011673Y006341D01*
X011743Y006207D01*
X011743Y006057D01*
X011673Y005923D01*
X011549Y005837D01*
X011399Y005819D01*
X011258Y005873D01*
X011158Y005986D01*
X011122Y006132D01*
X013400Y003205D02*
X013439Y003424D01*
X013550Y003616D01*
X013720Y003759D01*
X013929Y003835D01*
X014151Y003835D01*
X014360Y003759D01*
X014530Y003616D01*
X014641Y003424D01*
X014680Y003205D01*
X014641Y002986D01*
X014530Y002794D01*
X014360Y002651D01*
X014151Y002575D01*
X013929Y002575D01*
X013720Y002651D01*
X013550Y002794D01*
X013439Y002986D01*
X013400Y003205D01*
X017900Y003205D02*
X017939Y003424D01*
X018050Y003616D01*
X018220Y003759D01*
X018429Y003835D01*
X018651Y003835D01*
X018860Y003759D01*
X019030Y003616D01*
X019141Y003424D01*
X019180Y003205D01*
X019141Y002986D01*
X019030Y002794D01*
X018860Y002651D01*
X018651Y002575D01*
X018429Y002575D01*
X018220Y002651D01*
X018050Y002794D01*
X017939Y002986D01*
X017900Y003205D01*
X019500Y003205D02*
X019539Y003424D01*
X019650Y003616D01*
X019820Y003759D01*
X020029Y003835D01*
X020251Y003835D01*
X020460Y003759D01*
X020630Y003616D01*
X020741Y003424D01*
X020780Y003205D01*
X020741Y002986D01*
X020630Y002794D01*
X020460Y002651D01*
X020251Y002575D01*
X020029Y002575D01*
X019820Y002651D01*
X019650Y002794D01*
X019539Y002986D01*
X019500Y003205D01*
X024000Y003205D02*
X024039Y003424D01*
X024150Y003616D01*
X024320Y003759D01*
X024529Y003835D01*
X024751Y003835D01*
X024960Y003759D01*
X025130Y003616D01*
X025241Y003424D01*
X025280Y003205D01*
X025241Y002986D01*
X025130Y002794D01*
X024960Y002651D01*
X024751Y002575D01*
X024529Y002575D01*
X024320Y002651D01*
X024150Y002794D01*
X024039Y002986D01*
X024000Y003205D01*
X025600Y003205D02*
X025639Y003424D01*
X025750Y003616D01*
X025920Y003759D01*
X026129Y003835D01*
X026351Y003835D01*
X026560Y003759D01*
X026730Y003616D01*
X026841Y003424D01*
X026880Y003205D01*
X026841Y002986D01*
X026730Y002794D01*
X026560Y002651D01*
X026351Y002575D01*
X026129Y002575D01*
X025920Y002651D01*
X025750Y002794D01*
X025639Y002986D01*
X025600Y003205D01*
X030100Y003205D02*
X030139Y003424D01*
X030250Y003616D01*
X030420Y003759D01*
X030629Y003835D01*
X030851Y003835D01*
X031060Y003759D01*
X031230Y003616D01*
X031341Y003424D01*
X031380Y003205D01*
X031341Y002986D01*
X031230Y002794D01*
X031060Y002651D01*
X030851Y002575D01*
X030629Y002575D01*
X030420Y002651D01*
X030250Y002794D01*
X030139Y002986D01*
X030100Y003205D01*
X031700Y003205D02*
X031739Y003424D01*
X031850Y003616D01*
X032020Y003759D01*
X032229Y003835D01*
X032451Y003835D01*
X032660Y003759D01*
X032830Y003616D01*
X032941Y003424D01*
X032980Y003205D01*
X032941Y002986D01*
X032830Y002794D01*
X032660Y002651D01*
X032451Y002575D01*
X032229Y002575D01*
X032020Y002651D01*
X031850Y002794D01*
X031739Y002986D01*
X031700Y003205D01*
X036200Y003205D02*
X036239Y003424D01*
X036350Y003616D01*
X036520Y003759D01*
X036729Y003835D01*
X036951Y003835D01*
X037160Y003759D01*
X037330Y003616D01*
X037441Y003424D01*
X037480Y003205D01*
X037441Y002986D01*
X037330Y002794D01*
X037160Y002651D01*
X036951Y002575D01*
X036729Y002575D01*
X036520Y002651D01*
X036350Y002794D01*
X036239Y002986D01*
X036200Y003205D01*
X038399Y003455D02*
X038435Y003657D01*
X038537Y003835D01*
X038694Y003967D01*
X038887Y004037D01*
X039093Y004037D01*
X039285Y003967D01*
X039443Y003835D01*
X039545Y003657D01*
X039581Y003455D01*
X039545Y003253D01*
X039443Y003075D01*
X039286Y002943D01*
X039093Y002873D01*
X038887Y002873D01*
X038694Y002943D01*
X038537Y003075D01*
X038435Y003253D01*
X038399Y003455D01*
X035090Y010504D02*
X035126Y010706D01*
X035228Y010884D01*
X035385Y011016D01*
X035578Y011086D01*
X035784Y011086D01*
X035976Y011016D01*
X036134Y010884D01*
X036236Y010706D01*
X036272Y010504D01*
X036236Y010302D01*
X036134Y010124D01*
X035977Y009992D01*
X035784Y009922D01*
X035578Y009922D01*
X035385Y009992D01*
X035228Y010124D01*
X035126Y010302D01*
X035090Y010504D01*
X016508Y010504D02*
X016544Y010706D01*
X016646Y010884D01*
X016803Y011016D01*
X016996Y011086D01*
X017202Y011086D01*
X017394Y011016D01*
X017552Y010884D01*
X017654Y010706D01*
X017690Y010504D01*
X017654Y010302D01*
X017552Y010124D01*
X017395Y009992D01*
X017202Y009922D01*
X016996Y009922D01*
X016803Y009992D01*
X016646Y010124D01*
X016544Y010302D01*
X016508Y010504D01*
X011218Y014398D02*
X011252Y014515D01*
X011345Y014595D01*
X011466Y014613D01*
X011577Y014562D01*
X011643Y014459D01*
X011643Y014337D01*
X011577Y014234D01*
X011466Y014183D01*
X011345Y014201D01*
X011252Y014281D01*
X011218Y014398D01*
X001649Y033955D02*
X001685Y034157D01*
X001787Y034335D01*
X001944Y034467D01*
X002137Y034537D01*
X002343Y034537D01*
X002535Y034467D01*
X002693Y034335D01*
X002795Y034157D01*
X002831Y033955D01*
X002795Y033753D01*
X002693Y033575D01*
X002536Y033443D01*
X002343Y033373D01*
X002137Y033373D01*
X001944Y033443D01*
X001787Y033575D01*
X001685Y033753D01*
X001649Y033955D01*
X038399Y033955D02*
X038435Y034157D01*
X038537Y034335D01*
X038694Y034467D01*
X038887Y034537D01*
X039093Y034537D01*
X039285Y034467D01*
X039443Y034335D01*
X039545Y034157D01*
X039581Y033955D01*
X039545Y033753D01*
X039443Y033575D01*
X039286Y033443D01*
X039093Y033373D01*
X038887Y033373D01*
X038694Y033443D01*
X038537Y033575D01*
X038435Y033753D01*
X038399Y033955D01*
D11*
X038521Y031791D02*
X038666Y031791D01*
X038714Y031742D01*
X038714Y031645D01*
X038666Y031597D01*
X038521Y031597D01*
X038618Y031597D02*
X038714Y031500D01*
X038816Y031500D02*
X039009Y031500D01*
X038912Y031500D02*
X038912Y031791D01*
X038816Y031694D01*
X039110Y031694D02*
X039207Y031791D01*
X039207Y031500D01*
X039110Y031500D02*
X039304Y031500D01*
X038521Y031500D02*
X038521Y031791D01*
X037904Y031742D02*
X037855Y031791D01*
X037759Y031791D01*
X037710Y031742D01*
X037904Y031742D02*
X037904Y031694D01*
X037710Y031500D01*
X037904Y031500D01*
X037609Y031500D02*
X037416Y031500D01*
X037512Y031500D02*
X037512Y031791D01*
X037416Y031694D01*
X037314Y031742D02*
X037314Y031645D01*
X037266Y031597D01*
X037121Y031597D01*
X037218Y031597D02*
X037314Y031500D01*
X037121Y031500D02*
X037121Y031791D01*
X037266Y031791D01*
X037314Y031742D01*
X038055Y030250D02*
X038248Y030057D01*
X038200Y030105D02*
X038345Y030250D01*
X038345Y030057D02*
X038055Y030057D01*
X038103Y029956D02*
X038151Y029956D01*
X038200Y029907D01*
X038200Y029811D01*
X038151Y029762D01*
X038103Y029762D01*
X038055Y029811D01*
X038055Y029907D01*
X038103Y029956D01*
X038200Y029907D02*
X038248Y029956D01*
X038297Y029956D01*
X038345Y029907D01*
X038345Y029811D01*
X038297Y029762D01*
X038248Y029762D01*
X038200Y029811D01*
X038297Y029663D02*
X038297Y029615D01*
X038345Y029615D01*
X038345Y029663D01*
X038297Y029663D01*
X038345Y029514D02*
X038345Y029320D01*
X038345Y029417D02*
X038055Y029417D01*
X038151Y029320D01*
X039455Y029417D02*
X039745Y029417D01*
X039745Y029320D02*
X039745Y029514D01*
X039745Y029615D02*
X039745Y029663D01*
X039697Y029663D01*
X039697Y029615D01*
X039745Y029615D01*
X039697Y029762D02*
X039648Y029762D01*
X039600Y029811D01*
X039600Y029907D01*
X039648Y029956D01*
X039697Y029956D01*
X039745Y029907D01*
X039745Y029811D01*
X039697Y029762D01*
X039600Y029811D02*
X039551Y029762D01*
X039503Y029762D01*
X039455Y029811D01*
X039455Y029907D01*
X039503Y029956D01*
X039551Y029956D01*
X039600Y029907D01*
X039648Y030057D02*
X039455Y030250D01*
X039455Y030057D02*
X039745Y030057D01*
X039600Y030105D02*
X039745Y030250D01*
X039455Y029417D02*
X039551Y029320D01*
X033425Y027390D02*
X033425Y027205D01*
X033364Y027143D01*
X033240Y027143D01*
X033178Y027205D01*
X033178Y027390D01*
X033055Y027390D02*
X033425Y027390D01*
X033178Y027267D02*
X033055Y027143D01*
X033055Y027022D02*
X033055Y026775D01*
X033117Y026654D02*
X033055Y026592D01*
X033055Y026469D01*
X033117Y026407D01*
X033178Y026407D01*
X033240Y026469D01*
X033240Y026592D01*
X033302Y026654D01*
X033364Y026654D01*
X033425Y026592D01*
X033425Y026469D01*
X033364Y026407D01*
X033425Y026285D02*
X033055Y026285D01*
X033055Y026039D01*
X033240Y026162D02*
X033240Y026285D01*
X033425Y026285D02*
X033425Y026039D01*
X033425Y025917D02*
X033425Y025670D01*
X033425Y025794D02*
X033055Y025794D01*
X033425Y026775D02*
X033425Y027022D01*
X033055Y027022D01*
X033240Y027022D02*
X033240Y026899D01*
X026375Y026640D02*
X026128Y026640D01*
X026251Y026640D02*
X026251Y026270D01*
X026375Y026393D01*
X026007Y026455D02*
X026007Y026270D01*
X025760Y026270D01*
X025821Y026393D02*
X025760Y026455D01*
X025760Y026579D01*
X025821Y026640D01*
X025945Y026640D01*
X026007Y026579D01*
X026007Y026455D02*
X025883Y026393D01*
X025821Y026393D01*
X025375Y026393D02*
X025251Y026270D01*
X025251Y026640D01*
X025128Y026640D02*
X025375Y026640D01*
X025007Y026579D02*
X024945Y026640D01*
X024821Y026640D01*
X024760Y026579D01*
X024760Y026517D01*
X024821Y026455D01*
X025007Y026455D01*
X025007Y026579D01*
X025007Y026455D02*
X024883Y026332D01*
X024760Y026270D01*
X024375Y026393D02*
X024251Y026270D01*
X024251Y026640D01*
X024128Y026640D02*
X024375Y026640D01*
X024007Y026640D02*
X024007Y026579D01*
X023760Y026332D01*
X023760Y026270D01*
X024007Y026270D01*
X023375Y026393D02*
X023251Y026270D01*
X023251Y026640D01*
X023128Y026640D02*
X023375Y026640D01*
X023007Y026579D02*
X023007Y026517D01*
X022945Y026455D01*
X022821Y026455D01*
X022760Y026517D01*
X022760Y026579D01*
X022821Y026640D01*
X022945Y026640D01*
X023007Y026579D01*
X022945Y026455D02*
X023007Y026393D01*
X023007Y026332D01*
X022945Y026270D01*
X022821Y026270D01*
X022760Y026332D01*
X022760Y026393D01*
X022821Y026455D01*
X022375Y026393D02*
X022251Y026270D01*
X022251Y026640D01*
X022128Y026640D02*
X022375Y026640D01*
X022007Y026579D02*
X021945Y026640D01*
X021821Y026640D01*
X021760Y026579D01*
X021760Y026332D01*
X021821Y026270D01*
X021945Y026270D01*
X022007Y026332D01*
X022007Y026393D01*
X021945Y026455D01*
X021760Y026455D01*
X021375Y026332D02*
X021313Y026270D01*
X021190Y026270D01*
X021128Y026332D01*
X021128Y026393D01*
X021375Y026640D01*
X021128Y026640D01*
X021007Y026579D02*
X020760Y026332D01*
X020760Y026579D01*
X020821Y026640D01*
X020945Y026640D01*
X021007Y026579D01*
X021007Y026332D01*
X020945Y026270D01*
X020821Y026270D01*
X020760Y026332D01*
X020375Y026332D02*
X020313Y026270D01*
X020190Y026270D01*
X020128Y026332D01*
X020128Y026393D01*
X020375Y026640D01*
X020128Y026640D01*
X020007Y026640D02*
X019760Y026640D01*
X019883Y026640D02*
X019883Y026270D01*
X020007Y026393D01*
X019375Y026332D02*
X019313Y026270D01*
X019190Y026270D01*
X019128Y026332D01*
X019128Y026393D01*
X019375Y026640D01*
X019128Y026640D01*
X019007Y026640D02*
X018760Y026393D01*
X018760Y026332D01*
X018821Y026270D01*
X018945Y026270D01*
X019007Y026332D01*
X019007Y026640D02*
X018760Y026640D01*
X018375Y026640D02*
X018128Y026393D01*
X018128Y026332D01*
X018190Y026270D01*
X018313Y026270D01*
X018375Y026332D01*
X018375Y026640D02*
X018128Y026640D01*
X018007Y026579D02*
X017945Y026640D01*
X017821Y026640D01*
X017760Y026579D01*
X017760Y026517D01*
X017821Y026455D01*
X017883Y026455D01*
X017821Y026455D02*
X017760Y026393D01*
X017760Y026332D01*
X017821Y026270D01*
X017945Y026270D01*
X018007Y026332D01*
X016375Y026348D02*
X016375Y026542D01*
X016327Y026590D01*
X016230Y026590D01*
X016181Y026542D01*
X016181Y026445D01*
X016278Y026445D01*
X016181Y026348D02*
X016230Y026300D01*
X016327Y026300D01*
X016375Y026348D01*
X016080Y026300D02*
X015887Y026590D01*
X015887Y026300D01*
X015786Y026300D02*
X015641Y026300D01*
X015592Y026348D01*
X015592Y026542D01*
X015641Y026590D01*
X015786Y026590D01*
X015786Y026300D01*
X016080Y026300D02*
X016080Y026590D01*
X014225Y026590D02*
X014225Y026343D01*
X014101Y026220D01*
X013978Y026343D01*
X013978Y026590D01*
X013857Y026590D02*
X013857Y026529D01*
X013610Y026282D01*
X013610Y026220D01*
X013857Y026220D01*
X013978Y026405D02*
X014225Y026405D01*
X013225Y026405D02*
X012978Y026405D01*
X012978Y026343D02*
X012978Y026590D01*
X012857Y026529D02*
X012795Y026590D01*
X012671Y026590D01*
X012610Y026529D01*
X012610Y026467D01*
X012671Y026405D01*
X012857Y026405D01*
X012857Y026529D01*
X012857Y026405D02*
X012733Y026282D01*
X012610Y026220D01*
X012978Y026343D02*
X013101Y026220D01*
X013225Y026343D01*
X013225Y026590D01*
X012225Y026590D02*
X012225Y026343D01*
X012101Y026220D01*
X011978Y026343D01*
X011978Y026590D01*
X011857Y026529D02*
X011795Y026590D01*
X011671Y026590D01*
X011610Y026529D01*
X011610Y026405D01*
X011671Y026343D01*
X011733Y026343D01*
X011857Y026405D01*
X011857Y026220D01*
X011610Y026220D01*
X011225Y026343D02*
X011225Y026590D01*
X011225Y026405D02*
X010978Y026405D01*
X010978Y026343D02*
X010978Y026590D01*
X010857Y026405D02*
X010610Y026405D01*
X010671Y026590D02*
X010671Y026220D01*
X010857Y026405D01*
X010978Y026343D02*
X011101Y026220D01*
X011225Y026343D01*
X011978Y026405D02*
X012225Y026405D01*
X010225Y026405D02*
X009978Y026405D01*
X009978Y026343D02*
X009978Y026590D01*
X009857Y026529D02*
X009795Y026590D01*
X009671Y026590D01*
X009610Y026529D01*
X009610Y026467D01*
X009671Y026405D01*
X009733Y026405D01*
X009671Y026405D02*
X009610Y026343D01*
X009610Y026282D01*
X009671Y026220D01*
X009795Y026220D01*
X009857Y026282D01*
X009978Y026343D02*
X010101Y026220D01*
X010225Y026343D01*
X010225Y026590D01*
X009225Y026590D02*
X009225Y026343D01*
X009101Y026220D01*
X008978Y026343D01*
X008978Y026590D01*
X008857Y026590D02*
X008610Y026343D01*
X008610Y026282D01*
X008671Y026220D01*
X008795Y026220D01*
X008857Y026282D01*
X008978Y026405D02*
X009225Y026405D01*
X008857Y026590D02*
X008610Y026590D01*
X008225Y026590D02*
X008225Y026343D01*
X008101Y026220D01*
X007978Y026343D01*
X007978Y026590D01*
X007857Y026590D02*
X007610Y026590D01*
X007733Y026590D02*
X007733Y026220D01*
X007857Y026343D01*
X007978Y026405D02*
X008225Y026405D01*
X007225Y026405D02*
X006978Y026405D01*
X006978Y026343D02*
X006978Y026590D01*
X006857Y026529D02*
X006610Y026282D01*
X006610Y026529D01*
X006671Y026590D01*
X006795Y026590D01*
X006857Y026529D01*
X006857Y026282D01*
X006795Y026220D01*
X006671Y026220D01*
X006610Y026282D01*
X006978Y026343D02*
X007101Y026220D01*
X007225Y026343D01*
X007225Y026590D01*
X004484Y024412D02*
X004484Y024315D01*
X004436Y024267D01*
X004291Y024267D01*
X004291Y024170D02*
X004291Y024461D01*
X004436Y024461D01*
X004484Y024412D01*
X004189Y024412D02*
X004141Y024461D01*
X004044Y024461D01*
X003996Y024412D01*
X003996Y024364D01*
X004044Y024315D01*
X004141Y024315D01*
X004189Y024267D01*
X004189Y024219D01*
X004141Y024170D01*
X004044Y024170D01*
X003996Y024219D01*
X003895Y024219D02*
X003846Y024170D01*
X003750Y024170D01*
X003701Y024219D01*
X003701Y024412D01*
X003750Y024461D01*
X003846Y024461D01*
X003895Y024412D01*
X003602Y024461D02*
X003505Y024461D01*
X003553Y024461D02*
X003553Y024170D01*
X003505Y024170D02*
X003602Y024170D01*
X003045Y025697D02*
X003045Y025891D01*
X003045Y025794D02*
X002755Y025794D01*
X002851Y025697D01*
X002803Y025992D02*
X002755Y026040D01*
X002755Y026137D01*
X002803Y026185D01*
X002997Y025992D01*
X003045Y026040D01*
X003045Y026137D01*
X002997Y026185D01*
X002803Y026185D01*
X002803Y026286D02*
X002755Y026335D01*
X002755Y026431D01*
X002803Y026480D01*
X002997Y026286D01*
X003045Y026335D01*
X003045Y026431D01*
X002997Y026480D01*
X002803Y026480D01*
X002851Y026581D02*
X002851Y026726D01*
X002900Y026774D01*
X003045Y026774D01*
X003045Y026876D02*
X002755Y026876D01*
X002755Y027069D01*
X002900Y026972D02*
X002900Y026876D01*
X002851Y026581D02*
X003045Y026581D01*
X002997Y026286D02*
X002803Y026286D01*
X002803Y025992D02*
X002997Y025992D01*
X002425Y026169D02*
X002425Y026265D01*
X002377Y026314D01*
X002377Y026415D02*
X002328Y026415D01*
X002280Y026463D01*
X002280Y026560D01*
X002328Y026608D01*
X002377Y026608D01*
X002425Y026560D01*
X002425Y026463D01*
X002377Y026415D01*
X002280Y026463D02*
X002231Y026415D01*
X002183Y026415D01*
X002135Y026463D01*
X002135Y026560D01*
X002183Y026608D01*
X002231Y026608D01*
X002280Y026560D01*
X002183Y026314D02*
X002135Y026265D01*
X002135Y026169D01*
X002183Y026120D01*
X002377Y026120D01*
X002425Y026169D01*
X001738Y026420D02*
X001738Y026711D01*
X001544Y026711D02*
X001738Y026420D01*
X001544Y026420D02*
X001544Y026711D01*
X001443Y026662D02*
X001443Y026565D01*
X001395Y026517D01*
X001250Y026517D01*
X001346Y026517D02*
X001443Y026420D01*
X001250Y026420D02*
X001250Y026711D01*
X001395Y026711D01*
X001443Y026662D01*
X001148Y026662D02*
X001100Y026711D01*
X001003Y026711D01*
X000955Y026662D01*
X000955Y026469D01*
X001003Y026420D01*
X001100Y026420D01*
X001148Y026469D01*
X001148Y026565D01*
X001052Y026565D01*
X001078Y027070D02*
X001202Y027317D01*
X001323Y027317D02*
X001447Y027441D01*
X001447Y027070D01*
X001570Y027070D02*
X001323Y027070D01*
X001078Y027070D02*
X000955Y027317D01*
X001692Y027132D02*
X001692Y027070D01*
X001753Y027070D01*
X001753Y027132D01*
X001692Y027132D01*
X001876Y027070D02*
X002123Y027317D01*
X002123Y027379D01*
X002061Y027441D01*
X001937Y027441D01*
X001876Y027379D01*
X001876Y027070D02*
X002123Y027070D01*
X001788Y020061D02*
X001594Y019867D01*
X001643Y019915D02*
X001788Y019770D01*
X001594Y019770D02*
X001594Y020061D01*
X001300Y020061D02*
X001300Y019770D01*
X001493Y019770D01*
X001198Y019819D02*
X001150Y019770D01*
X001005Y019770D01*
X001005Y020061D01*
X001150Y020061D01*
X001198Y020012D01*
X001198Y019964D01*
X001150Y019915D01*
X001005Y019915D01*
X001150Y019915D02*
X001198Y019867D01*
X001198Y019819D01*
X002035Y018111D02*
X002180Y018111D01*
X002228Y018062D01*
X002228Y017965D01*
X002180Y017917D01*
X002035Y017917D01*
X002132Y017917D02*
X002228Y017820D01*
X002330Y017820D02*
X002523Y018014D01*
X002523Y018062D01*
X002475Y018111D01*
X002378Y018111D01*
X002330Y018062D01*
X002330Y017820D02*
X002523Y017820D01*
X002035Y017820D02*
X002035Y018111D01*
X001458Y017091D02*
X001520Y017029D01*
X001520Y016967D01*
X001458Y016905D01*
X001520Y016844D01*
X001520Y016782D01*
X001458Y016720D01*
X001335Y016720D01*
X001273Y016782D01*
X001152Y016782D02*
X001090Y016720D01*
X000967Y016720D01*
X000905Y016782D01*
X000905Y017029D01*
X000967Y017091D01*
X001090Y017091D01*
X001152Y017029D01*
X001273Y017029D02*
X001335Y017091D01*
X001458Y017091D01*
X001458Y016905D02*
X001397Y016905D01*
X005885Y019020D02*
X005885Y019311D01*
X006030Y019311D01*
X006078Y019262D01*
X006078Y019165D01*
X006030Y019117D01*
X005885Y019117D01*
X005982Y019117D02*
X006078Y019020D01*
X006180Y019069D02*
X006228Y019020D01*
X006325Y019020D01*
X006373Y019069D01*
X006373Y019117D01*
X006325Y019165D01*
X006276Y019165D01*
X006325Y019165D02*
X006373Y019214D01*
X006373Y019262D01*
X006325Y019311D01*
X006228Y019311D01*
X006180Y019262D01*
X011595Y014941D02*
X011595Y014650D01*
X011692Y014747D01*
X011788Y014650D01*
X011788Y014941D01*
X011890Y014941D02*
X012035Y014941D01*
X012083Y014892D01*
X012083Y014795D01*
X012035Y014747D01*
X011890Y014747D01*
X011890Y014650D02*
X011890Y014941D01*
X011851Y013769D02*
X011900Y013721D01*
X011900Y013624D01*
X011851Y013576D01*
X011803Y013576D01*
X011755Y013624D01*
X011755Y013721D01*
X011803Y013769D01*
X011851Y013769D01*
X011900Y013721D02*
X011948Y013769D01*
X011997Y013769D01*
X012045Y013721D01*
X012045Y013624D01*
X011997Y013576D01*
X011948Y013576D01*
X011900Y013624D01*
X011803Y013069D02*
X011997Y012876D01*
X012045Y012876D01*
X011755Y012876D02*
X011755Y013069D01*
X011803Y013069D01*
X011755Y012119D02*
X011803Y012022D01*
X011900Y011926D01*
X011900Y012071D01*
X011948Y012119D01*
X011997Y012119D01*
X012045Y012071D01*
X012045Y011974D01*
X011997Y011926D01*
X011900Y011926D01*
X011900Y011119D02*
X011997Y011119D01*
X012045Y011071D01*
X012045Y010974D01*
X011997Y010926D01*
X011900Y010926D02*
X011851Y011022D01*
X011851Y011071D01*
X011900Y011119D01*
X011755Y011119D02*
X011755Y010926D01*
X011900Y010926D01*
X011900Y010169D02*
X011900Y009976D01*
X011755Y010121D01*
X012045Y010121D01*
X011997Y009169D02*
X012045Y009121D01*
X012045Y009024D01*
X011997Y008976D01*
X011900Y009072D02*
X011900Y009121D01*
X011948Y009169D01*
X011997Y009169D01*
X011900Y009121D02*
X011851Y009169D01*
X011803Y009169D01*
X011755Y009121D01*
X011755Y009024D01*
X011803Y008976D01*
X011803Y008169D02*
X011755Y008121D01*
X011755Y008024D01*
X011803Y007976D01*
X011803Y008169D02*
X011851Y008169D01*
X012045Y007976D01*
X012045Y008169D01*
X012045Y007169D02*
X012045Y006976D01*
X012045Y007072D02*
X011755Y007072D01*
X011851Y006976D01*
X011831Y006219D02*
X011782Y006171D01*
X011782Y006074D01*
X011831Y006026D01*
X011879Y006026D01*
X011927Y006074D01*
X011927Y006219D01*
X011831Y006219D02*
X012024Y006219D01*
X012072Y006171D01*
X012072Y006074D01*
X012024Y006026D01*
X018555Y015286D02*
X018555Y015431D01*
X018603Y015480D01*
X018700Y015480D01*
X018748Y015431D01*
X018748Y015286D01*
X018845Y015286D02*
X018555Y015286D01*
X018748Y015383D02*
X018845Y015480D01*
X018845Y015581D02*
X018845Y015774D01*
X018845Y015678D02*
X018555Y015678D01*
X018651Y015581D01*
X018700Y015876D02*
X018700Y016021D01*
X018748Y016069D01*
X018797Y016069D01*
X018845Y016021D01*
X018845Y015924D01*
X018797Y015876D01*
X018700Y015876D01*
X018603Y015972D01*
X018555Y016069D01*
X019735Y015971D02*
X019735Y015874D01*
X019783Y015826D01*
X019977Y015826D01*
X019783Y016019D01*
X019977Y016019D01*
X020025Y015971D01*
X020025Y015874D01*
X019977Y015826D01*
X019977Y015724D02*
X020025Y015676D01*
X020025Y015579D01*
X019977Y015531D01*
X019928Y015531D01*
X019880Y015579D01*
X019880Y015676D01*
X019928Y015724D01*
X019977Y015724D01*
X019880Y015676D02*
X019831Y015724D01*
X019783Y015724D01*
X019735Y015676D01*
X019735Y015579D01*
X019783Y015531D01*
X019831Y015531D01*
X019880Y015579D01*
X020025Y015430D02*
X020025Y015236D01*
X020025Y015333D02*
X019735Y015333D01*
X019831Y015236D01*
X019735Y015971D02*
X019783Y016019D01*
X019852Y018220D02*
X019728Y018344D01*
X019790Y018344D02*
X019605Y018344D01*
X019605Y018220D02*
X019605Y018591D01*
X019790Y018591D01*
X019852Y018529D01*
X019852Y018405D01*
X019790Y018344D01*
X019973Y018467D02*
X020220Y018220D01*
X019973Y018220D02*
X020220Y018467D01*
X020605Y018591D02*
X020852Y018591D01*
X020728Y018591D02*
X020728Y018220D01*
X020973Y018220D02*
X021220Y018467D01*
X020973Y018467D02*
X021220Y018220D01*
X021605Y018170D02*
X021852Y018170D01*
X021728Y018170D02*
X021728Y018541D01*
X021605Y018417D01*
X021973Y018479D02*
X022035Y018541D01*
X022158Y018541D01*
X022220Y018479D01*
X021973Y018232D01*
X022035Y018170D01*
X022158Y018170D01*
X022220Y018232D01*
X022220Y018479D01*
X021973Y018479D02*
X021973Y018232D01*
X022605Y018170D02*
X022852Y018170D01*
X022973Y018170D02*
X023220Y018170D01*
X023097Y018170D02*
X023097Y018541D01*
X022973Y018417D01*
X022728Y018541D02*
X022728Y018170D01*
X022605Y018417D02*
X022728Y018541D01*
X023605Y018467D02*
X023728Y018591D01*
X023728Y018220D01*
X023605Y018220D02*
X023852Y018220D01*
X023973Y018220D02*
X024220Y018467D01*
X024220Y018529D01*
X024158Y018591D01*
X024035Y018591D01*
X023973Y018529D01*
X023973Y018220D02*
X024220Y018220D01*
X024605Y018220D02*
X024852Y018220D01*
X024728Y018220D02*
X024728Y018591D01*
X024605Y018467D01*
X024973Y018529D02*
X025035Y018591D01*
X025158Y018591D01*
X025220Y018529D01*
X025220Y018467D01*
X025158Y018405D01*
X025220Y018344D01*
X025220Y018282D01*
X025158Y018220D01*
X025035Y018220D01*
X024973Y018282D01*
X025097Y018405D02*
X025158Y018405D01*
X025605Y018467D02*
X025728Y018591D01*
X025728Y018220D01*
X025605Y018220D02*
X025852Y018220D01*
X025973Y018405D02*
X026158Y018591D01*
X026158Y018220D01*
X026220Y018405D02*
X025973Y018405D01*
X025897Y016341D02*
X026090Y016341D01*
X026090Y016292D01*
X025897Y016099D01*
X025897Y016050D01*
X025798Y016050D02*
X025750Y016050D01*
X025750Y016099D01*
X025798Y016099D01*
X025798Y016050D01*
X025600Y016050D02*
X025600Y016341D01*
X025455Y016195D01*
X025648Y016195D01*
X026192Y016147D02*
X026385Y016341D01*
X026192Y016341D02*
X026192Y016050D01*
X026240Y016195D02*
X026385Y016050D01*
X024854Y016070D02*
X024709Y016215D01*
X024660Y016167D02*
X024854Y016361D01*
X024660Y016361D02*
X024660Y016070D01*
X024559Y016312D02*
X024366Y016119D01*
X024366Y016070D01*
X024267Y016070D02*
X024218Y016070D01*
X024218Y016119D01*
X024267Y016119D01*
X024267Y016070D01*
X024069Y016070D02*
X024069Y016361D01*
X023924Y016215D01*
X024117Y016215D01*
X024366Y016361D02*
X024559Y016361D01*
X024559Y016312D01*
X024659Y013941D02*
X024755Y013941D01*
X024804Y013892D01*
X024610Y013699D01*
X024659Y013650D01*
X024755Y013650D01*
X024804Y013699D01*
X024804Y013892D01*
X024659Y013941D02*
X024610Y013892D01*
X024610Y013699D01*
X024509Y013650D02*
X024316Y013650D01*
X024412Y013650D02*
X024412Y013941D01*
X024316Y013844D01*
X024214Y013892D02*
X024214Y013795D01*
X024166Y013747D01*
X024021Y013747D01*
X024118Y013747D02*
X024214Y013650D01*
X024021Y013650D02*
X024021Y013941D01*
X024166Y013941D01*
X024214Y013892D01*
X025505Y013911D02*
X025505Y013620D01*
X025505Y013717D02*
X025650Y013717D01*
X025698Y013765D01*
X025698Y013862D01*
X025650Y013911D01*
X025505Y013911D01*
X025602Y013717D02*
X025698Y013620D01*
X025800Y013620D02*
X025993Y013620D01*
X025896Y013620D02*
X025896Y013911D01*
X025800Y013814D01*
X026094Y013765D02*
X026191Y013814D01*
X026239Y013814D01*
X026288Y013765D01*
X026288Y013669D01*
X026239Y013620D01*
X026143Y013620D01*
X026094Y013669D01*
X026094Y013765D02*
X026094Y013911D01*
X026288Y013911D01*
X028403Y017770D02*
X028452Y017770D01*
X028500Y017819D01*
X028500Y018061D01*
X028452Y018061D02*
X028548Y018061D01*
X028650Y018061D02*
X028843Y018061D01*
X028746Y018061D02*
X028746Y017770D01*
X028944Y017770D02*
X028944Y017964D01*
X029041Y018061D01*
X029138Y017964D01*
X029138Y017770D01*
X029239Y017819D02*
X029287Y017770D01*
X029384Y017770D01*
X029432Y017819D01*
X029432Y017915D01*
X029336Y017915D01*
X029432Y018012D02*
X029384Y018061D01*
X029287Y018061D01*
X029239Y018012D01*
X029239Y017819D01*
X029138Y017915D02*
X028944Y017915D01*
X028403Y017770D02*
X028355Y017819D01*
D12*
X027540Y017305D02*
X030240Y017305D01*
X030240Y024505D01*
X027540Y024505D01*
X027540Y021705D01*
X027540Y020105D02*
X027540Y019705D01*
X027540Y019105D02*
X027540Y017305D01*
X023189Y018615D02*
X023042Y018615D01*
X023189Y018762D01*
X023189Y018799D01*
X023152Y018835D01*
X023079Y018835D01*
X023042Y018799D01*
X022968Y018835D02*
X022821Y018615D01*
X022968Y018615D02*
X022821Y018835D01*
X022747Y018835D02*
X022600Y018835D01*
X022673Y018835D02*
X022673Y018615D01*
X022189Y018615D02*
X022042Y018615D01*
X022189Y018762D01*
X022189Y018799D01*
X022152Y018835D01*
X022079Y018835D01*
X022042Y018799D01*
X021968Y018835D02*
X021821Y018615D01*
X021747Y018615D02*
X021673Y018689D01*
X021710Y018689D02*
X021600Y018689D01*
X021600Y018615D02*
X021600Y018835D01*
X021710Y018835D01*
X021747Y018799D01*
X021747Y018725D01*
X021710Y018689D01*
X021821Y018835D02*
X021968Y018615D01*
X021147Y018652D02*
X021147Y018799D01*
X021110Y018835D01*
X021037Y018835D01*
X021000Y018799D01*
X021000Y018762D01*
X021037Y018725D01*
X021147Y018725D01*
X021147Y018652D02*
X021110Y018615D01*
X021037Y018615D01*
X021000Y018652D01*
X020097Y018652D02*
X020060Y018615D01*
X019987Y018615D01*
X019950Y018652D01*
X019950Y018689D01*
X019987Y018725D01*
X020060Y018725D01*
X020097Y018689D01*
X020097Y018652D01*
X020060Y018725D02*
X020097Y018762D01*
X020097Y018799D01*
X020060Y018835D01*
X019987Y018835D01*
X019950Y018799D01*
X019950Y018762D01*
X019987Y018725D01*
X015267Y018775D02*
X015215Y018775D01*
X015111Y018879D01*
X015111Y018827D02*
X015163Y018879D01*
X015084Y018749D02*
X015110Y018723D01*
X015007Y018619D01*
X015033Y018593D02*
X014981Y018645D01*
X014981Y018697D01*
X015033Y018749D01*
X015084Y018749D01*
X015136Y018645D02*
X015084Y018593D01*
X015033Y018593D01*
X014980Y018541D02*
X014928Y018541D01*
X014876Y018489D01*
X014824Y018489D01*
X014824Y018541D01*
X014902Y018619D01*
X014980Y018541D02*
X014980Y018489D01*
X014902Y018411D01*
X014798Y018411D02*
X014772Y018436D01*
X014720Y018436D01*
X014668Y018385D01*
X014668Y018333D01*
X014720Y018281D01*
X014772Y018281D01*
X014824Y018333D01*
X014798Y018411D02*
X014694Y018307D01*
X014616Y018280D02*
X014616Y018228D01*
X014538Y018151D01*
X014590Y018202D02*
X014694Y018202D01*
X014616Y018280D02*
X014564Y018332D01*
X014512Y018332D01*
X014434Y018254D01*
X014590Y018099D01*
X012041Y014335D02*
X011931Y014335D01*
X011931Y014115D01*
X012041Y014115D01*
X012078Y014152D01*
X012078Y014299D01*
X012041Y014335D01*
X011857Y014299D02*
X011820Y014335D01*
X011747Y014335D01*
X011710Y014299D01*
X011710Y014152D01*
X011747Y014115D01*
X011820Y014115D01*
X011857Y014152D01*
X005931Y016702D02*
X005931Y016775D01*
X005857Y016775D01*
X005784Y016702D02*
X005821Y016665D01*
X005894Y016665D01*
X005931Y016702D01*
X005931Y016849D02*
X005894Y016885D01*
X005821Y016885D01*
X005784Y016849D01*
X005784Y016702D01*
X005710Y016702D02*
X005710Y016885D01*
X005563Y016885D02*
X005563Y016702D01*
X005600Y016665D01*
X005673Y016665D01*
X005710Y016702D01*
X005489Y016702D02*
X005452Y016665D01*
X005342Y016665D01*
X005342Y016885D01*
X005452Y016885D01*
X005489Y016849D01*
X005489Y016812D01*
X005452Y016775D01*
X005342Y016775D01*
X005452Y016775D02*
X005489Y016739D01*
X005489Y016702D01*
X005268Y016665D02*
X005121Y016665D01*
X005121Y016885D01*
X005268Y016885D01*
X005194Y016775D02*
X005121Y016775D01*
X005047Y016702D02*
X005047Y016849D01*
X005010Y016885D01*
X004900Y016885D01*
X004900Y016665D01*
X005010Y016665D01*
X005047Y016702D01*
X003631Y016735D02*
X003594Y016699D01*
X003484Y016699D01*
X003557Y016699D02*
X003631Y016625D01*
X003631Y016735D02*
X003631Y016809D01*
X003594Y016845D01*
X003484Y016845D01*
X003484Y016625D01*
X003410Y016625D02*
X003263Y016625D01*
X003263Y016845D01*
X003410Y016845D01*
X003336Y016735D02*
X003263Y016735D01*
X003189Y016625D02*
X003189Y016845D01*
X003042Y016845D02*
X003042Y016625D01*
X003115Y016699D01*
X003189Y016625D01*
X002968Y016662D02*
X002968Y016809D01*
X002931Y016845D01*
X002858Y016845D01*
X002821Y016809D01*
X002821Y016662D01*
X002858Y016625D01*
X002931Y016625D01*
X002968Y016662D01*
X002747Y016735D02*
X002710Y016699D01*
X002600Y016699D01*
X002600Y016625D02*
X002600Y016845D01*
X002710Y016845D01*
X002747Y016809D01*
X002747Y016735D01*
X002928Y018455D02*
X003075Y018455D01*
X003001Y018455D02*
X003001Y018675D01*
X002928Y018602D01*
X003149Y018529D02*
X003296Y018675D01*
X003149Y018675D02*
X003149Y018455D01*
X003186Y018565D02*
X003296Y018455D01*
X002640Y019555D02*
X005340Y019555D01*
X005340Y021355D01*
X005340Y022955D02*
X005340Y024755D01*
X002640Y024755D01*
X002640Y019555D01*
X005130Y018582D02*
X005203Y018655D01*
X005203Y018435D01*
X005130Y018435D02*
X005277Y018435D01*
X005351Y018435D02*
X005351Y018655D01*
X005388Y018545D02*
X005498Y018435D01*
X005351Y018509D02*
X005498Y018655D01*
X005293Y025465D02*
X005257Y025502D01*
X005257Y025612D01*
X005220Y025612D02*
X005330Y025612D01*
X005330Y025502D01*
X005293Y025465D01*
X005183Y025502D02*
X005183Y025575D01*
X005220Y025612D01*
X005183Y025686D02*
X005293Y025686D01*
X005330Y025723D01*
X005330Y025833D01*
X005183Y025833D01*
X005183Y025907D02*
X005183Y025981D01*
X005146Y025944D02*
X005293Y025944D01*
X005330Y025981D01*
X005293Y026055D02*
X005330Y026091D01*
X005330Y026165D01*
X005293Y026201D01*
X005220Y026201D01*
X005183Y026165D01*
X005183Y026091D01*
X005220Y026055D01*
X005293Y026055D01*
X005257Y026276D02*
X005183Y026349D01*
X005183Y026386D01*
X005220Y026460D02*
X005183Y026496D01*
X005183Y026570D01*
X005220Y026606D01*
X005257Y026606D01*
X005257Y026460D01*
X005293Y026460D02*
X005220Y026460D01*
X005293Y026460D02*
X005330Y026496D01*
X005330Y026570D01*
X005330Y026681D02*
X005330Y026791D01*
X005293Y026827D01*
X005257Y026791D01*
X005257Y026717D01*
X005220Y026681D01*
X005183Y026717D01*
X005183Y026827D01*
X005220Y026902D02*
X005183Y026938D01*
X005183Y027012D01*
X005220Y027048D01*
X005257Y027048D01*
X005257Y026902D01*
X005293Y026902D02*
X005220Y026902D01*
X005293Y026902D02*
X005330Y026938D01*
X005330Y027012D01*
X005293Y027159D02*
X005330Y027196D01*
X005293Y027159D02*
X005146Y027159D01*
X005183Y027123D02*
X005183Y027196D01*
X005583Y027157D02*
X005583Y027083D01*
X005620Y027047D01*
X005693Y027047D01*
X005730Y027083D01*
X005730Y027157D01*
X005657Y027193D02*
X005657Y027047D01*
X005730Y026973D02*
X005730Y026899D01*
X005730Y026936D02*
X005510Y026936D01*
X005510Y026899D01*
X005620Y026825D02*
X005583Y026788D01*
X005583Y026678D01*
X005510Y026678D02*
X005730Y026678D01*
X005730Y026788D01*
X005693Y026825D01*
X005620Y026825D01*
X005620Y026604D02*
X005730Y026604D01*
X005730Y026494D01*
X005693Y026457D01*
X005657Y026494D01*
X005657Y026604D01*
X005620Y026604D02*
X005583Y026567D01*
X005583Y026494D01*
X005620Y026383D02*
X005730Y026383D01*
X005620Y026383D02*
X005583Y026346D01*
X005583Y026236D01*
X005730Y026236D01*
X005657Y026162D02*
X005657Y026015D01*
X005693Y026015D02*
X005620Y026015D01*
X005583Y026052D01*
X005583Y026125D01*
X005620Y026162D01*
X005657Y026162D01*
X005730Y026125D02*
X005730Y026052D01*
X005693Y026015D01*
X005330Y026276D02*
X005183Y026276D01*
X005583Y027157D02*
X005620Y027193D01*
X005657Y027193D01*
X004540Y031105D02*
X011740Y031105D01*
X011740Y033805D01*
X008940Y033805D01*
X007340Y033805D02*
X006940Y033805D01*
X006340Y033805D02*
X004540Y033805D01*
X004540Y031105D01*
X014290Y031105D02*
X021490Y031105D01*
X021490Y033805D01*
X018690Y033805D01*
X017090Y033805D02*
X016690Y033805D01*
X016090Y033805D02*
X014290Y033805D01*
X014290Y031105D01*
X014617Y026545D02*
X014617Y026362D01*
X014580Y026325D01*
X014580Y026435D02*
X014654Y026435D01*
X014728Y026435D02*
X014728Y026472D01*
X014875Y026472D01*
X014875Y026509D02*
X014875Y026435D01*
X014838Y026399D01*
X014765Y026399D01*
X014728Y026435D01*
X014765Y026545D02*
X014838Y026545D01*
X014875Y026509D01*
X014949Y026399D02*
X014986Y026399D01*
X015059Y026472D01*
X015059Y026545D02*
X015059Y026399D01*
X015133Y026399D02*
X015133Y026545D01*
X015133Y026435D02*
X015280Y026435D01*
X015280Y026399D02*
X015207Y026325D01*
X015133Y026399D01*
X015280Y026399D02*
X015280Y026545D01*
X024040Y031105D02*
X031240Y031105D01*
X031240Y033805D01*
X028440Y033805D01*
X026840Y033805D02*
X026440Y033805D01*
X025840Y033805D02*
X024040Y033805D01*
X024040Y031105D01*
X030440Y027755D02*
X030440Y027655D01*
X031390Y027655D01*
X031390Y027755D01*
X031390Y027055D02*
X030390Y027055D01*
X030390Y026055D01*
X031390Y026055D01*
X031390Y027055D01*
X030640Y026555D02*
X030673Y026680D01*
X030765Y026772D01*
X030890Y026805D01*
X031015Y026772D01*
X031107Y026680D01*
X031140Y026555D01*
X031107Y026430D01*
X031015Y026338D01*
X030890Y026305D01*
X030765Y026338D01*
X030673Y026430D01*
X030640Y026555D01*
X030390Y025455D02*
X030390Y025355D01*
X030390Y025455D02*
X031390Y025455D01*
X031390Y025355D01*
X031390Y001155D02*
X025590Y001155D01*
X025290Y001155D02*
X019490Y001155D01*
X019190Y001155D02*
X013390Y001155D01*
X031690Y001155D02*
X037490Y001155D01*
D13*
X038013Y012475D02*
X037860Y012629D01*
X038320Y012629D01*
X038320Y012782D02*
X038320Y012475D01*
X038649Y012525D02*
X038649Y012699D01*
X038649Y012612D02*
X039170Y012612D01*
X039170Y012525D02*
X039170Y012699D01*
X039170Y012869D02*
X038823Y012869D01*
X038823Y013129D01*
X038910Y013216D01*
X039170Y013216D01*
X039170Y013385D02*
X039170Y013645D01*
X039083Y013732D01*
X038996Y013645D01*
X038996Y013471D01*
X038910Y013385D01*
X038823Y013471D01*
X038823Y013732D01*
X038823Y013900D02*
X038823Y014074D01*
X038736Y013987D02*
X039083Y013987D01*
X039170Y014074D01*
X039170Y014244D02*
X038823Y014244D01*
X038823Y014417D02*
X038823Y014504D01*
X038823Y014417D02*
X038996Y014244D01*
X039083Y014674D02*
X039170Y014760D01*
X039170Y015021D01*
X038823Y015021D01*
X038910Y015189D02*
X039083Y015189D01*
X039170Y015276D01*
X039170Y015536D01*
X039083Y015792D02*
X039170Y015878D01*
X039083Y015792D02*
X038736Y015792D01*
X038823Y015878D02*
X038823Y015705D01*
X038823Y015536D02*
X038823Y015276D01*
X038910Y015189D01*
X038823Y014674D02*
X039083Y014674D01*
X038320Y013703D02*
X038090Y013473D01*
X038166Y013396D02*
X037860Y013703D01*
X037860Y013396D02*
X038320Y013396D01*
X038243Y013243D02*
X038320Y013166D01*
X038320Y013012D01*
X038243Y012936D01*
X037936Y013243D01*
X038243Y013243D01*
X037936Y013243D02*
X037860Y013166D01*
X037860Y013012D01*
X037936Y012936D01*
X038243Y012936D01*
X036920Y012936D02*
X036920Y013243D01*
X036920Y013089D02*
X036460Y013089D01*
X036613Y012936D01*
X036536Y012782D02*
X036690Y012782D01*
X036766Y012705D01*
X036766Y012475D01*
X036766Y012629D02*
X036920Y012782D01*
X036920Y012475D02*
X036460Y012475D01*
X036460Y012705D01*
X036536Y012782D01*
X036536Y013396D02*
X036613Y013396D01*
X036690Y013473D01*
X036690Y013626D01*
X036766Y013703D01*
X036843Y013703D01*
X036920Y013626D01*
X036920Y013473D01*
X036843Y013396D01*
X036766Y013396D01*
X036690Y013473D01*
X036690Y013626D02*
X036613Y013703D01*
X036536Y013703D01*
X036460Y013626D01*
X036460Y013473D01*
X036536Y013396D01*
X035570Y014775D02*
X035049Y014775D01*
X035049Y015035D01*
X035136Y015122D01*
X035483Y015122D01*
X035570Y015035D01*
X035570Y014775D01*
X035483Y015291D02*
X035310Y015291D01*
X035223Y015378D01*
X035223Y015551D01*
X035310Y015638D01*
X035396Y015638D01*
X035396Y015291D01*
X035483Y015291D02*
X035570Y015378D01*
X035570Y015551D01*
X035570Y015807D02*
X035570Y016067D01*
X035483Y016153D01*
X035396Y016067D01*
X035396Y015893D01*
X035310Y015807D01*
X035223Y015893D01*
X035223Y016153D01*
X035223Y016322D02*
X035223Y016409D01*
X035570Y016409D01*
X035570Y016322D02*
X035570Y016496D01*
X035483Y016666D02*
X035310Y016666D01*
X035223Y016753D01*
X035223Y017013D01*
X035657Y017013D01*
X035743Y016926D01*
X035743Y016839D01*
X035570Y016753D02*
X035570Y017013D01*
X035570Y017182D02*
X035223Y017182D01*
X035223Y017442D01*
X035310Y017528D01*
X035570Y017528D01*
X035483Y017697D02*
X035310Y017697D01*
X035223Y017784D01*
X035223Y017957D01*
X035310Y018044D01*
X035396Y018044D01*
X035396Y017697D01*
X035483Y017697D02*
X035570Y017784D01*
X035570Y017957D01*
X035483Y018213D02*
X035310Y018213D01*
X035223Y018300D01*
X035223Y018560D01*
X035049Y018560D02*
X035570Y018560D01*
X035570Y018300D01*
X035483Y018213D01*
X035570Y019244D02*
X035049Y019244D01*
X035049Y019504D01*
X035136Y019591D01*
X035223Y019591D01*
X035310Y019504D01*
X035310Y019244D01*
X035570Y019244D02*
X035570Y019504D01*
X035483Y019591D01*
X035396Y019591D01*
X035310Y019504D01*
X035223Y019760D02*
X035483Y019760D01*
X035570Y019846D01*
X035570Y020107D01*
X035657Y020107D02*
X035743Y020020D01*
X035743Y019933D01*
X035657Y020107D02*
X035223Y020107D01*
X035223Y020275D02*
X035310Y020275D01*
X035310Y020362D01*
X035223Y020362D01*
X035223Y020275D01*
X035483Y020275D02*
X035570Y020275D01*
X035570Y020362D01*
X035483Y020362D01*
X035483Y020275D01*
X035483Y021049D02*
X035570Y021049D01*
X035570Y021396D01*
X035483Y021564D02*
X035396Y021651D01*
X035396Y021911D01*
X035310Y021911D02*
X035570Y021911D01*
X035570Y021651D01*
X035483Y021564D01*
X035223Y021651D02*
X035223Y021825D01*
X035310Y021911D01*
X035310Y022080D02*
X035483Y022080D01*
X035570Y022167D01*
X035570Y022427D01*
X035570Y022596D02*
X035049Y022596D01*
X035223Y022682D02*
X035223Y022856D01*
X035310Y022943D01*
X035570Y022943D01*
X035570Y023111D02*
X035049Y023111D01*
X035310Y023111D02*
X035310Y023458D01*
X035310Y023627D02*
X035483Y023627D01*
X035570Y023714D01*
X035570Y023887D01*
X035483Y023974D01*
X035310Y023974D01*
X035223Y023887D01*
X035223Y023714D01*
X035310Y023627D01*
X035049Y023458D02*
X035570Y023458D01*
X035483Y024143D02*
X035310Y024143D01*
X035223Y024229D01*
X035223Y024403D01*
X035310Y024489D01*
X035396Y024489D01*
X035396Y024143D01*
X035483Y024143D02*
X035570Y024229D01*
X035570Y024403D01*
X035570Y024658D02*
X035049Y024658D01*
X035223Y024918D02*
X035396Y024658D01*
X035570Y024918D01*
X035483Y025088D02*
X035310Y025088D01*
X035223Y025175D01*
X035223Y025348D01*
X035310Y025435D01*
X035396Y025435D01*
X035396Y025088D01*
X035483Y025088D02*
X035570Y025175D01*
X035570Y025348D01*
X035570Y025603D02*
X035223Y025603D01*
X035223Y025864D01*
X035310Y025950D01*
X035570Y025950D01*
X035570Y026119D02*
X035570Y026206D01*
X035483Y026206D01*
X035483Y026119D01*
X035570Y026119D01*
X035483Y026377D02*
X035570Y026464D01*
X035570Y026724D01*
X035483Y026893D02*
X035310Y026893D01*
X035223Y026979D01*
X035223Y027153D01*
X035310Y027239D01*
X035483Y027239D01*
X035570Y027153D01*
X035570Y026979D01*
X035483Y026893D01*
X035223Y026724D02*
X035223Y026464D01*
X035310Y026377D01*
X035483Y026377D01*
X035570Y027408D02*
X035223Y027408D01*
X035223Y027495D01*
X035310Y027582D01*
X035223Y027668D01*
X035310Y027755D01*
X035570Y027755D01*
X035570Y027582D02*
X035310Y027582D01*
X035223Y022682D02*
X035310Y022596D01*
X035223Y022427D02*
X035223Y022167D01*
X035310Y022080D01*
X035136Y021396D02*
X035483Y021049D01*
X035049Y021049D02*
X035049Y021396D01*
X035136Y021396D01*
X033170Y020915D02*
X032410Y020915D01*
X032410Y020295D02*
X033170Y020295D01*
X031632Y019286D02*
X031512Y019226D01*
X031392Y019105D01*
X031572Y019105D01*
X031632Y019045D01*
X031632Y018985D01*
X031572Y018925D01*
X031452Y018925D01*
X031392Y018985D01*
X031392Y019105D01*
X031264Y018985D02*
X031203Y018925D01*
X031083Y018925D01*
X031023Y018985D01*
X031023Y019226D01*
X031083Y019286D01*
X031203Y019286D01*
X031264Y019226D01*
X034963Y016409D02*
X035049Y016409D01*
X035483Y016666D02*
X035570Y016753D01*
X038563Y016135D02*
X038649Y016135D01*
X038823Y016135D02*
X039170Y016135D01*
X039170Y016049D02*
X039170Y016222D01*
X039083Y016392D02*
X039170Y016479D01*
X039170Y016653D01*
X039083Y016739D01*
X038910Y016739D01*
X038823Y016653D01*
X038823Y016479D01*
X038910Y016392D01*
X039083Y016392D01*
X038823Y016135D02*
X038823Y016049D01*
X038823Y016908D02*
X038823Y017168D01*
X038910Y017255D01*
X039170Y017255D01*
X039170Y017424D02*
X039170Y017684D01*
X039083Y017771D01*
X038996Y017684D01*
X038996Y017510D01*
X038910Y017424D01*
X038823Y017510D01*
X038823Y017771D01*
X038823Y017939D02*
X038910Y017939D01*
X038910Y018026D01*
X038823Y018026D01*
X038823Y017939D01*
X039083Y017939D02*
X039170Y017939D01*
X039170Y018026D01*
X039083Y018026D01*
X039083Y017939D01*
X039170Y016908D02*
X038823Y016908D01*
X026250Y020475D02*
X026250Y021235D01*
X025630Y021235D02*
X025630Y020475D01*
X025629Y019649D02*
X025492Y019649D01*
X025424Y019580D01*
X025424Y019444D01*
X025492Y019375D01*
X025629Y019375D01*
X025697Y019444D01*
X025697Y019580D01*
X025629Y019649D01*
X025838Y019649D02*
X025838Y019375D01*
X025838Y019512D02*
X025975Y019649D01*
X026043Y019649D01*
X025284Y019649D02*
X025148Y019649D01*
X025216Y019717D02*
X025216Y019444D01*
X025284Y019375D01*
X025007Y019444D02*
X024938Y019512D01*
X024802Y019512D01*
X024733Y019580D01*
X024802Y019649D01*
X025007Y019649D01*
X025007Y019444D02*
X024938Y019375D01*
X024733Y019375D01*
X024594Y019375D02*
X024457Y019375D01*
X024525Y019375D02*
X024525Y019649D01*
X024457Y019649D01*
X024316Y019649D02*
X024111Y019649D01*
X024043Y019580D01*
X024111Y019512D01*
X024248Y019512D01*
X024316Y019444D01*
X024248Y019375D01*
X024043Y019375D01*
X023902Y019512D02*
X023628Y019512D01*
X023628Y019444D02*
X023628Y019580D01*
X023697Y019649D01*
X023834Y019649D01*
X023902Y019580D01*
X023902Y019512D01*
X023834Y019375D02*
X023697Y019375D01*
X023628Y019444D01*
X023488Y019375D02*
X023351Y019512D01*
X023419Y019512D02*
X023214Y019512D01*
X023214Y019375D02*
X023214Y019786D01*
X023419Y019786D01*
X023488Y019717D01*
X023488Y019580D01*
X023419Y019512D01*
X022659Y019444D02*
X022591Y019375D01*
X022454Y019375D01*
X022385Y019444D01*
X022385Y019717D01*
X022454Y019786D01*
X022591Y019786D01*
X022659Y019717D01*
X022245Y019717D02*
X022245Y019786D01*
X022245Y019717D02*
X022108Y019580D01*
X022108Y019375D01*
X022108Y019580D02*
X021971Y019717D01*
X021971Y019786D01*
X021830Y019786D02*
X021830Y019375D01*
X021557Y019786D01*
X021557Y019375D01*
X021003Y019375D02*
X020935Y019375D01*
X020935Y019444D01*
X021003Y019444D01*
X021003Y019375D01*
X020866Y019239D01*
X020725Y019375D02*
X020520Y019375D01*
X020452Y019444D01*
X020520Y019512D01*
X020725Y019512D01*
X020725Y019580D02*
X020725Y019375D01*
X020725Y019580D02*
X020657Y019649D01*
X020520Y019649D01*
X020311Y019649D02*
X020106Y019649D01*
X020038Y019580D01*
X020038Y019444D01*
X020106Y019375D01*
X020311Y019375D01*
X020311Y019786D01*
X019897Y019580D02*
X019897Y019375D01*
X019692Y019375D01*
X019623Y019444D01*
X019692Y019512D01*
X019897Y019512D01*
X019897Y019580D02*
X019828Y019649D01*
X019692Y019649D01*
X019482Y019649D02*
X019482Y019307D01*
X019414Y019239D01*
X019346Y019239D01*
X019277Y019375D02*
X019482Y019375D01*
X019277Y019375D02*
X019209Y019444D01*
X019209Y019649D01*
X019068Y019649D02*
X018863Y019649D01*
X018795Y019580D01*
X018795Y019444D01*
X018863Y019375D01*
X019068Y019375D01*
X019068Y019786D01*
X018654Y019580D02*
X018654Y019375D01*
X018449Y019375D01*
X018380Y019444D01*
X018449Y019512D01*
X018654Y019512D01*
X018654Y019580D02*
X018585Y019649D01*
X018449Y019649D01*
X018239Y019375D02*
X017966Y019375D01*
X017966Y019786D01*
X017412Y019444D02*
X017344Y019444D01*
X017344Y019375D01*
X017412Y019375D01*
X017412Y019444D01*
X017412Y019375D02*
X017275Y019239D01*
X017135Y019375D02*
X017135Y019580D01*
X017066Y019649D01*
X016998Y019580D01*
X016998Y019375D01*
X016861Y019375D02*
X016861Y019649D01*
X016929Y019649D01*
X016998Y019580D01*
X016720Y019580D02*
X016720Y019375D01*
X016515Y019375D01*
X016447Y019444D01*
X016515Y019512D01*
X016720Y019512D01*
X016720Y019580D02*
X016652Y019649D01*
X016515Y019649D01*
X016306Y019580D02*
X016306Y019512D01*
X016032Y019512D01*
X016032Y019444D02*
X016032Y019580D01*
X016101Y019649D01*
X016238Y019649D01*
X016306Y019580D01*
X016238Y019375D02*
X016101Y019375D01*
X016032Y019444D01*
X015755Y019375D02*
X015755Y019786D01*
X015618Y019786D02*
X015892Y019786D01*
X015063Y019580D02*
X015063Y019444D01*
X014995Y019375D01*
X014858Y019375D01*
X014789Y019444D01*
X014789Y019580D01*
X014858Y019649D01*
X014995Y019649D01*
X015063Y019580D01*
X014649Y019580D02*
X014649Y019375D01*
X014649Y019580D02*
X014580Y019649D01*
X014375Y019649D01*
X014375Y019375D01*
X014236Y019375D02*
X014099Y019375D01*
X014167Y019375D02*
X014167Y019649D01*
X014099Y019649D01*
X013958Y019649D02*
X013958Y019375D01*
X013753Y019375D01*
X013684Y019444D01*
X013684Y019649D01*
X013544Y019649D02*
X013339Y019649D01*
X013270Y019580D01*
X013270Y019444D01*
X013339Y019375D01*
X013544Y019375D01*
X013544Y019786D01*
X013130Y019649D02*
X013062Y019649D01*
X012925Y019512D01*
X012925Y019375D02*
X012925Y019649D01*
X012784Y019649D02*
X012784Y019375D01*
X012784Y019580D02*
X012511Y019580D01*
X012511Y019649D02*
X012647Y019786D01*
X012784Y019649D01*
X012511Y019649D02*
X012511Y019375D01*
X011955Y019512D02*
X011955Y019580D01*
X011887Y019649D01*
X011750Y019649D01*
X011682Y019580D01*
X011682Y019444D01*
X011750Y019375D01*
X011887Y019375D01*
X011955Y019512D02*
X011682Y019512D01*
X011541Y019580D02*
X011541Y019375D01*
X011541Y019580D02*
X011473Y019649D01*
X011336Y019649D01*
X011268Y019580D01*
X011268Y019375D02*
X011268Y019786D01*
X011127Y019786D02*
X010853Y019786D01*
X010990Y019786D02*
X010990Y019375D01*
X010300Y019375D02*
X010232Y019375D01*
X010232Y019444D01*
X010300Y019444D01*
X010300Y019375D01*
X010300Y019580D02*
X010232Y019580D01*
X010232Y019649D01*
X010300Y019649D01*
X010300Y019580D01*
X010091Y019580D02*
X010091Y019444D01*
X010023Y019375D01*
X009886Y019375D01*
X009817Y019444D01*
X009817Y019580D01*
X009886Y019649D01*
X010023Y019649D01*
X010091Y019580D01*
X009678Y019649D02*
X009541Y019649D01*
X009610Y019717D02*
X009610Y019444D01*
X009678Y019375D01*
X009847Y018746D02*
X010020Y018746D01*
X010107Y018659D01*
X010107Y018572D01*
X010020Y018485D01*
X010107Y018399D01*
X010107Y018312D01*
X010020Y018225D01*
X009847Y018225D01*
X009760Y018312D01*
X009933Y018485D02*
X010020Y018485D01*
X009760Y018659D02*
X009847Y018746D01*
X009107Y018659D02*
X009020Y018746D01*
X008847Y018746D01*
X008760Y018659D01*
X009107Y018659D02*
X009107Y018572D01*
X008760Y018225D01*
X009107Y018225D01*
X008107Y018225D02*
X007760Y018225D01*
X007933Y018225D02*
X007933Y018746D01*
X007760Y018572D01*
X007107Y018659D02*
X007107Y018312D01*
X007020Y018225D01*
X006847Y018225D01*
X006760Y018312D01*
X007107Y018659D01*
X007020Y018746D01*
X006847Y018746D01*
X006760Y018659D01*
X006760Y018312D01*
X005862Y017572D02*
X005873Y017600D01*
X005901Y017611D01*
X005929Y017600D01*
X005940Y017572D01*
X005929Y017544D01*
X005901Y017533D01*
X005873Y017544D01*
X005862Y017572D01*
X005714Y017670D02*
X004966Y017670D01*
X004966Y017040D02*
X005714Y017040D01*
X005970Y017197D02*
X005946Y017201D01*
X005924Y017207D01*
X005902Y017218D01*
X005882Y017231D01*
X005865Y017247D01*
X005850Y017265D01*
X005838Y017286D01*
X005829Y017308D01*
X005824Y017331D01*
X005822Y017355D01*
X005824Y017379D01*
X005829Y017402D01*
X005838Y017424D01*
X005850Y017445D01*
X005865Y017463D01*
X005882Y017479D01*
X005902Y017492D01*
X005924Y017503D01*
X005946Y017509D01*
X005970Y017513D01*
X006130Y015766D02*
X006130Y015405D01*
X006010Y015405D02*
X006250Y015405D01*
X006378Y015465D02*
X006618Y015706D01*
X006618Y015465D01*
X006558Y015405D01*
X006438Y015405D01*
X006378Y015465D01*
X006378Y015706D01*
X006438Y015766D01*
X006558Y015766D01*
X006618Y015706D01*
X006747Y015766D02*
X006747Y015405D01*
X006747Y015525D02*
X006987Y015766D01*
X006807Y015585D02*
X006987Y015405D01*
X006840Y015086D02*
X006900Y015026D01*
X006900Y014905D01*
X006840Y014845D01*
X006660Y014845D01*
X006660Y014725D02*
X006660Y015086D01*
X006840Y015086D01*
X007028Y014965D02*
X007148Y015086D01*
X007148Y014725D01*
X007028Y014725D02*
X007268Y014725D01*
X007397Y014905D02*
X007637Y014905D01*
X007577Y014725D02*
X007577Y015086D01*
X007397Y014905D01*
X006900Y014725D02*
X006780Y014845D01*
X006010Y015645D02*
X006130Y015766D01*
X003514Y017040D02*
X002766Y017040D01*
X002540Y017139D02*
X002551Y017167D01*
X002579Y017178D01*
X002607Y017167D01*
X002618Y017139D01*
X002607Y017111D01*
X002579Y017100D01*
X002551Y017111D01*
X002540Y017139D01*
X002510Y017197D02*
X002534Y017201D01*
X002556Y017207D01*
X002578Y017218D01*
X002598Y017231D01*
X002615Y017247D01*
X002630Y017265D01*
X002642Y017286D01*
X002651Y017308D01*
X002656Y017331D01*
X002658Y017355D01*
X002656Y017379D01*
X002651Y017402D01*
X002642Y017424D01*
X002630Y017445D01*
X002615Y017463D01*
X002598Y017479D01*
X002578Y017492D01*
X002556Y017503D01*
X002534Y017509D01*
X002510Y017513D01*
X002766Y017670D02*
X003514Y017670D01*
X001700Y017775D02*
X001700Y018535D01*
X001080Y018535D02*
X001080Y017775D01*
X006710Y019786D02*
X006983Y019786D01*
X006847Y019786D02*
X006847Y019375D01*
X007124Y019375D02*
X007124Y019786D01*
X007193Y019649D02*
X007329Y019649D01*
X007398Y019580D01*
X007398Y019375D01*
X007539Y019444D02*
X007607Y019512D01*
X007812Y019512D01*
X007812Y019580D02*
X007812Y019375D01*
X007607Y019375D01*
X007539Y019444D01*
X007607Y019649D02*
X007744Y019649D01*
X007812Y019580D01*
X007953Y019649D02*
X007953Y019375D01*
X008226Y019375D02*
X008226Y019580D01*
X008158Y019649D01*
X007953Y019649D01*
X008367Y019786D02*
X008367Y019375D01*
X008367Y019512D02*
X008572Y019649D01*
X008713Y019580D02*
X008781Y019512D01*
X008918Y019512D01*
X008986Y019444D01*
X008918Y019375D01*
X008713Y019375D01*
X008572Y019375D02*
X008367Y019512D01*
X008713Y019580D02*
X008781Y019649D01*
X008986Y019649D01*
X007193Y019649D02*
X007124Y019580D01*
X010760Y018485D02*
X011107Y018485D01*
X011020Y018225D02*
X011020Y018746D01*
X010760Y018485D01*
X011760Y018485D02*
X011933Y018572D01*
X012020Y018572D01*
X012107Y018485D01*
X012107Y018312D01*
X012020Y018225D01*
X011847Y018225D01*
X011760Y018312D01*
X011760Y018485D02*
X011760Y018746D01*
X012107Y018746D01*
X012760Y018485D02*
X012760Y018312D01*
X012847Y018225D01*
X013020Y018225D01*
X013107Y018312D01*
X013107Y018399D01*
X013020Y018485D01*
X012760Y018485D01*
X012933Y018659D01*
X013107Y018746D01*
X013760Y018746D02*
X014107Y018746D01*
X014107Y018659D01*
X013760Y018312D01*
X013760Y018225D01*
X014167Y019786D02*
X014167Y019854D01*
X017810Y018659D02*
X017810Y018312D01*
X017897Y018225D01*
X018070Y018225D01*
X018157Y018312D01*
X018157Y018485D01*
X017983Y018485D01*
X017810Y018659D02*
X017897Y018746D01*
X018070Y018746D01*
X018157Y018659D01*
X018326Y018746D02*
X018672Y018225D01*
X018672Y018746D01*
X018841Y018746D02*
X019101Y018746D01*
X019188Y018659D01*
X019188Y018312D01*
X019101Y018225D01*
X018841Y018225D01*
X018841Y018746D01*
X018326Y018746D02*
X018326Y018225D01*
X017220Y015974D02*
X016860Y015974D01*
X017040Y015794D01*
X017040Y016034D01*
X017040Y015665D02*
X017100Y015605D01*
X017100Y015425D01*
X017220Y015425D02*
X016860Y015425D01*
X016860Y015605D01*
X016920Y015665D01*
X017040Y015665D01*
X017100Y015545D02*
X017220Y015665D01*
X015920Y015615D02*
X015800Y015495D01*
X015800Y015555D02*
X015800Y015375D01*
X015920Y015375D02*
X015560Y015375D01*
X015560Y015555D01*
X015620Y015615D01*
X015740Y015615D01*
X015800Y015555D01*
X015860Y015744D02*
X015920Y015804D01*
X015920Y015924D01*
X015860Y015984D01*
X015740Y015984D01*
X015680Y015924D01*
X015680Y015864D01*
X015740Y015744D01*
X015560Y015744D01*
X015560Y015984D01*
X014620Y015924D02*
X014620Y015804D01*
X014560Y015744D01*
X014440Y015744D01*
X014440Y015924D01*
X014500Y015984D01*
X014560Y015984D01*
X014620Y015924D01*
X014440Y015744D02*
X014320Y015864D01*
X014260Y015984D01*
X014320Y015615D02*
X014440Y015615D01*
X014500Y015555D01*
X014500Y015375D01*
X014620Y015375D02*
X014260Y015375D01*
X014260Y015555D01*
X014320Y015615D01*
X014500Y015495D02*
X014620Y015615D01*
X014640Y015086D02*
X014460Y014906D01*
X014520Y014846D02*
X014280Y015086D01*
X014280Y014846D02*
X014640Y014846D01*
X014580Y014718D02*
X014640Y014658D01*
X014640Y014538D01*
X014580Y014478D01*
X014520Y014478D01*
X014460Y014538D01*
X014460Y014658D01*
X014520Y014718D01*
X014580Y014718D01*
X014460Y014658D02*
X014400Y014718D01*
X014340Y014718D01*
X014280Y014658D01*
X014280Y014538D01*
X014340Y014478D01*
X014400Y014478D01*
X014460Y014538D01*
X014580Y014354D02*
X014640Y014354D01*
X014640Y014294D01*
X014580Y014294D01*
X014580Y014354D01*
X014640Y014165D02*
X014640Y013925D01*
X014640Y014045D02*
X014280Y014045D01*
X014400Y013925D01*
X014370Y013584D02*
X014430Y013584D01*
X014490Y013524D01*
X014490Y013404D01*
X014430Y013344D01*
X014370Y013344D01*
X014310Y013404D01*
X014310Y013524D01*
X014370Y013584D01*
X014490Y013524D02*
X014550Y013584D01*
X014610Y013584D01*
X014670Y013524D01*
X014670Y013404D01*
X014610Y013344D01*
X014550Y013344D01*
X014490Y013404D01*
X014490Y013215D02*
X014370Y013215D01*
X014310Y013155D01*
X014310Y012975D01*
X014670Y012975D01*
X014550Y012975D02*
X014550Y013155D01*
X014490Y013215D01*
X014550Y013095D02*
X014670Y013215D01*
X015610Y013155D02*
X015610Y012975D01*
X015970Y012975D01*
X015850Y012975D02*
X015850Y013155D01*
X015790Y013215D01*
X015670Y013215D01*
X015610Y013155D01*
X015610Y013344D02*
X015610Y013584D01*
X015670Y013584D01*
X015910Y013344D01*
X015970Y013344D01*
X015970Y013215D02*
X015850Y013095D01*
X015940Y013925D02*
X015940Y014165D01*
X015940Y014045D02*
X015580Y014045D01*
X015700Y013925D01*
X015880Y014294D02*
X015880Y014354D01*
X015940Y014354D01*
X015940Y014294D01*
X015880Y014294D01*
X015880Y014478D02*
X015820Y014478D01*
X015760Y014538D01*
X015760Y014658D01*
X015820Y014718D01*
X015880Y014718D01*
X015940Y014658D01*
X015940Y014538D01*
X015880Y014478D01*
X015760Y014538D02*
X015700Y014478D01*
X015640Y014478D01*
X015580Y014538D01*
X015580Y014658D01*
X015640Y014718D01*
X015700Y014718D01*
X015760Y014658D01*
X015820Y014846D02*
X015580Y015086D01*
X015580Y014846D02*
X015940Y014846D01*
X015760Y014906D02*
X015940Y015086D01*
X018189Y013759D02*
X018189Y013682D01*
X018265Y013605D01*
X018419Y013605D01*
X018496Y013529D01*
X018496Y013452D01*
X018419Y013375D01*
X018265Y013375D01*
X018189Y013452D01*
X018189Y013759D02*
X018265Y013836D01*
X018419Y013836D01*
X018496Y013759D01*
X018649Y013836D02*
X018649Y013375D01*
X018956Y013375D02*
X018649Y013836D01*
X018956Y013836D02*
X018956Y013375D01*
X019109Y013375D02*
X019109Y013452D01*
X019416Y013759D01*
X019416Y013836D01*
X019109Y013836D01*
X019570Y013836D02*
X019570Y013605D01*
X019723Y013682D01*
X019800Y013682D01*
X019877Y013605D01*
X019877Y013452D01*
X019800Y013375D01*
X019646Y013375D01*
X019570Y013452D01*
X019570Y013836D02*
X019877Y013836D01*
X020030Y013682D02*
X020184Y013836D01*
X020184Y013375D01*
X020337Y013375D02*
X020030Y013375D01*
X020490Y013375D02*
X020490Y013452D01*
X020797Y013759D01*
X020797Y013836D01*
X020490Y013836D01*
X020951Y013605D02*
X021181Y013605D01*
X021258Y013529D01*
X021258Y013452D01*
X021181Y013375D01*
X021028Y013375D01*
X020951Y013452D01*
X020951Y013605D01*
X021104Y013759D01*
X021258Y013836D01*
X021411Y013682D02*
X021565Y013836D01*
X021718Y013682D01*
X021718Y013375D01*
X021872Y013452D02*
X021948Y013375D01*
X022102Y013375D01*
X022178Y013452D01*
X022178Y013529D01*
X022102Y013605D01*
X021948Y013605D01*
X021872Y013682D01*
X021872Y013759D01*
X021948Y013836D01*
X022102Y013836D01*
X022178Y013759D01*
X022332Y013759D02*
X022332Y013452D01*
X022409Y013375D01*
X022562Y013375D01*
X022639Y013452D01*
X022639Y013759D01*
X022562Y013836D01*
X022409Y013836D01*
X022332Y013759D01*
X022792Y013836D02*
X022946Y013836D01*
X022869Y013836D02*
X022869Y013375D01*
X022792Y013375D02*
X022946Y013375D01*
X023099Y013452D02*
X023099Y013759D01*
X023176Y013836D01*
X023329Y013836D01*
X023406Y013759D01*
X023406Y013452D02*
X023329Y013375D01*
X023176Y013375D01*
X023099Y013452D01*
X021718Y013605D02*
X021411Y013605D01*
X021411Y013682D02*
X021411Y013375D01*
X023260Y015298D02*
X023260Y015451D01*
X023260Y015374D02*
X023720Y015374D01*
X023720Y015298D02*
X023720Y015451D01*
X023643Y015604D02*
X023336Y015604D01*
X023260Y015681D01*
X023260Y015835D01*
X023336Y015911D01*
X023413Y016065D02*
X023260Y016218D01*
X023720Y016218D01*
X023720Y016065D02*
X023720Y016372D01*
X023643Y015911D02*
X023720Y015835D01*
X023720Y015681D01*
X023643Y015604D01*
X024525Y019786D02*
X024525Y019854D01*
X025630Y023675D02*
X025630Y024435D01*
X026250Y024435D02*
X026250Y023675D01*
X032760Y033975D02*
X033066Y033975D01*
X033220Y034129D01*
X033066Y034282D01*
X032760Y034282D01*
X032836Y034436D02*
X033143Y034436D01*
X033220Y034512D01*
X033220Y034666D01*
X033143Y034743D01*
X033143Y034896D02*
X033220Y034973D01*
X033220Y035126D01*
X033143Y035203D01*
X032836Y035203D02*
X032760Y035126D01*
X032760Y034973D01*
X032836Y034896D01*
X033143Y034896D01*
X032836Y034743D02*
X032760Y034666D01*
X032760Y034512D01*
X032836Y034436D01*
X033760Y034436D02*
X034220Y034743D01*
X033760Y034743D01*
X033760Y034896D02*
X033760Y035126D01*
X033836Y035203D01*
X034143Y035203D01*
X034220Y035126D01*
X034220Y034896D01*
X033760Y034896D01*
X033760Y034436D02*
X034220Y034436D01*
X034143Y034282D02*
X033990Y034282D01*
X033990Y034129D01*
X034143Y034282D02*
X034220Y034205D01*
X034220Y034052D01*
X034143Y033975D01*
X033836Y033975D01*
X033760Y034052D01*
X033760Y034205D01*
X033836Y034282D01*
X034760Y034205D02*
X034760Y034052D01*
X034836Y033975D01*
X034913Y033975D01*
X034990Y034052D01*
X034990Y034205D01*
X035066Y034282D01*
X035143Y034282D01*
X035220Y034205D01*
X035220Y034052D01*
X035143Y033975D01*
X034836Y034282D02*
X034760Y034205D01*
X034760Y034436D02*
X034760Y034666D01*
X034836Y034743D01*
X035143Y034743D01*
X035220Y034666D01*
X035220Y034436D01*
X034760Y034436D01*
X034913Y034896D02*
X034760Y035049D01*
X034913Y035203D01*
X035220Y035203D01*
X034990Y035203D02*
X034990Y034896D01*
X034913Y034896D02*
X035220Y034896D01*
X035760Y034896D02*
X036220Y034896D01*
X036220Y035203D01*
X036143Y034743D02*
X036220Y034666D01*
X036220Y034512D01*
X036143Y034436D01*
X035836Y034436D01*
X035760Y034512D01*
X035760Y034666D01*
X035836Y034743D01*
X035836Y034282D02*
X035760Y034205D01*
X035760Y034052D01*
X035836Y033975D01*
X035913Y033975D01*
X035990Y034052D01*
X035990Y034205D01*
X036066Y034282D01*
X036143Y034282D01*
X036220Y034205D01*
X036220Y034052D01*
X036143Y033975D01*
X013290Y015236D02*
X013110Y015056D01*
X013170Y014996D02*
X012930Y015236D01*
X012930Y014996D02*
X013290Y014996D01*
X013230Y014868D02*
X013290Y014808D01*
X013290Y014688D01*
X013230Y014628D01*
X013170Y014628D01*
X013110Y014688D01*
X013110Y014808D01*
X013170Y014868D01*
X013230Y014868D01*
X013110Y014808D02*
X013050Y014868D01*
X012990Y014868D01*
X012930Y014808D01*
X012930Y014688D01*
X012990Y014628D01*
X013050Y014628D01*
X013110Y014688D01*
X013230Y014504D02*
X013230Y014444D01*
X013290Y014444D01*
X013290Y014504D01*
X013230Y014504D01*
X013290Y014315D02*
X013290Y014075D01*
X013290Y014195D02*
X012930Y014195D01*
X013050Y014075D01*
X013070Y013584D02*
X013010Y013524D01*
X013010Y013404D01*
X013070Y013344D01*
X013130Y013344D01*
X013190Y013404D01*
X013190Y013584D01*
X013310Y013584D02*
X013070Y013584D01*
X013310Y013584D02*
X013370Y013524D01*
X013370Y013404D01*
X013310Y013344D01*
X013370Y013215D02*
X013250Y013095D01*
X013250Y013155D02*
X013250Y012975D01*
X013370Y012975D02*
X013010Y012975D01*
X013010Y013155D01*
X013070Y013215D01*
X013190Y013215D01*
X013250Y013155D01*
X013390Y012286D02*
X013210Y012106D01*
X013270Y012046D02*
X013030Y012286D01*
X013030Y012046D02*
X013390Y012046D01*
X013330Y011918D02*
X013390Y011858D01*
X013390Y011738D01*
X013330Y011678D01*
X013330Y011554D02*
X013390Y011554D01*
X013390Y011494D01*
X013330Y011494D01*
X013330Y011554D01*
X013330Y011365D02*
X013390Y011305D01*
X013390Y011185D01*
X013330Y011125D01*
X013210Y011245D02*
X013210Y011305D01*
X013270Y011365D01*
X013330Y011365D01*
X013210Y011305D02*
X013150Y011365D01*
X013090Y011365D01*
X013030Y011305D01*
X013030Y011185D01*
X013090Y011125D01*
X013090Y011678D02*
X013030Y011738D01*
X013030Y011858D01*
X013090Y011918D01*
X013150Y011918D01*
X013210Y011858D01*
X013270Y011918D01*
X013330Y011918D01*
X013210Y011858D02*
X013210Y011798D01*
X014280Y011858D02*
X014340Y011918D01*
X014400Y011918D01*
X014460Y011858D01*
X014520Y011918D01*
X014580Y011918D01*
X014640Y011858D01*
X014640Y011738D01*
X014580Y011678D01*
X014580Y011554D02*
X014640Y011554D01*
X014640Y011494D01*
X014580Y011494D01*
X014580Y011554D01*
X014580Y011365D02*
X014640Y011305D01*
X014640Y011185D01*
X014580Y011125D01*
X014460Y011245D02*
X014460Y011305D01*
X014520Y011365D01*
X014580Y011365D01*
X014460Y011305D02*
X014400Y011365D01*
X014340Y011365D01*
X014280Y011305D01*
X014280Y011185D01*
X014340Y011125D01*
X014340Y011678D02*
X014280Y011738D01*
X014280Y011858D01*
X014460Y011858D02*
X014460Y011798D01*
X014520Y012046D02*
X014280Y012286D01*
X014280Y012046D02*
X014640Y012046D01*
X014460Y012106D02*
X014640Y012286D01*
X015580Y012286D02*
X015820Y012046D01*
X015760Y012106D02*
X015940Y012286D01*
X015940Y012046D02*
X015580Y012046D01*
X015640Y011918D02*
X015700Y011918D01*
X015760Y011858D01*
X015820Y011918D01*
X015880Y011918D01*
X015940Y011858D01*
X015940Y011738D01*
X015880Y011678D01*
X015880Y011554D02*
X015940Y011554D01*
X015940Y011494D01*
X015880Y011494D01*
X015880Y011554D01*
X015880Y011365D02*
X015940Y011305D01*
X015940Y011185D01*
X015880Y011125D01*
X015760Y011245D02*
X015760Y011305D01*
X015820Y011365D01*
X015880Y011365D01*
X015760Y011305D02*
X015700Y011365D01*
X015640Y011365D01*
X015580Y011305D01*
X015580Y011185D01*
X015640Y011125D01*
X015640Y011678D02*
X015580Y011738D01*
X015580Y011858D01*
X015640Y011918D01*
X015760Y011858D02*
X015760Y011798D01*
X012622Y015875D02*
X012502Y015875D01*
X012442Y015935D01*
X012314Y015875D02*
X012073Y015875D01*
X012193Y015875D02*
X012193Y016236D01*
X012073Y016115D01*
X011945Y016055D02*
X011885Y015995D01*
X011705Y015995D01*
X011705Y015875D02*
X011705Y016236D01*
X011885Y016236D01*
X011945Y016176D01*
X011945Y016055D01*
X011825Y015995D02*
X011945Y015875D01*
X012442Y016176D02*
X012502Y016236D01*
X012622Y016236D01*
X012682Y016176D01*
X012682Y016115D01*
X012622Y016055D01*
X012682Y015995D01*
X012682Y015935D01*
X012622Y015875D01*
X012622Y016055D02*
X012562Y016055D01*
X010232Y015006D02*
X009992Y014765D01*
X010052Y014825D02*
X010232Y014645D01*
X009992Y014645D02*
X009992Y015006D01*
X009864Y014946D02*
X009623Y014705D01*
X009683Y014645D01*
X009803Y014645D01*
X009864Y014705D01*
X009864Y014946D01*
X009803Y015006D01*
X009683Y015006D01*
X009623Y014946D01*
X009623Y014705D01*
X009495Y014645D02*
X009255Y014645D01*
X009375Y014645D02*
X009375Y015006D01*
X009255Y014885D01*
X008391Y023175D02*
X008117Y023175D01*
X008391Y023449D01*
X008391Y023517D01*
X008322Y023586D01*
X008186Y023586D01*
X008117Y023517D01*
X007976Y023586D02*
X007976Y023312D01*
X007840Y023175D01*
X007703Y023312D01*
X007703Y023586D01*
X007289Y023586D02*
X007289Y023175D01*
X007562Y023175D01*
X007148Y023380D02*
X007148Y023517D01*
X007079Y023586D01*
X006874Y023586D01*
X006874Y023175D01*
X006874Y023312D02*
X007079Y023312D01*
X007148Y023380D01*
X006733Y023380D02*
X006597Y023380D01*
X006733Y023380D02*
X006733Y023244D01*
X006665Y023175D01*
X006528Y023175D01*
X006460Y023244D01*
X006460Y023517D01*
X006528Y023586D01*
X006665Y023586D01*
X006733Y023517D01*
X003250Y025975D02*
X003250Y026735D01*
X002630Y026735D02*
X002630Y025975D01*
X002594Y027525D02*
X002767Y027525D01*
X002854Y027612D01*
X002854Y027785D01*
X002680Y027785D01*
X002507Y027612D02*
X002594Y027525D01*
X002507Y027612D02*
X002507Y027959D01*
X002594Y028046D01*
X002767Y028046D01*
X002854Y027959D01*
X003022Y028046D02*
X003022Y027612D01*
X003109Y027525D01*
X003283Y027525D01*
X003369Y027612D01*
X003369Y028046D01*
X003538Y028046D02*
X003712Y028046D01*
X003625Y028046D02*
X003625Y027525D01*
X003538Y027525D02*
X003712Y027525D01*
X003882Y027525D02*
X003882Y028046D01*
X004229Y027525D01*
X004229Y028046D01*
X004397Y027959D02*
X004397Y027612D01*
X004484Y027525D01*
X004658Y027525D01*
X004744Y027612D01*
X004744Y027959D01*
X004658Y028046D01*
X004484Y028046D01*
X004397Y027959D01*
X004913Y027612D02*
X005000Y027612D01*
X005000Y027525D01*
X004913Y027525D01*
X004913Y027612D01*
X005171Y027612D02*
X005171Y027959D01*
X005258Y028046D01*
X005431Y028046D01*
X005518Y027959D01*
X005686Y027959D02*
X005686Y027612D01*
X005773Y027525D01*
X005947Y027525D01*
X006033Y027612D01*
X006033Y027959D02*
X005947Y028046D01*
X005773Y028046D01*
X005686Y027959D01*
X005518Y027612D02*
X005431Y027525D01*
X005258Y027525D01*
X005171Y027612D01*
X002338Y027525D02*
X002338Y028046D01*
X001991Y028046D02*
X001991Y027525D01*
X001822Y027525D02*
X001822Y027872D01*
X001649Y028046D01*
X001476Y027872D01*
X001476Y027525D01*
X001307Y027612D02*
X001220Y027525D01*
X001047Y027525D01*
X000960Y027612D01*
X001047Y027785D02*
X001220Y027785D01*
X001307Y027699D01*
X001307Y027612D01*
X001476Y027785D02*
X001822Y027785D01*
X001991Y028046D02*
X002338Y027525D01*
X001307Y027959D02*
X001220Y028046D01*
X001047Y028046D01*
X000960Y027959D01*
X000960Y027872D01*
X001047Y027785D01*
X002710Y003696D02*
X002970Y003696D01*
X003057Y003609D01*
X003057Y003435D01*
X002970Y003349D01*
X002710Y003349D01*
X002883Y003349D02*
X003057Y003175D01*
X003226Y003262D02*
X003226Y003435D01*
X003312Y003522D01*
X003486Y003522D01*
X003572Y003435D01*
X003572Y003349D01*
X003226Y003349D01*
X003226Y003262D02*
X003312Y003175D01*
X003486Y003175D01*
X003741Y003175D02*
X004001Y003175D01*
X004088Y003262D01*
X004088Y003435D01*
X004001Y003522D01*
X003741Y003522D01*
X003741Y003002D01*
X003656Y002622D02*
X003829Y002622D01*
X003916Y002535D01*
X003916Y002449D01*
X003569Y002449D01*
X003569Y002535D02*
X003569Y002362D01*
X003656Y002275D01*
X003829Y002275D01*
X004085Y002362D02*
X004172Y002275D01*
X004432Y002275D01*
X004687Y002362D02*
X004687Y002709D01*
X004601Y002622D02*
X004774Y002622D01*
X004944Y002622D02*
X004944Y002275D01*
X004774Y002275D02*
X004687Y002362D01*
X004944Y002449D02*
X005118Y002622D01*
X005204Y002622D01*
X005374Y002535D02*
X005374Y002362D01*
X005461Y002275D01*
X005634Y002275D01*
X005721Y002362D01*
X005721Y002535D01*
X005634Y002622D01*
X005461Y002622D01*
X005374Y002535D01*
X005288Y003002D02*
X005288Y003522D01*
X005548Y003522D01*
X005635Y003435D01*
X005635Y003262D01*
X005548Y003175D01*
X005288Y003175D01*
X005119Y003175D02*
X004859Y003175D01*
X004772Y003262D01*
X004859Y003349D01*
X005119Y003349D01*
X005119Y003435D02*
X005119Y003175D01*
X005119Y003435D02*
X005033Y003522D01*
X004859Y003522D01*
X004604Y003435D02*
X004517Y003349D01*
X004257Y003349D01*
X004430Y003349D02*
X004604Y003175D01*
X004604Y003435D02*
X004604Y003609D01*
X004517Y003696D01*
X004257Y003696D01*
X004257Y003175D01*
X004172Y002622D02*
X004085Y002535D01*
X004085Y002362D01*
X004172Y002622D02*
X004432Y002622D01*
X003656Y002622D02*
X003569Y002535D01*
X003399Y002275D02*
X003226Y002275D01*
X003312Y002275D02*
X003312Y002796D01*
X003226Y002796D01*
X003057Y002796D02*
X002710Y002796D01*
X002710Y002275D01*
X003057Y002275D01*
X002883Y002535D02*
X002710Y002535D01*
X002710Y003175D02*
X002710Y003696D01*
X005890Y002622D02*
X005890Y002275D01*
X006237Y002275D02*
X006237Y002535D01*
X006150Y002622D01*
X005890Y002622D01*
X006405Y002622D02*
X006492Y002622D01*
X006492Y002275D01*
X006405Y002275D02*
X006579Y002275D01*
X006749Y002362D02*
X006749Y002535D01*
X006836Y002622D01*
X007096Y002622D01*
X007265Y002535D02*
X007351Y002622D01*
X007612Y002622D01*
X007525Y002449D02*
X007351Y002449D01*
X007265Y002535D01*
X007265Y002275D02*
X007525Y002275D01*
X007612Y002362D01*
X007525Y002449D01*
X007096Y002275D02*
X006836Y002275D01*
X006749Y002362D01*
X006492Y002796D02*
X006492Y002882D01*
X006370Y003175D02*
X006457Y003262D01*
X006457Y003435D01*
X006283Y003435D01*
X006110Y003262D02*
X006197Y003175D01*
X006370Y003175D01*
X006626Y003262D02*
X006626Y003435D01*
X006712Y003522D01*
X006886Y003522D01*
X006972Y003435D01*
X006972Y003349D01*
X006626Y003349D01*
X006626Y003262D02*
X006712Y003175D01*
X006886Y003175D01*
X007141Y003175D02*
X007141Y003522D01*
X007401Y003522D01*
X007488Y003435D01*
X007488Y003175D01*
X007657Y003262D02*
X007744Y003175D01*
X007917Y003175D01*
X008004Y003349D02*
X007657Y003349D01*
X007657Y003435D02*
X007744Y003522D01*
X007917Y003522D01*
X008004Y003435D01*
X008004Y003349D01*
X008172Y003349D02*
X008346Y003522D01*
X008433Y003522D01*
X008689Y003522D02*
X008862Y003522D01*
X008949Y003435D01*
X008949Y003175D01*
X008689Y003175D01*
X008602Y003262D01*
X008689Y003349D01*
X008949Y003349D01*
X009118Y003522D02*
X009291Y003522D01*
X009204Y003609D02*
X009204Y003262D01*
X009291Y003175D01*
X009461Y003175D02*
X009635Y003175D01*
X009548Y003175D02*
X009548Y003522D01*
X009461Y003522D01*
X009548Y003696D02*
X009548Y003782D01*
X009892Y003522D02*
X009805Y003435D01*
X009805Y003262D01*
X009892Y003175D01*
X010065Y003175D01*
X010152Y003262D01*
X010152Y003435D01*
X010065Y003522D01*
X009892Y003522D01*
X010321Y003522D02*
X010321Y003175D01*
X010668Y003175D02*
X010668Y003435D01*
X010581Y003522D01*
X010321Y003522D01*
X010836Y003609D02*
X010923Y003696D01*
X011097Y003696D01*
X011183Y003609D01*
X011183Y003522D01*
X011097Y003435D01*
X011183Y003349D01*
X011183Y003262D01*
X011097Y003175D01*
X010923Y003175D01*
X010836Y003262D01*
X011010Y003435D02*
X011097Y003435D01*
X008172Y003522D02*
X008172Y003175D01*
X007657Y003262D02*
X007657Y003435D01*
X006457Y003609D02*
X006370Y003696D01*
X006197Y003696D01*
X006110Y003609D01*
X006110Y003262D01*
D14*
X003046Y006300D02*
X003200Y006453D01*
X003200Y006760D01*
X003046Y006914D01*
X002893Y006914D01*
X002740Y006760D01*
X002740Y006453D01*
X002586Y006300D01*
X002433Y006300D01*
X002279Y006453D01*
X002279Y006760D01*
X002433Y006914D01*
X002279Y007221D02*
X002279Y007681D01*
X002433Y007834D01*
X003046Y007834D01*
X003200Y007681D01*
X003200Y007221D01*
X002279Y007221D01*
X002433Y009062D02*
X003046Y009062D01*
X003200Y009215D01*
X003200Y009522D01*
X003046Y009676D01*
X003200Y009983D02*
X002586Y009983D01*
X002279Y010290D01*
X002586Y010597D01*
X003200Y010597D01*
X003200Y010904D02*
X002279Y010904D01*
X002279Y011364D01*
X002433Y011517D01*
X002740Y011517D01*
X002893Y011364D01*
X002893Y010904D01*
X002893Y011210D02*
X003200Y011517D01*
X003200Y011824D02*
X003200Y012285D01*
X003046Y012438D01*
X002433Y012438D01*
X002279Y012285D01*
X002279Y011824D01*
X003200Y011824D01*
X002740Y010597D02*
X002740Y009983D01*
X002433Y009676D02*
X002279Y009522D01*
X002279Y009215D01*
X002433Y009062D01*
X013331Y007159D02*
X013331Y000151D01*
X019249Y000151D01*
X019249Y007159D01*
X018140Y007159D01*
X018140Y007155D02*
X018140Y006255D01*
X017940Y006255D01*
X017940Y007155D01*
X017640Y007155D01*
X017640Y007159D02*
X017640Y006055D01*
X017640Y005305D01*
X017640Y005205D01*
X017440Y005205D01*
X017440Y005305D01*
X017440Y006055D01*
X017440Y007155D01*
X017140Y007155D01*
X017140Y006255D01*
X016940Y006255D01*
X016940Y007155D01*
X016640Y007155D01*
X016640Y007159D01*
X016640Y007155D02*
X016640Y006055D01*
X016640Y005305D01*
X016640Y005205D01*
X016440Y005205D01*
X016440Y005305D01*
X016440Y006055D01*
X016440Y007155D01*
X016140Y007155D01*
X016140Y006255D01*
X015940Y006255D01*
X015940Y007155D01*
X015640Y007155D01*
X015640Y007159D02*
X015640Y006055D01*
X015640Y005305D01*
X015640Y005205D01*
X015440Y005205D01*
X015440Y005305D01*
X015440Y006055D01*
X015440Y007155D01*
X015140Y007155D01*
X015140Y006255D01*
X014940Y006255D01*
X014940Y007155D01*
X014640Y007155D01*
X014640Y007159D02*
X014640Y006055D01*
X014640Y005305D01*
X014640Y005205D01*
X014440Y005205D01*
X014440Y005305D01*
X014440Y006055D01*
X014440Y007155D01*
X014440Y007159D02*
X013331Y007159D01*
X013640Y007155D02*
X013640Y006755D01*
X013990Y006755D01*
X013990Y007155D01*
X017830Y007645D02*
X017830Y008566D01*
X018290Y008566D01*
X018444Y008413D01*
X018444Y008106D01*
X018290Y007952D01*
X017830Y007952D01*
X018137Y007952D02*
X018444Y007645D01*
X018751Y007799D02*
X018904Y007645D01*
X019211Y007645D01*
X019364Y007799D01*
X019364Y007952D01*
X019211Y008106D01*
X018904Y008106D01*
X018751Y008259D01*
X018751Y008413D01*
X018904Y008566D01*
X019211Y008566D01*
X019364Y008413D01*
X019671Y008106D02*
X020285Y008106D01*
X020592Y008259D02*
X020592Y008413D01*
X020746Y008566D01*
X021053Y008566D01*
X021206Y008413D01*
X021206Y008259D01*
X021053Y008106D01*
X020746Y008106D01*
X020592Y008259D01*
X020746Y008106D02*
X020592Y007952D01*
X020592Y007799D01*
X020746Y007645D01*
X021053Y007645D01*
X021206Y007799D01*
X021206Y007952D01*
X021053Y008106D01*
X021513Y008106D02*
X021513Y008566D01*
X022127Y008566D01*
X021973Y008259D02*
X022127Y008106D01*
X022127Y007799D01*
X021973Y007645D01*
X021666Y007645D01*
X021513Y007799D01*
X021513Y008106D02*
X021820Y008259D01*
X021973Y008259D01*
X022040Y007155D02*
X021740Y007155D01*
X021740Y007159D02*
X021740Y006055D01*
X021740Y005305D01*
X021740Y005205D01*
X021540Y005205D01*
X021540Y005305D01*
X021540Y006055D01*
X021540Y007155D01*
X021240Y007155D01*
X021240Y006255D01*
X021040Y006255D01*
X021040Y007155D01*
X020740Y007155D01*
X020740Y007159D02*
X020740Y006055D01*
X020740Y005305D01*
X020740Y005205D01*
X020540Y005205D01*
X020540Y005305D01*
X020540Y006055D01*
X020540Y007155D01*
X020540Y007159D02*
X019431Y007159D01*
X019431Y000151D01*
X025349Y000151D01*
X025349Y007159D01*
X024240Y007159D01*
X024240Y007155D02*
X024240Y006255D01*
X024040Y006255D01*
X024040Y007155D01*
X023740Y007155D01*
X023740Y007159D02*
X023740Y006055D01*
X023740Y005305D01*
X023740Y005205D01*
X023540Y005205D01*
X023540Y005305D01*
X023540Y006055D01*
X023540Y007155D01*
X023240Y007155D01*
X023240Y006255D01*
X023040Y006255D01*
X023040Y007155D01*
X022740Y007155D01*
X022740Y007159D01*
X022740Y007155D02*
X022740Y006055D01*
X022740Y005305D01*
X022740Y005205D01*
X022540Y005205D01*
X022540Y005305D01*
X022540Y006055D01*
X022540Y007155D01*
X022240Y007155D01*
X022240Y006255D01*
X022040Y006255D01*
X022040Y007155D01*
X023354Y008106D02*
X023968Y008106D01*
X024690Y007155D02*
X024690Y006755D01*
X025040Y006755D01*
X025040Y007155D01*
X025531Y007159D02*
X026640Y007159D01*
X026640Y007155D02*
X026640Y006055D01*
X026640Y005305D01*
X026640Y005205D01*
X026840Y005205D01*
X026840Y005305D01*
X026840Y006055D01*
X026840Y007159D01*
X026840Y007155D02*
X027140Y007155D01*
X027140Y006255D01*
X027340Y006255D01*
X027340Y007155D01*
X027640Y007155D01*
X027640Y006055D01*
X027640Y005305D01*
X027640Y005205D01*
X027840Y005205D01*
X027840Y005305D01*
X027840Y006055D01*
X027840Y007159D01*
X027840Y007155D02*
X028140Y007155D01*
X028140Y006255D01*
X028340Y006255D01*
X028340Y007155D01*
X028640Y007155D01*
X028640Y006055D01*
X028640Y005305D01*
X028640Y005205D01*
X028840Y005205D01*
X028840Y005305D01*
X028840Y006055D01*
X028840Y007155D01*
X029140Y007155D01*
X029140Y006255D01*
X029340Y006255D01*
X029340Y007155D01*
X029640Y007155D01*
X029640Y006055D01*
X029640Y005305D01*
X029640Y005205D01*
X029840Y005205D01*
X029840Y005305D01*
X029840Y006055D01*
X029840Y007159D01*
X029840Y007155D02*
X030140Y007155D01*
X030140Y006255D01*
X030340Y006255D01*
X030340Y007155D01*
X030340Y007159D02*
X031449Y007159D01*
X031449Y000151D01*
X025531Y000151D01*
X025531Y007159D01*
X025840Y007155D02*
X025840Y006755D01*
X026190Y006755D01*
X026190Y007155D01*
X026270Y007645D02*
X026577Y007645D01*
X026730Y007799D01*
X026730Y008413D01*
X026577Y008566D01*
X026270Y008566D01*
X026117Y008413D01*
X026117Y007799D01*
X026270Y007645D01*
X025810Y007645D02*
X025810Y008566D01*
X025196Y008566D02*
X025810Y007645D01*
X025196Y007645D02*
X025196Y008566D01*
X027037Y008566D02*
X027651Y008566D01*
X027344Y008566D02*
X027344Y007645D01*
X028879Y007645D02*
X029493Y007645D01*
X029186Y008106D02*
X028879Y008106D01*
X028879Y008566D02*
X028879Y007645D01*
X028840Y007159D02*
X028840Y007155D01*
X030107Y007645D02*
X030107Y008566D01*
X030413Y008566D02*
X029800Y008566D01*
X029493Y008566D02*
X028879Y008566D01*
X030720Y008566D02*
X030720Y007645D01*
X030720Y008106D02*
X031334Y008106D01*
X031641Y008106D02*
X031948Y008106D01*
X031641Y008566D02*
X031641Y007645D01*
X032255Y007645D01*
X032562Y007645D02*
X032562Y008566D01*
X033022Y008566D01*
X033176Y008413D01*
X033176Y008106D01*
X033022Y007952D01*
X032562Y007952D01*
X032869Y007952D02*
X033176Y007645D01*
X033483Y007645D02*
X033483Y008566D01*
X034096Y007645D01*
X034096Y008566D01*
X034403Y008566D02*
X034403Y007645D01*
X035017Y007645D01*
X034710Y008106D02*
X034403Y008106D01*
X034403Y008566D02*
X035017Y008566D01*
X035324Y008566D02*
X035938Y008566D01*
X035631Y008566D02*
X035631Y007645D01*
X035740Y007155D02*
X035740Y006055D01*
X035740Y005305D01*
X035740Y005205D01*
X035940Y005205D01*
X035940Y005305D01*
X035940Y006055D01*
X035940Y007159D01*
X035940Y007155D02*
X036240Y007155D01*
X036240Y006255D01*
X036440Y006255D01*
X036440Y007155D01*
X036440Y007159D02*
X037549Y007159D01*
X037549Y000151D01*
X031631Y000151D01*
X031631Y007159D01*
X032740Y007159D01*
X032740Y007155D02*
X032740Y006055D01*
X032740Y005305D01*
X032740Y005205D01*
X032940Y005205D01*
X032940Y005305D01*
X032940Y006055D01*
X032940Y007159D01*
X032940Y007155D02*
X033240Y007155D01*
X033240Y006255D01*
X033440Y006255D01*
X033440Y007155D01*
X033740Y007155D01*
X033740Y006055D01*
X033740Y005305D01*
X033740Y005205D01*
X033940Y005205D01*
X033940Y005305D01*
X033940Y006055D01*
X033940Y007159D01*
X033940Y007155D02*
X034240Y007155D01*
X034240Y006255D01*
X034440Y006255D01*
X034440Y007155D01*
X034740Y007155D01*
X034740Y006055D01*
X034740Y005305D01*
X034740Y005205D01*
X034940Y005205D01*
X034940Y005305D01*
X034940Y006055D01*
X034940Y007155D01*
X035240Y007155D01*
X035240Y006255D01*
X035440Y006255D01*
X035440Y007155D01*
X035740Y007155D01*
X036245Y007645D02*
X036245Y007799D01*
X036245Y008106D02*
X036245Y008719D01*
X036890Y007155D02*
X036890Y006755D01*
X037240Y006755D01*
X037240Y007155D01*
X034940Y007155D02*
X034940Y007159D01*
X032290Y007155D02*
X032290Y006755D01*
X031940Y006755D01*
X031940Y007155D01*
X031334Y007645D02*
X031334Y008566D01*
X031641Y008566D02*
X032255Y008566D01*
X031140Y007155D02*
X031140Y006755D01*
X030790Y006755D01*
X030790Y007155D01*
X038360Y003455D02*
X038398Y003670D01*
X038507Y003860D01*
X038675Y004001D01*
X038881Y004075D01*
X039099Y004075D01*
X039305Y004001D01*
X039473Y003860D01*
X039582Y003670D01*
X039620Y003455D01*
X039582Y003240D01*
X039473Y003050D01*
X039305Y002909D01*
X039099Y002835D01*
X038881Y002835D01*
X038675Y002909D01*
X038507Y003050D01*
X038398Y003240D01*
X038360Y003455D01*
X039596Y012545D02*
X039596Y012699D01*
X039750Y012852D01*
X039596Y013006D01*
X039750Y013159D01*
X040210Y013159D01*
X040210Y012852D02*
X039750Y012852D01*
X039596Y012545D02*
X040210Y012545D01*
X040056Y013466D02*
X039903Y013619D01*
X039903Y014080D01*
X039750Y014080D02*
X040210Y014080D01*
X040210Y013619D01*
X040056Y013466D01*
X039596Y013619D02*
X039596Y013926D01*
X039750Y014080D01*
X039903Y014387D02*
X039596Y014847D01*
X039750Y015154D02*
X039596Y015307D01*
X039596Y015614D01*
X039750Y015768D01*
X039903Y015768D01*
X039903Y015154D01*
X040056Y015154D02*
X039750Y015154D01*
X040056Y015154D02*
X040210Y015307D01*
X040210Y015614D01*
X040210Y016075D02*
X040210Y016228D01*
X040056Y016228D01*
X040056Y016075D01*
X040210Y016075D01*
X040210Y016535D02*
X039596Y016535D01*
X039903Y016535D02*
X039596Y016842D01*
X039596Y016996D01*
X039596Y017302D02*
X040210Y017302D01*
X039903Y017302D02*
X039596Y017609D01*
X039596Y017763D01*
X039596Y018070D02*
X040210Y018070D01*
X039903Y018070D02*
X039596Y018377D01*
X039596Y018530D01*
X039750Y018837D02*
X039750Y019144D01*
X039443Y018990D02*
X039289Y019144D01*
X039443Y018990D02*
X040210Y018990D01*
X040210Y019451D02*
X040210Y019604D01*
X040056Y019604D01*
X040056Y019451D01*
X040210Y019451D01*
X040056Y019911D02*
X039750Y019911D01*
X039596Y020065D01*
X039596Y020372D01*
X039750Y020525D01*
X040056Y020525D01*
X040210Y020372D01*
X040210Y020065D01*
X040056Y019911D01*
X039903Y020832D02*
X039596Y021139D01*
X039596Y021292D01*
X039750Y021599D02*
X040056Y021599D01*
X040210Y021753D01*
X040210Y022213D01*
X040363Y022213D02*
X039596Y022213D01*
X039596Y021753D01*
X039750Y021599D01*
X039596Y020832D02*
X040210Y020832D01*
X040517Y021906D02*
X040517Y022060D01*
X040363Y022213D01*
X040210Y022520D02*
X039289Y023134D01*
X039596Y023441D02*
X040210Y023441D01*
X039903Y023441D02*
X039596Y023748D01*
X039596Y023901D01*
X039596Y024208D02*
X039596Y024361D01*
X039750Y024515D01*
X039596Y024668D01*
X039750Y024822D01*
X040210Y024822D01*
X040210Y025129D02*
X040210Y025589D01*
X040056Y025743D01*
X039750Y025743D01*
X039596Y025589D01*
X039596Y025129D01*
X039289Y025129D02*
X040210Y025129D01*
X040210Y024515D02*
X039750Y024515D01*
X039596Y024208D02*
X040210Y024208D01*
X039750Y026049D02*
X039750Y026663D01*
X039596Y026970D02*
X039289Y027277D01*
X040210Y027277D01*
X040210Y026970D02*
X040210Y027584D01*
X040210Y027891D02*
X040210Y028044D01*
X040056Y028044D01*
X040056Y027891D01*
X040210Y027891D01*
X040210Y028351D02*
X039596Y028965D01*
X039443Y028965D01*
X039289Y028812D01*
X039289Y028505D01*
X039443Y028351D01*
X038723Y028299D02*
X038569Y028145D01*
X038263Y028145D01*
X038109Y028299D01*
X038109Y028913D01*
X038263Y029066D01*
X038569Y029066D01*
X038723Y028913D01*
X037802Y028913D02*
X037649Y029066D01*
X037342Y029066D01*
X037188Y028913D01*
X036881Y029066D02*
X036575Y029066D01*
X036728Y029066D02*
X036728Y028145D01*
X036575Y028145D02*
X036881Y028145D01*
X037188Y028145D02*
X037802Y028759D01*
X037802Y028913D01*
X037802Y028145D02*
X037188Y028145D01*
X040210Y028351D02*
X040210Y028965D01*
X038360Y033955D02*
X038398Y034170D01*
X038507Y034360D01*
X038675Y034501D01*
X038881Y034575D01*
X039099Y034575D01*
X039305Y034501D01*
X039473Y034360D01*
X039582Y034170D01*
X039620Y033955D01*
X039582Y033740D01*
X039473Y033550D01*
X039305Y033409D01*
X039099Y033335D01*
X038881Y033335D01*
X038675Y033409D01*
X038507Y033550D01*
X038398Y033740D01*
X038360Y033955D01*
X033794Y019059D02*
X032101Y019059D01*
X031786Y018744D01*
X031786Y017366D01*
X032101Y017051D01*
X033794Y017051D01*
X033794Y019059D01*
X033420Y018705D02*
X033512Y018594D01*
X033588Y018471D01*
X033644Y018338D01*
X033680Y018199D01*
X033695Y018055D01*
X033674Y017914D01*
X033635Y017776D01*
X033579Y017644D01*
X033507Y017520D01*
X033420Y017406D01*
X033420Y018705D01*
X033420Y018685D02*
X033436Y018685D01*
X033420Y018606D02*
X033502Y018606D01*
X033553Y018528D02*
X033420Y018528D01*
X033420Y018449D02*
X033597Y018449D01*
X033630Y018371D02*
X033420Y018371D01*
X033420Y018292D02*
X033656Y018292D01*
X033676Y018214D02*
X033420Y018214D01*
X033420Y018135D02*
X033687Y018135D01*
X033695Y018057D02*
X033420Y018057D01*
X033420Y017978D02*
X033684Y017978D01*
X033670Y017900D02*
X033420Y017900D01*
X033420Y017821D02*
X033648Y017821D01*
X033621Y017742D02*
X033420Y017742D01*
X033420Y017664D02*
X033588Y017664D01*
X033545Y017585D02*
X033420Y017585D01*
X033420Y017507D02*
X033497Y017507D01*
X033437Y017428D02*
X033420Y017428D01*
X031865Y018055D02*
X031902Y018316D01*
X032012Y018555D01*
X032184Y018754D01*
X032406Y018896D01*
X032658Y018971D01*
X032922Y018971D01*
X033174Y018896D01*
X033396Y018754D01*
X033568Y018555D01*
X033678Y018316D01*
X033715Y018055D01*
X033678Y017794D01*
X033568Y017555D01*
X033396Y017356D01*
X033174Y017214D01*
X032922Y017139D01*
X032658Y017139D01*
X032406Y017214D01*
X032184Y017356D01*
X032012Y017555D01*
X031902Y017794D01*
X031865Y018055D01*
X039289Y014387D02*
X040210Y014387D01*
X039903Y014387D02*
X040210Y014847D01*
X022338Y014160D02*
X022141Y014160D01*
X022141Y016050D01*
X022338Y016050D01*
X022338Y014160D01*
X022141Y014160D02*
X020842Y014160D01*
X020842Y016050D01*
X022141Y016050D01*
X018122Y020566D02*
X014658Y020566D01*
X014500Y020723D01*
X014500Y024188D01*
X014658Y024345D01*
X018122Y024345D01*
X018280Y024188D01*
X018280Y020723D01*
X018122Y020566D01*
X015330Y024995D02*
X015024Y024995D01*
X014870Y025149D01*
X014870Y025763D01*
X015024Y025916D01*
X015330Y025916D01*
X015484Y025763D01*
X015484Y025149D02*
X015330Y024995D01*
X014563Y025149D02*
X014410Y024995D01*
X014103Y024995D01*
X013949Y025149D01*
X013949Y025763D01*
X014103Y025916D01*
X014410Y025916D01*
X014563Y025763D01*
X013642Y025149D02*
X013642Y024995D01*
X013489Y024995D01*
X013489Y025149D01*
X013642Y025149D01*
X013182Y025149D02*
X013182Y025763D01*
X013029Y025916D01*
X012722Y025916D01*
X012568Y025763D01*
X012568Y025149D01*
X012722Y024995D01*
X013029Y024995D01*
X013182Y025149D01*
X012261Y024995D02*
X012261Y025916D01*
X011647Y025916D02*
X012261Y024995D01*
X011647Y024995D02*
X011647Y025916D01*
X011341Y025916D02*
X011034Y025916D01*
X011187Y025916D02*
X011187Y024995D01*
X011034Y024995D02*
X011341Y024995D01*
X010727Y025149D02*
X010727Y025916D01*
X010113Y025916D02*
X010113Y025149D01*
X010266Y024995D01*
X010573Y024995D01*
X010727Y025149D01*
X009806Y025149D02*
X009806Y025456D01*
X009499Y025456D01*
X009192Y025763D02*
X009192Y025149D01*
X009346Y024995D01*
X009653Y024995D01*
X009806Y025149D01*
X009806Y025763D02*
X009653Y025916D01*
X009346Y025916D01*
X009192Y025763D01*
X008885Y025916D02*
X008885Y024995D01*
X008271Y025916D01*
X008271Y024995D01*
X007964Y024995D02*
X007964Y025609D01*
X007658Y025916D01*
X007351Y025609D01*
X007351Y024995D01*
X007044Y025149D02*
X006890Y024995D01*
X006583Y024995D01*
X006430Y025149D01*
X006583Y025456D02*
X006890Y025456D01*
X007044Y025302D01*
X007044Y025149D01*
X007351Y025456D02*
X007964Y025456D01*
X007044Y025763D02*
X006890Y025916D01*
X006583Y025916D01*
X006430Y025763D01*
X006430Y025609D01*
X006583Y025456D01*
X001610Y033955D02*
X001648Y034170D01*
X001757Y034360D01*
X001925Y034501D01*
X002131Y034575D01*
X002349Y034575D01*
X002555Y034501D01*
X002723Y034360D01*
X002832Y034170D01*
X002870Y033955D01*
X002832Y033740D01*
X002723Y033550D01*
X002555Y033409D01*
X002349Y033335D01*
X002131Y033335D01*
X001925Y033409D01*
X001757Y033550D01*
X001648Y033740D01*
X001610Y033955D01*
X020132Y008566D02*
X019671Y008106D01*
X020132Y007645D02*
X020132Y008566D01*
X020090Y007155D02*
X020090Y006755D01*
X019740Y006755D01*
X019740Y007155D01*
X018940Y007155D02*
X018940Y006755D01*
X018590Y006755D01*
X018590Y007155D01*
D15*
X014190Y016660D02*
X014115Y016735D01*
X014090Y016710D02*
X014190Y016810D01*
X014090Y016810D02*
X014090Y016660D01*
X014042Y016685D02*
X014017Y016660D01*
X013967Y016660D01*
X013942Y016685D01*
X013942Y016785D01*
X013967Y016810D01*
X014017Y016810D01*
X014042Y016785D01*
X013895Y016785D02*
X013870Y016810D01*
X013820Y016810D01*
X013795Y016785D01*
X013795Y016760D01*
X013820Y016735D01*
X013870Y016735D01*
X013895Y016710D01*
X013895Y016685D01*
X013870Y016660D01*
X013820Y016660D01*
X013795Y016685D01*
X013238Y016685D02*
X013238Y016785D01*
X013213Y016810D01*
X013163Y016810D01*
X013138Y016785D01*
X013138Y016685D01*
X013163Y016660D01*
X013213Y016660D01*
X013238Y016685D01*
X013091Y016685D02*
X013065Y016660D01*
X013015Y016660D01*
X012990Y016685D01*
X012942Y016660D02*
X012892Y016660D01*
X012917Y016660D02*
X012917Y016810D01*
X012892Y016810D02*
X012942Y016810D01*
X012990Y016785D02*
X012990Y016760D01*
X013015Y016735D01*
X013065Y016735D01*
X013091Y016710D01*
X013091Y016685D01*
X013091Y016785D02*
X013065Y016810D01*
X013015Y016810D01*
X012990Y016785D01*
X012845Y016810D02*
X012845Y016660D01*
X012745Y016660D02*
X012745Y016810D01*
X012795Y016760D01*
X012845Y016810D01*
X012237Y016810D02*
X012187Y016810D01*
X012212Y016810D02*
X012212Y016660D01*
X012187Y016660D02*
X012237Y016660D01*
X012140Y016685D02*
X012115Y016660D01*
X012065Y016660D01*
X012040Y016685D01*
X011992Y016685D02*
X011992Y016785D01*
X011967Y016810D01*
X011917Y016810D01*
X011892Y016785D01*
X011892Y016685D01*
X011917Y016660D01*
X011967Y016660D01*
X011992Y016685D01*
X012065Y016735D02*
X012115Y016735D01*
X012140Y016710D01*
X012140Y016685D01*
X012065Y016735D02*
X012040Y016760D01*
X012040Y016785D01*
X012065Y016810D01*
X012115Y016810D01*
X012140Y016785D01*
X011845Y016810D02*
X011845Y016660D01*
X011745Y016660D02*
X011745Y016810D01*
X011795Y016760D01*
X011845Y016810D01*
X011190Y016810D02*
X011190Y016660D01*
X011090Y016660D02*
X011090Y016810D01*
X011140Y016760D01*
X011190Y016810D01*
X011042Y016810D02*
X011042Y016660D01*
X010992Y016710D01*
X010942Y016660D01*
X010942Y016810D01*
X010895Y016785D02*
X010895Y016735D01*
X010870Y016710D01*
X010795Y016710D01*
X010795Y016660D02*
X010795Y016810D01*
X010870Y016810D01*
X010895Y016785D01*
X010190Y016810D02*
X010190Y016660D01*
X010090Y016660D02*
X010090Y016810D01*
X010140Y016760D01*
X010190Y016810D01*
X010042Y016810D02*
X010042Y016660D01*
X009992Y016710D01*
X009942Y016660D01*
X009942Y016810D01*
X009895Y016785D02*
X009895Y016735D01*
X009870Y016710D01*
X009795Y016710D01*
X009795Y016660D02*
X009795Y016810D01*
X009870Y016810D01*
X009895Y016785D01*
X023795Y016810D02*
X023870Y016810D01*
X023895Y016785D01*
X023895Y016735D01*
X023870Y016710D01*
X023795Y016710D01*
X023795Y016660D02*
X023795Y016810D01*
X023942Y016810D02*
X023942Y016660D01*
X023992Y016710D01*
X024042Y016660D01*
X024042Y016810D01*
X024090Y016810D02*
X024140Y016760D01*
X024190Y016810D01*
X024190Y016660D01*
X024090Y016660D02*
X024090Y016810D01*
X024795Y016810D02*
X024870Y016810D01*
X024895Y016785D01*
X024895Y016735D01*
X024870Y016710D01*
X024795Y016710D01*
X024795Y016660D02*
X024795Y016810D01*
X024942Y016810D02*
X024942Y016660D01*
X024992Y016710D01*
X025042Y016660D01*
X025042Y016810D01*
X025090Y016810D02*
X025140Y016760D01*
X025190Y016810D01*
X025190Y016660D01*
X025090Y016660D02*
X025090Y016810D01*
X025795Y016810D02*
X025870Y016810D01*
X025895Y016785D01*
X025895Y016735D01*
X025870Y016710D01*
X025795Y016710D01*
X025795Y016660D02*
X025795Y016810D01*
X025942Y016810D02*
X025942Y016660D01*
X025992Y016710D01*
X026042Y016660D01*
X026042Y016810D01*
X026090Y016810D02*
X026140Y016760D01*
X026190Y016810D01*
X026190Y016660D01*
X026090Y016660D02*
X026090Y016810D01*
X026140Y018710D02*
X026140Y018860D01*
X026090Y018810D01*
X026040Y018860D01*
X026040Y018710D01*
X025992Y018710D02*
X025992Y018860D01*
X025892Y018860D02*
X025892Y018710D01*
X025942Y018760D01*
X025992Y018710D01*
X025845Y018785D02*
X025845Y018835D01*
X025820Y018860D01*
X025745Y018860D01*
X025745Y018710D01*
X025745Y018760D02*
X025820Y018760D01*
X025845Y018785D01*
X025140Y018860D02*
X025140Y018710D01*
X025040Y018710D02*
X025040Y018860D01*
X025090Y018810D01*
X025140Y018860D01*
X024992Y018860D02*
X024992Y018710D01*
X024942Y018760D01*
X024892Y018710D01*
X024892Y018860D01*
X024845Y018835D02*
X024845Y018785D01*
X024820Y018760D01*
X024745Y018760D01*
X024745Y018710D02*
X024745Y018860D01*
X024820Y018860D01*
X024845Y018835D01*
X024140Y018860D02*
X024140Y018710D01*
X024040Y018710D02*
X024040Y018860D01*
X024090Y018810D01*
X024140Y018860D01*
X023992Y018860D02*
X023992Y018710D01*
X023942Y018760D01*
X023892Y018710D01*
X023892Y018860D01*
X023845Y018835D02*
X023845Y018785D01*
X023820Y018760D01*
X023745Y018760D01*
X023745Y018710D02*
X023745Y018860D01*
X023820Y018860D01*
X023845Y018835D01*
X025840Y026050D02*
X025840Y026200D01*
X025940Y026200D02*
X025940Y026050D01*
X025890Y026100D01*
X025840Y026050D01*
X025988Y026050D02*
X025988Y026200D01*
X026038Y026150D01*
X026088Y026200D01*
X026088Y026050D01*
X026135Y026075D02*
X026135Y026125D01*
X026160Y026150D01*
X026235Y026150D01*
X026235Y026200D02*
X026235Y026050D01*
X026160Y026050D01*
X026135Y026075D01*
X026110Y028100D02*
X026085Y028125D01*
X026085Y028175D01*
X026110Y028200D01*
X026185Y028200D01*
X026185Y028250D02*
X026185Y028100D01*
X026110Y028100D01*
X026038Y028100D02*
X026038Y028250D01*
X025988Y028200D01*
X025938Y028250D01*
X025938Y028100D01*
X025890Y028100D02*
X025890Y028250D01*
X025790Y028250D02*
X025790Y028100D01*
X025840Y028150D01*
X025890Y028100D01*
X025135Y028125D02*
X025135Y028150D01*
X025110Y028175D01*
X025060Y028175D01*
X025035Y028200D01*
X025035Y028225D01*
X025060Y028250D01*
X025110Y028250D01*
X025135Y028225D01*
X025135Y028125D02*
X025110Y028100D01*
X025060Y028100D01*
X025035Y028125D01*
X024988Y028125D02*
X024988Y028225D01*
X024963Y028250D01*
X024913Y028250D01*
X024888Y028225D01*
X024840Y028250D02*
X024740Y028250D01*
X024840Y028250D02*
X024840Y028100D01*
X024888Y028125D02*
X024913Y028100D01*
X024963Y028100D01*
X024988Y028125D01*
X024185Y028125D02*
X024185Y028150D01*
X024160Y028175D01*
X024110Y028175D01*
X024085Y028200D01*
X024085Y028225D01*
X024110Y028250D01*
X024160Y028250D01*
X024185Y028225D01*
X024185Y028125D02*
X024160Y028100D01*
X024110Y028100D01*
X024085Y028125D01*
X024038Y028100D02*
X023963Y028100D01*
X023938Y028125D01*
X023938Y028225D01*
X023963Y028250D01*
X024038Y028250D01*
X024038Y028100D01*
X023890Y028150D02*
X023840Y028100D01*
X023790Y028150D01*
X023790Y028250D01*
X023790Y028175D02*
X023890Y028175D01*
X023890Y028150D02*
X023890Y028250D01*
D16*
X026014Y034380D02*
X025883Y034511D01*
X026014Y034380D02*
X026278Y034380D01*
X026410Y034511D01*
X026410Y034643D01*
X026278Y034775D01*
X026014Y034775D01*
X025883Y034907D01*
X025883Y035039D01*
X026014Y035170D01*
X026278Y035170D01*
X026410Y035039D01*
X026674Y035170D02*
X026938Y035170D01*
X026806Y035170D02*
X026806Y034380D01*
X026938Y034380D02*
X026674Y034380D01*
X027202Y034380D02*
X027729Y035170D01*
X027994Y035170D02*
X027994Y034643D01*
X028258Y034380D01*
X028521Y034643D01*
X028521Y035170D01*
X028521Y034775D02*
X027994Y034775D01*
X027729Y034380D02*
X027202Y035170D01*
X029578Y035170D02*
X030105Y034380D01*
X029578Y034380D02*
X030105Y035170D01*
X020355Y034511D02*
X020091Y034775D01*
X020091Y035170D01*
X020091Y034775D02*
X019828Y034511D01*
X019828Y034380D01*
X020355Y034380D02*
X020355Y034511D01*
X018771Y034643D02*
X018508Y034380D01*
X018244Y034643D01*
X018244Y035170D01*
X017979Y035170D02*
X017452Y034380D01*
X017188Y034380D02*
X016924Y034380D01*
X017056Y034380D02*
X017056Y035170D01*
X017188Y035170D02*
X016924Y035170D01*
X016660Y035039D02*
X016528Y035170D01*
X016264Y035170D01*
X016133Y035039D01*
X016133Y034907D01*
X016264Y034775D01*
X016528Y034775D01*
X016660Y034643D01*
X016660Y034511D01*
X016528Y034380D01*
X016264Y034380D01*
X016133Y034511D01*
X017452Y035170D02*
X017979Y034380D01*
X018244Y034775D02*
X018771Y034775D01*
X018771Y034643D02*
X018771Y035170D01*
X010605Y035170D02*
X010605Y035039D01*
X010078Y034511D01*
X010078Y034380D01*
X010605Y034380D01*
X010605Y035170D02*
X010078Y035170D01*
X009021Y035170D02*
X009021Y034643D01*
X008758Y034380D01*
X008494Y034643D01*
X008494Y035170D01*
X008229Y035170D02*
X007702Y034380D01*
X007438Y034380D02*
X007174Y034380D01*
X007306Y034380D02*
X007306Y035170D01*
X007438Y035170D02*
X007174Y035170D01*
X006910Y035039D02*
X006778Y035170D01*
X006514Y035170D01*
X006383Y035039D01*
X006383Y034907D01*
X006514Y034775D01*
X006778Y034775D01*
X006910Y034643D01*
X006910Y034511D01*
X006778Y034380D01*
X006514Y034380D01*
X006383Y034511D01*
X007702Y035170D02*
X008229Y034380D01*
X008494Y034775D02*
X009021Y034775D01*
X036324Y024311D02*
X036324Y024101D01*
X036429Y023996D01*
X036850Y023996D01*
X036429Y024416D01*
X036850Y024416D01*
X036955Y024311D01*
X036955Y024101D01*
X036850Y023996D01*
X036850Y023772D02*
X036955Y023666D01*
X036955Y023456D01*
X036850Y023351D01*
X036640Y023561D02*
X036640Y023666D01*
X036745Y023772D01*
X036850Y023772D01*
X036640Y023666D02*
X036535Y023772D01*
X036429Y023772D01*
X036324Y023666D01*
X036324Y023456D01*
X036429Y023351D01*
X037424Y023561D02*
X038055Y023561D01*
X038055Y023351D02*
X038055Y023772D01*
X038055Y023996D02*
X037950Y023996D01*
X037529Y024416D01*
X037424Y024416D01*
X037424Y023996D01*
X037424Y023561D02*
X037635Y023351D01*
X037740Y023127D02*
X037845Y023022D01*
X037845Y022707D01*
X037845Y022917D02*
X038055Y023127D01*
X037740Y023127D02*
X037529Y023127D01*
X037424Y023022D01*
X037424Y022707D01*
X038055Y022707D01*
X036429Y024416D02*
X036324Y024311D01*
X036324Y019016D02*
X036955Y019016D01*
X036745Y018806D01*
X036955Y018596D01*
X036324Y018596D01*
X036324Y018266D02*
X036640Y017951D01*
X036640Y018372D01*
X036955Y018266D02*
X036324Y018266D01*
X037424Y018266D02*
X037424Y018056D01*
X037529Y017951D01*
X037950Y017951D01*
X037529Y018372D01*
X037950Y018372D01*
X038055Y018266D01*
X038055Y018056D01*
X037950Y017951D01*
X038055Y017727D02*
X038055Y017307D01*
X037635Y017727D01*
X037529Y017727D01*
X037424Y017622D01*
X037424Y017412D01*
X037529Y017307D01*
X037424Y018266D02*
X037529Y018372D01*
X037740Y018596D02*
X037740Y018911D01*
X037845Y019016D01*
X037950Y019016D01*
X038055Y018911D01*
X038055Y018701D01*
X037950Y018596D01*
X037740Y018596D01*
X037529Y018806D01*
X037424Y019016D01*
D17*
X031144Y028815D02*
X030224Y028815D01*
X031144Y029736D01*
X031144Y029966D01*
X030914Y030196D01*
X030454Y030196D01*
X030224Y029966D01*
X029763Y029045D02*
X029533Y029045D01*
X029533Y028815D01*
X029763Y028815D01*
X029763Y029045D01*
X029073Y028815D02*
X028152Y028815D01*
X028612Y028815D02*
X028612Y030196D01*
X028152Y029736D01*
X027692Y029736D02*
X027231Y028815D01*
X026771Y029736D01*
X024929Y029736D02*
X024239Y029736D01*
X024009Y029506D01*
X024009Y029045D01*
X024239Y028815D01*
X024929Y028815D01*
X024929Y030196D01*
X023548Y029736D02*
X023318Y029736D01*
X022858Y029276D01*
X022858Y029736D02*
X022858Y028815D01*
X022397Y028815D02*
X021707Y028815D01*
X021476Y029045D01*
X021707Y029276D01*
X022397Y029276D01*
X022397Y029506D02*
X022397Y028815D01*
X022397Y029506D02*
X022167Y029736D01*
X021707Y029736D01*
X021016Y029506D02*
X020786Y029736D01*
X020325Y029736D01*
X020095Y029506D01*
X020095Y029045D01*
X020325Y028815D01*
X020786Y028815D01*
X021016Y029045D01*
X021016Y029506D01*
X019635Y029506D02*
X019635Y029045D01*
X019405Y028815D01*
X018714Y028815D01*
X018714Y030196D01*
X018714Y029736D02*
X019405Y029736D01*
X019635Y029506D01*
X018254Y029736D02*
X018024Y029736D01*
X017563Y029276D01*
X017563Y029736D02*
X017563Y028815D01*
X017103Y029276D02*
X016182Y029276D01*
X016182Y029506D02*
X016412Y029736D01*
X016873Y029736D01*
X017103Y029506D01*
X017103Y029276D01*
X016873Y028815D02*
X016412Y028815D01*
X016182Y029045D01*
X016182Y029506D01*
X015722Y029506D02*
X015722Y028815D01*
X015722Y029506D02*
X015491Y029736D01*
X015031Y029736D01*
X014801Y029506D01*
X014341Y029736D02*
X013880Y029736D01*
X014110Y029966D02*
X014110Y029045D01*
X014341Y028815D01*
X014801Y028815D02*
X014801Y030196D01*
X013420Y029506D02*
X013420Y029045D01*
X013190Y028815D01*
X012729Y028815D01*
X012499Y029045D01*
X012499Y029506D01*
X012729Y029736D01*
X013190Y029736D01*
X013420Y029506D01*
X012039Y030196D02*
X012039Y028815D01*
X011118Y028815D02*
X011118Y030196D01*
X011578Y029736D01*
X012039Y030196D01*
X009276Y029506D02*
X009276Y029045D01*
X009046Y028815D01*
X008356Y028815D01*
X008356Y028355D02*
X008356Y029736D01*
X009046Y029736D01*
X009276Y029506D01*
X007895Y029506D02*
X007895Y028815D01*
X007205Y028815D01*
X006974Y029045D01*
X007205Y029276D01*
X007895Y029276D01*
X007895Y029506D02*
X007665Y029736D01*
X007205Y029736D01*
X006514Y029506D02*
X006284Y029276D01*
X005593Y029276D01*
X006054Y029276D02*
X006514Y028815D01*
X006514Y029506D02*
X006514Y029966D01*
X006284Y030196D01*
X005593Y030196D01*
X005593Y028815D01*
X005133Y029045D02*
X004903Y028815D01*
X004212Y028815D01*
X004212Y028355D02*
X004212Y029736D01*
X004903Y029736D01*
X005133Y029506D01*
X005133Y029045D01*
X003752Y029276D02*
X002831Y029276D01*
X002831Y029506D02*
X003061Y029736D01*
X003522Y029736D01*
X003752Y029506D01*
X003752Y029276D01*
X003522Y028815D02*
X003061Y028815D01*
X002831Y029045D01*
X002831Y029506D01*
X002371Y029506D02*
X002371Y029966D01*
X002140Y030196D01*
X001450Y030196D01*
X001450Y028815D01*
X001450Y029276D02*
X002140Y029276D01*
X002371Y029506D01*
X001910Y029276D02*
X002371Y028815D01*
X021090Y014105D02*
X021092Y014149D01*
X021098Y014192D01*
X021107Y014234D01*
X021120Y014276D01*
X021137Y014316D01*
X021157Y014355D01*
X021180Y014392D01*
X021207Y014426D01*
X021236Y014459D01*
X021269Y014488D01*
X021303Y014515D01*
X021340Y014538D01*
X021379Y014558D01*
X021419Y014575D01*
X021461Y014588D01*
X021503Y014597D01*
X021546Y014603D01*
X021590Y014605D01*
X021634Y014603D01*
X021677Y014597D01*
X021719Y014588D01*
X021761Y014575D01*
X021801Y014558D01*
X021840Y014538D01*
X021877Y014515D01*
X021911Y014488D01*
X021944Y014459D01*
X021973Y014426D01*
X022000Y014392D01*
X022023Y014355D01*
X022043Y014316D01*
X022060Y014276D01*
X022073Y014234D01*
X022082Y014192D01*
X022088Y014149D01*
X022090Y014105D01*
D18*
X023773Y020191D02*
X022146Y021817D01*
X022147Y021818D02*
X022106Y021861D01*
X022069Y021906D01*
X022035Y021954D01*
X022004Y022004D01*
X021976Y022056D01*
X021952Y022110D01*
X021931Y022165D01*
X021914Y022221D01*
X021900Y022278D01*
X021891Y022337D01*
X021885Y022395D01*
X021883Y022454D01*
X021885Y022513D01*
X021891Y022571D01*
X021900Y022630D01*
X021914Y022687D01*
X021931Y022743D01*
X021952Y022798D01*
X021976Y022852D01*
X022004Y022904D01*
X022035Y022954D01*
X022069Y023002D01*
X022106Y023047D01*
X022147Y023090D01*
X022190Y023131D01*
X022235Y023168D01*
X022283Y023202D01*
X022333Y023233D01*
X022385Y023261D01*
X022439Y023285D01*
X022494Y023306D01*
X022550Y023323D01*
X022607Y023337D01*
X022666Y023346D01*
X022724Y023352D01*
X022783Y023354D01*
X022842Y023352D01*
X022900Y023346D01*
X022959Y023337D01*
X023016Y023323D01*
X023072Y023306D01*
X023127Y023285D01*
X023181Y023261D01*
X023233Y023233D01*
X023283Y023202D01*
X023331Y023168D01*
X023376Y023131D01*
X023419Y023090D01*
X025046Y021464D01*
X025045Y021463D02*
X025086Y021420D01*
X025123Y021375D01*
X025157Y021327D01*
X025188Y021277D01*
X025216Y021225D01*
X025240Y021171D01*
X025261Y021116D01*
X025278Y021060D01*
X025292Y021003D01*
X025301Y020944D01*
X025307Y020886D01*
X025309Y020827D01*
X025307Y020768D01*
X025301Y020710D01*
X025292Y020651D01*
X025278Y020594D01*
X025261Y020538D01*
X025240Y020483D01*
X025216Y020429D01*
X025188Y020377D01*
X025157Y020327D01*
X025123Y020279D01*
X025086Y020234D01*
X025045Y020191D01*
X025002Y020150D01*
X024957Y020113D01*
X024909Y020079D01*
X024859Y020048D01*
X024807Y020020D01*
X024753Y019996D01*
X024698Y019975D01*
X024642Y019958D01*
X024585Y019944D01*
X024526Y019935D01*
X024468Y019929D01*
X024409Y019927D01*
X024350Y019929D01*
X024292Y019935D01*
X024233Y019944D01*
X024176Y019958D01*
X024120Y019975D01*
X024065Y019996D01*
X024011Y020020D01*
X023959Y020048D01*
X023909Y020079D01*
X023861Y020113D01*
X023816Y020150D01*
X023773Y020191D01*
X031990Y028355D02*
X031990Y030555D01*
X003690Y030555D01*
X003690Y035555D01*
X031990Y035555D01*
X031990Y035655D01*
X031990Y035555D02*
X040590Y035555D01*
X034690Y028255D02*
X034690Y016455D01*
X000690Y016455D01*
X000690Y028255D01*
X034690Y028255D01*
X031990Y030555D02*
X031990Y035555D01*
X007210Y010821D02*
X005368Y010821D01*
X005982Y010208D01*
X005368Y009594D01*
X007210Y009594D01*
X006903Y008980D02*
X007210Y008673D01*
X007210Y008059D01*
X006903Y007752D01*
X006289Y008366D02*
X006289Y008673D01*
X006596Y008980D01*
X006903Y008980D01*
X006289Y008673D02*
X005982Y008980D01*
X005675Y008980D01*
X005368Y008673D01*
X005368Y008059D01*
X005675Y007752D01*
D19*
X013520Y012225D02*
X013520Y012980D01*
X014160Y012980D02*
X014160Y012225D01*
X014770Y012225D02*
X014770Y012980D01*
X015410Y012980D02*
X015410Y012225D01*
X016070Y012225D02*
X016070Y012980D01*
X016710Y012980D02*
X016710Y012225D01*
X016710Y014675D02*
X016710Y015430D01*
X016070Y015430D02*
X016070Y014675D01*
X015410Y014675D02*
X015410Y015430D01*
X014770Y015430D02*
X014770Y014675D01*
X014110Y014675D02*
X014110Y015430D01*
X013470Y015430D02*
X013470Y014675D01*
X013240Y016955D02*
X012740Y016955D01*
X012490Y017205D01*
X012240Y016955D01*
X011740Y016955D01*
X011490Y017205D01*
X011240Y016955D01*
X010740Y016955D01*
X010490Y017205D01*
X010240Y016955D01*
X009740Y016955D01*
X009490Y017205D01*
X009240Y016955D01*
X008740Y016955D01*
X008490Y017205D01*
X008240Y016955D01*
X007740Y016955D01*
X007490Y017205D01*
X007240Y016955D01*
X006740Y016955D01*
X006490Y017205D01*
X006490Y017705D01*
X006740Y017955D01*
X007240Y017955D01*
X007490Y017705D01*
X007740Y017955D01*
X008240Y017955D01*
X008490Y017705D01*
X008490Y017205D01*
X008490Y017705D02*
X008740Y017955D01*
X009240Y017955D01*
X009490Y017705D01*
X009740Y017955D01*
X010240Y017955D01*
X010490Y017705D01*
X010740Y017955D01*
X011240Y017955D01*
X011490Y017705D01*
X011490Y017205D01*
X011490Y017705D02*
X011740Y017955D01*
X012240Y017955D01*
X012490Y017705D01*
X012740Y017955D01*
X013240Y017955D01*
X013490Y017705D01*
X013740Y017955D01*
X014240Y017955D01*
X014490Y017705D01*
X014740Y017955D01*
X015240Y017955D01*
X015490Y017705D01*
X015490Y017205D01*
X015240Y016955D01*
X014740Y016955D01*
X014490Y017205D01*
X014490Y017705D01*
X014490Y017205D01*
X014240Y016955D01*
X013740Y016955D01*
X013490Y017205D01*
X013240Y016955D01*
X013490Y017205D02*
X013490Y017705D01*
X012490Y017705D02*
X012490Y017205D01*
X011020Y015925D02*
X010265Y015925D01*
X010265Y015285D02*
X011020Y015285D01*
X010490Y017205D02*
X010490Y017705D01*
X009490Y017705D02*
X009490Y017205D01*
X008465Y015925D02*
X007710Y015925D01*
X007710Y015285D02*
X008465Y015285D01*
X007490Y017205D02*
X007490Y017705D01*
X005665Y018235D02*
X004910Y018235D01*
X004910Y018875D02*
X005665Y018875D01*
X005740Y019155D02*
X005740Y020655D01*
X005690Y020655D01*
X005690Y021155D01*
X005740Y021155D01*
X005740Y021355D01*
X005340Y021355D01*
X005240Y021355D01*
X005240Y019655D01*
X002740Y019655D01*
X002740Y024655D01*
X005240Y024655D01*
X005240Y022955D01*
X005340Y022955D01*
X005740Y022955D01*
X005740Y021355D01*
X005240Y021355D02*
X004940Y021355D01*
X004940Y022955D01*
X005240Y022955D01*
X005740Y022955D02*
X005740Y025155D01*
X002240Y025155D01*
X002240Y024655D01*
X002140Y024655D01*
X002140Y024155D01*
X002240Y024155D01*
X002240Y022405D01*
X002140Y022405D01*
X002140Y021905D01*
X002240Y021905D01*
X002240Y020155D01*
X002140Y020155D01*
X002140Y019655D01*
X002240Y019655D01*
X002240Y019155D01*
X005740Y019155D01*
X003520Y018875D02*
X002765Y018875D01*
X002765Y018235D02*
X003520Y018235D01*
X001590Y020205D02*
X001840Y020455D01*
X001840Y020955D01*
X001590Y021205D01*
X001840Y021455D01*
X001840Y021955D01*
X001590Y022205D01*
X001090Y022205D01*
X000840Y021955D01*
X000840Y021455D01*
X001090Y021205D01*
X001590Y021205D01*
X001090Y021205D02*
X000840Y020955D01*
X000840Y020455D01*
X001090Y020205D01*
X001590Y020205D01*
X001590Y022205D02*
X001840Y022455D01*
X001840Y022955D01*
X001590Y023205D01*
X001840Y023455D01*
X001840Y023955D01*
X001590Y024205D01*
X001840Y024455D01*
X001840Y024955D01*
X001590Y025205D01*
X001840Y025455D01*
X001840Y025955D01*
X001590Y026205D01*
X001090Y026205D01*
X000840Y025955D01*
X000840Y025455D01*
X001090Y025205D01*
X001590Y025205D01*
X001090Y025205D02*
X000840Y024955D01*
X000840Y024455D01*
X001090Y024205D01*
X001590Y024205D01*
X001090Y024205D02*
X000840Y023955D01*
X000840Y023455D01*
X001090Y023205D01*
X001590Y023205D01*
X001090Y023205D02*
X000840Y022955D01*
X000840Y022455D01*
X001090Y022205D01*
X004040Y025355D02*
X003790Y025605D01*
X003790Y026105D01*
X004040Y026355D01*
X003790Y026605D01*
X003790Y027105D01*
X004040Y027355D01*
X004540Y027355D01*
X004790Y027105D01*
X004790Y026605D01*
X004540Y026355D01*
X004790Y026105D01*
X004790Y025605D01*
X004540Y025355D01*
X004040Y025355D01*
X004040Y026355D02*
X004540Y026355D01*
X006490Y027205D02*
X006490Y027705D01*
X006740Y027955D01*
X007240Y027955D01*
X007490Y027705D01*
X007740Y027955D01*
X008240Y027955D01*
X008490Y027705D01*
X008490Y027205D01*
X008240Y026955D01*
X007740Y026955D01*
X007490Y027205D01*
X007240Y026955D01*
X006740Y026955D01*
X006490Y027205D01*
X007490Y027205D02*
X007490Y027705D01*
X008490Y027705D02*
X008740Y027955D01*
X009240Y027955D01*
X009490Y027705D01*
X009740Y027955D01*
X010240Y027955D01*
X010490Y027705D01*
X010740Y027955D01*
X011240Y027955D01*
X011490Y027705D01*
X011490Y027205D01*
X011240Y026955D01*
X010740Y026955D01*
X010490Y027205D01*
X010240Y026955D01*
X009740Y026955D01*
X009490Y027205D01*
X009240Y026955D01*
X008740Y026955D01*
X008490Y027205D01*
X009490Y027205D02*
X009490Y027705D01*
X010490Y027705D02*
X010490Y027205D01*
X011490Y027205D02*
X011740Y026955D01*
X012240Y026955D01*
X012490Y027205D01*
X012740Y026955D01*
X013240Y026955D01*
X013490Y027205D01*
X013740Y026955D01*
X014240Y026955D01*
X014490Y027205D01*
X014740Y026955D01*
X015240Y026955D01*
X015490Y027205D01*
X015740Y026955D01*
X016240Y026955D01*
X016490Y027205D01*
X016490Y027705D01*
X016240Y027955D01*
X015740Y027955D01*
X015490Y027705D01*
X015490Y027205D01*
X015490Y027705D01*
X015240Y027955D01*
X014740Y027955D01*
X014490Y027705D01*
X014490Y027205D01*
X014490Y027705D02*
X014240Y027955D01*
X013740Y027955D01*
X013490Y027705D01*
X013490Y027205D01*
X013490Y027705D02*
X013240Y027955D01*
X012740Y027955D01*
X012490Y027705D01*
X012490Y027205D01*
X012490Y027705D02*
X012240Y027955D01*
X011740Y027955D01*
X011490Y027705D01*
X011302Y024629D02*
X010982Y024309D01*
X011409Y024309D01*
X011626Y024309D02*
X012053Y024309D01*
X012271Y024309D02*
X012698Y024309D01*
X012698Y024415D02*
X012698Y023988D01*
X012271Y023988D02*
X012271Y024415D01*
X012484Y024629D01*
X012698Y024415D01*
X011946Y024629D02*
X011946Y023988D01*
X011626Y024309D02*
X011946Y024629D01*
X011302Y024629D02*
X011302Y023988D01*
X010764Y024095D02*
X010764Y024202D01*
X010657Y024309D01*
X010337Y024309D01*
X010337Y024095D01*
X010444Y023988D01*
X010657Y023988D01*
X010764Y024095D01*
X010551Y024522D02*
X010337Y024309D01*
X010120Y024309D02*
X009693Y024309D01*
X009693Y024415D02*
X009906Y024629D01*
X010120Y024415D01*
X010120Y023988D01*
X009693Y023988D02*
X009693Y024415D01*
X009475Y024309D02*
X009262Y024309D01*
X009475Y024309D02*
X009475Y024095D01*
X009368Y023988D01*
X009155Y023988D01*
X009048Y024095D01*
X009048Y024522D01*
X009155Y024629D01*
X009368Y024629D01*
X009475Y024522D01*
X008831Y024629D02*
X008404Y024629D01*
X008404Y023988D01*
X008831Y023988D01*
X008617Y024309D02*
X008404Y024309D01*
X008186Y024629D02*
X008186Y023988D01*
X007759Y023988D02*
X007759Y024629D01*
X007972Y024415D01*
X008186Y024629D01*
X007541Y024629D02*
X007114Y024629D01*
X007328Y024629D02*
X007328Y023988D01*
X006897Y023988D02*
X006897Y024415D01*
X006683Y024629D01*
X006470Y024415D01*
X006470Y023988D01*
X006470Y024309D02*
X006897Y024309D01*
X010551Y024522D02*
X010764Y024629D01*
X015701Y022776D02*
X015915Y022776D01*
X015808Y022776D02*
X015808Y022135D01*
X015701Y022135D02*
X015915Y022135D01*
X016131Y022242D02*
X016131Y022669D01*
X016238Y022776D01*
X016451Y022776D01*
X016558Y022669D01*
X016775Y022669D02*
X016882Y022776D01*
X017096Y022776D01*
X017202Y022669D01*
X017202Y022562D01*
X016775Y022135D01*
X017202Y022135D01*
X016558Y022242D02*
X016451Y022135D01*
X016238Y022135D01*
X016131Y022242D01*
X017740Y017955D02*
X018240Y017955D01*
X018490Y017705D01*
X018740Y017955D01*
X019240Y017955D01*
X019490Y017705D01*
X019490Y017205D01*
X019240Y016955D01*
X018740Y016955D01*
X018490Y017205D01*
X018240Y016955D01*
X017740Y016955D01*
X017490Y017205D01*
X017490Y017705D01*
X017740Y017955D01*
X018490Y017705D02*
X018490Y017205D01*
X019490Y017205D02*
X019740Y016955D01*
X020240Y016955D01*
X020490Y017205D01*
X020490Y017705D01*
X020240Y017955D01*
X019740Y017955D01*
X019490Y017705D01*
X019490Y017205D01*
X020490Y017205D02*
X020740Y016955D01*
X021240Y016955D01*
X021490Y017205D01*
X021490Y017705D01*
X021740Y017955D01*
X022240Y017955D01*
X022490Y017705D01*
X022740Y017955D01*
X023240Y017955D01*
X023490Y017705D01*
X023740Y017955D01*
X024240Y017955D01*
X024490Y017705D01*
X024740Y017955D01*
X025240Y017955D01*
X025490Y017705D01*
X025740Y017955D01*
X026240Y017955D01*
X026490Y017705D01*
X026490Y017205D01*
X026240Y016955D01*
X025740Y016955D01*
X025490Y017205D01*
X025240Y016955D01*
X024740Y016955D01*
X024490Y017205D01*
X024490Y017705D01*
X024490Y017205D02*
X024240Y016955D01*
X023740Y016955D01*
X023490Y017205D01*
X023240Y016955D01*
X022740Y016955D01*
X022490Y017205D01*
X022240Y016955D01*
X021740Y016955D01*
X021490Y017205D01*
X021490Y017705D02*
X021240Y017955D01*
X020740Y017955D01*
X020490Y017705D01*
X022490Y017705D02*
X022490Y017205D01*
X023490Y017205D02*
X023490Y017705D01*
X025490Y017705D02*
X025490Y017205D01*
X027140Y016905D02*
X027140Y018755D01*
X027340Y018905D01*
X027340Y019105D01*
X027340Y019705D01*
X027340Y019905D01*
X027140Y020055D01*
X027140Y020105D01*
X027540Y020105D01*
X027640Y020105D01*
X027640Y019705D01*
X027640Y019105D01*
X027540Y019105D01*
X027340Y019105D01*
X027640Y019105D02*
X027640Y017405D01*
X030140Y017405D01*
X030140Y024405D01*
X027640Y024405D01*
X027640Y021705D01*
X027540Y021705D01*
X027140Y021705D01*
X027140Y022655D01*
X027190Y022655D01*
X027190Y023155D01*
X027140Y023155D01*
X027140Y024905D01*
X030640Y024905D01*
X030640Y024405D01*
X030740Y024405D01*
X030740Y023905D01*
X030640Y023905D01*
X030640Y021155D01*
X030740Y021155D01*
X030740Y020655D01*
X030640Y020655D01*
X030640Y017905D01*
X030740Y017905D01*
X030740Y017405D01*
X030640Y017405D01*
X030640Y016905D01*
X027140Y016905D01*
X026210Y015385D02*
X026210Y014630D01*
X025570Y014630D02*
X025570Y015385D01*
X024760Y015380D02*
X024760Y014625D01*
X024120Y014625D02*
X024120Y015380D01*
X019610Y015435D02*
X019610Y014680D01*
X018970Y014680D02*
X018970Y015435D01*
X023914Y020332D02*
X022288Y021959D01*
X022253Y021996D01*
X022221Y022036D01*
X022192Y022078D01*
X022166Y022123D01*
X022144Y022169D01*
X022125Y022216D01*
X022109Y022265D01*
X022097Y022314D01*
X022089Y022365D01*
X022084Y022416D01*
X022083Y022467D01*
X022086Y022518D01*
X022092Y022569D01*
X022103Y022619D01*
X022116Y022668D01*
X022134Y022716D01*
X022155Y022763D01*
X022179Y022808D01*
X022206Y022851D01*
X022237Y022892D01*
X022270Y022931D01*
X022306Y022967D01*
X022345Y023000D01*
X022386Y023031D01*
X022429Y023058D01*
X022474Y023082D01*
X022521Y023103D01*
X022569Y023121D01*
X022618Y023134D01*
X022668Y023145D01*
X022719Y023151D01*
X022770Y023154D01*
X022821Y023153D01*
X022872Y023148D01*
X022923Y023140D01*
X022972Y023128D01*
X023021Y023112D01*
X023068Y023093D01*
X023114Y023071D01*
X023159Y023045D01*
X023201Y023016D01*
X023241Y022984D01*
X023278Y022949D01*
X024904Y021322D01*
X024939Y021285D01*
X024971Y021245D01*
X025000Y021203D01*
X025026Y021158D01*
X025048Y021112D01*
X025067Y021065D01*
X025083Y021016D01*
X025095Y020967D01*
X025103Y020916D01*
X025108Y020865D01*
X025109Y020814D01*
X025106Y020763D01*
X025100Y020712D01*
X025089Y020662D01*
X025076Y020613D01*
X025058Y020565D01*
X025037Y020518D01*
X025013Y020473D01*
X024986Y020430D01*
X024955Y020389D01*
X024922Y020350D01*
X024886Y020314D01*
X024847Y020281D01*
X024806Y020250D01*
X024763Y020223D01*
X024718Y020199D01*
X024671Y020178D01*
X024623Y020160D01*
X024574Y020147D01*
X024524Y020136D01*
X024473Y020130D01*
X024422Y020127D01*
X024371Y020128D01*
X024320Y020133D01*
X024269Y020141D01*
X024220Y020153D01*
X024171Y020169D01*
X024124Y020188D01*
X024078Y020210D01*
X024033Y020236D01*
X023991Y020265D01*
X023951Y020297D01*
X023914Y020332D01*
X023950Y021287D02*
X023773Y021464D01*
X024020Y021711D01*
X023914Y021817D02*
X023419Y021322D01*
X023278Y021464D01*
X023773Y021959D01*
X023914Y021817D01*
X023667Y022065D02*
X023419Y021817D01*
X023242Y021994D01*
X023419Y021817D02*
X023172Y021570D01*
X023525Y021216D02*
X023773Y021464D01*
X027140Y021705D02*
X027140Y020105D01*
X027340Y019705D02*
X027540Y019705D01*
X027640Y019705D01*
X027640Y020105D02*
X027940Y020105D01*
X027940Y021705D01*
X027640Y021705D01*
X029890Y025355D02*
X030040Y025355D01*
X030390Y025355D01*
X031390Y025355D01*
X031740Y025355D01*
X031890Y025355D01*
X032090Y025555D01*
X032090Y026155D01*
X032090Y026255D01*
X032190Y026255D01*
X032190Y026855D01*
X032090Y026855D01*
X032090Y026955D01*
X032090Y027555D01*
X031890Y027755D01*
X031740Y027755D01*
X031390Y027755D01*
X030440Y027755D01*
X030040Y027755D01*
X029890Y027755D01*
X029690Y027555D01*
X029690Y026955D01*
X029690Y026855D01*
X029590Y026855D01*
X029590Y026255D01*
X029690Y026255D01*
X029690Y026155D01*
X029690Y025555D01*
X029890Y025355D01*
X029840Y025705D02*
X029872Y025813D01*
X029957Y025887D01*
X030068Y025903D01*
X030171Y025856D01*
X030232Y025761D01*
X030232Y025649D01*
X030171Y025554D01*
X030068Y025507D01*
X029957Y025523D01*
X029872Y025597D01*
X029840Y025705D01*
X030390Y025655D02*
X031390Y025655D01*
X031540Y025705D02*
X031572Y025813D01*
X031657Y025887D01*
X031768Y025903D01*
X031871Y025856D01*
X031932Y025761D01*
X031932Y025649D01*
X031871Y025554D01*
X031768Y025507D01*
X031657Y025523D01*
X031572Y025597D01*
X031540Y025705D01*
X031840Y026055D02*
X031840Y026355D01*
X031740Y026705D01*
X031840Y026755D02*
X031840Y027055D01*
X031540Y027405D02*
X031572Y027513D01*
X031657Y027587D01*
X031768Y027603D01*
X031871Y027556D01*
X031932Y027461D01*
X031932Y027349D01*
X031871Y027254D01*
X031768Y027207D01*
X031657Y027223D01*
X031572Y027297D01*
X031540Y027405D01*
X031390Y027405D02*
X030390Y027405D01*
X029840Y027355D02*
X029872Y027463D01*
X029957Y027537D01*
X030068Y027553D01*
X030171Y027506D01*
X030232Y027411D01*
X030232Y027299D01*
X030171Y027204D01*
X030068Y027157D01*
X029957Y027173D01*
X029872Y027247D01*
X029840Y027355D01*
X030790Y026555D02*
X030819Y026626D01*
X030890Y026655D01*
X030961Y026626D01*
X030990Y026555D01*
X030961Y026484D01*
X030890Y026455D01*
X030819Y026484D01*
X030790Y026555D01*
X030190Y026555D02*
X030228Y026782D01*
X030338Y026985D01*
X030507Y027141D01*
X030718Y027234D01*
X030948Y027253D01*
X031171Y027196D01*
X031364Y027070D01*
X031506Y026888D01*
X031580Y026670D01*
X031580Y026440D01*
X031506Y026222D01*
X031364Y026040D01*
X031171Y025914D01*
X030948Y025857D01*
X030718Y025876D01*
X030507Y025969D01*
X030338Y026125D01*
X030228Y026328D01*
X030190Y026555D01*
X032490Y028755D02*
X032740Y028505D01*
X033240Y028505D01*
X033490Y028755D01*
X033740Y028505D01*
X034240Y028505D01*
X034490Y028755D01*
X034490Y029255D01*
X034240Y029505D01*
X033740Y029505D01*
X033490Y029255D01*
X033490Y028755D01*
X033490Y029255D02*
X033240Y029505D01*
X032740Y029505D01*
X032490Y029255D01*
X032490Y028755D01*
X032740Y029905D02*
X033240Y029905D01*
X033490Y030155D01*
X033740Y029905D01*
X034240Y029905D01*
X034490Y030155D01*
X034490Y030655D01*
X034240Y030905D01*
X033740Y030905D01*
X033490Y030655D01*
X033490Y030155D01*
X033490Y030655D02*
X033240Y030905D01*
X032740Y030905D01*
X032490Y030655D01*
X032490Y030155D01*
X032740Y029905D01*
X031640Y030705D02*
X031640Y034205D01*
X029890Y034205D01*
X029890Y034155D01*
X029390Y034155D01*
X029390Y034205D01*
X028440Y034205D01*
X028440Y033805D01*
X028440Y033705D01*
X031140Y033705D01*
X031140Y031205D01*
X024140Y031205D01*
X024140Y033705D01*
X025840Y033705D01*
X026440Y033705D01*
X026840Y033705D01*
X026840Y033805D01*
X026840Y034205D01*
X028440Y034205D01*
X028440Y033705D02*
X028440Y033405D01*
X026840Y033405D01*
X026840Y033705D01*
X026640Y034005D02*
X026440Y034005D01*
X025840Y034005D01*
X025840Y033805D01*
X025840Y033705D01*
X025840Y034005D02*
X025640Y034005D01*
X025490Y034205D01*
X023640Y034205D01*
X023640Y030705D01*
X024140Y030705D01*
X024140Y030605D01*
X024640Y030605D01*
X024640Y030705D01*
X027390Y030705D01*
X027390Y030605D01*
X027890Y030605D01*
X027890Y030705D01*
X030640Y030705D01*
X030640Y030605D01*
X031140Y030605D01*
X031140Y030705D01*
X031640Y030705D01*
X032490Y031555D02*
X032740Y031305D01*
X033240Y031305D01*
X033490Y031555D01*
X033740Y031305D01*
X034240Y031305D01*
X034490Y031555D01*
X034490Y032055D01*
X034240Y032305D01*
X033740Y032305D01*
X033490Y032055D01*
X033490Y031555D01*
X033490Y032055D02*
X033240Y032305D01*
X032740Y032305D01*
X032490Y032055D01*
X032490Y031555D01*
X032740Y032705D02*
X033240Y032705D01*
X033490Y032955D01*
X033740Y032705D01*
X034240Y032705D01*
X034490Y032955D01*
X034490Y033455D01*
X034240Y033705D01*
X033740Y033705D01*
X033490Y033455D01*
X033490Y032955D01*
X033490Y033455D02*
X033240Y033705D01*
X032740Y033705D01*
X032490Y033455D01*
X032490Y032955D01*
X032740Y032705D01*
X034490Y032955D02*
X034740Y032705D01*
X035240Y032705D01*
X035490Y032955D01*
X035740Y032705D01*
X036240Y032705D01*
X036490Y032955D01*
X036490Y033455D01*
X036240Y033705D01*
X035740Y033705D01*
X035490Y033455D01*
X035490Y032955D01*
X035490Y033455D02*
X035240Y033705D01*
X034740Y033705D01*
X034490Y033455D01*
X034740Y032305D02*
X035240Y032305D01*
X035490Y032055D01*
X035740Y032305D01*
X036240Y032305D01*
X036490Y032055D01*
X036490Y031555D01*
X036240Y031305D01*
X035740Y031305D01*
X035490Y031555D01*
X035240Y031305D01*
X034740Y031305D01*
X034490Y031555D01*
X034490Y032055D02*
X034740Y032305D01*
X035490Y032055D02*
X035490Y031555D01*
X035740Y030905D02*
X035490Y030655D01*
X035490Y030155D01*
X035740Y029905D01*
X036240Y029905D01*
X036490Y030155D01*
X036490Y030655D01*
X036240Y030905D01*
X035740Y030905D01*
X035490Y030655D02*
X035240Y030905D01*
X034740Y030905D01*
X034490Y030655D01*
X034490Y030155D02*
X034740Y029905D01*
X035240Y029905D01*
X035490Y030155D01*
X035740Y029505D02*
X035490Y029255D01*
X035490Y028755D01*
X035740Y028505D01*
X036240Y028505D01*
X036490Y028755D01*
X036490Y029255D01*
X036240Y029505D01*
X035740Y029505D01*
X035490Y029255D02*
X035240Y029505D01*
X034740Y029505D01*
X034490Y029255D01*
X034490Y028755D02*
X034740Y028505D01*
X035240Y028505D01*
X035490Y028755D01*
X037270Y029825D02*
X037270Y030580D01*
X037910Y030580D02*
X037910Y029825D01*
X038570Y029825D02*
X038570Y030580D01*
X039210Y030580D02*
X039210Y029825D01*
X037640Y033955D02*
X037679Y034278D01*
X037795Y034582D01*
X037980Y034850D01*
X038223Y035066D01*
X038511Y035217D01*
X038827Y035295D01*
X039153Y035295D01*
X039469Y035217D01*
X039757Y035066D01*
X040000Y034850D01*
X040185Y034582D01*
X040301Y034278D01*
X040340Y033955D01*
X040301Y033632D01*
X040185Y033328D01*
X040000Y033060D01*
X039757Y032844D01*
X039469Y032693D01*
X039153Y032615D01*
X038827Y032615D01*
X038511Y032693D01*
X038223Y032844D01*
X037980Y033060D01*
X037795Y033328D01*
X037679Y033632D01*
X037640Y033955D01*
X038440Y025005D02*
X035940Y025005D01*
X035940Y017005D01*
X038440Y017005D01*
X038440Y025005D01*
X033115Y022575D02*
X032360Y022575D01*
X032360Y021935D02*
X033115Y021935D01*
X026490Y027205D02*
X026490Y027705D01*
X026240Y027955D01*
X025740Y027955D01*
X025490Y027705D01*
X025240Y027955D01*
X024740Y027955D01*
X024490Y027705D01*
X024490Y027205D01*
X024740Y026955D01*
X025240Y026955D01*
X025490Y027205D01*
X025490Y027705D01*
X025490Y027205D02*
X025740Y026955D01*
X026240Y026955D01*
X026490Y027205D01*
X024490Y027205D02*
X024240Y026955D01*
X023740Y026955D01*
X023490Y027205D01*
X023240Y026955D01*
X022740Y026955D01*
X022490Y027205D01*
X022240Y026955D01*
X021740Y026955D01*
X021490Y027205D01*
X021490Y027705D01*
X021740Y027955D01*
X022240Y027955D01*
X022490Y027705D01*
X022740Y027955D01*
X023240Y027955D01*
X023490Y027705D01*
X023740Y027955D01*
X024240Y027955D01*
X024490Y027705D01*
X023490Y027705D02*
X023490Y027205D01*
X022490Y027205D02*
X022490Y027705D01*
X021490Y027705D02*
X021240Y027955D01*
X020740Y027955D01*
X020490Y027705D01*
X020240Y027955D01*
X019740Y027955D01*
X019490Y027705D01*
X019240Y027955D01*
X018740Y027955D01*
X018490Y027705D01*
X018240Y027955D01*
X017740Y027955D01*
X017490Y027705D01*
X017490Y027205D01*
X017740Y026955D01*
X018240Y026955D01*
X018490Y027205D01*
X018490Y027705D01*
X018490Y027205D02*
X018740Y026955D01*
X019240Y026955D01*
X019490Y027205D01*
X019490Y027705D01*
X019490Y027205D02*
X019740Y026955D01*
X020240Y026955D01*
X020490Y027205D01*
X020490Y027705D01*
X020490Y027205D02*
X020740Y026955D01*
X021240Y026955D01*
X021490Y027205D01*
X026440Y033705D02*
X026440Y033805D01*
X026440Y034005D01*
X026640Y034005D02*
X026790Y034205D01*
X026840Y034205D01*
X037070Y013380D02*
X037070Y012625D01*
X037710Y012625D02*
X037710Y013380D01*
X038788Y011776D02*
X038681Y011669D01*
X038681Y011242D01*
X038788Y011135D01*
X039001Y011135D01*
X039108Y011242D01*
X039108Y011669D01*
X039001Y011776D01*
X038788Y011776D01*
X039325Y011776D02*
X039752Y011135D01*
X039752Y011776D01*
X039325Y011776D02*
X039325Y011135D01*
X039258Y006026D02*
X038831Y006026D01*
X038831Y005385D01*
X038613Y005492D02*
X038613Y005919D01*
X038507Y006026D01*
X038293Y006026D01*
X038186Y005919D01*
X038186Y005492D01*
X038293Y005385D01*
X038507Y005385D01*
X038613Y005492D01*
X038831Y005706D02*
X039044Y005706D01*
X039475Y005706D02*
X039689Y005706D01*
X039475Y006026D02*
X039902Y006026D01*
X039475Y006026D02*
X039475Y005385D01*
X037640Y003455D02*
X037679Y003778D01*
X037795Y004082D01*
X037980Y004350D01*
X038223Y004566D01*
X038511Y004717D01*
X038827Y004795D01*
X039153Y004795D01*
X039469Y004717D01*
X039757Y004566D01*
X040000Y004350D01*
X040185Y004082D01*
X040301Y003778D01*
X040340Y003455D01*
X040301Y003132D01*
X040185Y002828D01*
X040000Y002560D01*
X039757Y002344D01*
X039469Y002193D01*
X039153Y002115D01*
X038827Y002115D01*
X038511Y002193D01*
X038223Y002344D01*
X037980Y002560D01*
X037795Y002828D01*
X037679Y003132D01*
X037640Y003455D01*
X035102Y003656D02*
X034675Y003656D01*
X034996Y003976D01*
X034996Y003335D01*
X034351Y003442D02*
X034351Y003976D01*
X034244Y003976D02*
X034458Y003976D01*
X034351Y003442D02*
X034244Y003335D01*
X034138Y003335D01*
X034031Y003442D01*
X029002Y003442D02*
X028896Y003335D01*
X028682Y003335D01*
X028575Y003442D01*
X028789Y003656D02*
X028896Y003656D01*
X029002Y003549D01*
X029002Y003442D01*
X028896Y003656D02*
X029002Y003762D01*
X029002Y003869D01*
X028896Y003976D01*
X028682Y003976D01*
X028575Y003869D01*
X028358Y003976D02*
X028144Y003976D01*
X028251Y003976D02*
X028251Y003442D01*
X028144Y003335D01*
X028038Y003335D01*
X027931Y003442D01*
X022952Y003285D02*
X022525Y003285D01*
X022952Y003712D01*
X022952Y003819D01*
X022846Y003926D01*
X022632Y003926D01*
X022525Y003819D01*
X022308Y003926D02*
X022094Y003926D01*
X022201Y003926D02*
X022201Y003392D01*
X022094Y003285D01*
X021988Y003285D01*
X021881Y003392D01*
X016852Y003285D02*
X016425Y003285D01*
X016639Y003285D02*
X016639Y003926D01*
X016425Y003712D01*
X016208Y003926D02*
X015994Y003926D01*
X016101Y003926D02*
X016101Y003392D01*
X015994Y003285D01*
X015888Y003285D01*
X015781Y003392D01*
X000890Y033955D02*
X000929Y034278D01*
X001045Y034582D01*
X001230Y034850D01*
X001473Y035066D01*
X001761Y035217D01*
X002077Y035295D01*
X002403Y035295D01*
X002719Y035217D01*
X003007Y035066D01*
X003250Y034850D01*
X003435Y034582D01*
X003551Y034278D01*
X003590Y033955D01*
X003551Y033632D01*
X003435Y033328D01*
X003250Y033060D01*
X003007Y032844D01*
X002719Y032693D01*
X002403Y032615D01*
X002077Y032615D01*
X001761Y032693D01*
X001473Y032844D01*
X001230Y033060D01*
X001045Y033328D01*
X000929Y033632D01*
X000890Y033955D01*
D20*
X002620Y018555D03*
X003660Y018555D03*
X004770Y018555D03*
X005810Y018555D03*
X007570Y015605D03*
X008610Y015605D03*
X010120Y015605D03*
X011160Y015605D03*
X032220Y022255D03*
X033260Y022255D03*
D21*
X033250Y022810D02*
X033100Y022810D01*
X033025Y022885D01*
X033326Y023186D01*
X033326Y022885D01*
X033250Y022810D01*
X033486Y022810D02*
X033486Y023261D01*
X033326Y023186D02*
X033250Y023261D01*
X033100Y023261D01*
X033025Y023186D01*
X033025Y022885D01*
X032865Y022810D02*
X032565Y022810D01*
X032715Y022810D02*
X032715Y023261D01*
X032565Y023111D01*
X033486Y022960D02*
X033711Y023111D01*
X033486Y022960D02*
X033711Y022810D01*
X031955Y024630D02*
X031655Y024630D01*
X031805Y024630D02*
X031805Y025081D01*
X031655Y024931D01*
X031494Y025006D02*
X031419Y025081D01*
X031269Y025081D01*
X031194Y025006D01*
X031194Y024931D01*
X031269Y024855D01*
X031419Y024855D01*
X031494Y024780D01*
X031494Y024705D01*
X031419Y024630D01*
X031269Y024630D01*
X031194Y024705D01*
X032155Y025430D02*
X032455Y025430D01*
X032305Y025430D02*
X032305Y025881D01*
X032155Y025731D01*
X032330Y027180D02*
X032255Y027255D01*
X032330Y027180D02*
X032480Y027180D01*
X032555Y027255D01*
X032555Y027330D01*
X032480Y027405D01*
X032405Y027405D01*
X032480Y027405D02*
X032555Y027481D01*
X032555Y027556D01*
X032480Y027631D01*
X032330Y027631D01*
X032255Y027556D01*
X029355Y027405D02*
X029055Y027405D01*
X029280Y027631D01*
X029280Y027180D01*
X029280Y025931D02*
X029130Y025931D01*
X029055Y025856D01*
X029280Y025931D02*
X029355Y025856D01*
X029355Y025781D01*
X029055Y025480D01*
X029355Y025480D01*
X029315Y023770D02*
X029240Y023770D01*
X029165Y023695D01*
X029165Y023545D01*
X029240Y023470D01*
X029315Y023770D02*
X029615Y023470D01*
X029615Y023770D01*
X028615Y023770D02*
X028615Y023470D01*
X028615Y023620D02*
X028165Y023620D01*
X028315Y023470D01*
X027015Y023481D02*
X027015Y023180D01*
X026715Y023481D01*
X026640Y023481D01*
X026565Y023405D01*
X026565Y023255D01*
X026640Y023180D01*
X026640Y023641D02*
X026565Y023716D01*
X026565Y023866D01*
X026640Y023941D01*
X026715Y023941D01*
X027015Y023641D01*
X027015Y023941D01*
X027015Y024101D02*
X027015Y024326D01*
X026940Y024401D01*
X026790Y024401D01*
X026715Y024326D01*
X026715Y024101D01*
X027165Y024101D01*
X026790Y024561D02*
X026790Y024711D01*
X026640Y024636D02*
X027015Y024636D01*
X026640Y024636D02*
X026565Y024711D01*
X026455Y025130D02*
X026155Y025130D01*
X026455Y025431D01*
X026455Y025506D01*
X026380Y025581D01*
X026230Y025581D01*
X026155Y025506D01*
X025994Y025506D02*
X025919Y025581D01*
X025769Y025581D01*
X025694Y025506D01*
X025694Y025205D01*
X025769Y025130D01*
X025919Y025130D01*
X025994Y025205D01*
X023981Y023644D02*
X023875Y023750D01*
X023769Y023750D01*
X023655Y023864D02*
X023443Y023651D01*
X023337Y023651D01*
X023231Y023758D01*
X023231Y023864D01*
X023443Y024076D01*
X023549Y024076D01*
X023655Y023970D01*
X023655Y023864D01*
X023390Y023811D02*
X023390Y023598D01*
X023503Y023485D02*
X023928Y023485D01*
X023981Y023538D01*
X023981Y023644D01*
X023716Y023273D02*
X023503Y023485D01*
X025565Y022406D02*
X025565Y022105D01*
X025640Y022030D01*
X025790Y022030D01*
X025865Y022105D01*
X026025Y022030D02*
X026326Y022030D01*
X026175Y022030D02*
X026175Y022481D01*
X026025Y022331D01*
X025865Y022406D02*
X025790Y022481D01*
X025640Y022481D01*
X025565Y022406D01*
X026515Y021623D02*
X026590Y021548D01*
X026965Y021548D01*
X026740Y021473D02*
X026740Y021623D01*
X026740Y021313D02*
X026890Y021313D01*
X026965Y021238D01*
X026965Y021013D01*
X027115Y021013D02*
X026665Y021013D01*
X026665Y021238D01*
X026740Y021313D01*
X026665Y020853D02*
X026590Y020853D01*
X026515Y020778D01*
X026515Y020628D01*
X026590Y020553D01*
X026590Y020392D02*
X026515Y020317D01*
X026515Y020167D01*
X026590Y020092D01*
X026590Y020392D02*
X026665Y020392D01*
X026965Y020092D01*
X026965Y020392D01*
X026965Y020553D02*
X026665Y020853D01*
X026965Y020853D02*
X026965Y020553D01*
X027315Y020560D02*
X027765Y020560D01*
X027765Y020410D02*
X027765Y020710D01*
X027690Y020870D02*
X027390Y021170D01*
X027690Y021170D01*
X027765Y021095D01*
X027765Y020945D01*
X027690Y020870D01*
X027390Y020870D01*
X027315Y020945D01*
X027315Y021095D01*
X027390Y021170D01*
X027315Y020560D02*
X027465Y020410D01*
X031265Y020485D02*
X031265Y020335D01*
X031340Y020260D01*
X031640Y020260D01*
X031715Y020335D01*
X031715Y020485D01*
X031640Y020560D01*
X031640Y020720D02*
X031715Y020795D01*
X031715Y020945D01*
X031640Y021020D01*
X031490Y021020D01*
X031415Y020945D01*
X031415Y020870D01*
X031490Y020720D01*
X031265Y020720D01*
X031265Y021020D01*
X031340Y020560D02*
X031265Y020485D01*
X022658Y020665D02*
X022233Y020665D01*
X022445Y020453D01*
X022658Y020665D02*
X022445Y020877D01*
X022279Y020937D02*
X022120Y020778D01*
X022279Y020937D02*
X022279Y021044D01*
X022173Y021150D01*
X022067Y021150D01*
X022226Y021309D02*
X021907Y020991D01*
X021794Y021104D02*
X022113Y021422D01*
X021900Y021422D01*
X021900Y021635D01*
X021582Y021316D01*
X021522Y021482D02*
X021575Y021535D01*
X021575Y021642D01*
X021416Y021801D01*
X021309Y021695D01*
X021309Y021589D01*
X021416Y021482D01*
X021522Y021482D01*
X021628Y021801D02*
X021416Y021801D01*
X021628Y021801D02*
X021787Y021748D01*
X021356Y022179D02*
X021037Y021861D01*
X020931Y021967D02*
X021143Y021755D01*
X021143Y022179D02*
X021356Y022179D01*
X012142Y015017D02*
X000134Y015017D01*
X000134Y003993D01*
X012142Y003993D01*
X012142Y015017D01*
X004715Y020180D02*
X004715Y020481D01*
X004715Y020330D02*
X004265Y020330D01*
X004415Y020180D01*
X003715Y020180D02*
X003715Y020481D01*
X003415Y020481D02*
X003715Y020180D01*
X003340Y020180D02*
X003265Y020255D01*
X003265Y020405D01*
X003340Y020481D01*
X003415Y020481D01*
X005190Y022180D02*
X005340Y022030D01*
X005340Y022255D01*
X005415Y022331D01*
X005490Y022331D01*
X005565Y022255D01*
X005565Y022105D01*
X005490Y022030D01*
X005340Y022030D01*
X005190Y022180D02*
X005115Y022331D01*
X005140Y030605D02*
X004640Y030605D01*
X004640Y030705D01*
X004140Y030705D01*
X004140Y034205D01*
X005990Y034205D01*
X006140Y034005D01*
X006340Y034005D01*
X006940Y034005D01*
X007140Y034005D01*
X007290Y034205D01*
X007340Y034205D01*
X007340Y033805D01*
X007340Y033705D01*
X006940Y033705D01*
X006340Y033705D01*
X006340Y033805D01*
X006340Y034005D01*
X006340Y033705D02*
X004640Y033705D01*
X004640Y031205D01*
X011640Y031205D01*
X011640Y033705D01*
X008940Y033705D01*
X008940Y033805D01*
X008940Y034205D01*
X009890Y034205D01*
X009890Y034155D01*
X010390Y034155D01*
X010390Y034205D01*
X012140Y034205D01*
X012140Y030705D01*
X011640Y030705D01*
X011640Y030605D01*
X011140Y030605D01*
X011140Y030705D01*
X008390Y030705D01*
X008390Y030605D01*
X007890Y030605D01*
X007890Y030705D01*
X005140Y030705D01*
X005140Y030605D01*
X007340Y033405D02*
X007340Y033705D01*
X007340Y033405D02*
X008940Y033405D01*
X008940Y033705D01*
X008940Y034205D02*
X007340Y034205D01*
X007644Y033881D02*
X007794Y034031D01*
X007794Y033580D01*
X007644Y033580D02*
X007944Y033580D01*
X008105Y033655D02*
X008180Y033580D01*
X008330Y033580D01*
X008405Y033655D01*
X008405Y033956D01*
X008105Y033655D01*
X008105Y033956D01*
X008180Y034031D01*
X008330Y034031D01*
X008405Y033956D01*
X006940Y034005D02*
X006940Y033805D01*
X006940Y033705D01*
X010705Y033031D02*
X010855Y033181D01*
X010855Y032730D01*
X010705Y032730D02*
X011005Y032730D01*
X010930Y032181D02*
X010780Y032181D01*
X010705Y032106D01*
X010930Y032181D02*
X011005Y032106D01*
X011005Y032031D01*
X010705Y031730D01*
X011005Y031730D01*
X013890Y030705D02*
X013890Y034205D01*
X015740Y034205D01*
X015890Y034005D01*
X016090Y034005D01*
X016690Y034005D01*
X016890Y034005D01*
X017040Y034205D01*
X017090Y034205D01*
X017090Y033805D01*
X017090Y033705D01*
X016690Y033705D01*
X016090Y033705D01*
X016090Y033805D01*
X016090Y034005D01*
X016090Y033705D02*
X014390Y033705D01*
X014390Y031205D01*
X021390Y031205D01*
X021390Y033705D01*
X018690Y033705D01*
X018690Y033805D01*
X018690Y034205D01*
X019640Y034205D01*
X019640Y034155D01*
X020140Y034155D01*
X020140Y034205D01*
X021890Y034205D01*
X021890Y030705D01*
X021390Y030705D01*
X021390Y030605D01*
X020890Y030605D01*
X020890Y030705D01*
X018140Y030705D01*
X018140Y030605D01*
X017640Y030605D01*
X017640Y030705D01*
X014890Y030705D01*
X014890Y030605D01*
X014390Y030605D01*
X014390Y030705D01*
X013890Y030705D01*
X017090Y033405D02*
X017090Y033705D01*
X017090Y033405D02*
X018690Y033405D01*
X018690Y033705D01*
X018690Y034205D02*
X017090Y034205D01*
X017394Y033881D02*
X017544Y034031D01*
X017544Y033580D01*
X017394Y033580D02*
X017694Y033580D01*
X017855Y033655D02*
X018155Y033956D01*
X018155Y033655D01*
X018080Y033580D01*
X017930Y033580D01*
X017855Y033655D01*
X017855Y033956D01*
X017930Y034031D01*
X018080Y034031D01*
X018155Y033956D01*
X016690Y034005D02*
X016690Y033805D01*
X016690Y033705D01*
X020455Y033031D02*
X020605Y033181D01*
X020605Y032730D01*
X020455Y032730D02*
X020755Y032730D01*
X020680Y032181D02*
X020530Y032181D01*
X020455Y032106D01*
X020680Y032181D02*
X020755Y032106D01*
X020755Y032031D01*
X020455Y031730D01*
X020755Y031730D01*
X027144Y033580D02*
X027444Y033580D01*
X027294Y033580D02*
X027294Y034031D01*
X027144Y033881D01*
X027605Y033956D02*
X027680Y034031D01*
X027830Y034031D01*
X027905Y033956D01*
X027605Y033655D01*
X027680Y033580D01*
X027830Y033580D01*
X027905Y033655D01*
X027905Y033956D01*
X027605Y033956D02*
X027605Y033655D01*
X030205Y033031D02*
X030355Y033181D01*
X030355Y032730D01*
X030205Y032730D02*
X030505Y032730D01*
X030430Y032181D02*
X030280Y032181D01*
X030205Y032106D01*
X030430Y032181D02*
X030505Y032106D01*
X030505Y032031D01*
X030205Y031730D01*
X030505Y031730D01*
X038140Y010855D02*
X040384Y010855D01*
X040384Y006367D01*
X038140Y006367D01*
X038140Y010855D01*
X038612Y009792D02*
X039912Y009792D01*
X039912Y007391D01*
X038612Y007391D01*
X038612Y009792D01*
X038730Y009674D02*
X039793Y009674D01*
X039793Y009359D01*
X038730Y009359D01*
X038730Y009674D01*
X038730Y009359D02*
X038730Y008651D01*
X039793Y008651D01*
X039793Y008336D01*
X038730Y008336D01*
X038730Y008651D01*
X038770Y009005D02*
X039754Y009005D01*
X039793Y009359D02*
X039793Y008651D01*
D22*
X029390Y018905D03*
X028390Y018905D03*
X028390Y019905D03*
X028390Y020905D03*
X029390Y020905D03*
X029390Y019905D03*
X029390Y021905D03*
X028390Y021905D03*
X028390Y022905D03*
X029390Y022905D03*
X025990Y027455D03*
X024990Y027455D03*
X023990Y027455D03*
X022990Y027455D03*
X021990Y027455D03*
X020990Y027455D03*
X019990Y027455D03*
X018990Y027455D03*
X017990Y027455D03*
X015990Y027455D03*
X014990Y027455D03*
X013990Y027455D03*
X012990Y027455D03*
X011990Y027455D03*
X010990Y027455D03*
X009990Y027455D03*
X008990Y027455D03*
X007990Y027455D03*
X006990Y027455D03*
X004290Y026855D03*
X004290Y025855D03*
X004490Y023155D03*
X003490Y023155D03*
X003490Y022155D03*
X004490Y022155D03*
X004490Y021155D03*
X003490Y021155D03*
X001340Y020705D03*
X001340Y021705D03*
X001340Y022705D03*
X001340Y023705D03*
X001340Y024705D03*
X001340Y025705D03*
X006140Y031955D03*
X007140Y031955D03*
X008140Y031955D03*
X009140Y031955D03*
X010140Y031955D03*
X010140Y032955D03*
X009140Y032955D03*
X008140Y032955D03*
X007140Y032955D03*
X006140Y032955D03*
X015890Y032955D03*
X015890Y031955D03*
X016890Y031955D03*
X017890Y031955D03*
X018890Y031955D03*
X019890Y031955D03*
X019890Y032955D03*
X018890Y032955D03*
X017890Y032955D03*
X016890Y032955D03*
X025640Y032955D03*
X026640Y032955D03*
X026640Y031955D03*
X025640Y031955D03*
X027640Y031955D03*
X028640Y031955D03*
X029640Y031955D03*
X029640Y032955D03*
X028640Y032955D03*
X027640Y032955D03*
X032990Y033205D03*
X033990Y033205D03*
X034990Y033205D03*
X035990Y033205D03*
X035990Y031805D03*
X034990Y031805D03*
X033990Y031805D03*
X032990Y031805D03*
X032990Y030405D03*
X033990Y030405D03*
X034990Y030405D03*
X035990Y030405D03*
X035990Y029005D03*
X034990Y029005D03*
X033990Y029005D03*
X032990Y029005D03*
X025990Y017455D03*
X024990Y017455D03*
X023990Y017455D03*
X022990Y017455D03*
X021990Y017455D03*
X020990Y017455D03*
X019990Y017455D03*
X018990Y017455D03*
X017990Y017455D03*
X014990Y017455D03*
X013990Y017455D03*
X012990Y017455D03*
X011990Y017455D03*
X010990Y017455D03*
X009990Y017455D03*
X008990Y017455D03*
X007990Y017455D03*
X006990Y017455D03*
D23*
X001390Y017633D03*
X001390Y018678D03*
X002940Y025833D03*
X002940Y026878D03*
X025940Y024578D03*
X025940Y023533D03*
X025940Y021378D03*
X025940Y020333D03*
D24*
X005965Y017591D03*
X002515Y017119D03*
D25*
X002594Y017065D03*
X005886Y017646D03*
D26*
X005866Y017508D03*
X002613Y017203D03*
D27*
X002633Y017183D03*
X005847Y017528D03*
D28*
X005921Y017119D03*
X002559Y017591D03*
D29*
X002633Y017572D03*
X005847Y017139D03*
D30*
X005773Y017355D03*
X002707Y017355D03*
D31*
X003652Y017355D03*
X004828Y017355D03*
D32*
X005561Y017085D03*
X005561Y017626D03*
X002918Y017626D03*
X002918Y017085D03*
D33*
X003071Y017355D03*
X005409Y017355D03*
D34*
X032268Y020605D03*
X033312Y020606D03*
D35*
X025890Y015525D03*
X025890Y014485D03*
X024440Y014485D03*
X024440Y015525D03*
X019290Y015575D03*
X019290Y014535D03*
X016390Y014535D03*
X016390Y015575D03*
X015090Y015575D03*
X015090Y014535D03*
X013790Y014535D03*
X013790Y015575D03*
X013840Y013125D03*
X013840Y012085D03*
X015090Y012085D03*
X015090Y013125D03*
X016390Y013125D03*
X016390Y012085D03*
X037390Y012485D03*
X037390Y013525D03*
X037590Y029685D03*
X037590Y030725D03*
X038890Y030725D03*
X038890Y029685D03*
D36*
X038690Y033955D02*
X038724Y034094D01*
X038820Y034202D01*
X038954Y034253D01*
X039096Y034236D01*
X039215Y034154D01*
X039281Y034027D01*
X039281Y033883D01*
X039215Y033756D01*
X039096Y033674D01*
X038954Y033657D01*
X038820Y033708D01*
X038724Y033816D01*
X038690Y033955D01*
X038690Y003455D02*
X038724Y003594D01*
X038820Y003702D01*
X038954Y003753D01*
X039096Y003736D01*
X039215Y003654D01*
X039281Y003527D01*
X039281Y003383D01*
X039215Y003256D01*
X039096Y003174D01*
X038954Y003157D01*
X038820Y003208D01*
X038724Y003316D01*
X038690Y003455D01*
X001940Y033955D02*
X001974Y034094D01*
X002070Y034202D01*
X002204Y034253D01*
X002346Y034236D01*
X002465Y034154D01*
X002531Y034027D01*
X002531Y033883D01*
X002465Y033756D01*
X002346Y033674D01*
X002204Y033657D01*
X002070Y033708D01*
X001974Y033816D01*
X001940Y033955D01*
D37*
X003529Y034004D02*
X002646Y034004D01*
X002647Y034005D02*
X002640Y034043D01*
X002630Y034081D01*
X002617Y034117D01*
X002600Y034152D01*
X002579Y034185D01*
X002556Y034216D01*
X002530Y034245D01*
X002501Y034271D01*
X002470Y034294D01*
X002437Y034315D01*
X002402Y034332D01*
X002366Y034345D01*
X002328Y034355D01*
X002290Y034362D01*
X002289Y035244D01*
X002290Y035244D01*
X002361Y035239D01*
X002432Y035231D01*
X002502Y035218D01*
X002572Y035202D01*
X002640Y035181D01*
X002707Y035157D01*
X002773Y035130D01*
X002837Y035099D01*
X002899Y035064D01*
X002960Y035026D01*
X003018Y034984D01*
X003073Y034940D01*
X003127Y034892D01*
X003177Y034842D01*
X003225Y034788D01*
X003269Y034733D01*
X003311Y034675D01*
X003349Y034614D01*
X003384Y034552D01*
X003415Y034488D01*
X003442Y034422D01*
X003466Y034355D01*
X003487Y034287D01*
X003503Y034217D01*
X003516Y034147D01*
X003524Y034076D01*
X003529Y034005D01*
X003435Y034005D01*
X003430Y034073D01*
X003421Y034141D01*
X003409Y034208D01*
X003392Y034275D01*
X003372Y034340D01*
X003348Y034404D01*
X003321Y034467D01*
X003290Y034528D01*
X003255Y034587D01*
X003218Y034644D01*
X003177Y034699D01*
X003133Y034751D01*
X003086Y034801D01*
X003036Y034848D01*
X002984Y034892D01*
X002929Y034933D01*
X002872Y034970D01*
X002813Y035005D01*
X002752Y035036D01*
X002689Y035063D01*
X002625Y035087D01*
X002560Y035107D01*
X002493Y035124D01*
X002426Y035136D01*
X002358Y035145D01*
X002290Y035150D01*
X002290Y035056D01*
X002355Y035051D01*
X002420Y035042D01*
X002484Y035030D01*
X002547Y035013D01*
X002609Y034993D01*
X002670Y034970D01*
X002729Y034943D01*
X002787Y034912D01*
X002842Y034878D01*
X002896Y034841D01*
X002947Y034800D01*
X002996Y034757D01*
X003042Y034711D01*
X003085Y034662D01*
X003126Y034611D01*
X003163Y034557D01*
X003197Y034502D01*
X003228Y034444D01*
X003255Y034385D01*
X003278Y034324D01*
X003298Y034262D01*
X003315Y034199D01*
X003327Y034135D01*
X003336Y034070D01*
X003341Y034005D01*
X003247Y034005D01*
X003242Y034067D01*
X003233Y034128D01*
X003221Y034188D01*
X003204Y034248D01*
X003185Y034306D01*
X003161Y034364D01*
X003135Y034419D01*
X003105Y034473D01*
X003071Y034525D01*
X003035Y034575D01*
X002995Y034623D01*
X002953Y034668D01*
X002908Y034710D01*
X002860Y034750D01*
X002810Y034786D01*
X002758Y034820D01*
X002704Y034850D01*
X002649Y034876D01*
X002591Y034900D01*
X002533Y034919D01*
X002473Y034936D01*
X002413Y034948D01*
X002352Y034957D01*
X002290Y034962D01*
X002290Y034868D01*
X002348Y034863D01*
X002405Y034854D01*
X002462Y034842D01*
X002518Y034826D01*
X002573Y034806D01*
X002626Y034784D01*
X002678Y034757D01*
X002728Y034728D01*
X002776Y034695D01*
X002822Y034660D01*
X002865Y034621D01*
X002906Y034580D01*
X002945Y034537D01*
X002980Y034491D01*
X003013Y034443D01*
X003042Y034393D01*
X003069Y034341D01*
X003091Y034288D01*
X003111Y034233D01*
X003127Y034177D01*
X003139Y034120D01*
X003148Y034063D01*
X003153Y034005D01*
X003058Y034005D01*
X003053Y034061D01*
X003044Y034117D01*
X003031Y034172D01*
X003014Y034226D01*
X002993Y034279D01*
X002969Y034330D01*
X002942Y034379D01*
X002911Y034427D01*
X002877Y034472D01*
X002839Y034514D01*
X002799Y034554D01*
X002757Y034592D01*
X002712Y034626D01*
X002664Y034657D01*
X002615Y034684D01*
X002564Y034708D01*
X002511Y034729D01*
X002457Y034746D01*
X002402Y034759D01*
X002346Y034768D01*
X002290Y034773D01*
X002290Y034679D01*
X002342Y034674D01*
X002393Y034665D01*
X002443Y034652D01*
X002493Y034636D01*
X002541Y034616D01*
X002587Y034593D01*
X002632Y034566D01*
X002675Y034536D01*
X002715Y034504D01*
X002753Y034468D01*
X002789Y034430D01*
X002821Y034390D01*
X002851Y034347D01*
X002878Y034302D01*
X002901Y034256D01*
X002921Y034208D01*
X002937Y034158D01*
X002950Y034108D01*
X002959Y034057D01*
X002964Y034005D01*
X002870Y034005D01*
X002864Y034054D01*
X002854Y034103D01*
X002841Y034151D01*
X002824Y034197D01*
X002803Y034242D01*
X002779Y034285D01*
X002751Y034327D01*
X002721Y034365D01*
X002687Y034402D01*
X002650Y034436D01*
X002612Y034466D01*
X002570Y034494D01*
X002527Y034518D01*
X002482Y034539D01*
X002436Y034556D01*
X002388Y034569D01*
X002339Y034579D01*
X002290Y034585D01*
X002290Y034491D01*
X002333Y034485D01*
X002376Y034475D01*
X002418Y034463D01*
X002459Y034447D01*
X002498Y034427D01*
X002536Y034405D01*
X002571Y034379D01*
X002605Y034351D01*
X002636Y034320D01*
X002664Y034286D01*
X002690Y034251D01*
X002712Y034213D01*
X002732Y034174D01*
X002748Y034133D01*
X002760Y034091D01*
X002770Y034048D01*
X002776Y034005D01*
X002681Y034005D01*
X002675Y034044D01*
X002665Y034083D01*
X002652Y034120D01*
X002636Y034157D01*
X002616Y034191D01*
X002593Y034224D01*
X002568Y034255D01*
X002540Y034283D01*
X002509Y034308D01*
X002476Y034331D01*
X002442Y034351D01*
X002405Y034367D01*
X002368Y034380D01*
X002329Y034390D01*
X002290Y034396D01*
X000951Y033906D02*
X001834Y033906D01*
X001833Y033905D02*
X001840Y033867D01*
X001850Y033829D01*
X001863Y033793D01*
X001880Y033758D01*
X001901Y033725D01*
X001924Y033694D01*
X001950Y033665D01*
X001979Y033639D01*
X002010Y033616D01*
X002043Y033595D01*
X002078Y033578D01*
X002114Y033565D01*
X002152Y033555D01*
X002190Y033548D01*
X002191Y032666D01*
X002190Y032666D01*
X002119Y032671D01*
X002048Y032679D01*
X001978Y032692D01*
X001908Y032708D01*
X001840Y032729D01*
X001773Y032753D01*
X001707Y032780D01*
X001643Y032811D01*
X001581Y032846D01*
X001520Y032884D01*
X001462Y032926D01*
X001407Y032970D01*
X001353Y033018D01*
X001303Y033068D01*
X001255Y033122D01*
X001211Y033177D01*
X001169Y033235D01*
X001131Y033296D01*
X001096Y033358D01*
X001065Y033422D01*
X001038Y033488D01*
X001014Y033555D01*
X000993Y033623D01*
X000977Y033693D01*
X000964Y033763D01*
X000956Y033834D01*
X000951Y033905D01*
X001045Y033905D01*
X001050Y033837D01*
X001059Y033769D01*
X001071Y033702D01*
X001088Y033635D01*
X001108Y033570D01*
X001132Y033506D01*
X001159Y033443D01*
X001190Y033382D01*
X001225Y033323D01*
X001262Y033266D01*
X001303Y033211D01*
X001347Y033159D01*
X001394Y033109D01*
X001444Y033062D01*
X001496Y033018D01*
X001551Y032977D01*
X001608Y032940D01*
X001667Y032905D01*
X001728Y032874D01*
X001791Y032847D01*
X001855Y032823D01*
X001920Y032803D01*
X001987Y032786D01*
X002054Y032774D01*
X002122Y032765D01*
X002190Y032760D01*
X002190Y032854D01*
X002125Y032859D01*
X002060Y032868D01*
X001996Y032880D01*
X001933Y032897D01*
X001871Y032917D01*
X001810Y032940D01*
X001751Y032967D01*
X001693Y032998D01*
X001638Y033032D01*
X001584Y033069D01*
X001533Y033110D01*
X001484Y033153D01*
X001438Y033199D01*
X001395Y033248D01*
X001354Y033299D01*
X001317Y033353D01*
X001283Y033408D01*
X001252Y033466D01*
X001225Y033525D01*
X001202Y033586D01*
X001182Y033648D01*
X001165Y033711D01*
X001153Y033775D01*
X001144Y033840D01*
X001139Y033905D01*
X001233Y033905D01*
X001238Y033843D01*
X001247Y033782D01*
X001259Y033722D01*
X001276Y033662D01*
X001295Y033604D01*
X001319Y033546D01*
X001345Y033491D01*
X001375Y033437D01*
X001409Y033385D01*
X001445Y033335D01*
X001485Y033287D01*
X001527Y033242D01*
X001572Y033200D01*
X001620Y033160D01*
X001670Y033124D01*
X001722Y033090D01*
X001776Y033060D01*
X001831Y033034D01*
X001889Y033010D01*
X001947Y032991D01*
X002007Y032974D01*
X002067Y032962D01*
X002128Y032953D01*
X002190Y032948D01*
X002190Y033042D01*
X002132Y033047D01*
X002075Y033056D01*
X002018Y033068D01*
X001962Y033084D01*
X001907Y033104D01*
X001854Y033126D01*
X001802Y033153D01*
X001752Y033182D01*
X001704Y033215D01*
X001658Y033250D01*
X001615Y033289D01*
X001574Y033330D01*
X001535Y033373D01*
X001500Y033419D01*
X001467Y033467D01*
X001438Y033517D01*
X001411Y033569D01*
X001389Y033622D01*
X001369Y033677D01*
X001353Y033733D01*
X001341Y033790D01*
X001332Y033847D01*
X001327Y033905D01*
X001422Y033905D01*
X001427Y033849D01*
X001436Y033793D01*
X001449Y033738D01*
X001466Y033684D01*
X001487Y033631D01*
X001511Y033580D01*
X001538Y033531D01*
X001569Y033483D01*
X001603Y033438D01*
X001641Y033396D01*
X001681Y033356D01*
X001723Y033318D01*
X001768Y033284D01*
X001816Y033253D01*
X001865Y033226D01*
X001916Y033202D01*
X001969Y033181D01*
X002023Y033164D01*
X002078Y033151D01*
X002134Y033142D01*
X002190Y033137D01*
X002190Y033231D01*
X002138Y033236D01*
X002087Y033245D01*
X002037Y033258D01*
X001987Y033274D01*
X001939Y033294D01*
X001893Y033317D01*
X001848Y033344D01*
X001805Y033374D01*
X001765Y033406D01*
X001727Y033442D01*
X001691Y033480D01*
X001659Y033520D01*
X001629Y033563D01*
X001602Y033608D01*
X001579Y033654D01*
X001559Y033702D01*
X001543Y033752D01*
X001530Y033802D01*
X001521Y033853D01*
X001516Y033905D01*
X001610Y033905D01*
X001616Y033856D01*
X001626Y033807D01*
X001639Y033759D01*
X001656Y033713D01*
X001677Y033668D01*
X001701Y033625D01*
X001729Y033583D01*
X001759Y033545D01*
X001793Y033508D01*
X001830Y033474D01*
X001868Y033444D01*
X001910Y033416D01*
X001953Y033392D01*
X001998Y033371D01*
X002044Y033354D01*
X002092Y033341D01*
X002141Y033331D01*
X002190Y033325D01*
X002190Y033419D01*
X002147Y033425D01*
X002104Y033435D01*
X002062Y033447D01*
X002021Y033463D01*
X001982Y033483D01*
X001944Y033505D01*
X001909Y033531D01*
X001875Y033559D01*
X001844Y033590D01*
X001816Y033624D01*
X001790Y033659D01*
X001768Y033697D01*
X001748Y033736D01*
X001732Y033777D01*
X001720Y033819D01*
X001710Y033862D01*
X001704Y033905D01*
X001799Y033905D01*
X001805Y033866D01*
X001815Y033827D01*
X001828Y033790D01*
X001844Y033753D01*
X001864Y033719D01*
X001887Y033686D01*
X001912Y033655D01*
X001940Y033627D01*
X001971Y033602D01*
X002004Y033579D01*
X002038Y033559D01*
X002075Y033543D01*
X002112Y033530D01*
X002151Y033520D01*
X002190Y033514D01*
X014704Y020880D02*
X014737Y020958D01*
X014815Y020991D01*
X014893Y020958D01*
X014926Y020880D01*
X014893Y020802D01*
X014815Y020769D01*
X014737Y020802D01*
X014704Y020880D01*
X017925Y013334D02*
X034854Y013334D01*
X034854Y009634D01*
X017925Y009634D01*
X017925Y012271D01*
X017897Y012273D01*
X017869Y012278D01*
X017842Y012288D01*
X017816Y012300D01*
X017793Y012316D01*
X017772Y012335D01*
X017753Y012356D01*
X017737Y012380D01*
X017725Y012405D01*
X017715Y012432D01*
X017710Y012460D01*
X017708Y012488D01*
X017710Y012516D01*
X017715Y012544D01*
X017725Y012571D01*
X017737Y012597D01*
X017753Y012620D01*
X017772Y012641D01*
X017793Y012660D01*
X017816Y012676D01*
X017842Y012688D01*
X017869Y012698D01*
X017897Y012703D01*
X017925Y012705D01*
X017925Y012704D02*
X017925Y013334D01*
X017886Y010893D02*
X017610Y010893D01*
X017650Y010146D02*
X017621Y010105D01*
X017589Y010066D01*
X017554Y010029D01*
X017517Y009996D01*
X017477Y009965D01*
X017435Y009938D01*
X017391Y009913D01*
X017345Y009893D01*
X017297Y009876D01*
X017249Y009862D01*
X017199Y009853D01*
X017149Y009847D01*
X017099Y009845D01*
X017049Y009847D01*
X016999Y009853D01*
X016949Y009862D01*
X016901Y009876D01*
X016853Y009893D01*
X016807Y009913D01*
X016763Y009938D01*
X016721Y009965D01*
X016681Y009996D01*
X016644Y010029D01*
X016609Y010066D01*
X016577Y010105D01*
X016548Y010146D01*
X016547Y010145D02*
X016547Y010854D01*
X016548Y010854D02*
X016577Y010895D01*
X016609Y010934D01*
X016644Y010971D01*
X016681Y011004D01*
X016721Y011035D01*
X016763Y011062D01*
X016807Y011087D01*
X016853Y011107D01*
X016901Y011124D01*
X016949Y011138D01*
X016999Y011147D01*
X017049Y011153D01*
X017099Y011155D01*
X017149Y011153D01*
X017199Y011147D01*
X017249Y011138D01*
X017297Y011124D01*
X017345Y011107D01*
X017391Y011087D01*
X017435Y011062D01*
X017477Y011035D01*
X017517Y011004D01*
X017554Y010971D01*
X017589Y010934D01*
X017621Y010895D01*
X017650Y010854D01*
X017610Y010106D02*
X017886Y010106D01*
X025563Y009594D02*
X025563Y008925D01*
X027217Y008925D01*
X027217Y009594D01*
X034894Y010106D02*
X035169Y010106D01*
X035130Y010854D02*
X035159Y010895D01*
X035191Y010934D01*
X035226Y010971D01*
X035263Y011004D01*
X035303Y011035D01*
X035345Y011062D01*
X035389Y011087D01*
X035435Y011107D01*
X035483Y011124D01*
X035531Y011138D01*
X035581Y011147D01*
X035631Y011153D01*
X035681Y011155D01*
X035731Y011153D01*
X035781Y011147D01*
X035831Y011138D01*
X035879Y011124D01*
X035927Y011107D01*
X035973Y011087D01*
X036017Y011062D01*
X036059Y011035D01*
X036099Y011004D01*
X036136Y010971D01*
X036171Y010934D01*
X036203Y010895D01*
X036232Y010854D01*
X036232Y010145D01*
X036232Y010146D02*
X036203Y010105D01*
X036171Y010066D01*
X036136Y010029D01*
X036099Y009996D01*
X036059Y009965D01*
X036017Y009938D01*
X035973Y009913D01*
X035927Y009893D01*
X035879Y009876D01*
X035831Y009862D01*
X035781Y009853D01*
X035731Y009847D01*
X035681Y009845D01*
X035631Y009847D01*
X035581Y009853D01*
X035531Y009862D01*
X035483Y009876D01*
X035435Y009893D01*
X035389Y009913D01*
X035345Y009938D01*
X035303Y009965D01*
X035263Y009996D01*
X035226Y010029D01*
X035191Y010066D01*
X035159Y010105D01*
X035130Y010146D01*
X035169Y010893D02*
X034894Y010893D01*
X040279Y003504D02*
X039396Y003504D01*
X039397Y003505D02*
X039390Y003543D01*
X039380Y003581D01*
X039367Y003617D01*
X039350Y003652D01*
X039329Y003685D01*
X039306Y003716D01*
X039280Y003745D01*
X039251Y003771D01*
X039220Y003794D01*
X039187Y003815D01*
X039152Y003832D01*
X039116Y003845D01*
X039078Y003855D01*
X039040Y003862D01*
X039039Y004744D01*
X039040Y004744D01*
X039111Y004739D01*
X039182Y004731D01*
X039252Y004718D01*
X039322Y004702D01*
X039390Y004681D01*
X039457Y004657D01*
X039523Y004630D01*
X039587Y004599D01*
X039649Y004564D01*
X039710Y004526D01*
X039768Y004484D01*
X039823Y004440D01*
X039877Y004392D01*
X039927Y004342D01*
X039975Y004288D01*
X040019Y004233D01*
X040061Y004175D01*
X040099Y004114D01*
X040134Y004052D01*
X040165Y003988D01*
X040192Y003922D01*
X040216Y003855D01*
X040237Y003787D01*
X040253Y003717D01*
X040266Y003647D01*
X040274Y003576D01*
X040279Y003505D01*
X040185Y003505D01*
X040180Y003573D01*
X040171Y003641D01*
X040159Y003708D01*
X040142Y003775D01*
X040122Y003840D01*
X040098Y003904D01*
X040071Y003967D01*
X040040Y004028D01*
X040005Y004087D01*
X039968Y004144D01*
X039927Y004199D01*
X039883Y004251D01*
X039836Y004301D01*
X039786Y004348D01*
X039734Y004392D01*
X039679Y004433D01*
X039622Y004470D01*
X039563Y004505D01*
X039502Y004536D01*
X039439Y004563D01*
X039375Y004587D01*
X039310Y004607D01*
X039243Y004624D01*
X039176Y004636D01*
X039108Y004645D01*
X039040Y004650D01*
X039040Y004556D01*
X039105Y004551D01*
X039170Y004542D01*
X039234Y004530D01*
X039297Y004513D01*
X039359Y004493D01*
X039420Y004470D01*
X039479Y004443D01*
X039537Y004412D01*
X039592Y004378D01*
X039646Y004341D01*
X039697Y004300D01*
X039746Y004257D01*
X039792Y004211D01*
X039835Y004162D01*
X039876Y004111D01*
X039913Y004057D01*
X039947Y004002D01*
X039978Y003944D01*
X040005Y003885D01*
X040028Y003824D01*
X040048Y003762D01*
X040065Y003699D01*
X040077Y003635D01*
X040086Y003570D01*
X040091Y003505D01*
X039997Y003505D01*
X039992Y003567D01*
X039983Y003628D01*
X039971Y003688D01*
X039954Y003748D01*
X039935Y003806D01*
X039911Y003864D01*
X039885Y003919D01*
X039855Y003973D01*
X039821Y004025D01*
X039785Y004075D01*
X039745Y004123D01*
X039703Y004168D01*
X039658Y004210D01*
X039610Y004250D01*
X039560Y004286D01*
X039508Y004320D01*
X039454Y004350D01*
X039399Y004376D01*
X039341Y004400D01*
X039283Y004419D01*
X039223Y004436D01*
X039163Y004448D01*
X039102Y004457D01*
X039040Y004462D01*
X039040Y004368D01*
X039098Y004363D01*
X039155Y004354D01*
X039212Y004342D01*
X039268Y004326D01*
X039323Y004306D01*
X039376Y004284D01*
X039428Y004257D01*
X039478Y004228D01*
X039526Y004195D01*
X039572Y004160D01*
X039615Y004121D01*
X039656Y004080D01*
X039695Y004037D01*
X039730Y003991D01*
X039763Y003943D01*
X039792Y003893D01*
X039819Y003841D01*
X039841Y003788D01*
X039861Y003733D01*
X039877Y003677D01*
X039889Y003620D01*
X039898Y003563D01*
X039903Y003505D01*
X039808Y003505D01*
X039803Y003561D01*
X039794Y003617D01*
X039781Y003672D01*
X039764Y003726D01*
X039743Y003779D01*
X039719Y003830D01*
X039692Y003879D01*
X039661Y003927D01*
X039627Y003972D01*
X039589Y004014D01*
X039549Y004054D01*
X039507Y004092D01*
X039462Y004126D01*
X039414Y004157D01*
X039365Y004184D01*
X039314Y004208D01*
X039261Y004229D01*
X039207Y004246D01*
X039152Y004259D01*
X039096Y004268D01*
X039040Y004273D01*
X039040Y004179D01*
X039092Y004174D01*
X039143Y004165D01*
X039193Y004152D01*
X039243Y004136D01*
X039291Y004116D01*
X039337Y004093D01*
X039382Y004066D01*
X039425Y004036D01*
X039465Y004004D01*
X039503Y003968D01*
X039539Y003930D01*
X039571Y003890D01*
X039601Y003847D01*
X039628Y003802D01*
X039651Y003756D01*
X039671Y003708D01*
X039687Y003658D01*
X039700Y003608D01*
X039709Y003557D01*
X039714Y003505D01*
X039620Y003505D01*
X039614Y003554D01*
X039604Y003603D01*
X039591Y003651D01*
X039574Y003697D01*
X039553Y003742D01*
X039529Y003785D01*
X039501Y003827D01*
X039471Y003865D01*
X039437Y003902D01*
X039400Y003936D01*
X039362Y003966D01*
X039320Y003994D01*
X039277Y004018D01*
X039232Y004039D01*
X039186Y004056D01*
X039138Y004069D01*
X039089Y004079D01*
X039040Y004085D01*
X039040Y003991D01*
X039083Y003985D01*
X039126Y003975D01*
X039168Y003963D01*
X039209Y003947D01*
X039248Y003927D01*
X039286Y003905D01*
X039321Y003879D01*
X039355Y003851D01*
X039386Y003820D01*
X039414Y003786D01*
X039440Y003751D01*
X039462Y003713D01*
X039482Y003674D01*
X039498Y003633D01*
X039510Y003591D01*
X039520Y003548D01*
X039526Y003505D01*
X039431Y003505D01*
X039425Y003544D01*
X039415Y003583D01*
X039402Y003620D01*
X039386Y003657D01*
X039366Y003691D01*
X039343Y003724D01*
X039318Y003755D01*
X039290Y003783D01*
X039259Y003808D01*
X039226Y003831D01*
X039192Y003851D01*
X039155Y003867D01*
X039118Y003880D01*
X039079Y003890D01*
X039040Y003896D01*
X037701Y003406D02*
X038584Y003406D01*
X038583Y003405D02*
X038590Y003367D01*
X038600Y003329D01*
X038613Y003293D01*
X038630Y003258D01*
X038651Y003225D01*
X038674Y003194D01*
X038700Y003165D01*
X038729Y003139D01*
X038760Y003116D01*
X038793Y003095D01*
X038828Y003078D01*
X038864Y003065D01*
X038902Y003055D01*
X038940Y003048D01*
X038941Y002166D01*
X038940Y002166D01*
X038869Y002171D01*
X038798Y002179D01*
X038728Y002192D01*
X038658Y002208D01*
X038590Y002229D01*
X038523Y002253D01*
X038457Y002280D01*
X038393Y002311D01*
X038331Y002346D01*
X038270Y002384D01*
X038212Y002426D01*
X038157Y002470D01*
X038103Y002518D01*
X038053Y002568D01*
X038005Y002622D01*
X037961Y002677D01*
X037919Y002735D01*
X037881Y002796D01*
X037846Y002858D01*
X037815Y002922D01*
X037788Y002988D01*
X037764Y003055D01*
X037743Y003123D01*
X037727Y003193D01*
X037714Y003263D01*
X037706Y003334D01*
X037701Y003405D01*
X037795Y003405D01*
X037800Y003337D01*
X037809Y003269D01*
X037821Y003202D01*
X037838Y003135D01*
X037858Y003070D01*
X037882Y003006D01*
X037909Y002943D01*
X037940Y002882D01*
X037975Y002823D01*
X038012Y002766D01*
X038053Y002711D01*
X038097Y002659D01*
X038144Y002609D01*
X038194Y002562D01*
X038246Y002518D01*
X038301Y002477D01*
X038358Y002440D01*
X038417Y002405D01*
X038478Y002374D01*
X038541Y002347D01*
X038605Y002323D01*
X038670Y002303D01*
X038737Y002286D01*
X038804Y002274D01*
X038872Y002265D01*
X038940Y002260D01*
X038940Y002354D01*
X038875Y002359D01*
X038810Y002368D01*
X038746Y002380D01*
X038683Y002397D01*
X038621Y002417D01*
X038560Y002440D01*
X038501Y002467D01*
X038443Y002498D01*
X038388Y002532D01*
X038334Y002569D01*
X038283Y002610D01*
X038234Y002653D01*
X038188Y002699D01*
X038145Y002748D01*
X038104Y002799D01*
X038067Y002853D01*
X038033Y002908D01*
X038002Y002966D01*
X037975Y003025D01*
X037952Y003086D01*
X037932Y003148D01*
X037915Y003211D01*
X037903Y003275D01*
X037894Y003340D01*
X037889Y003405D01*
X037983Y003405D01*
X037988Y003343D01*
X037997Y003282D01*
X038009Y003222D01*
X038026Y003162D01*
X038045Y003104D01*
X038069Y003046D01*
X038095Y002991D01*
X038125Y002937D01*
X038159Y002885D01*
X038195Y002835D01*
X038235Y002787D01*
X038277Y002742D01*
X038322Y002700D01*
X038370Y002660D01*
X038420Y002624D01*
X038472Y002590D01*
X038526Y002560D01*
X038581Y002534D01*
X038639Y002510D01*
X038697Y002491D01*
X038757Y002474D01*
X038817Y002462D01*
X038878Y002453D01*
X038940Y002448D01*
X038940Y002542D01*
X038882Y002547D01*
X038825Y002556D01*
X038768Y002568D01*
X038712Y002584D01*
X038657Y002604D01*
X038604Y002626D01*
X038552Y002653D01*
X038502Y002682D01*
X038454Y002715D01*
X038408Y002750D01*
X038365Y002789D01*
X038324Y002830D01*
X038285Y002873D01*
X038250Y002919D01*
X038217Y002967D01*
X038188Y003017D01*
X038161Y003069D01*
X038139Y003122D01*
X038119Y003177D01*
X038103Y003233D01*
X038091Y003290D01*
X038082Y003347D01*
X038077Y003405D01*
X038172Y003405D01*
X038177Y003349D01*
X038186Y003293D01*
X038199Y003238D01*
X038216Y003184D01*
X038237Y003131D01*
X038261Y003080D01*
X038288Y003031D01*
X038319Y002983D01*
X038353Y002938D01*
X038391Y002896D01*
X038431Y002856D01*
X038473Y002818D01*
X038518Y002784D01*
X038566Y002753D01*
X038615Y002726D01*
X038666Y002702D01*
X038719Y002681D01*
X038773Y002664D01*
X038828Y002651D01*
X038884Y002642D01*
X038940Y002637D01*
X038940Y002731D01*
X038888Y002736D01*
X038837Y002745D01*
X038787Y002758D01*
X038737Y002774D01*
X038689Y002794D01*
X038643Y002817D01*
X038598Y002844D01*
X038555Y002874D01*
X038515Y002906D01*
X038477Y002942D01*
X038441Y002980D01*
X038409Y003020D01*
X038379Y003063D01*
X038352Y003108D01*
X038329Y003154D01*
X038309Y003202D01*
X038293Y003252D01*
X038280Y003302D01*
X038271Y003353D01*
X038266Y003405D01*
X038360Y003405D01*
X038366Y003356D01*
X038376Y003307D01*
X038389Y003259D01*
X038406Y003213D01*
X038427Y003168D01*
X038451Y003125D01*
X038479Y003083D01*
X038509Y003045D01*
X038543Y003008D01*
X038580Y002974D01*
X038618Y002944D01*
X038660Y002916D01*
X038703Y002892D01*
X038748Y002871D01*
X038794Y002854D01*
X038842Y002841D01*
X038891Y002831D01*
X038940Y002825D01*
X038940Y002919D01*
X038897Y002925D01*
X038854Y002935D01*
X038812Y002947D01*
X038771Y002963D01*
X038732Y002983D01*
X038694Y003005D01*
X038659Y003031D01*
X038625Y003059D01*
X038594Y003090D01*
X038566Y003124D01*
X038540Y003159D01*
X038518Y003197D01*
X038498Y003236D01*
X038482Y003277D01*
X038470Y003319D01*
X038460Y003362D01*
X038454Y003405D01*
X038549Y003405D01*
X038555Y003366D01*
X038565Y003327D01*
X038578Y003290D01*
X038594Y003253D01*
X038614Y003219D01*
X038637Y003186D01*
X038662Y003155D01*
X038690Y003127D01*
X038721Y003102D01*
X038754Y003079D01*
X038788Y003059D01*
X038825Y003043D01*
X038862Y003030D01*
X038901Y003020D01*
X038940Y003014D01*
X040279Y034004D02*
X039396Y034004D01*
X039397Y034005D02*
X039390Y034043D01*
X039380Y034081D01*
X039367Y034117D01*
X039350Y034152D01*
X039329Y034185D01*
X039306Y034216D01*
X039280Y034245D01*
X039251Y034271D01*
X039220Y034294D01*
X039187Y034315D01*
X039152Y034332D01*
X039116Y034345D01*
X039078Y034355D01*
X039040Y034362D01*
X039039Y035244D01*
X039040Y035244D01*
X039111Y035239D01*
X039182Y035231D01*
X039252Y035218D01*
X039322Y035202D01*
X039390Y035181D01*
X039457Y035157D01*
X039523Y035130D01*
X039587Y035099D01*
X039649Y035064D01*
X039710Y035026D01*
X039768Y034984D01*
X039823Y034940D01*
X039877Y034892D01*
X039927Y034842D01*
X039975Y034788D01*
X040019Y034733D01*
X040061Y034675D01*
X040099Y034614D01*
X040134Y034552D01*
X040165Y034488D01*
X040192Y034422D01*
X040216Y034355D01*
X040237Y034287D01*
X040253Y034217D01*
X040266Y034147D01*
X040274Y034076D01*
X040279Y034005D01*
X040185Y034005D01*
X040180Y034073D01*
X040171Y034141D01*
X040159Y034208D01*
X040142Y034275D01*
X040122Y034340D01*
X040098Y034404D01*
X040071Y034467D01*
X040040Y034528D01*
X040005Y034587D01*
X039968Y034644D01*
X039927Y034699D01*
X039883Y034751D01*
X039836Y034801D01*
X039786Y034848D01*
X039734Y034892D01*
X039679Y034933D01*
X039622Y034970D01*
X039563Y035005D01*
X039502Y035036D01*
X039439Y035063D01*
X039375Y035087D01*
X039310Y035107D01*
X039243Y035124D01*
X039176Y035136D01*
X039108Y035145D01*
X039040Y035150D01*
X039040Y035056D01*
X039105Y035051D01*
X039170Y035042D01*
X039234Y035030D01*
X039297Y035013D01*
X039359Y034993D01*
X039420Y034970D01*
X039479Y034943D01*
X039537Y034912D01*
X039592Y034878D01*
X039646Y034841D01*
X039697Y034800D01*
X039746Y034757D01*
X039792Y034711D01*
X039835Y034662D01*
X039876Y034611D01*
X039913Y034557D01*
X039947Y034502D01*
X039978Y034444D01*
X040005Y034385D01*
X040028Y034324D01*
X040048Y034262D01*
X040065Y034199D01*
X040077Y034135D01*
X040086Y034070D01*
X040091Y034005D01*
X039997Y034005D01*
X039992Y034067D01*
X039983Y034128D01*
X039971Y034188D01*
X039954Y034248D01*
X039935Y034306D01*
X039911Y034364D01*
X039885Y034419D01*
X039855Y034473D01*
X039821Y034525D01*
X039785Y034575D01*
X039745Y034623D01*
X039703Y034668D01*
X039658Y034710D01*
X039610Y034750D01*
X039560Y034786D01*
X039508Y034820D01*
X039454Y034850D01*
X039399Y034876D01*
X039341Y034900D01*
X039283Y034919D01*
X039223Y034936D01*
X039163Y034948D01*
X039102Y034957D01*
X039040Y034962D01*
X039040Y034868D01*
X039098Y034863D01*
X039155Y034854D01*
X039212Y034842D01*
X039268Y034826D01*
X039323Y034806D01*
X039376Y034784D01*
X039428Y034757D01*
X039478Y034728D01*
X039526Y034695D01*
X039572Y034660D01*
X039615Y034621D01*
X039656Y034580D01*
X039695Y034537D01*
X039730Y034491D01*
X039763Y034443D01*
X039792Y034393D01*
X039819Y034341D01*
X039841Y034288D01*
X039861Y034233D01*
X039877Y034177D01*
X039889Y034120D01*
X039898Y034063D01*
X039903Y034005D01*
X039808Y034005D01*
X039803Y034061D01*
X039794Y034117D01*
X039781Y034172D01*
X039764Y034226D01*
X039743Y034279D01*
X039719Y034330D01*
X039692Y034379D01*
X039661Y034427D01*
X039627Y034472D01*
X039589Y034514D01*
X039549Y034554D01*
X039507Y034592D01*
X039462Y034626D01*
X039414Y034657D01*
X039365Y034684D01*
X039314Y034708D01*
X039261Y034729D01*
X039207Y034746D01*
X039152Y034759D01*
X039096Y034768D01*
X039040Y034773D01*
X039040Y034679D01*
X039092Y034674D01*
X039143Y034665D01*
X039193Y034652D01*
X039243Y034636D01*
X039291Y034616D01*
X039337Y034593D01*
X039382Y034566D01*
X039425Y034536D01*
X039465Y034504D01*
X039503Y034468D01*
X039539Y034430D01*
X039571Y034390D01*
X039601Y034347D01*
X039628Y034302D01*
X039651Y034256D01*
X039671Y034208D01*
X039687Y034158D01*
X039700Y034108D01*
X039709Y034057D01*
X039714Y034005D01*
X039620Y034005D01*
X039614Y034054D01*
X039604Y034103D01*
X039591Y034151D01*
X039574Y034197D01*
X039553Y034242D01*
X039529Y034285D01*
X039501Y034327D01*
X039471Y034365D01*
X039437Y034402D01*
X039400Y034436D01*
X039362Y034466D01*
X039320Y034494D01*
X039277Y034518D01*
X039232Y034539D01*
X039186Y034556D01*
X039138Y034569D01*
X039089Y034579D01*
X039040Y034585D01*
X039040Y034491D01*
X039083Y034485D01*
X039126Y034475D01*
X039168Y034463D01*
X039209Y034447D01*
X039248Y034427D01*
X039286Y034405D01*
X039321Y034379D01*
X039355Y034351D01*
X039386Y034320D01*
X039414Y034286D01*
X039440Y034251D01*
X039462Y034213D01*
X039482Y034174D01*
X039498Y034133D01*
X039510Y034091D01*
X039520Y034048D01*
X039526Y034005D01*
X039431Y034005D01*
X039425Y034044D01*
X039415Y034083D01*
X039402Y034120D01*
X039386Y034157D01*
X039366Y034191D01*
X039343Y034224D01*
X039318Y034255D01*
X039290Y034283D01*
X039259Y034308D01*
X039226Y034331D01*
X039192Y034351D01*
X039155Y034367D01*
X039118Y034380D01*
X039079Y034390D01*
X039040Y034396D01*
X037701Y033906D02*
X038584Y033906D01*
X038583Y033905D02*
X038590Y033867D01*
X038600Y033829D01*
X038613Y033793D01*
X038630Y033758D01*
X038651Y033725D01*
X038674Y033694D01*
X038700Y033665D01*
X038729Y033639D01*
X038760Y033616D01*
X038793Y033595D01*
X038828Y033578D01*
X038864Y033565D01*
X038902Y033555D01*
X038940Y033548D01*
X038941Y032666D01*
X038940Y032666D01*
X038869Y032671D01*
X038798Y032679D01*
X038728Y032692D01*
X038658Y032708D01*
X038590Y032729D01*
X038523Y032753D01*
X038457Y032780D01*
X038393Y032811D01*
X038331Y032846D01*
X038270Y032884D01*
X038212Y032926D01*
X038157Y032970D01*
X038103Y033018D01*
X038053Y033068D01*
X038005Y033122D01*
X037961Y033177D01*
X037919Y033235D01*
X037881Y033296D01*
X037846Y033358D01*
X037815Y033422D01*
X037788Y033488D01*
X037764Y033555D01*
X037743Y033623D01*
X037727Y033693D01*
X037714Y033763D01*
X037706Y033834D01*
X037701Y033905D01*
X037795Y033905D01*
X037800Y033837D01*
X037809Y033769D01*
X037821Y033702D01*
X037838Y033635D01*
X037858Y033570D01*
X037882Y033506D01*
X037909Y033443D01*
X037940Y033382D01*
X037975Y033323D01*
X038012Y033266D01*
X038053Y033211D01*
X038097Y033159D01*
X038144Y033109D01*
X038194Y033062D01*
X038246Y033018D01*
X038301Y032977D01*
X038358Y032940D01*
X038417Y032905D01*
X038478Y032874D01*
X038541Y032847D01*
X038605Y032823D01*
X038670Y032803D01*
X038737Y032786D01*
X038804Y032774D01*
X038872Y032765D01*
X038940Y032760D01*
X038940Y032854D01*
X038875Y032859D01*
X038810Y032868D01*
X038746Y032880D01*
X038683Y032897D01*
X038621Y032917D01*
X038560Y032940D01*
X038501Y032967D01*
X038443Y032998D01*
X038388Y033032D01*
X038334Y033069D01*
X038283Y033110D01*
X038234Y033153D01*
X038188Y033199D01*
X038145Y033248D01*
X038104Y033299D01*
X038067Y033353D01*
X038033Y033408D01*
X038002Y033466D01*
X037975Y033525D01*
X037952Y033586D01*
X037932Y033648D01*
X037915Y033711D01*
X037903Y033775D01*
X037894Y033840D01*
X037889Y033905D01*
X037983Y033905D01*
X037988Y033843D01*
X037997Y033782D01*
X038009Y033722D01*
X038026Y033662D01*
X038045Y033604D01*
X038069Y033546D01*
X038095Y033491D01*
X038125Y033437D01*
X038159Y033385D01*
X038195Y033335D01*
X038235Y033287D01*
X038277Y033242D01*
X038322Y033200D01*
X038370Y033160D01*
X038420Y033124D01*
X038472Y033090D01*
X038526Y033060D01*
X038581Y033034D01*
X038639Y033010D01*
X038697Y032991D01*
X038757Y032974D01*
X038817Y032962D01*
X038878Y032953D01*
X038940Y032948D01*
X038940Y033042D01*
X038882Y033047D01*
X038825Y033056D01*
X038768Y033068D01*
X038712Y033084D01*
X038657Y033104D01*
X038604Y033126D01*
X038552Y033153D01*
X038502Y033182D01*
X038454Y033215D01*
X038408Y033250D01*
X038365Y033289D01*
X038324Y033330D01*
X038285Y033373D01*
X038250Y033419D01*
X038217Y033467D01*
X038188Y033517D01*
X038161Y033569D01*
X038139Y033622D01*
X038119Y033677D01*
X038103Y033733D01*
X038091Y033790D01*
X038082Y033847D01*
X038077Y033905D01*
X038172Y033905D01*
X038177Y033849D01*
X038186Y033793D01*
X038199Y033738D01*
X038216Y033684D01*
X038237Y033631D01*
X038261Y033580D01*
X038288Y033531D01*
X038319Y033483D01*
X038353Y033438D01*
X038391Y033396D01*
X038431Y033356D01*
X038473Y033318D01*
X038518Y033284D01*
X038566Y033253D01*
X038615Y033226D01*
X038666Y033202D01*
X038719Y033181D01*
X038773Y033164D01*
X038828Y033151D01*
X038884Y033142D01*
X038940Y033137D01*
X038940Y033231D01*
X038888Y033236D01*
X038837Y033245D01*
X038787Y033258D01*
X038737Y033274D01*
X038689Y033294D01*
X038643Y033317D01*
X038598Y033344D01*
X038555Y033374D01*
X038515Y033406D01*
X038477Y033442D01*
X038441Y033480D01*
X038409Y033520D01*
X038379Y033563D01*
X038352Y033608D01*
X038329Y033654D01*
X038309Y033702D01*
X038293Y033752D01*
X038280Y033802D01*
X038271Y033853D01*
X038266Y033905D01*
X038360Y033905D01*
X038366Y033856D01*
X038376Y033807D01*
X038389Y033759D01*
X038406Y033713D01*
X038427Y033668D01*
X038451Y033625D01*
X038479Y033583D01*
X038509Y033545D01*
X038543Y033508D01*
X038580Y033474D01*
X038618Y033444D01*
X038660Y033416D01*
X038703Y033392D01*
X038748Y033371D01*
X038794Y033354D01*
X038842Y033341D01*
X038891Y033331D01*
X038940Y033325D01*
X038940Y033419D01*
X038897Y033425D01*
X038854Y033435D01*
X038812Y033447D01*
X038771Y033463D01*
X038732Y033483D01*
X038694Y033505D01*
X038659Y033531D01*
X038625Y033559D01*
X038594Y033590D01*
X038566Y033624D01*
X038540Y033659D01*
X038518Y033697D01*
X038498Y033736D01*
X038482Y033777D01*
X038470Y033819D01*
X038460Y033862D01*
X038454Y033905D01*
X038549Y033905D01*
X038555Y033866D01*
X038565Y033827D01*
X038578Y033790D01*
X038594Y033753D01*
X038614Y033719D01*
X038637Y033686D01*
X038662Y033655D01*
X038690Y033627D01*
X038721Y033602D01*
X038754Y033579D01*
X038788Y033559D01*
X038825Y033543D01*
X038862Y033530D01*
X038901Y033520D01*
X038940Y033514D01*
D38*
X017965Y024630D03*
X016390Y024630D03*
X014815Y024630D03*
X014815Y020280D03*
X016390Y020280D03*
X017965Y020280D03*
D39*
X017650Y020280D03*
X017335Y020280D03*
X015445Y020280D03*
X015130Y020280D03*
X015130Y024630D03*
X015445Y024630D03*
X017335Y024630D03*
X017650Y024630D03*
D40*
X017020Y024630D03*
X016705Y024630D03*
X016075Y024630D03*
X015760Y024630D03*
X015760Y020280D03*
X016075Y020280D03*
X016705Y020280D03*
X017020Y020280D03*
D41*
X018565Y020880D03*
X018565Y022455D03*
X018565Y024030D03*
X014215Y024030D03*
X014215Y022455D03*
X014215Y020880D03*
D42*
X014215Y021195D03*
X014215Y021510D03*
X014215Y023400D03*
X014215Y023715D03*
X018565Y023715D03*
X018565Y023400D03*
X018565Y021510D03*
X018565Y021195D03*
D43*
X018565Y021825D03*
X018565Y022140D03*
X018565Y022770D03*
X018565Y023085D03*
X014215Y023085D03*
X014215Y022770D03*
X014215Y022140D03*
X014215Y021825D03*
D44*
X020586Y015855D03*
X020586Y015355D03*
X020586Y014855D03*
X020586Y014355D03*
X022594Y014355D03*
X022594Y014855D03*
X022594Y015355D03*
X022594Y015855D03*
D45*
X023090Y014105D02*
X020090Y014105D01*
D46*
X037190Y015755D02*
X037190Y016505D01*
X037190Y025505D02*
X037190Y026255D01*
D47*
X037190Y025235D03*
X037190Y016775D03*
M02*
