G75*
G70*
%OFA0B0*%
%FSLAX24Y24*%
%IPPOS*%
%LPD*%
%AMOC8*
5,1,8,0,0,1.08239X$1,22.5*
%
%ADD10R,0.0710X0.0790*%
%ADD11OC8,0.0640*%
%ADD12R,0.0789X0.0710*%
%ADD13C,0.0680*%
%ADD14R,0.0671X0.0671*%
%ADD15R,0.0710X0.0789*%
%ADD16R,0.1261X0.0710*%
%ADD17C,0.0966*%
%ADD18R,0.0790X0.0710*%
%ADD19C,0.1261*%
%ADD20R,0.0671X0.0474*%
%ADD21R,0.0671X0.0356*%
%ADD22R,0.1261X0.0867*%
%ADD23C,0.0513*%
%ADD24C,0.0710*%
%ADD25R,0.0277X0.0671*%
%ADD26R,0.0671X0.0277*%
%ADD27C,0.0600*%
%ADD28R,0.0907X0.0907*%
%ADD29R,0.0946X0.0316*%
%ADD30C,0.1360*%
%ADD31C,0.0630*%
%ADD32OC8,0.1080*%
%ADD33OC8,0.0680*%
%ADD34C,0.0480*%
%ADD35C,0.0476*%
%ADD36R,0.0476X0.0476*%
D10*
X007530Y015605D03*
X008650Y015605D03*
X010080Y015605D03*
X011200Y015605D03*
X005850Y018555D03*
X004730Y018555D03*
X003700Y018555D03*
X002580Y018555D03*
X032180Y022255D03*
X033300Y022255D03*
D11*
X029390Y021905D03*
X029390Y020905D03*
X029390Y019905D03*
X029390Y018905D03*
X028390Y018905D03*
X028390Y019905D03*
X028390Y020905D03*
X028390Y021905D03*
X028390Y022905D03*
X029390Y022905D03*
X029640Y031955D03*
X028640Y031955D03*
X027640Y031955D03*
X026640Y031955D03*
X025640Y031955D03*
X025640Y032955D03*
X026640Y032955D03*
X027640Y032955D03*
X028640Y032955D03*
X029640Y032955D03*
X019890Y032955D03*
X019890Y031955D03*
X018890Y031955D03*
X017890Y031955D03*
X016890Y031955D03*
X015890Y031955D03*
X015890Y032955D03*
X016890Y032955D03*
X017890Y032955D03*
X018890Y032955D03*
X010140Y032955D03*
X009140Y032955D03*
X009140Y031955D03*
X010140Y031955D03*
X008140Y031955D03*
X007140Y031955D03*
X006140Y031955D03*
X006140Y032955D03*
X007140Y032955D03*
X008140Y032955D03*
X004490Y023155D03*
X003490Y023155D03*
X003490Y022155D03*
X004490Y022155D03*
X004490Y021155D03*
X003490Y021155D03*
D12*
X001390Y018706D03*
X001390Y017604D03*
X002940Y025804D03*
X002940Y026906D03*
X025940Y024606D03*
X025940Y023504D03*
X025940Y021406D03*
X025940Y020304D03*
D13*
X025990Y017755D02*
X025990Y017155D01*
X024990Y017155D02*
X024990Y017755D01*
X023990Y017755D02*
X023990Y017155D01*
X022990Y017155D02*
X022990Y017755D01*
X021990Y017755D02*
X021990Y017155D01*
X020990Y017155D02*
X020990Y017755D01*
X019990Y017755D02*
X019990Y017155D01*
X018990Y017155D02*
X018990Y017755D01*
X017990Y017755D02*
X017990Y017155D01*
X013990Y017155D02*
X013990Y017755D01*
X012990Y017755D02*
X012990Y017155D01*
X011990Y017155D02*
X011990Y017755D01*
X010990Y017755D02*
X010990Y017155D01*
X009990Y017155D02*
X009990Y017755D01*
X008990Y017755D02*
X008990Y017155D01*
X007990Y017155D02*
X007990Y017755D01*
X006990Y017755D02*
X006990Y017155D01*
X001640Y020705D02*
X001040Y020705D01*
X001040Y021705D02*
X001640Y021705D01*
X001640Y022705D02*
X001040Y022705D01*
X001040Y023705D02*
X001640Y023705D01*
X001640Y024705D02*
X001040Y024705D01*
X001040Y025705D02*
X001640Y025705D01*
X003990Y025855D02*
X004590Y025855D01*
X004590Y026855D02*
X003990Y026855D01*
X006990Y027155D02*
X006990Y027755D01*
X007990Y027755D02*
X007990Y027155D01*
X008990Y027155D02*
X008990Y027755D01*
X009990Y027755D02*
X009990Y027155D01*
X010990Y027155D02*
X010990Y027755D01*
X011990Y027755D02*
X011990Y027155D01*
X012990Y027155D02*
X012990Y027755D01*
X013990Y027755D02*
X013990Y027155D01*
X014990Y027155D02*
X014990Y027755D01*
X017990Y027755D02*
X017990Y027155D01*
X018990Y027155D02*
X018990Y027755D01*
X019990Y027755D02*
X019990Y027155D01*
X020990Y027155D02*
X020990Y027755D01*
X021990Y027755D02*
X021990Y027155D01*
X022990Y027155D02*
X022990Y027755D01*
X023990Y027755D02*
X023990Y027155D01*
X024990Y027155D02*
X024990Y027755D01*
X025990Y027755D02*
X025990Y027155D01*
X029310Y027445D02*
X029910Y027445D01*
X029910Y025665D02*
X029310Y025665D01*
X031870Y025665D02*
X032470Y025665D01*
X032470Y027445D02*
X031870Y027445D01*
X032990Y028705D02*
X032990Y029305D01*
X032990Y030105D02*
X032990Y030705D01*
X033990Y030705D02*
X033990Y030105D01*
X033990Y029305D02*
X033990Y028705D01*
X034990Y028705D02*
X034990Y029305D01*
X034990Y030105D02*
X034990Y030705D01*
X034990Y031505D02*
X034990Y032105D01*
X033990Y032105D02*
X033990Y031505D01*
X032990Y031505D02*
X032990Y032105D01*
X032990Y032905D02*
X032990Y033505D01*
X033990Y033505D02*
X033990Y032905D01*
X034990Y032905D02*
X034990Y033505D01*
X035990Y033505D02*
X035990Y032905D01*
X035990Y032105D02*
X035990Y031505D01*
X035990Y030705D02*
X035990Y030105D01*
X035990Y029305D02*
X035990Y028705D01*
D14*
X006029Y017355D03*
X004651Y017355D03*
X003829Y017355D03*
X002451Y017355D03*
D15*
X032239Y020605D03*
X033341Y020605D03*
D16*
X033656Y018055D03*
X031924Y018055D03*
D17*
X038823Y010182D02*
X039709Y010182D01*
X039705Y008611D02*
X038819Y008611D01*
X038819Y007040D02*
X039705Y007040D01*
D18*
X037390Y012445D03*
X037390Y013565D03*
X025890Y014445D03*
X024440Y014445D03*
X024440Y015565D03*
X025890Y015565D03*
X019290Y015615D03*
X019290Y014495D03*
X016390Y014495D03*
X016390Y015615D03*
X015090Y015615D03*
X015090Y014495D03*
X013790Y014495D03*
X013790Y015615D03*
X013840Y013165D03*
X013840Y012045D03*
X015090Y012045D03*
X015090Y013165D03*
X016390Y013165D03*
X016390Y012045D03*
X037590Y029645D03*
X037590Y030765D03*
X038890Y030765D03*
X038890Y029645D03*
D19*
X038990Y033955D03*
X035681Y010504D03*
X038990Y003455D03*
X017099Y010504D03*
X002240Y033955D03*
D20*
X012536Y013718D03*
X012536Y013049D03*
X012536Y012092D03*
X012536Y011108D03*
X012536Y010123D03*
X012536Y009139D03*
X012536Y008155D03*
X012536Y007171D03*
X012536Y006186D03*
D21*
X012536Y014230D03*
X012536Y014702D03*
D22*
X001630Y003600D03*
X001591Y015411D03*
D23*
X011435Y014398D03*
D24*
X011437Y006132D03*
D25*
X014815Y020172D03*
X015130Y020172D03*
X015445Y020172D03*
X015760Y020172D03*
X016075Y020172D03*
X016390Y020172D03*
X016705Y020172D03*
X017020Y020172D03*
X017335Y020172D03*
X017650Y020172D03*
X017965Y020172D03*
X017965Y024739D03*
X017650Y024739D03*
X017335Y024739D03*
X017020Y024739D03*
X016705Y024739D03*
X016390Y024739D03*
X016075Y024739D03*
X015760Y024739D03*
X015445Y024739D03*
X015130Y024739D03*
X014815Y024739D03*
D26*
X014106Y024030D03*
X014106Y023715D03*
X014106Y023400D03*
X014106Y023085D03*
X014106Y022770D03*
X014106Y022455D03*
X014106Y022140D03*
X014106Y021825D03*
X014106Y021510D03*
X014106Y021195D03*
X014106Y020880D03*
X018673Y020880D03*
X018673Y021195D03*
X018673Y021510D03*
X018673Y021825D03*
X018673Y022140D03*
X018673Y022455D03*
X018673Y022770D03*
X018673Y023085D03*
X018673Y023400D03*
X018673Y023715D03*
X018673Y024030D03*
D27*
X022924Y022312D03*
X024268Y020969D03*
D28*
X023910Y012488D03*
X025563Y012488D03*
X027217Y012488D03*
X028870Y012488D03*
X030524Y012488D03*
X032177Y012488D03*
X033831Y012488D03*
X033831Y010323D03*
X032177Y010323D03*
X030524Y010323D03*
X028870Y010323D03*
X027217Y010323D03*
X025563Y010323D03*
X023910Y010323D03*
X022256Y010323D03*
X020603Y010323D03*
X018949Y010323D03*
X018949Y012488D03*
X020603Y012488D03*
X022256Y012488D03*
D29*
X022614Y014355D03*
X022614Y014855D03*
X022614Y015355D03*
X022614Y015855D03*
X020566Y015855D03*
X020566Y015355D03*
X020566Y014855D03*
X020566Y014355D03*
D30*
X020140Y003205D03*
X018540Y003205D03*
X014040Y003205D03*
X024640Y003205D03*
X026240Y003205D03*
X030740Y003205D03*
X032340Y003205D03*
X036840Y003205D03*
D31*
X035840Y005705D03*
X034840Y005705D03*
X033840Y005705D03*
X032840Y005705D03*
X033340Y006705D03*
X034340Y006705D03*
X035340Y006705D03*
X036340Y006705D03*
X030240Y006705D03*
X029240Y006705D03*
X028240Y006705D03*
X027240Y006705D03*
X027740Y005705D03*
X028740Y005705D03*
X029740Y005705D03*
X026740Y005705D03*
X024140Y006705D03*
X023140Y006705D03*
X022140Y006705D03*
X021140Y006705D03*
X021640Y005705D03*
X022640Y005705D03*
X023640Y005705D03*
X020640Y005705D03*
X018040Y006705D03*
X017040Y006705D03*
X016040Y006705D03*
X015040Y006705D03*
X015540Y005705D03*
X014540Y005705D03*
X016540Y005705D03*
X017540Y005705D03*
D32*
X037190Y015755D03*
X037190Y026255D03*
D33*
X015990Y027455D03*
X014990Y017455D03*
D34*
X014240Y018905D03*
X013840Y019505D03*
X013640Y020005D03*
X013090Y020055D03*
X012890Y020555D03*
X012390Y021005D03*
X008640Y016405D03*
X010390Y014355D03*
X013040Y015505D03*
X013190Y012605D03*
X013790Y011255D03*
X013840Y009955D03*
X015740Y011255D03*
X015740Y012605D03*
X017090Y013055D03*
X013190Y007755D03*
X020990Y007655D03*
X023690Y014505D03*
X027140Y016105D03*
X027840Y015405D03*
X030990Y021005D03*
X032240Y021505D03*
X032840Y021455D03*
X032590Y026655D03*
X033840Y026655D03*
X026690Y028255D03*
X026540Y029555D03*
X025490Y029955D03*
X003140Y017705D03*
X001790Y016905D03*
D35*
X011340Y021855D03*
X011940Y021355D03*
X015040Y021905D03*
X016090Y023255D03*
X017740Y023105D03*
X016740Y021505D03*
X017390Y021005D03*
X018890Y019355D03*
X017340Y018905D03*
X015990Y018355D03*
D36*
X026790Y019055D03*
M02*
