G75*
G70*
%OFA0B0*%
%FSLAX24Y24*%
%IPPOS*%
%LPD*%
%AMOC8*
5,1,8,0,0,1.08239X$1,22.5*
%
%ADD10OC8,0.0640*%
%ADD11C,0.0680*%
%ADD12C,0.0966*%
%ADD13C,0.1261*%
%ADD14C,0.0513*%
%ADD15C,0.0710*%
%ADD16C,0.0600*%
%ADD17R,0.0907X0.0907*%
%ADD18C,0.1360*%
%ADD19C,0.0630*%
%ADD20OC8,0.1080*%
%ADD21OC8,0.0680*%
%ADD22C,0.0480*%
%ADD23C,0.0476*%
%ADD24R,0.0476X0.0476*%
D10*
X003490Y021155D03*
X004490Y021155D03*
X004490Y022155D03*
X003490Y022155D03*
X003490Y023155D03*
X004490Y023155D03*
X006140Y031955D03*
X007140Y031955D03*
X008140Y031955D03*
X009140Y031955D03*
X010140Y031955D03*
X010140Y032955D03*
X009140Y032955D03*
X008140Y032955D03*
X007140Y032955D03*
X006140Y032955D03*
X015890Y032955D03*
X015890Y031955D03*
X016890Y031955D03*
X017890Y031955D03*
X018890Y031955D03*
X019890Y031955D03*
X019890Y032955D03*
X018890Y032955D03*
X017890Y032955D03*
X016890Y032955D03*
X025640Y032955D03*
X026640Y032955D03*
X026640Y031955D03*
X025640Y031955D03*
X027640Y031955D03*
X028640Y031955D03*
X029640Y031955D03*
X029640Y032955D03*
X028640Y032955D03*
X027640Y032955D03*
X028390Y022905D03*
X028390Y021905D03*
X028390Y020905D03*
X028390Y019905D03*
X028390Y018905D03*
X029390Y018905D03*
X029390Y019905D03*
X029390Y020905D03*
X029390Y021905D03*
X029390Y022905D03*
D11*
X029310Y025665D02*
X029910Y025665D01*
X029910Y027445D02*
X029310Y027445D01*
X031870Y027445D02*
X032470Y027445D01*
X032990Y028705D02*
X032990Y029305D01*
X032990Y030105D02*
X032990Y030705D01*
X033990Y030705D02*
X033990Y030105D01*
X033990Y029305D02*
X033990Y028705D01*
X034990Y028705D02*
X034990Y029305D01*
X034990Y030105D02*
X034990Y030705D01*
X034990Y031505D02*
X034990Y032105D01*
X033990Y032105D02*
X033990Y031505D01*
X032990Y031505D02*
X032990Y032105D01*
X032990Y032905D02*
X032990Y033505D01*
X033990Y033505D02*
X033990Y032905D01*
X034990Y032905D02*
X034990Y033505D01*
X035990Y033505D02*
X035990Y032905D01*
X035990Y032105D02*
X035990Y031505D01*
X035990Y030705D02*
X035990Y030105D01*
X035990Y029305D02*
X035990Y028705D01*
X032470Y025665D02*
X031870Y025665D01*
X025990Y027155D02*
X025990Y027755D01*
X024990Y027755D02*
X024990Y027155D01*
X023990Y027155D02*
X023990Y027755D01*
X022990Y027755D02*
X022990Y027155D01*
X021990Y027155D02*
X021990Y027755D01*
X020990Y027755D02*
X020990Y027155D01*
X019990Y027155D02*
X019990Y027755D01*
X018990Y027755D02*
X018990Y027155D01*
X017990Y027155D02*
X017990Y027755D01*
X014990Y027755D02*
X014990Y027155D01*
X013990Y027155D02*
X013990Y027755D01*
X012990Y027755D02*
X012990Y027155D01*
X011990Y027155D02*
X011990Y027755D01*
X010990Y027755D02*
X010990Y027155D01*
X009990Y027155D02*
X009990Y027755D01*
X008990Y027755D02*
X008990Y027155D01*
X007990Y027155D02*
X007990Y027755D01*
X006990Y027755D02*
X006990Y027155D01*
X004590Y026855D02*
X003990Y026855D01*
X003990Y025855D02*
X004590Y025855D01*
X001640Y025705D02*
X001040Y025705D01*
X001040Y024705D02*
X001640Y024705D01*
X001640Y023705D02*
X001040Y023705D01*
X001040Y022705D02*
X001640Y022705D01*
X001640Y021705D02*
X001040Y021705D01*
X001040Y020705D02*
X001640Y020705D01*
X006990Y017755D02*
X006990Y017155D01*
X007990Y017155D02*
X007990Y017755D01*
X008990Y017755D02*
X008990Y017155D01*
X009990Y017155D02*
X009990Y017755D01*
X010990Y017755D02*
X010990Y017155D01*
X011990Y017155D02*
X011990Y017755D01*
X012990Y017755D02*
X012990Y017155D01*
X013990Y017155D02*
X013990Y017755D01*
X017990Y017755D02*
X017990Y017155D01*
X018990Y017155D02*
X018990Y017755D01*
X019990Y017755D02*
X019990Y017155D01*
X020990Y017155D02*
X020990Y017755D01*
X021990Y017755D02*
X021990Y017155D01*
X022990Y017155D02*
X022990Y017755D01*
X023990Y017755D02*
X023990Y017155D01*
X024990Y017155D02*
X024990Y017755D01*
X025990Y017755D02*
X025990Y017155D01*
D12*
X038823Y010182D02*
X039709Y010182D01*
X039705Y008611D02*
X038819Y008611D01*
X038819Y007040D02*
X039705Y007040D01*
D13*
X038990Y003455D03*
X035681Y010504D03*
X017099Y010504D03*
X002240Y033955D03*
X038990Y033955D03*
D14*
X011435Y014398D03*
D15*
X011437Y006132D03*
D16*
X024268Y020969D03*
X022924Y022312D03*
D17*
X022256Y012488D03*
X020603Y012488D03*
X018949Y012488D03*
X018949Y010323D03*
X020603Y010323D03*
X022256Y010323D03*
X023910Y010323D03*
X025563Y010323D03*
X027217Y010323D03*
X028870Y010323D03*
X030524Y010323D03*
X032177Y010323D03*
X033831Y010323D03*
X033831Y012488D03*
X032177Y012488D03*
X030524Y012488D03*
X028870Y012488D03*
X027217Y012488D03*
X025563Y012488D03*
X023910Y012488D03*
D18*
X024640Y003205D03*
X026240Y003205D03*
X030740Y003205D03*
X032340Y003205D03*
X036840Y003205D03*
X020140Y003205D03*
X018540Y003205D03*
X014040Y003205D03*
D19*
X014540Y005705D03*
X015540Y005705D03*
X016540Y005705D03*
X017540Y005705D03*
X018040Y006705D03*
X017040Y006705D03*
X016040Y006705D03*
X015040Y006705D03*
X020640Y005705D03*
X021640Y005705D03*
X022640Y005705D03*
X023640Y005705D03*
X024140Y006705D03*
X023140Y006705D03*
X022140Y006705D03*
X021140Y006705D03*
X026740Y005705D03*
X027740Y005705D03*
X028740Y005705D03*
X029740Y005705D03*
X030240Y006705D03*
X029240Y006705D03*
X028240Y006705D03*
X027240Y006705D03*
X032840Y005705D03*
X033840Y005705D03*
X034840Y005705D03*
X035840Y005705D03*
X036340Y006705D03*
X035340Y006705D03*
X034340Y006705D03*
X033340Y006705D03*
D20*
X037190Y015755D03*
X037190Y026255D03*
D21*
X015990Y027455D03*
X014990Y017455D03*
D22*
X014240Y018905D03*
X013840Y019505D03*
X013640Y020005D03*
X013090Y020055D03*
X012890Y020555D03*
X012390Y021005D03*
X008640Y016405D03*
X010390Y014355D03*
X013040Y015505D03*
X013190Y012605D03*
X013790Y011255D03*
X013840Y009955D03*
X015740Y011255D03*
X015740Y012605D03*
X017090Y013055D03*
X013190Y007755D03*
X020990Y007655D03*
X023690Y014505D03*
X027140Y016105D03*
X027840Y015405D03*
X030990Y021005D03*
X032240Y021505D03*
X032840Y021455D03*
X032590Y026655D03*
X033840Y026655D03*
X026690Y028255D03*
X026540Y029555D03*
X025490Y029955D03*
X003140Y017705D03*
X001790Y016905D03*
D23*
X011340Y021855D03*
X011940Y021355D03*
X015040Y021905D03*
X016090Y023255D03*
X017740Y023105D03*
X016740Y021505D03*
X017390Y021005D03*
X018890Y019355D03*
X017340Y018905D03*
X015990Y018355D03*
D24*
X026790Y019055D03*
M02*
