G75*
G70*
%OFA0B0*%
%FSLAX24Y24*%
%IPPOS*%
%LPD*%
%AMOC8*
5,1,8,0,0,1.08239X$1,22.5*
%
%ADD10C,0.1024*%
%ADD11OC8,0.0600*%
%ADD12C,0.1004*%
%ADD13C,0.0590*%
%ADD14C,0.0634*%
%ADD15OC8,0.0850*%
%ADD16OC8,0.0560*%
%ADD17C,0.0250*%
%ADD18C,0.0440*%
%ADD19C,0.0320*%
%ADD20C,0.0400*%
%ADD21C,0.0150*%
%ADD22C,0.0400*%
%ADD23C,0.0436*%
D10*
X010065Y019993D02*
X010065Y021017D01*
X012065Y021017D02*
X012065Y019993D01*
X014065Y019993D02*
X014065Y021017D01*
X016065Y021017D02*
X016065Y019993D01*
D11*
X014645Y003335D03*
X014645Y002335D03*
X013645Y002335D03*
X012645Y002335D03*
X011645Y002335D03*
X010645Y002335D03*
X010645Y003335D03*
X011645Y003335D03*
X012645Y003335D03*
X013645Y003335D03*
D12*
X021593Y009717D02*
X022597Y009717D01*
X022597Y011276D02*
X021593Y011276D01*
X021593Y012835D02*
X022597Y012835D01*
X022597Y014394D02*
X021593Y014394D01*
D13*
X007445Y014435D03*
X007445Y013435D03*
X006445Y013935D03*
X006445Y014935D03*
X006445Y015935D03*
X006445Y016935D03*
X007445Y016435D03*
X007445Y015435D03*
X006445Y010785D03*
X006445Y009785D03*
X006445Y008785D03*
X006445Y007785D03*
X007445Y007285D03*
X007445Y008285D03*
X007445Y009285D03*
X007445Y010285D03*
D14*
X005012Y010035D02*
X004378Y010035D01*
X004378Y009035D02*
X005012Y009035D01*
X005012Y008035D02*
X004378Y008035D01*
X004378Y014185D02*
X005012Y014185D01*
X005012Y015185D02*
X004378Y015185D01*
X004378Y016185D02*
X005012Y016185D01*
D15*
X018296Y002332D03*
D16*
X018284Y003579D03*
X017284Y004579D03*
X019284Y004579D03*
D17*
X009945Y012885D02*
X009595Y013335D01*
X007695Y013335D01*
X007445Y013435D01*
X013045Y017585D02*
X014845Y018985D01*
X015645Y019785D01*
X016065Y020505D01*
D18*
X013045Y017585D03*
X009945Y012885D03*
D19*
X003361Y006097D02*
X003363Y004891D01*
X003448Y004966D01*
X003448Y004966D01*
X003995Y005253D01*
X003995Y005253D01*
X004594Y005400D01*
X004594Y005400D01*
X005211Y005400D01*
X005211Y005400D01*
X005810Y005253D01*
X005810Y005253D01*
X006357Y004966D01*
X006357Y004966D01*
X006818Y004556D01*
X006819Y004556D01*
X006819Y004556D01*
X007169Y004049D01*
X007169Y004049D01*
X007388Y003472D01*
X007388Y003471D01*
X007462Y002859D01*
X007388Y002246D01*
X007388Y002246D01*
X007169Y001669D01*
X007169Y001669D01*
X006912Y001297D01*
X021436Y001297D01*
X021179Y001669D01*
X021179Y001669D01*
X020960Y002246D01*
X020960Y002246D01*
X020886Y002859D01*
X020886Y002859D01*
X020960Y003471D01*
X020960Y003472D01*
X021179Y004049D01*
X021179Y004049D01*
X021529Y004556D01*
X021529Y004556D01*
X021991Y004966D01*
X021991Y004966D01*
X022538Y005253D01*
X022538Y005253D01*
X023137Y005400D01*
X023137Y005400D01*
X023754Y005400D01*
X023754Y005400D01*
X024353Y005253D01*
X024353Y005253D01*
X024900Y004966D01*
X024900Y004966D01*
X025034Y004847D01*
X025034Y019414D01*
X024900Y019295D01*
X024900Y019295D01*
X024353Y019009D01*
X024353Y019009D01*
X023754Y018861D01*
X023754Y018861D01*
X023137Y018861D01*
X023137Y018861D01*
X022538Y019009D01*
X022538Y019009D01*
X021991Y019295D01*
X021991Y019295D01*
X021530Y019705D01*
X021529Y019705D01*
X021529Y019705D01*
X021179Y020212D01*
X021179Y020213D01*
X020960Y020790D01*
X020960Y020790D01*
X020886Y021402D01*
X020886Y021402D01*
X020960Y022015D01*
X020960Y022015D01*
X021179Y022592D01*
X021179Y022592D01*
X021441Y022972D01*
X006849Y022998D01*
X007130Y022592D01*
X007130Y022592D01*
X007349Y022015D01*
X007349Y022015D01*
X007423Y021402D01*
X007349Y020790D01*
X007349Y020790D01*
X007130Y020213D01*
X007130Y020212D01*
X006779Y019705D01*
X006779Y019705D01*
X006317Y019295D01*
X006317Y019295D01*
X005771Y019009D01*
X005771Y019009D01*
X005172Y018861D01*
X005172Y018861D01*
X004554Y018861D01*
X004554Y018861D01*
X003955Y019009D01*
X003955Y019009D01*
X003409Y019295D01*
X003409Y019295D01*
X003338Y019358D01*
X003340Y018103D01*
X003435Y018198D01*
X003766Y018335D01*
X004124Y018335D01*
X004455Y018198D01*
X004708Y017945D01*
X004845Y017614D01*
X004845Y017256D01*
X004708Y016925D01*
X004645Y016862D01*
X005147Y016862D01*
X005396Y016759D01*
X005586Y016569D01*
X005689Y016320D01*
X005689Y016051D01*
X005610Y015860D01*
X005790Y015860D01*
X005790Y016066D01*
X005890Y016306D01*
X006019Y016435D01*
X005890Y016564D01*
X005790Y016805D01*
X005790Y017066D01*
X005890Y017306D01*
X006074Y017491D01*
X006315Y017590D01*
X006576Y017590D01*
X006816Y017491D01*
X007001Y017306D01*
X007100Y017066D01*
X007100Y017001D01*
X007315Y017090D01*
X007576Y017090D01*
X007816Y016991D01*
X008001Y016806D01*
X008100Y016566D01*
X008100Y016305D01*
X008001Y016064D01*
X007872Y015935D01*
X008001Y015806D01*
X008100Y015566D01*
X008100Y015305D01*
X008001Y015064D01*
X007872Y014935D01*
X008001Y014806D01*
X008024Y014750D01*
X009412Y014750D01*
X009572Y014684D01*
X009694Y014562D01*
X010864Y013392D01*
X010930Y013232D01*
X010930Y013059D01*
X010930Y012639D01*
X010864Y012479D01*
X010742Y012356D01*
X010170Y011785D01*
X010170Y011022D01*
X010228Y011080D01*
X010434Y011165D01*
X010657Y011165D01*
X010862Y011080D01*
X010973Y010970D01*
X012310Y010726D01*
X012310Y013648D01*
X012271Y013688D01*
X012185Y013894D01*
X012185Y014117D01*
X012271Y014322D01*
X012428Y014480D01*
X012634Y014565D01*
X012694Y014565D01*
X015490Y017317D01*
X015490Y017508D01*
X015451Y017548D01*
X015365Y017754D01*
X015365Y017977D01*
X015451Y018182D01*
X015608Y018340D01*
X015814Y018425D01*
X016037Y018425D01*
X016242Y018340D01*
X016400Y018182D01*
X016485Y017977D01*
X016485Y017754D01*
X016400Y017548D01*
X016360Y017508D01*
X016360Y017220D01*
X016361Y017218D01*
X016360Y017136D01*
X016360Y017049D01*
X016360Y017047D01*
X016360Y017045D01*
X016328Y016970D01*
X016294Y016889D01*
X016293Y016888D01*
X016292Y016886D01*
X016233Y016828D01*
X016172Y016766D01*
X016170Y016766D01*
X013305Y013946D01*
X013305Y013894D01*
X013220Y013688D01*
X013180Y013648D01*
X013180Y010562D01*
X013220Y010522D01*
X013305Y010317D01*
X013305Y010267D01*
X016365Y013118D01*
X016365Y013157D01*
X016451Y013362D01*
X016608Y013520D01*
X016814Y013605D01*
X017037Y013605D01*
X017242Y013520D01*
X017400Y013362D01*
X017485Y013157D01*
X017485Y012934D01*
X017400Y012728D01*
X017242Y012571D01*
X017037Y012485D01*
X016962Y012485D01*
X012960Y008756D01*
X012960Y007262D01*
X013000Y007222D01*
X013020Y007175D01*
X016412Y010567D01*
X016448Y010854D01*
X016365Y011054D01*
X016365Y011277D01*
X016451Y011482D01*
X016608Y011640D01*
X016814Y011725D01*
X017037Y011725D01*
X017242Y011640D01*
X017400Y011482D01*
X017485Y011277D01*
X017485Y011054D01*
X017400Y010848D01*
X017313Y010761D01*
X017260Y010338D01*
X017260Y010279D01*
X017250Y010253D01*
X017248Y010241D01*
X018492Y011563D01*
X018495Y011570D01*
X018562Y011637D01*
X018628Y011707D01*
X018635Y011711D01*
X018641Y011717D01*
X018729Y011753D01*
X018816Y011792D01*
X018825Y011793D01*
X018832Y011796D01*
X018928Y011796D01*
X019023Y011799D01*
X019031Y011796D01*
X020894Y011796D01*
X021105Y012006D01*
X021223Y012055D01*
X021105Y012104D01*
X020863Y012347D01*
X020731Y012663D01*
X020731Y013006D01*
X020863Y013323D01*
X021105Y013566D01*
X021223Y013614D01*
X021105Y013663D01*
X020894Y013874D01*
X017658Y013874D01*
X017637Y013867D01*
X017555Y013874D01*
X017473Y013874D01*
X017453Y013882D01*
X017431Y013884D01*
X017358Y013922D01*
X017282Y013953D01*
X017267Y013968D01*
X017247Y013978D01*
X017194Y014041D01*
X017136Y014099D01*
X017128Y014119D01*
X017063Y014196D01*
X016968Y014235D01*
X016805Y014398D01*
X016717Y014610D01*
X016717Y014840D01*
X016805Y015053D01*
X016968Y015215D01*
X017180Y015303D01*
X017410Y015303D01*
X017623Y015215D01*
X017785Y015053D01*
X017843Y014914D01*
X020894Y014914D01*
X021105Y015125D01*
X021422Y015256D01*
X022769Y015256D01*
X023085Y015125D01*
X023328Y014882D01*
X023459Y014565D01*
X023459Y014222D01*
X023328Y013906D01*
X023085Y013663D01*
X022968Y013614D01*
X023085Y013566D01*
X023328Y013323D01*
X023459Y013006D01*
X023459Y012663D01*
X023328Y012347D01*
X023085Y012104D01*
X022968Y012055D01*
X023085Y012006D01*
X023328Y011764D01*
X023459Y011447D01*
X023459Y011104D01*
X023328Y010787D01*
X023085Y010545D01*
X022968Y010496D01*
X023085Y010447D01*
X023328Y010205D01*
X023459Y009888D01*
X023459Y009545D01*
X023328Y009228D01*
X023085Y008986D01*
X022769Y008855D01*
X021422Y008855D01*
X021105Y008986D01*
X020863Y009228D01*
X020731Y009545D01*
X020731Y009888D01*
X020863Y010205D01*
X021105Y010447D01*
X021223Y010496D01*
X021105Y010545D01*
X020894Y010756D01*
X019160Y010756D01*
X017902Y009418D01*
X017835Y009258D01*
X017673Y009095D01*
X017460Y009007D01*
X017230Y009007D01*
X017018Y009095D01*
X016855Y009258D01*
X016767Y009470D01*
X016767Y009692D01*
X013596Y006520D01*
X013732Y006464D01*
X013854Y006342D01*
X014474Y005722D01*
X014540Y005562D01*
X014540Y005389D01*
X014540Y003895D01*
X014645Y003895D01*
X014645Y003336D01*
X014645Y003336D01*
X014645Y003895D01*
X014877Y003895D01*
X015205Y003567D01*
X015205Y003335D01*
X014646Y003335D01*
X014646Y003335D01*
X015205Y003335D01*
X015205Y003103D01*
X014937Y002835D01*
X015205Y002567D01*
X015205Y002335D01*
X014646Y002335D01*
X014646Y002335D01*
X015205Y002335D01*
X015205Y002103D01*
X014877Y001775D01*
X014645Y001775D01*
X014645Y002335D01*
X014645Y002335D01*
X014645Y001775D01*
X014413Y001775D01*
X014216Y001973D01*
X013919Y001675D01*
X013372Y001675D01*
X013145Y001902D01*
X012919Y001675D01*
X012372Y001675D01*
X012145Y001902D01*
X011919Y001675D01*
X011372Y001675D01*
X011075Y001973D01*
X010877Y001775D01*
X010645Y001775D01*
X010645Y002335D01*
X010645Y002335D01*
X010085Y002335D01*
X010085Y002103D01*
X010413Y001775D01*
X010645Y001775D01*
X010645Y002335D01*
X010645Y002335D01*
X010085Y002335D01*
X010085Y002567D01*
X010353Y002835D01*
X010085Y003103D01*
X010085Y003335D01*
X010645Y003335D01*
X010645Y003335D01*
X010645Y002775D01*
X010645Y002336D01*
X010645Y002336D01*
X010645Y002775D01*
X010645Y003335D01*
X010645Y003335D01*
X010085Y003335D01*
X010085Y003567D01*
X010413Y003895D01*
X010645Y003895D01*
X010645Y003336D01*
X010645Y003336D01*
X010645Y003895D01*
X010877Y003895D01*
X011075Y003698D01*
X011340Y003964D01*
X011340Y004785D01*
X011294Y004785D01*
X011088Y004871D01*
X010931Y005028D01*
X010926Y005040D01*
X008187Y007730D01*
X007817Y007730D01*
X007816Y007730D01*
X007794Y007721D01*
X007916Y007600D01*
X008000Y007396D01*
X008000Y007285D01*
X007446Y007285D01*
X007446Y007285D01*
X008000Y007285D01*
X008000Y007175D01*
X007916Y006971D01*
X007760Y006815D01*
X007556Y006730D01*
X007445Y006730D01*
X007445Y007285D01*
X007445Y007285D01*
X006890Y007285D01*
X006890Y007175D01*
X006975Y006971D01*
X007131Y006815D01*
X007335Y006730D01*
X007445Y006730D01*
X007445Y007285D01*
X007445Y007285D01*
X006890Y007285D01*
X006890Y007396D01*
X006975Y007600D01*
X007096Y007721D01*
X007074Y007730D01*
X007000Y007804D01*
X007000Y007785D01*
X006446Y007785D01*
X006446Y007785D01*
X007000Y007785D01*
X007000Y007675D01*
X006916Y007471D01*
X006760Y007315D01*
X006556Y007230D01*
X006445Y007230D01*
X006445Y007785D01*
X006445Y007785D01*
X005890Y007785D01*
X005890Y007675D01*
X005975Y007471D01*
X006131Y007315D01*
X006335Y007230D01*
X006445Y007230D01*
X006445Y007785D01*
X006445Y007785D01*
X005890Y007785D01*
X005890Y007896D01*
X005975Y008100D01*
X006096Y008221D01*
X006074Y008230D01*
X005890Y008414D01*
X005790Y008655D01*
X005790Y008840D01*
X005664Y008840D01*
X005586Y008652D01*
X005399Y008465D01*
X005501Y008362D01*
X005589Y008150D01*
X005589Y008035D01*
X004696Y008035D01*
X004696Y008035D01*
X005589Y008035D01*
X005589Y007921D01*
X005501Y007709D01*
X005339Y007546D01*
X005127Y007458D01*
X004695Y007458D01*
X004695Y008035D01*
X004695Y008035D01*
X003802Y008035D01*
X003802Y007921D01*
X003889Y007709D01*
X003913Y007685D01*
X003766Y007685D01*
X003435Y007548D01*
X003359Y007472D01*
X003353Y010604D01*
X003435Y010522D01*
X003766Y010385D01*
X003791Y010385D01*
X003702Y010170D01*
X003702Y009901D01*
X003805Y009652D01*
X003921Y009535D01*
X003805Y009419D01*
X003702Y009170D01*
X003702Y008901D01*
X003805Y008652D01*
X003992Y008465D01*
X003889Y008362D01*
X003802Y008150D01*
X003802Y008035D01*
X004695Y008035D01*
X004695Y008035D01*
X004695Y007458D01*
X004545Y007458D01*
X004708Y007295D01*
X004845Y006964D01*
X004845Y006606D01*
X004708Y006275D01*
X004455Y006022D01*
X004124Y005885D01*
X003766Y005885D01*
X003435Y006022D01*
X003361Y006097D01*
X003361Y006073D02*
X003385Y006073D01*
X003362Y005754D02*
X010198Y005754D01*
X010522Y005436D02*
X003362Y005436D01*
X003363Y005117D02*
X003737Y005117D01*
X004506Y006073D02*
X009874Y006073D01*
X009550Y006392D02*
X004756Y006392D01*
X004845Y006710D02*
X009226Y006710D01*
X008901Y007029D02*
X007940Y007029D01*
X008000Y007347D02*
X008577Y007347D01*
X008253Y007666D02*
X007850Y007666D01*
X007445Y007029D02*
X007445Y007029D01*
X006951Y007029D02*
X004819Y007029D01*
X004656Y007347D02*
X006098Y007347D01*
X006445Y007347D02*
X006445Y007347D01*
X006445Y007666D02*
X006445Y007666D01*
X006792Y007347D02*
X006890Y007347D01*
X006996Y007666D02*
X007041Y007666D01*
X005894Y007666D02*
X005458Y007666D01*
X005589Y007984D02*
X005927Y007984D01*
X006001Y008303D02*
X005526Y008303D01*
X005555Y008621D02*
X005804Y008621D01*
X005790Y009710D02*
X005610Y009710D01*
X005689Y009901D01*
X005689Y010170D01*
X005586Y010419D01*
X005396Y010609D01*
X005147Y010712D01*
X004645Y010712D01*
X004708Y010775D01*
X004845Y011106D01*
X004845Y011464D01*
X004708Y011795D01*
X004455Y012048D01*
X004305Y012110D01*
X004455Y012172D01*
X004708Y012425D01*
X004845Y012756D01*
X004845Y013114D01*
X004708Y013445D01*
X004545Y013608D01*
X004695Y013608D01*
X004695Y014185D01*
X003802Y014185D01*
X003802Y014071D01*
X003889Y013859D01*
X003913Y013835D01*
X003766Y013835D01*
X003435Y013698D01*
X003348Y013611D01*
X003342Y016765D01*
X003435Y016672D01*
X003766Y016535D01*
X003791Y016535D01*
X003702Y016320D01*
X003702Y016051D01*
X003805Y015802D01*
X003921Y015685D01*
X003805Y015569D01*
X003702Y015320D01*
X003702Y015051D01*
X003805Y014802D01*
X003992Y014615D01*
X003889Y014512D01*
X003802Y014300D01*
X003802Y014185D01*
X004695Y014185D01*
X004695Y014185D01*
X004695Y014185D01*
X004695Y013608D01*
X005127Y013608D01*
X005339Y013696D01*
X005501Y013859D01*
X005589Y014071D01*
X005589Y014185D01*
X004696Y014185D01*
X004696Y014185D01*
X005589Y014185D01*
X005589Y014300D01*
X005501Y014512D01*
X005399Y014615D01*
X005586Y014802D01*
X005664Y014990D01*
X005790Y014990D01*
X005790Y014805D01*
X005890Y014564D01*
X006074Y014380D01*
X006096Y014371D01*
X005975Y014250D01*
X005890Y014046D01*
X005890Y013935D01*
X005890Y013825D01*
X005975Y013621D01*
X006131Y013465D01*
X006335Y013380D01*
X006445Y013380D01*
X006445Y013935D01*
X006445Y013935D01*
X005890Y013935D01*
X006445Y013935D01*
X006445Y013935D01*
X006445Y013380D01*
X006556Y013380D01*
X006760Y013465D01*
X006916Y013621D01*
X007000Y013825D01*
X007000Y013935D01*
X006446Y013935D01*
X006446Y013935D01*
X007000Y013935D01*
X007000Y013954D01*
X007074Y013880D01*
X007096Y013871D01*
X006975Y013750D01*
X006890Y013546D01*
X006890Y013435D01*
X006890Y013325D01*
X006975Y013121D01*
X007131Y012965D01*
X007335Y012880D01*
X007445Y012880D01*
X007445Y013435D01*
X006890Y013435D01*
X007445Y013435D01*
X007445Y013435D01*
X007445Y013435D01*
X007445Y012880D01*
X007556Y012880D01*
X007760Y012965D01*
X007916Y013121D01*
X008000Y013325D01*
X008000Y013435D01*
X007446Y013435D01*
X007446Y013435D01*
X008000Y013435D01*
X008000Y013546D01*
X007916Y013750D01*
X007794Y013871D01*
X007816Y013880D01*
X007817Y013880D01*
X009145Y013880D01*
X010060Y012965D01*
X010060Y012905D01*
X009366Y012212D01*
X009300Y012052D01*
X009300Y011879D01*
X009300Y010419D01*
X009366Y010259D01*
X009489Y010136D01*
X011220Y008405D01*
X011220Y006472D01*
X011181Y006432D01*
X011095Y006227D01*
X011095Y006093D01*
X008669Y008476D01*
X008612Y008534D01*
X008610Y008535D01*
X008608Y008536D01*
X008529Y008568D01*
X008452Y008600D01*
X008450Y008600D01*
X008448Y008601D01*
X008364Y008600D01*
X008024Y008600D01*
X008001Y008656D01*
X007872Y008785D01*
X008001Y008914D01*
X008100Y009155D01*
X008100Y009416D01*
X008001Y009656D01*
X007872Y009785D01*
X008001Y009914D01*
X008100Y010155D01*
X008100Y010416D01*
X008001Y010656D01*
X007816Y010841D01*
X007576Y010940D01*
X007315Y010940D01*
X007100Y010851D01*
X007100Y010916D01*
X007001Y011156D01*
X006816Y011341D01*
X006576Y011440D01*
X006315Y011440D01*
X006074Y011341D01*
X005890Y011156D01*
X005790Y010916D01*
X005790Y010655D01*
X005890Y010414D01*
X006019Y010285D01*
X005890Y010156D01*
X005790Y009916D01*
X005790Y009710D01*
X005790Y009896D02*
X005687Y009896D01*
X005671Y010214D02*
X005948Y010214D01*
X005841Y010533D02*
X005472Y010533D01*
X005790Y010851D02*
X004740Y010851D01*
X004845Y011170D02*
X005903Y011170D01*
X006987Y011170D02*
X009300Y011170D01*
X009300Y011488D02*
X004835Y011488D01*
X004696Y011807D02*
X009300Y011807D01*
X009331Y012125D02*
X004342Y012125D01*
X004716Y012444D02*
X009599Y012444D01*
X009917Y012762D02*
X004845Y012762D01*
X004845Y013081D02*
X007015Y013081D01*
X006890Y013400D02*
X006602Y013400D01*
X006445Y013400D02*
X006445Y013400D01*
X006288Y013400D02*
X004727Y013400D01*
X004695Y013718D02*
X004695Y013718D01*
X004695Y014037D02*
X004695Y014037D01*
X005361Y013718D02*
X005934Y013718D01*
X005890Y014037D02*
X005575Y014037D01*
X005566Y014355D02*
X006080Y014355D01*
X005845Y014674D02*
X005458Y014674D01*
X006445Y013718D02*
X006445Y013718D01*
X006956Y013718D02*
X006962Y013718D01*
X007445Y013400D02*
X007445Y013400D01*
X007445Y013081D02*
X007445Y013081D01*
X007876Y013081D02*
X009944Y013081D01*
X009626Y013400D02*
X008000Y013400D01*
X007929Y013718D02*
X009307Y013718D01*
X009901Y014355D02*
X012303Y014355D01*
X012185Y014037D02*
X010219Y014037D01*
X010538Y013718D02*
X012258Y013718D01*
X012310Y013400D02*
X010856Y013400D01*
X010930Y013081D02*
X012310Y013081D01*
X012310Y012762D02*
X010930Y012762D01*
X010829Y012444D02*
X012310Y012444D01*
X012310Y012125D02*
X010511Y012125D01*
X010192Y011807D02*
X012310Y011807D01*
X012310Y011488D02*
X010170Y011488D01*
X010170Y011170D02*
X012310Y011170D01*
X012310Y010851D02*
X011624Y010851D01*
X013180Y010851D02*
X013933Y010851D01*
X013591Y010533D02*
X013210Y010533D01*
X013180Y011170D02*
X014274Y011170D01*
X014616Y011488D02*
X013180Y011488D01*
X013180Y011807D02*
X014958Y011807D01*
X015300Y012125D02*
X013180Y012125D01*
X013180Y012444D02*
X015642Y012444D01*
X015984Y012762D02*
X013180Y012762D01*
X013180Y013081D02*
X016326Y013081D01*
X016488Y013400D02*
X013180Y013400D01*
X013232Y013718D02*
X021050Y013718D01*
X020939Y013400D02*
X017363Y013400D01*
X017485Y013081D02*
X020762Y013081D01*
X020731Y012762D02*
X017414Y012762D01*
X016918Y012444D02*
X020822Y012444D01*
X021084Y012125D02*
X016576Y012125D01*
X016234Y011807D02*
X020905Y011807D01*
X021135Y010533D02*
X018951Y010533D01*
X018651Y010214D02*
X020872Y010214D01*
X020734Y009896D02*
X018351Y009896D01*
X018051Y009577D02*
X020731Y009577D01*
X020850Y009258D02*
X017836Y009258D01*
X017345Y009585D02*
X018936Y011276D01*
X022095Y011276D01*
X023056Y010533D02*
X025034Y010533D01*
X025034Y010851D02*
X023354Y010851D01*
X023459Y011170D02*
X025034Y011170D01*
X025034Y011488D02*
X023442Y011488D01*
X023285Y011807D02*
X025034Y011807D01*
X025034Y012125D02*
X023107Y012125D01*
X023368Y012444D02*
X025034Y012444D01*
X025034Y012762D02*
X023459Y012762D01*
X023428Y013081D02*
X025034Y013081D01*
X025034Y013400D02*
X023251Y013400D01*
X023140Y013718D02*
X025034Y013718D01*
X025034Y014037D02*
X023382Y014037D01*
X023459Y014355D02*
X025034Y014355D01*
X025034Y014674D02*
X023414Y014674D01*
X023218Y014992D02*
X025034Y014992D01*
X025034Y015311D02*
X014692Y015311D01*
X015015Y015629D02*
X025034Y015629D01*
X025034Y015948D02*
X015339Y015948D01*
X015663Y016266D02*
X025034Y016266D01*
X025034Y016585D02*
X015986Y016585D01*
X016300Y016904D02*
X025034Y016904D01*
X025034Y017222D02*
X016360Y017222D01*
X016393Y017541D02*
X025034Y017541D01*
X025034Y017859D02*
X016485Y017859D01*
X016402Y018178D02*
X025034Y018178D01*
X025034Y018496D02*
X015006Y018496D01*
X015091Y018562D02*
X013596Y017399D01*
X013537Y017257D01*
X013374Y017094D01*
X013161Y017005D01*
X012930Y017005D01*
X012717Y017094D01*
X012554Y017257D01*
X012465Y017470D01*
X012465Y017701D01*
X012554Y017914D01*
X012717Y018077D01*
X012930Y018165D01*
X013001Y018165D01*
X014524Y019349D01*
X015193Y020019D01*
X015193Y021191D01*
X015326Y021511D01*
X015571Y021756D01*
X015892Y021889D01*
X016239Y021889D01*
X016559Y021756D01*
X016804Y021511D01*
X016937Y021191D01*
X016937Y019820D01*
X016804Y019500D01*
X016559Y019254D01*
X016239Y019122D01*
X015892Y019122D01*
X015733Y019187D01*
X015234Y018689D01*
X015219Y018662D01*
X015167Y018621D01*
X015120Y018574D01*
X015091Y018562D01*
X015361Y018815D02*
X025034Y018815D01*
X025034Y019133D02*
X024591Y019133D01*
X022300Y019133D02*
X016267Y019133D01*
X015864Y019133D02*
X015679Y019133D01*
X014945Y019770D02*
X014808Y019770D01*
X014837Y019840D02*
X014837Y020505D01*
X014066Y020505D01*
X014066Y020505D01*
X014837Y020505D01*
X014837Y021171D01*
X014720Y021454D01*
X014502Y021671D01*
X014219Y021789D01*
X014065Y021789D01*
X013912Y021789D01*
X013628Y021671D01*
X013411Y021454D01*
X013293Y021171D01*
X013293Y020505D01*
X013293Y019840D01*
X013411Y019556D01*
X013628Y019339D01*
X013912Y019222D01*
X014065Y019222D01*
X014065Y020505D01*
X014065Y020505D01*
X013293Y020505D01*
X014065Y020505D01*
X014065Y020505D01*
X014065Y019222D01*
X014219Y019222D01*
X014502Y019339D01*
X014720Y019556D01*
X014837Y019840D01*
X014837Y020089D02*
X015193Y020089D01*
X015193Y020407D02*
X014837Y020407D01*
X014837Y020726D02*
X015193Y020726D01*
X015193Y021045D02*
X014837Y021045D01*
X014757Y021363D02*
X015265Y021363D01*
X015497Y021682D02*
X014478Y021682D01*
X014065Y021682D02*
X014065Y021682D01*
X014065Y021789D02*
X014065Y020506D01*
X014065Y020506D01*
X014065Y021789D01*
X014065Y021363D02*
X014065Y021363D01*
X014065Y021045D02*
X014065Y021045D01*
X014065Y020726D02*
X014065Y020726D01*
X014065Y020407D02*
X014065Y020407D01*
X014065Y020089D02*
X014065Y020089D01*
X014065Y019770D02*
X014065Y019770D01*
X014065Y019452D02*
X014065Y019452D01*
X014246Y019133D02*
X010267Y019133D01*
X010239Y019122D02*
X010559Y019254D01*
X010804Y019500D01*
X010937Y019820D01*
X010937Y021191D01*
X010804Y021511D01*
X010559Y021756D01*
X010239Y021889D01*
X009892Y021889D01*
X009571Y021756D01*
X009326Y021511D01*
X009193Y021191D01*
X009193Y019820D01*
X009326Y019500D01*
X009571Y019254D01*
X009892Y019122D01*
X010239Y019122D01*
X009864Y019133D02*
X006008Y019133D01*
X006494Y019452D02*
X009374Y019452D01*
X009214Y019770D02*
X006824Y019770D01*
X007044Y020089D02*
X009193Y020089D01*
X009193Y020407D02*
X007204Y020407D01*
X007324Y020726D02*
X009193Y020726D01*
X009193Y021045D02*
X007380Y021045D01*
X007418Y021363D02*
X009265Y021363D01*
X009497Y021682D02*
X007389Y021682D01*
X007350Y022000D02*
X020958Y022000D01*
X020920Y021682D02*
X016634Y021682D01*
X016866Y021363D02*
X020890Y021363D01*
X020929Y021045D02*
X016937Y021045D01*
X016937Y020726D02*
X020984Y020726D01*
X021105Y020407D02*
X016937Y020407D01*
X016937Y020089D02*
X021264Y020089D01*
X021484Y019770D02*
X016916Y019770D01*
X016757Y019452D02*
X021815Y019452D01*
X021075Y022319D02*
X007233Y022319D01*
X007098Y022637D02*
X021210Y022637D01*
X021430Y022956D02*
X006878Y022956D01*
X010634Y021682D02*
X011653Y021682D01*
X011628Y021671D02*
X011411Y021454D01*
X011293Y021171D01*
X011293Y020505D01*
X011293Y019840D01*
X011411Y019556D01*
X011628Y019339D01*
X011912Y019222D01*
X012065Y019222D01*
X012065Y020505D01*
X012065Y020505D01*
X011293Y020505D01*
X012065Y020505D01*
X012065Y020505D01*
X012065Y019222D01*
X012219Y019222D01*
X012502Y019339D01*
X012720Y019556D01*
X012837Y019840D01*
X012837Y020505D01*
X012066Y020505D01*
X012066Y020505D01*
X012837Y020505D01*
X012837Y021171D01*
X012720Y021454D01*
X012502Y021671D01*
X012219Y021789D01*
X012065Y021789D01*
X011912Y021789D01*
X011628Y021671D01*
X011373Y021363D02*
X010866Y021363D01*
X010937Y021045D02*
X011293Y021045D01*
X011293Y020726D02*
X010937Y020726D01*
X010937Y020407D02*
X011293Y020407D01*
X011293Y020089D02*
X010937Y020089D01*
X010916Y019770D02*
X011322Y019770D01*
X011515Y019452D02*
X010757Y019452D01*
X012065Y019452D02*
X012065Y019452D01*
X012065Y019770D02*
X012065Y019770D01*
X012065Y020089D02*
X012065Y020089D01*
X012065Y020407D02*
X012065Y020407D01*
X012065Y020506D02*
X012065Y021789D01*
X012065Y020506D01*
X012065Y020506D01*
X012065Y020726D02*
X012065Y020726D01*
X012065Y021045D02*
X012065Y021045D01*
X012065Y021363D02*
X012065Y021363D01*
X012065Y021682D02*
X012065Y021682D01*
X012478Y021682D02*
X013653Y021682D01*
X013373Y021363D02*
X012757Y021363D01*
X012837Y021045D02*
X013293Y021045D01*
X013293Y020726D02*
X012837Y020726D01*
X012837Y020407D02*
X013293Y020407D01*
X013293Y020089D02*
X012837Y020089D01*
X012808Y019770D02*
X013322Y019770D01*
X013515Y019452D02*
X012615Y019452D01*
X013427Y018496D02*
X003339Y018496D01*
X003339Y018815D02*
X013836Y018815D01*
X014597Y018178D02*
X015449Y018178D01*
X015365Y017859D02*
X014187Y017859D01*
X013778Y017541D02*
X015458Y017541D01*
X015393Y017222D02*
X013502Y017222D01*
X013017Y018178D02*
X004476Y018178D01*
X004744Y017859D02*
X012531Y017859D01*
X012465Y017541D02*
X006695Y017541D01*
X007035Y017222D02*
X012588Y017222D01*
X014099Y015948D02*
X007884Y015948D01*
X008074Y015629D02*
X013775Y015629D01*
X013452Y015311D02*
X008100Y015311D01*
X007929Y014992D02*
X013128Y014992D01*
X012804Y014674D02*
X009582Y014674D01*
X008084Y016266D02*
X014422Y016266D01*
X014746Y016585D02*
X008092Y016585D01*
X007903Y016904D02*
X015070Y016904D01*
X014368Y014992D02*
X016780Y014992D01*
X016717Y014674D02*
X014044Y014674D01*
X013721Y014355D02*
X016848Y014355D01*
X017295Y014725D02*
X017577Y014394D01*
X022095Y014394D01*
X020973Y014992D02*
X017810Y014992D01*
X017198Y014037D02*
X013397Y014037D01*
X015892Y011488D02*
X016456Y011488D01*
X016365Y011170D02*
X015551Y011170D01*
X015209Y010851D02*
X016448Y010851D01*
X016378Y010533D02*
X014867Y010533D01*
X014525Y010214D02*
X016059Y010214D01*
X015740Y009896D02*
X014183Y009896D01*
X013841Y009577D02*
X015422Y009577D01*
X015103Y009258D02*
X013499Y009258D01*
X013158Y008940D02*
X014785Y008940D01*
X014466Y008621D02*
X012960Y008621D01*
X012960Y008303D02*
X014148Y008303D01*
X013829Y007984D02*
X012960Y007984D01*
X012960Y007666D02*
X013511Y007666D01*
X013192Y007347D02*
X012960Y007347D01*
X013785Y006710D02*
X025034Y006710D01*
X025034Y006392D02*
X013804Y006392D01*
X014123Y006073D02*
X025034Y006073D01*
X025034Y005754D02*
X014441Y005754D01*
X014540Y005436D02*
X025034Y005436D01*
X025034Y005117D02*
X024611Y005117D01*
X025034Y007029D02*
X014104Y007029D01*
X014422Y007347D02*
X025034Y007347D01*
X025034Y007666D02*
X014741Y007666D01*
X015059Y007984D02*
X025034Y007984D01*
X025034Y008303D02*
X015378Y008303D01*
X015696Y008621D02*
X025034Y008621D01*
X025034Y008940D02*
X022974Y008940D01*
X023340Y009258D02*
X025034Y009258D01*
X025034Y009577D02*
X023459Y009577D01*
X023456Y009896D02*
X025034Y009896D01*
X025034Y010214D02*
X023319Y010214D01*
X021216Y008940D02*
X016015Y008940D01*
X016334Y009258D02*
X016855Y009258D01*
X016767Y009577D02*
X016652Y009577D01*
X017284Y010533D02*
X017523Y010533D01*
X017401Y010851D02*
X017822Y010851D01*
X018122Y011170D02*
X017485Y011170D01*
X017394Y011488D02*
X018422Y011488D01*
X017549Y005219D02*
X017019Y005219D01*
X016644Y004844D01*
X016644Y004314D01*
X017019Y003939D01*
X017549Y003939D01*
X017924Y004314D01*
X017924Y004844D01*
X017549Y005219D01*
X017651Y005117D02*
X019059Y005117D01*
X019061Y005119D02*
X018744Y004803D01*
X018744Y004580D01*
X019284Y004580D01*
X019284Y005119D01*
X019061Y005119D01*
X019284Y005117D02*
X019284Y005117D01*
X019284Y005119D02*
X019508Y005119D01*
X019824Y004803D01*
X019824Y004580D01*
X019285Y004580D01*
X019285Y004579D01*
X019824Y004579D01*
X019824Y004356D01*
X019508Y004039D01*
X019284Y004039D01*
X019284Y004579D01*
X019284Y004579D01*
X018744Y004579D01*
X018744Y004356D01*
X019061Y004039D01*
X019284Y004039D01*
X019284Y004579D01*
X019284Y004580D01*
X019284Y004580D01*
X019284Y005119D01*
X019510Y005117D02*
X022280Y005117D01*
X021803Y004799D02*
X019824Y004799D01*
X019824Y004480D02*
X021477Y004480D01*
X021257Y004162D02*
X019630Y004162D01*
X019284Y004162D02*
X019284Y004162D01*
X019284Y004480D02*
X019284Y004480D01*
X019284Y004799D02*
X019284Y004799D01*
X018744Y004799D02*
X017924Y004799D01*
X017924Y004480D02*
X018744Y004480D01*
X018549Y004219D02*
X018019Y004219D01*
X017644Y003844D01*
X017644Y003314D01*
X017906Y003052D01*
X017511Y002657D01*
X017511Y002007D01*
X017971Y001547D01*
X018621Y001547D01*
X019081Y002007D01*
X019081Y002657D01*
X018674Y003064D01*
X018924Y003314D01*
X018924Y003844D01*
X018549Y004219D01*
X018607Y004162D02*
X018938Y004162D01*
X018924Y003843D02*
X021101Y003843D01*
X020980Y003525D02*
X018924Y003525D01*
X018816Y003206D02*
X020928Y003206D01*
X020889Y002888D02*
X018851Y002888D01*
X019081Y002569D02*
X020921Y002569D01*
X020959Y002251D02*
X019081Y002251D01*
X019006Y001932D02*
X021079Y001932D01*
X021217Y001613D02*
X018687Y001613D01*
X017905Y001613D02*
X007131Y001613D01*
X007269Y001932D02*
X010257Y001932D01*
X010085Y002251D02*
X007388Y002251D01*
X007427Y002569D02*
X010087Y002569D01*
X010301Y002888D02*
X007459Y002888D01*
X007420Y003206D02*
X010085Y003206D01*
X010085Y003525D02*
X007368Y003525D01*
X007247Y003843D02*
X010361Y003843D01*
X010645Y003843D02*
X010645Y003843D01*
X010929Y003843D02*
X011220Y003843D01*
X011340Y004162D02*
X007091Y004162D01*
X006871Y004480D02*
X011340Y004480D01*
X011261Y004799D02*
X006545Y004799D01*
X006068Y005117D02*
X010846Y005117D01*
X010791Y006392D02*
X011164Y006392D01*
X011220Y006710D02*
X010467Y006710D01*
X010143Y007029D02*
X011220Y007029D01*
X011220Y007347D02*
X009818Y007347D01*
X009494Y007666D02*
X011220Y007666D01*
X011220Y007984D02*
X009170Y007984D01*
X008846Y008303D02*
X011220Y008303D01*
X011004Y008621D02*
X008015Y008621D01*
X008011Y008940D02*
X010685Y008940D01*
X010367Y009258D02*
X008100Y009258D01*
X008033Y009577D02*
X010048Y009577D01*
X009730Y009896D02*
X007982Y009896D01*
X008100Y010214D02*
X009411Y010214D01*
X009300Y010533D02*
X008052Y010533D01*
X007791Y010851D02*
X009300Y010851D01*
X004695Y007984D02*
X004695Y007984D01*
X004695Y007666D02*
X004695Y007666D01*
X003802Y007984D02*
X003358Y007984D01*
X003358Y007666D02*
X003719Y007666D01*
X003865Y008303D02*
X003357Y008303D01*
X003357Y008621D02*
X003835Y008621D01*
X003702Y008940D02*
X003356Y008940D01*
X003356Y009258D02*
X003738Y009258D01*
X003879Y009577D02*
X003355Y009577D01*
X003354Y009896D02*
X003704Y009896D01*
X003720Y010214D02*
X003354Y010214D01*
X003353Y010533D02*
X003425Y010533D01*
X003348Y013718D02*
X003483Y013718D01*
X003347Y014037D02*
X003816Y014037D01*
X003824Y014355D02*
X003347Y014355D01*
X003346Y014674D02*
X003933Y014674D01*
X003726Y014992D02*
X003345Y014992D01*
X003345Y015311D02*
X003702Y015311D01*
X003865Y015629D02*
X003344Y015629D01*
X003344Y015948D02*
X003744Y015948D01*
X003702Y016266D02*
X003343Y016266D01*
X003343Y016585D02*
X003646Y016585D01*
X004686Y016904D02*
X005790Y016904D01*
X005881Y016585D02*
X005570Y016585D01*
X005689Y016266D02*
X005874Y016266D01*
X005790Y015948D02*
X005646Y015948D01*
X005855Y017222D02*
X004831Y017222D01*
X004845Y017541D02*
X006195Y017541D01*
X003717Y019133D02*
X003338Y019133D01*
X003340Y018178D02*
X003415Y018178D01*
X014615Y019452D02*
X014626Y019452D01*
X013670Y005162D02*
X013670Y003895D01*
X013645Y003895D01*
X013413Y003895D01*
X013216Y003698D01*
X012919Y003995D01*
X012540Y003995D01*
X013644Y005099D01*
X013670Y005162D01*
X013670Y005117D02*
X013652Y005117D01*
X013670Y004799D02*
X013344Y004799D01*
X013025Y004480D02*
X013670Y004480D01*
X013670Y004162D02*
X012707Y004162D01*
X013071Y003843D02*
X013361Y003843D01*
X013645Y003843D02*
X013645Y003843D01*
X013645Y003895D02*
X013645Y003336D01*
X013645Y003336D01*
X013645Y003895D01*
X013645Y003525D02*
X013645Y003525D01*
X014540Y003335D02*
X014645Y003335D01*
X014645Y003335D01*
X014645Y002775D01*
X014645Y002336D01*
X014645Y002336D01*
X014645Y002775D01*
X014645Y003335D01*
X014540Y003335D01*
X014540Y003335D01*
X014645Y003335D02*
X014645Y003335D01*
X014645Y003206D02*
X014645Y003206D01*
X014645Y003525D02*
X014645Y003525D01*
X014645Y003843D02*
X014645Y003843D01*
X014929Y003843D02*
X017644Y003843D01*
X017644Y003525D02*
X015205Y003525D01*
X015205Y003206D02*
X017752Y003206D01*
X017741Y002888D02*
X014990Y002888D01*
X014645Y002888D02*
X014645Y002888D01*
X014645Y002569D02*
X014645Y002569D01*
X014645Y002251D02*
X014645Y002251D01*
X014645Y001932D02*
X014645Y001932D01*
X014257Y001932D02*
X014175Y001932D01*
X015034Y001932D02*
X017586Y001932D01*
X017511Y002251D02*
X015205Y002251D01*
X015203Y002569D02*
X017511Y002569D01*
X017772Y004162D02*
X017962Y004162D01*
X016917Y005117D02*
X014540Y005117D01*
X014540Y004799D02*
X016644Y004799D01*
X016644Y004480D02*
X014540Y004480D01*
X014540Y004162D02*
X016797Y004162D01*
X011115Y001932D02*
X011034Y001932D01*
X010645Y001932D02*
X010645Y001932D01*
X010645Y002251D02*
X010645Y002251D01*
X010645Y002569D02*
X010645Y002569D01*
X010645Y002888D02*
X010645Y002888D01*
X010645Y003206D02*
X010645Y003206D01*
X010646Y003335D02*
X010985Y003335D01*
X010985Y003335D01*
X010646Y003335D01*
X010646Y003335D01*
X010645Y003525D02*
X010645Y003525D01*
D20*
X010645Y003335D02*
X010695Y003335D01*
X010645Y003285D01*
X010645Y002335D01*
X013645Y003335D02*
X014545Y003335D01*
X016695Y005485D01*
X018395Y005485D01*
X019295Y004585D01*
X019289Y004579D01*
X019284Y004579D01*
D21*
X014105Y005475D02*
X014105Y003145D01*
X013775Y002815D01*
X013775Y002625D01*
X013645Y002335D01*
X012105Y002955D02*
X011775Y002625D01*
X011645Y002335D01*
X012105Y002955D02*
X012105Y004175D01*
X013275Y005345D01*
X013275Y005615D01*
X013075Y006095D02*
X012375Y005395D01*
X011775Y005315D02*
X011775Y003625D01*
X011645Y003335D01*
X011775Y005315D02*
X016825Y010365D01*
X016925Y011165D01*
X016925Y013045D02*
X012525Y008945D01*
X012525Y006905D01*
X013075Y006095D02*
X013485Y006095D01*
X014105Y005475D01*
X011655Y006115D02*
X011655Y008585D01*
X009735Y010505D01*
X009735Y011965D01*
X010495Y012725D01*
X010495Y013145D01*
X009325Y014315D01*
X007735Y014315D01*
X007445Y014435D01*
X007315Y014715D01*
X006605Y015425D01*
X005215Y015425D01*
X004695Y015185D01*
X010545Y010605D02*
X012745Y010205D01*
X012745Y014005D01*
X015925Y017135D01*
X015925Y017865D01*
X007315Y008565D02*
X006605Y009275D01*
X005215Y009275D01*
X004695Y009035D01*
X007315Y008565D02*
X007445Y008285D01*
X007735Y008165D01*
X008365Y008165D01*
X011235Y005345D01*
X011405Y005345D01*
D22*
X011405Y005345D03*
X011655Y006115D03*
X012375Y005395D03*
X013275Y005615D03*
X012525Y006905D03*
X012745Y010205D03*
X010545Y010605D03*
X012745Y014005D03*
X016925Y013045D03*
X016925Y011165D03*
X015925Y017865D03*
D23*
X017295Y014725D03*
X017345Y009585D03*
M02*
