G75*
G70*
%OFA0B0*%
%FSLAX24Y24*%
%IPPOS*%
%LPD*%
%AMOC8*
5,1,8,0,0,1.08239X$1,22.5*
%
%ADD10C,0.0000*%
%ADD11C,0.0040*%
%ADD12C,0.0030*%
%ADD13C,0.0080*%
%ADD14C,0.0070*%
%ADD15C,0.0020*%
%ADD16R,0.0200X0.0200*%
%ADD17C,0.0060*%
%ADD18C,0.0050*%
%ADD19C,0.0100*%
%ADD20R,0.0197X0.0049*%
%ADD21R,0.0089X0.0128*%
%ADD22R,0.0049X0.0089*%
%ADD23R,0.0167X0.0049*%
%ADD24R,0.0197X0.0138*%
%ADD25R,0.0236X0.0049*%
%ADD26R,0.0669X0.0118*%
%ADD27R,0.0669X0.0276*%
%ADD28R,0.0128X0.0167*%
%ADD29R,0.0138X0.0138*%
%ADD30R,0.0690X0.0290*%
%ADD31R,0.0335X0.1221*%
%ADD32R,0.0290X0.0690*%
%ADD33R,0.0197X0.0630*%
%ADD34R,0.0630X0.0197*%
%ADD35R,0.0340X0.1140*%
%ADD36R,0.0340X0.0300*%
%ADD37C,0.0079*%
%ADD38R,0.0260X0.0260*%
%ADD39R,0.0669X0.0295*%
%ADD40R,0.0193X0.0598*%
%ADD41C,0.0010*%
%ADD42C,0.0180*%
%ADD43C,0.0150*%
%ADD44C,0.0120*%
D10*
X003110Y001037D02*
X003071Y023265D01*
X025294Y023225D01*
X025294Y001037D01*
X003110Y001037D01*
X003918Y002859D02*
X003954Y003124D01*
X004061Y003370D01*
X004230Y003578D01*
X004449Y003733D01*
X004702Y003822D01*
X004969Y003841D01*
X005232Y003786D01*
X005469Y003663D01*
X005665Y003480D01*
X005805Y003251D01*
X005877Y002993D01*
X005877Y002725D01*
X005805Y002467D01*
X005665Y002238D01*
X005469Y002055D01*
X005232Y001932D01*
X004969Y001877D01*
X004702Y001896D01*
X004449Y001985D01*
X004230Y002140D01*
X004061Y002348D01*
X003954Y002594D01*
X003918Y002859D01*
X003305Y006785D02*
X003344Y007004D01*
X003455Y007196D01*
X003625Y007339D01*
X003834Y007415D01*
X004056Y007415D01*
X004265Y007339D01*
X004435Y007196D01*
X004546Y007004D01*
X004585Y006785D01*
X004546Y006566D01*
X004435Y006374D01*
X004265Y006231D01*
X004056Y006155D01*
X003834Y006155D01*
X003625Y006231D01*
X003455Y006374D01*
X003344Y006566D01*
X003305Y006785D01*
X003305Y011285D02*
X003344Y011504D01*
X003455Y011696D01*
X003625Y011839D01*
X003834Y011915D01*
X004056Y011915D01*
X004265Y011839D01*
X004435Y011696D01*
X004546Y011504D01*
X004585Y011285D01*
X004546Y011066D01*
X004435Y010874D01*
X004265Y010731D01*
X004056Y010655D01*
X003834Y010655D01*
X003625Y010731D01*
X003455Y010874D01*
X003344Y011066D01*
X003305Y011285D01*
X003305Y012935D02*
X003344Y013154D01*
X003455Y013346D01*
X003625Y013489D01*
X003834Y013565D01*
X004056Y013565D01*
X004265Y013489D01*
X004435Y013346D01*
X004546Y013154D01*
X004585Y012935D01*
X004546Y012716D01*
X004435Y012524D01*
X004265Y012381D01*
X004056Y012305D01*
X003834Y012305D01*
X003625Y012381D01*
X003455Y012524D01*
X003344Y012716D01*
X003305Y012935D01*
X003305Y017435D02*
X003344Y017654D01*
X003455Y017846D01*
X003625Y017989D01*
X003834Y018065D01*
X004056Y018065D01*
X004265Y017989D01*
X004435Y017846D01*
X004546Y017654D01*
X004585Y017435D01*
X004546Y017216D01*
X004435Y017024D01*
X004265Y016881D01*
X004056Y016805D01*
X003834Y016805D01*
X003625Y016881D01*
X003455Y017024D01*
X003344Y017216D01*
X003305Y017435D01*
X003879Y021402D02*
X003915Y021667D01*
X004022Y021913D01*
X004191Y022121D01*
X004410Y022276D01*
X004663Y022365D01*
X004930Y022384D01*
X005193Y022329D01*
X005430Y022206D01*
X005626Y022023D01*
X005766Y021794D01*
X005838Y021536D01*
X005838Y021268D01*
X005766Y021010D01*
X005626Y020781D01*
X005430Y020598D01*
X005193Y020475D01*
X004930Y020420D01*
X004663Y020439D01*
X004410Y020528D01*
X004191Y020683D01*
X004022Y020891D01*
X003915Y021137D01*
X003879Y021402D01*
X022462Y021402D02*
X022498Y021667D01*
X022605Y021913D01*
X022774Y022121D01*
X022993Y022276D01*
X023246Y022365D01*
X023513Y022384D01*
X023776Y022329D01*
X024013Y022206D01*
X024209Y022023D01*
X024349Y021794D01*
X024421Y021536D01*
X024421Y021268D01*
X024349Y021010D01*
X024209Y020781D01*
X024013Y020598D01*
X023776Y020475D01*
X023513Y020420D01*
X023246Y020439D01*
X022993Y020528D01*
X022774Y020683D01*
X022605Y020891D01*
X022498Y021137D01*
X022462Y021402D01*
X022462Y002859D02*
X022498Y003124D01*
X022605Y003370D01*
X022774Y003578D01*
X022993Y003733D01*
X023246Y003822D01*
X023513Y003841D01*
X023776Y003786D01*
X024013Y003663D01*
X024209Y003480D01*
X024349Y003251D01*
X024421Y002993D01*
X024421Y002725D01*
X024349Y002467D01*
X024209Y002238D01*
X024013Y002055D01*
X023776Y001932D01*
X023513Y001877D01*
X023246Y001896D01*
X022993Y001985D01*
X022774Y002140D01*
X022605Y002348D01*
X022498Y002594D01*
X022462Y002859D01*
X018376Y002341D02*
X018376Y002339D01*
X018374Y002337D01*
X018376Y002336D01*
X018376Y002334D01*
X018374Y002332D01*
X018371Y002332D01*
X018369Y002334D01*
X018367Y002332D02*
X018360Y002332D01*
X018364Y002332D02*
X018364Y002342D01*
X018360Y002339D01*
X018358Y002337D02*
X018351Y002337D01*
X018349Y002332D02*
X018342Y002332D01*
X018345Y002332D02*
X018345Y002342D01*
X018342Y002339D01*
X018339Y002341D02*
X018338Y002342D01*
X018333Y002342D01*
X018333Y002332D01*
X018338Y002332D01*
X018339Y002334D01*
X018339Y002341D01*
X018330Y002339D02*
X018330Y002332D01*
X018330Y002337D02*
X018324Y002337D01*
X018324Y002339D02*
X018327Y002342D01*
X018330Y002339D01*
X018324Y002339D02*
X018324Y002332D01*
X018319Y002336D02*
X018314Y002336D01*
X018312Y002337D02*
X018310Y002336D01*
X018305Y002336D01*
X018305Y002332D02*
X018305Y002342D01*
X018310Y002342D01*
X018312Y002341D01*
X018312Y002337D01*
X018314Y002332D02*
X018314Y002342D01*
X018319Y002342D01*
X018321Y002341D01*
X018321Y002337D01*
X018319Y002336D01*
X018303Y002342D02*
X018296Y002342D01*
X018299Y002342D02*
X018299Y002332D01*
X018369Y002341D02*
X018371Y002342D01*
X018374Y002342D01*
X018376Y002341D01*
X018374Y002337D02*
X018373Y002337D01*
D11*
X020453Y004137D02*
X020453Y004897D01*
X021073Y004897D02*
X021073Y004137D01*
X021232Y004190D02*
X021693Y004190D01*
X021693Y004037D02*
X021693Y004344D01*
X021616Y004497D02*
X021309Y004497D01*
X021232Y004574D01*
X021232Y004727D01*
X021309Y004804D01*
X021616Y004497D01*
X021693Y004574D01*
X021693Y004727D01*
X021616Y004804D01*
X021309Y004804D01*
X021309Y004957D02*
X021232Y005034D01*
X021232Y005187D01*
X021309Y005264D01*
X021616Y004957D01*
X021693Y005034D01*
X021693Y005187D01*
X021616Y005264D01*
X021309Y005264D01*
X021386Y005418D02*
X021386Y005648D01*
X021463Y005725D01*
X021693Y005725D01*
X021693Y005878D02*
X021232Y005878D01*
X021232Y006185D01*
X021463Y006031D02*
X021463Y005878D01*
X021386Y005418D02*
X021693Y005418D01*
X021616Y004957D02*
X021309Y004957D01*
X021232Y004190D02*
X021386Y004037D01*
X020993Y003464D02*
X020993Y003157D01*
X020686Y003464D01*
X020609Y003464D01*
X020532Y003387D01*
X020532Y003234D01*
X020609Y003157D01*
X020993Y003004D02*
X020993Y002697D01*
X020993Y002850D02*
X020532Y002850D01*
X020686Y002697D01*
X020609Y002544D02*
X020532Y002467D01*
X020532Y002313D01*
X020609Y002237D01*
X020916Y002237D01*
X020993Y002313D01*
X020993Y002467D01*
X020916Y002544D01*
X021987Y006925D02*
X021991Y006949D01*
X021997Y006971D01*
X022008Y006993D01*
X022021Y007013D01*
X022037Y007030D01*
X022055Y007045D01*
X022076Y007057D01*
X022098Y007066D01*
X022121Y007071D01*
X022145Y007073D01*
X022169Y007071D01*
X022192Y007066D01*
X022214Y007057D01*
X022235Y007045D01*
X022253Y007030D01*
X022269Y007013D01*
X022282Y006993D01*
X022293Y006971D01*
X022299Y006949D01*
X022303Y006925D01*
X022323Y006994D02*
X022334Y007022D01*
X022362Y007033D01*
X022390Y007022D01*
X022401Y006994D01*
X022390Y006966D01*
X022362Y006955D01*
X022334Y006966D01*
X022323Y006994D01*
X022460Y007181D02*
X022460Y007929D01*
X021830Y007929D02*
X021830Y007181D01*
X023380Y007181D02*
X023380Y007929D01*
X023440Y008116D02*
X023451Y008144D01*
X023479Y008155D01*
X023507Y008144D01*
X023518Y008116D01*
X023507Y008088D01*
X023479Y008077D01*
X023451Y008088D01*
X023440Y008116D01*
X023537Y008185D02*
X023541Y008161D01*
X023547Y008139D01*
X023558Y008117D01*
X023571Y008097D01*
X023587Y008080D01*
X023605Y008065D01*
X023626Y008053D01*
X023648Y008044D01*
X023671Y008039D01*
X023695Y008037D01*
X023719Y008039D01*
X023742Y008044D01*
X023764Y008053D01*
X023785Y008065D01*
X023803Y008080D01*
X023819Y008097D01*
X023832Y008117D01*
X023843Y008139D01*
X023849Y008161D01*
X023853Y008185D01*
X024010Y007929D02*
X024010Y007181D01*
X019765Y010312D02*
X019765Y010512D01*
X019765Y010650D02*
X019365Y010650D01*
X019365Y010851D01*
X019432Y010917D01*
X019565Y010917D01*
X019632Y010851D01*
X019632Y010650D01*
X019632Y010784D02*
X019765Y010917D01*
X019765Y011056D02*
X019365Y011056D01*
X019365Y011256D01*
X019432Y011322D01*
X019565Y011322D01*
X019632Y011256D01*
X019632Y011056D01*
X019632Y011189D02*
X019765Y011322D01*
X019765Y011461D02*
X019365Y011461D01*
X019365Y011661D01*
X019432Y011728D01*
X019565Y011728D01*
X019632Y011661D01*
X019632Y011461D01*
X019632Y011594D02*
X019765Y011728D01*
X019765Y011866D02*
X019365Y011866D01*
X019365Y012133D01*
X019565Y011999D02*
X019565Y011866D01*
X019432Y012676D02*
X019365Y012743D01*
X019365Y012876D01*
X019432Y012943D01*
X019498Y012943D01*
X019765Y012676D01*
X019765Y012943D01*
X019699Y013081D02*
X019765Y013148D01*
X019765Y013281D01*
X019699Y013348D01*
X019432Y013348D01*
X019699Y013081D01*
X019432Y013081D01*
X019365Y013148D01*
X019365Y013281D01*
X019432Y013348D01*
X019432Y013486D02*
X019365Y013553D01*
X019365Y013686D01*
X019432Y013753D01*
X019699Y013486D01*
X019765Y013553D01*
X019765Y013686D01*
X019699Y013753D01*
X019432Y013753D01*
X019432Y013891D02*
X019498Y013891D01*
X019565Y013958D01*
X019565Y014091D01*
X019632Y014158D01*
X019699Y014158D01*
X019765Y014091D01*
X019765Y013958D01*
X019699Y013891D01*
X019632Y013891D01*
X019565Y013958D01*
X019565Y014091D02*
X019498Y014158D01*
X019432Y014158D01*
X019365Y014091D01*
X019365Y013958D01*
X019432Y013891D01*
X019432Y013486D02*
X019699Y013486D01*
X021830Y016181D02*
X021830Y016929D01*
X021890Y017116D02*
X021901Y017144D01*
X021929Y017155D01*
X021957Y017144D01*
X021968Y017116D01*
X021957Y017088D01*
X021929Y017077D01*
X021901Y017088D01*
X021890Y017116D01*
X021987Y017185D02*
X021991Y017161D01*
X021997Y017139D01*
X022008Y017117D01*
X022021Y017097D01*
X022037Y017080D01*
X022055Y017065D01*
X022076Y017053D01*
X022098Y017044D01*
X022121Y017039D01*
X022145Y017037D01*
X022169Y017039D01*
X022192Y017044D01*
X022214Y017053D01*
X022235Y017065D01*
X022253Y017080D01*
X022269Y017097D01*
X022282Y017117D01*
X022293Y017139D01*
X022299Y017161D01*
X022303Y017185D01*
X022460Y016929D02*
X022460Y016181D01*
X023380Y016181D02*
X023380Y016929D01*
X024010Y016929D02*
X024010Y016181D01*
X023873Y015994D02*
X023884Y016022D01*
X023912Y016033D01*
X023940Y016022D01*
X023951Y015994D01*
X023940Y015966D01*
X023912Y015955D01*
X023884Y015966D01*
X023873Y015994D01*
X023853Y015925D02*
X023849Y015949D01*
X023843Y015971D01*
X023832Y015993D01*
X023819Y016013D01*
X023803Y016030D01*
X023785Y016045D01*
X023764Y016057D01*
X023742Y016066D01*
X023719Y016071D01*
X023695Y016073D01*
X023671Y016071D01*
X023648Y016066D01*
X023626Y016057D01*
X023605Y016045D01*
X023587Y016030D01*
X023571Y016013D01*
X023558Y015993D01*
X023547Y015971D01*
X023541Y015949D01*
X023537Y015925D01*
X021418Y018497D02*
X021733Y018812D01*
X021733Y022513D01*
X020070Y022513D01*
X019976Y022428D02*
X019465Y022428D01*
X019485Y022432D02*
X019254Y022389D01*
X019029Y022319D01*
X018814Y022222D01*
X018613Y022100D01*
X020828Y022100D01*
X020626Y022222D01*
X020412Y022319D01*
X020187Y022389D01*
X019955Y022432D01*
X019720Y022446D01*
X019485Y022432D01*
X019391Y022513D02*
X017717Y022513D01*
X017717Y018812D01*
X018032Y018497D01*
X017717Y018812D01*
X017717Y022513D01*
X021733Y022513D01*
X021733Y018812D01*
X021418Y018497D01*
X018032Y018497D01*
X017800Y018502D02*
X017713Y018415D01*
X017800Y018329D01*
X017800Y018242D01*
X017713Y018155D01*
X017539Y018155D01*
X017453Y018242D01*
X017282Y018242D02*
X017282Y018155D01*
X017195Y018155D01*
X017195Y018242D01*
X017282Y018242D01*
X017026Y018155D02*
X016679Y018155D01*
X017026Y018502D01*
X017026Y018589D01*
X016940Y018676D01*
X016766Y018676D01*
X016679Y018589D01*
X016511Y018415D02*
X016164Y018415D01*
X015995Y018502D02*
X015735Y018502D01*
X015648Y018415D01*
X015648Y018242D01*
X015735Y018155D01*
X015995Y018155D01*
X015995Y018676D01*
X015479Y018415D02*
X015479Y018155D01*
X015306Y018155D02*
X015306Y018415D01*
X015393Y018502D01*
X015479Y018415D01*
X015306Y018415D02*
X015219Y018502D01*
X015132Y018502D01*
X015132Y018155D01*
X014964Y018242D02*
X014877Y018329D01*
X014704Y018329D01*
X014617Y018415D01*
X014704Y018502D01*
X014964Y018502D01*
X014964Y018242D02*
X014877Y018155D01*
X014617Y018155D01*
X014238Y017716D02*
X014238Y017255D01*
X014085Y017255D02*
X014392Y017255D01*
X014715Y017149D02*
X014945Y017149D01*
X015022Y017225D01*
X015022Y017379D01*
X014945Y017456D01*
X014715Y017456D01*
X014715Y016995D01*
X014869Y017149D02*
X015022Y016995D01*
X015176Y016995D02*
X015483Y017302D01*
X015483Y017379D01*
X015406Y017456D01*
X015252Y017456D01*
X015176Y017379D01*
X015176Y016995D02*
X015483Y016995D01*
X014305Y016635D02*
X014305Y015875D01*
X013685Y015875D02*
X013685Y016635D01*
X013355Y016635D02*
X013355Y015875D01*
X012735Y015875D02*
X012735Y016635D01*
X012405Y016635D02*
X012405Y015875D01*
X011785Y015875D02*
X011785Y016635D01*
X011942Y017325D02*
X012249Y017325D01*
X012325Y017402D01*
X012325Y017555D01*
X012249Y017632D01*
X012249Y017786D02*
X012325Y017862D01*
X012325Y018016D01*
X012249Y018093D01*
X012172Y018093D01*
X012095Y018016D01*
X012095Y017939D01*
X012095Y018016D02*
X012018Y018093D01*
X011942Y018093D01*
X011865Y018016D01*
X011865Y017862D01*
X011942Y017786D01*
X011942Y017632D02*
X011865Y017555D01*
X011865Y017402D01*
X011942Y017325D01*
X012125Y018155D02*
X012125Y018589D01*
X012212Y018676D01*
X012212Y018415D02*
X012039Y018415D01*
X011869Y018502D02*
X011782Y018502D01*
X011609Y018329D01*
X011609Y018502D02*
X011609Y018155D01*
X011440Y018502D02*
X011353Y018502D01*
X011179Y018329D01*
X011179Y018502D02*
X011179Y018155D01*
X011010Y018502D02*
X010923Y018502D01*
X010750Y018329D01*
X010750Y018502D02*
X010750Y018155D01*
X010579Y018155D02*
X010492Y018155D01*
X010492Y018242D01*
X010579Y018242D01*
X010579Y018155D01*
X010323Y018329D02*
X009976Y018329D01*
X009976Y018415D02*
X010063Y018502D01*
X010236Y018502D01*
X010323Y018415D01*
X010323Y018329D01*
X010236Y018155D02*
X010063Y018155D01*
X009976Y018242D01*
X009976Y018415D01*
X009807Y018502D02*
X009547Y018329D01*
X009807Y018155D01*
X009547Y018155D02*
X009547Y018676D01*
X009291Y018502D02*
X009378Y018415D01*
X009378Y018155D01*
X009118Y018155D01*
X009031Y018242D01*
X009118Y018329D01*
X009378Y018329D01*
X009291Y018502D02*
X009118Y018502D01*
X008862Y018415D02*
X008862Y018155D01*
X008689Y018155D02*
X008689Y018415D01*
X008775Y018502D01*
X008862Y018415D01*
X008689Y018415D02*
X008602Y018502D01*
X008515Y018502D01*
X008515Y018155D01*
X009655Y017376D02*
X009809Y017376D01*
X009732Y017376D02*
X009732Y016915D01*
X009655Y016915D02*
X009809Y016915D01*
X009962Y016992D02*
X010039Y016915D01*
X010192Y016915D01*
X010269Y016992D01*
X010423Y016992D02*
X010499Y016915D01*
X010653Y016915D01*
X010729Y016992D01*
X010729Y017069D01*
X010653Y017145D01*
X010576Y017145D01*
X010653Y017145D02*
X010729Y017222D01*
X010729Y017299D01*
X010653Y017376D01*
X010499Y017376D01*
X010423Y017299D01*
X010269Y017299D02*
X010192Y017376D01*
X010039Y017376D01*
X009962Y017299D01*
X009962Y016992D01*
X012382Y018155D02*
X012469Y018155D01*
X012469Y018242D01*
X012382Y018242D01*
X012382Y018155D01*
X012640Y018242D02*
X012727Y018155D01*
X012900Y018155D01*
X012987Y018242D01*
X012987Y018415D01*
X012900Y018502D01*
X012727Y018502D01*
X012640Y018415D01*
X012640Y018242D01*
X013156Y018155D02*
X013156Y018502D01*
X013156Y018329D02*
X013329Y018502D01*
X013416Y018502D01*
X013586Y018415D02*
X013672Y018502D01*
X013932Y018502D01*
X013932Y018069D01*
X013846Y017982D01*
X013759Y017982D01*
X013672Y018155D02*
X013932Y018155D01*
X014101Y018155D02*
X014448Y018676D01*
X013586Y018415D02*
X013586Y018242D01*
X013672Y018155D01*
X013701Y017716D02*
X013625Y017639D01*
X013625Y017332D01*
X013701Y017255D01*
X013855Y017255D01*
X013931Y017332D01*
X014085Y017562D02*
X014238Y017716D01*
X013931Y017639D02*
X013855Y017716D01*
X013701Y017716D01*
X013275Y019808D02*
X012968Y019808D01*
X012891Y019885D01*
X012891Y020038D01*
X012968Y020115D01*
X013121Y020115D02*
X013121Y019961D01*
X013121Y020115D02*
X013275Y020115D01*
X013351Y020038D01*
X013351Y019885D01*
X013275Y019808D01*
X013351Y020268D02*
X012891Y020268D01*
X013351Y020575D01*
X012891Y020575D01*
X012891Y020729D02*
X012891Y020959D01*
X012968Y021036D01*
X013275Y021036D01*
X013351Y020959D01*
X013351Y020729D01*
X012891Y020729D01*
X012980Y022505D02*
X012750Y022505D01*
X012750Y022966D01*
X012980Y022966D01*
X013057Y022889D01*
X013057Y022582D01*
X012980Y022505D01*
X013210Y022505D02*
X013210Y022812D01*
X013210Y022659D02*
X013364Y022812D01*
X013440Y022812D01*
X013594Y022812D02*
X013671Y022812D01*
X013671Y022505D01*
X013747Y022505D02*
X013594Y022505D01*
X013901Y022812D02*
X014054Y022505D01*
X014208Y022812D01*
X014361Y022735D02*
X014438Y022812D01*
X014591Y022812D01*
X014668Y022735D01*
X014668Y022659D01*
X014361Y022659D01*
X014361Y022735D02*
X014361Y022582D01*
X014438Y022505D01*
X014591Y022505D01*
X014821Y022505D02*
X014821Y022812D01*
X014821Y022659D02*
X014975Y022812D01*
X015052Y022812D01*
X015665Y022812D02*
X015819Y022505D01*
X015972Y022812D01*
X016126Y022889D02*
X016202Y022966D01*
X016356Y022966D01*
X016433Y022889D01*
X016433Y022812D01*
X016126Y022505D01*
X016433Y022505D01*
X016586Y022505D02*
X016586Y022582D01*
X016663Y022582D01*
X016663Y022505D01*
X016586Y022505D01*
X016816Y022582D02*
X016893Y022505D01*
X017046Y022505D01*
X017123Y022582D01*
X017123Y022659D01*
X017046Y022735D01*
X016970Y022735D01*
X017046Y022735D02*
X017123Y022812D01*
X017123Y022889D01*
X017046Y022966D01*
X016893Y022966D01*
X016816Y022889D01*
X018646Y022120D02*
X020795Y022120D01*
X020731Y022158D02*
X018709Y022158D01*
X018773Y022197D02*
X020668Y022197D01*
X020597Y022235D02*
X018844Y022235D01*
X018929Y022274D02*
X020512Y022274D01*
X020426Y022312D02*
X019015Y022312D01*
X019131Y022351D02*
X020309Y022351D01*
X020186Y022389D02*
X019255Y022389D01*
X017446Y020764D02*
X017292Y020918D01*
X016985Y020918D01*
X016985Y020611D02*
X017292Y020611D01*
X017446Y020764D01*
X017446Y020457D02*
X017446Y020150D01*
X017139Y020457D01*
X017062Y020457D01*
X016985Y020380D01*
X016985Y020227D01*
X017062Y020150D01*
X016985Y019843D02*
X017446Y019843D01*
X017446Y019690D02*
X017446Y019997D01*
X017139Y019690D02*
X016985Y019843D01*
X017539Y018676D02*
X017713Y018676D01*
X017800Y018589D01*
X017800Y018502D01*
X017713Y018415D02*
X017626Y018415D01*
X017453Y018589D02*
X017539Y018676D01*
X018155Y017571D02*
X019356Y017571D01*
X019356Y016980D02*
X018155Y016980D01*
X019391Y018586D02*
X019297Y018605D01*
X019205Y018628D01*
X019113Y018656D01*
X019023Y018688D01*
X018935Y018724D01*
X018849Y018765D01*
X018764Y018810D01*
X018682Y018860D01*
X018603Y018913D01*
X018526Y018970D01*
X018452Y019030D01*
X018381Y019095D01*
X018314Y019162D01*
X018250Y019233D01*
X018189Y019307D01*
X018132Y019384D01*
X018079Y019463D01*
X018030Y019545D01*
X017985Y019629D01*
X017944Y019716D01*
X017907Y019804D01*
X017875Y019894D01*
X017848Y019986D01*
X017824Y020078D01*
X017806Y020172D01*
X017792Y020267D01*
X017782Y020362D01*
X017778Y020457D01*
X017778Y020553D01*
X017782Y020648D01*
X017792Y020743D01*
X017806Y020838D01*
X017824Y020932D01*
X017848Y021024D01*
X017875Y021116D01*
X017907Y021206D01*
X017944Y021294D01*
X017985Y021381D01*
X018030Y021465D01*
X018079Y021547D01*
X018132Y021626D01*
X018189Y021703D01*
X018250Y021777D01*
X018314Y021848D01*
X018381Y021915D01*
X018452Y021980D01*
X018526Y022040D01*
X018603Y022097D01*
X018682Y022150D01*
X018764Y022200D01*
X018849Y022245D01*
X018935Y022286D01*
X019023Y022322D01*
X019113Y022354D01*
X019205Y022382D01*
X019297Y022405D01*
X019391Y022424D01*
X017776Y020505D02*
X017813Y020885D01*
X017924Y021251D01*
X018104Y021588D01*
X018347Y021883D01*
X018642Y022126D01*
X018979Y022306D01*
X019345Y022417D01*
X019725Y022454D01*
X020105Y022417D01*
X020471Y022306D01*
X020808Y022126D01*
X021103Y021883D01*
X021346Y021588D01*
X021526Y021251D01*
X021637Y020885D01*
X021674Y020505D01*
X021637Y020125D01*
X021526Y019759D01*
X021346Y019422D01*
X021103Y019127D01*
X020808Y018884D01*
X020471Y018704D01*
X020105Y018593D01*
X019725Y018556D01*
X019345Y018593D01*
X018979Y018704D01*
X018642Y018884D01*
X018347Y019127D01*
X018104Y019422D01*
X017924Y019759D01*
X017813Y020125D01*
X017776Y020505D01*
X020060Y018586D02*
X020154Y018605D01*
X020246Y018628D01*
X020338Y018656D01*
X020428Y018688D01*
X020516Y018724D01*
X020602Y018765D01*
X020687Y018810D01*
X020769Y018860D01*
X020848Y018913D01*
X020925Y018970D01*
X020999Y019030D01*
X021070Y019095D01*
X021137Y019162D01*
X021201Y019233D01*
X021262Y019307D01*
X021319Y019384D01*
X021372Y019463D01*
X021421Y019545D01*
X021466Y019629D01*
X021507Y019716D01*
X021544Y019804D01*
X021576Y019894D01*
X021603Y019986D01*
X021627Y020078D01*
X021645Y020172D01*
X021659Y020267D01*
X021669Y020362D01*
X021673Y020457D01*
X021673Y020553D01*
X021669Y020648D01*
X021659Y020743D01*
X021645Y020838D01*
X021627Y020932D01*
X021603Y021024D01*
X021576Y021116D01*
X021544Y021206D01*
X021507Y021294D01*
X021466Y021381D01*
X021421Y021465D01*
X021372Y021547D01*
X021319Y021626D01*
X021262Y021703D01*
X021201Y021777D01*
X021137Y021848D01*
X021070Y021915D01*
X020999Y021980D01*
X020925Y022040D01*
X020848Y022097D01*
X020769Y022150D01*
X020687Y022200D01*
X020602Y022245D01*
X020516Y022286D01*
X020428Y022322D01*
X020338Y022354D01*
X020246Y022382D01*
X020154Y022405D01*
X020060Y022424D01*
X013671Y022966D02*
X013671Y023042D01*
X012136Y022812D02*
X012059Y022812D01*
X011906Y022659D01*
X011906Y022812D02*
X011906Y022505D01*
X011752Y022582D02*
X011752Y022735D01*
X011676Y022812D01*
X011522Y022812D01*
X011446Y022735D01*
X011446Y022582D01*
X011522Y022505D01*
X011676Y022505D01*
X011752Y022582D01*
X011292Y022505D02*
X011215Y022582D01*
X011215Y022889D01*
X011139Y022812D02*
X011292Y022812D01*
X010985Y022735D02*
X010908Y022812D01*
X010755Y022812D01*
X010678Y022735D01*
X010678Y022582D01*
X010755Y022505D01*
X010908Y022505D01*
X010985Y022582D01*
X010985Y022735D01*
X010525Y022966D02*
X010525Y022505D01*
X010218Y022505D02*
X010218Y022966D01*
X010371Y022812D01*
X010525Y022966D01*
X009604Y022812D02*
X009527Y022812D01*
X009374Y022659D01*
X009374Y022812D02*
X009374Y022505D01*
X009220Y022659D02*
X008914Y022659D01*
X008914Y022735D02*
X008990Y022812D01*
X009144Y022812D01*
X009220Y022735D01*
X009220Y022659D01*
X009144Y022505D02*
X008990Y022505D01*
X008914Y022582D01*
X008914Y022735D01*
X008760Y022735D02*
X008760Y022582D01*
X008683Y022505D01*
X008453Y022505D01*
X008453Y022352D02*
X008453Y022812D01*
X008683Y022812D01*
X008760Y022735D01*
X008300Y022735D02*
X008300Y022582D01*
X008223Y022505D01*
X007993Y022505D01*
X007993Y022352D02*
X007993Y022812D01*
X008223Y022812D01*
X008300Y022735D01*
X007839Y022735D02*
X007839Y022659D01*
X007533Y022659D01*
X007533Y022735D02*
X007609Y022812D01*
X007763Y022812D01*
X007839Y022735D01*
X007763Y022505D02*
X007609Y022505D01*
X007533Y022582D01*
X007533Y022735D01*
X007379Y022812D02*
X007226Y022812D01*
X007302Y022889D02*
X007302Y022582D01*
X007379Y022505D01*
X007072Y022582D02*
X006995Y022505D01*
X006842Y022505D01*
X006765Y022582D01*
X006842Y022735D02*
X006765Y022812D01*
X006765Y022889D01*
X006842Y022966D01*
X006995Y022966D01*
X007072Y022889D01*
X006995Y022735D02*
X007072Y022659D01*
X007072Y022582D01*
X006995Y022735D02*
X006842Y022735D01*
X006929Y021814D02*
X006933Y021790D01*
X006939Y021768D01*
X006950Y021746D01*
X006963Y021726D01*
X006979Y021709D01*
X006997Y021694D01*
X007018Y021682D01*
X007040Y021673D01*
X007063Y021668D01*
X007087Y021666D01*
X007111Y021668D01*
X007134Y021673D01*
X007156Y021682D01*
X007177Y021694D01*
X007195Y021709D01*
X007211Y021726D01*
X007224Y021746D01*
X007235Y021768D01*
X007241Y021790D01*
X007245Y021814D01*
X007402Y021558D02*
X007402Y020810D01*
X006772Y020810D02*
X006772Y021558D01*
X006832Y021745D02*
X006843Y021773D01*
X006871Y021784D01*
X006899Y021773D01*
X006910Y021745D01*
X006899Y021717D01*
X006871Y021706D01*
X006843Y021717D01*
X006832Y021745D01*
X008836Y020811D02*
X009143Y020811D01*
X009296Y020658D01*
X009143Y020505D01*
X008836Y020505D01*
X008836Y020351D02*
X008836Y020044D01*
X009066Y020044D01*
X008989Y020198D01*
X008989Y020274D01*
X009066Y020351D01*
X009219Y020351D01*
X009296Y020274D01*
X009296Y020121D01*
X009219Y020044D01*
X012751Y015216D02*
X012675Y015139D01*
X012675Y014832D01*
X012751Y014755D01*
X012905Y014755D01*
X012981Y014832D01*
X013135Y014985D02*
X013442Y014985D01*
X013365Y014755D02*
X013365Y015216D01*
X013135Y014985D01*
X012981Y015139D02*
X012905Y015216D01*
X012751Y015216D01*
X012613Y013143D02*
X012613Y011470D01*
X012519Y011443D02*
X012200Y011443D01*
X012200Y011405D02*
X012526Y011405D01*
X012532Y011375D02*
X012489Y011607D01*
X012419Y011832D01*
X012322Y012046D01*
X012200Y012247D01*
X012200Y010033D01*
X012322Y010234D01*
X012419Y010449D01*
X012489Y010674D01*
X012532Y010905D01*
X012546Y011140D01*
X012532Y011375D01*
X012532Y011366D02*
X012200Y011366D01*
X012200Y011328D02*
X012535Y011328D01*
X012537Y011289D02*
X012200Y011289D01*
X012200Y011250D02*
X012539Y011250D01*
X012542Y011212D02*
X012200Y011212D01*
X012200Y011173D02*
X012544Y011173D01*
X012546Y011135D02*
X012200Y011135D01*
X012200Y011096D02*
X012543Y011096D01*
X012541Y011058D02*
X012200Y011058D01*
X012200Y011019D02*
X012539Y011019D01*
X012536Y010981D02*
X012200Y010981D01*
X012200Y010942D02*
X012534Y010942D01*
X012531Y010904D02*
X012200Y010904D01*
X012200Y010865D02*
X012524Y010865D01*
X012517Y010826D02*
X012200Y010826D01*
X012200Y010788D02*
X012510Y010788D01*
X012503Y010749D02*
X012200Y010749D01*
X012200Y010711D02*
X012496Y010711D01*
X012489Y010672D02*
X012200Y010672D01*
X012200Y010634D02*
X012477Y010634D01*
X012465Y010595D02*
X012200Y010595D01*
X012200Y010557D02*
X012453Y010557D01*
X012441Y010518D02*
X012200Y010518D01*
X012200Y010480D02*
X012429Y010480D01*
X012415Y010441D02*
X012200Y010441D01*
X012200Y010403D02*
X012398Y010403D01*
X012381Y010364D02*
X012200Y010364D01*
X012200Y010325D02*
X012363Y010325D01*
X012346Y010287D02*
X012200Y010287D01*
X012200Y010248D02*
X012328Y010248D01*
X012307Y010210D02*
X012200Y010210D01*
X012200Y010171D02*
X012284Y010171D01*
X012260Y010133D02*
X012200Y010133D01*
X012200Y010094D02*
X012237Y010094D01*
X012214Y010056D02*
X012200Y010056D01*
X012613Y010791D02*
X012613Y009127D01*
X008912Y009127D01*
X008597Y009442D01*
X008597Y012828D01*
X008912Y013143D01*
X012613Y013143D01*
X012613Y009127D01*
X008912Y009127D01*
X008597Y009442D01*
X009875Y008281D02*
X011076Y008281D01*
X011076Y007690D02*
X009875Y007690D01*
X009892Y005316D02*
X010199Y005316D01*
X010046Y005316D02*
X010046Y004855D01*
X010353Y004855D02*
X010353Y005316D01*
X010660Y005316D01*
X010813Y005316D02*
X010813Y004855D01*
X010660Y004855D02*
X010353Y004855D01*
X010353Y005085D02*
X010506Y005085D01*
X010813Y005009D02*
X011043Y005009D01*
X011120Y005085D01*
X011120Y005239D01*
X011043Y005316D01*
X010813Y005316D01*
X010967Y005009D02*
X011120Y004855D01*
X011274Y004855D02*
X011274Y005316D01*
X011580Y005316D01*
X011734Y005162D02*
X011887Y005316D01*
X012041Y005162D01*
X012041Y004855D01*
X012194Y004932D02*
X012194Y005239D01*
X012271Y005316D01*
X012424Y005316D01*
X012501Y005239D01*
X012655Y005316D02*
X012655Y004855D01*
X012961Y004855D01*
X012808Y005085D02*
X012655Y005085D01*
X012501Y004932D02*
X012424Y004855D01*
X012271Y004855D01*
X012194Y004932D01*
X012041Y005085D02*
X011734Y005085D01*
X011734Y005162D02*
X011734Y004855D01*
X011427Y005085D02*
X011274Y005085D01*
X009739Y004855D02*
X009739Y005316D01*
X009432Y005316D02*
X009739Y004855D01*
X009432Y004855D02*
X009432Y005316D01*
X009279Y005316D02*
X009125Y005316D01*
X009202Y005316D02*
X009202Y004855D01*
X009125Y004855D02*
X009279Y004855D01*
X008475Y003704D02*
X008475Y003397D01*
X008168Y003704D01*
X008092Y003704D01*
X008015Y003627D01*
X008015Y003473D01*
X008092Y003397D01*
X008168Y003243D02*
X008475Y003090D01*
X008168Y002936D01*
X008475Y002783D02*
X008475Y002476D01*
X008015Y002476D01*
X008092Y002323D02*
X008245Y002323D01*
X008322Y002246D01*
X008322Y002016D01*
X008475Y002016D02*
X008015Y002016D01*
X008015Y002246D01*
X008092Y002323D01*
X008092Y001862D02*
X008015Y001785D01*
X008015Y001632D01*
X008092Y001555D01*
X008399Y001555D01*
X008475Y001632D01*
X008475Y001785D01*
X008399Y001862D01*
X008245Y001862D01*
X008245Y001709D01*
X012655Y005316D02*
X012961Y005316D01*
X012925Y007175D02*
X012465Y007175D01*
X012465Y007405D01*
X012542Y007482D01*
X012695Y007482D01*
X012772Y007405D01*
X012772Y007175D01*
X012772Y007329D02*
X012925Y007482D01*
X012849Y007636D02*
X012925Y007712D01*
X012925Y007866D01*
X012849Y007943D01*
X012772Y007943D01*
X012695Y007866D01*
X012695Y007636D01*
X012849Y007636D01*
X012695Y007636D02*
X012542Y007789D01*
X012465Y007943D01*
X014270Y007505D02*
X014270Y008706D01*
X014861Y008706D02*
X014861Y007505D01*
X012524Y010801D02*
X012505Y010707D01*
X012482Y010615D01*
X012454Y010523D01*
X012422Y010433D01*
X012386Y010345D01*
X012345Y010259D01*
X012300Y010174D01*
X012250Y010092D01*
X012197Y010013D01*
X012140Y009936D01*
X012080Y009862D01*
X012015Y009791D01*
X011948Y009724D01*
X011877Y009660D01*
X011803Y009599D01*
X011726Y009542D01*
X011647Y009489D01*
X011565Y009440D01*
X011481Y009395D01*
X011394Y009354D01*
X011306Y009317D01*
X011216Y009285D01*
X011124Y009258D01*
X011032Y009234D01*
X010938Y009216D01*
X010843Y009202D01*
X010748Y009192D01*
X010653Y009188D01*
X010557Y009188D01*
X010462Y009192D01*
X010367Y009202D01*
X010272Y009216D01*
X010178Y009234D01*
X010086Y009258D01*
X009994Y009285D01*
X009904Y009317D01*
X009816Y009354D01*
X009729Y009395D01*
X009645Y009440D01*
X009563Y009489D01*
X009484Y009542D01*
X009407Y009599D01*
X009333Y009660D01*
X009262Y009724D01*
X009195Y009791D01*
X009130Y009862D01*
X009070Y009936D01*
X009013Y010013D01*
X008960Y010092D01*
X008910Y010174D01*
X008865Y010259D01*
X008824Y010345D01*
X008788Y010433D01*
X008756Y010523D01*
X008728Y010615D01*
X008705Y010707D01*
X008686Y010801D01*
X008656Y011135D02*
X008693Y011515D01*
X008804Y011881D01*
X008984Y012218D01*
X009227Y012513D01*
X009522Y012756D01*
X009859Y012936D01*
X010225Y013047D01*
X010605Y013084D01*
X010985Y013047D01*
X011351Y012936D01*
X011688Y012756D01*
X011983Y012513D01*
X012226Y012218D01*
X012406Y011881D01*
X012517Y011515D01*
X012554Y011135D01*
X012517Y010755D01*
X012406Y010389D01*
X012226Y010052D01*
X011983Y009757D01*
X011688Y009514D01*
X011351Y009334D01*
X010985Y009223D01*
X010605Y009186D01*
X010225Y009223D01*
X009859Y009334D01*
X009522Y009514D01*
X009227Y009757D01*
X008984Y010052D01*
X008804Y010389D01*
X008693Y010755D01*
X008656Y011135D01*
X008597Y012828D02*
X008912Y013143D01*
X012613Y013143D01*
X013315Y013092D02*
X013315Y012785D01*
X013265Y012646D02*
X013495Y012646D01*
X013572Y012569D01*
X013572Y012262D01*
X013495Y012185D01*
X013265Y012185D01*
X013265Y012646D01*
X013315Y013015D02*
X013622Y013015D01*
X013622Y013092D02*
X013622Y012785D01*
X013776Y012862D02*
X013852Y012785D01*
X014006Y012785D01*
X014083Y012862D01*
X014083Y012939D01*
X014006Y013015D01*
X013929Y013015D01*
X014006Y013015D02*
X014083Y013092D01*
X014083Y013169D01*
X014006Y013246D01*
X013852Y013246D01*
X013776Y013169D01*
X013622Y013092D02*
X013469Y013246D01*
X013315Y013092D01*
X013726Y012646D02*
X013956Y012646D01*
X014033Y012569D01*
X014033Y012415D01*
X013956Y012339D01*
X013726Y012339D01*
X013879Y012339D02*
X014033Y012185D01*
X014186Y012185D02*
X014339Y012185D01*
X014263Y012185D02*
X014263Y012646D01*
X014339Y012646D02*
X014186Y012646D01*
X014313Y012785D02*
X014236Y012862D01*
X014313Y012785D02*
X014466Y012785D01*
X014543Y012862D01*
X014543Y013169D01*
X014466Y013246D01*
X014313Y013246D01*
X014236Y013169D01*
X014236Y013092D01*
X014313Y013015D01*
X014543Y013015D01*
X014696Y012939D02*
X014773Y013015D01*
X014926Y013015D01*
X015003Y012939D01*
X015003Y012862D01*
X014926Y012785D01*
X014773Y012785D01*
X014696Y012862D01*
X014696Y012939D01*
X014773Y013015D02*
X014696Y013092D01*
X014696Y013169D01*
X014773Y013246D01*
X014926Y013246D01*
X015003Y013169D01*
X015003Y013092D01*
X014926Y013015D01*
X015157Y013169D02*
X015233Y013246D01*
X015387Y013246D01*
X015464Y013169D01*
X015464Y013092D01*
X015157Y012785D01*
X015464Y012785D01*
X015414Y012646D02*
X015644Y012646D01*
X015720Y012569D01*
X015720Y012415D01*
X015644Y012339D01*
X015414Y012339D01*
X015567Y012339D02*
X015720Y012185D01*
X015414Y012185D02*
X015414Y012646D01*
X015260Y012646D02*
X014953Y012646D01*
X014953Y012185D01*
X015260Y012185D01*
X015107Y012415D02*
X014953Y012415D01*
X014800Y012339D02*
X014646Y012185D01*
X014493Y012339D01*
X014493Y012646D01*
X014800Y012646D02*
X014800Y012339D01*
X013726Y012185D02*
X013726Y012646D01*
X012368Y011944D02*
X012200Y011944D01*
X012200Y011906D02*
X012385Y011906D01*
X012403Y011867D02*
X012200Y011867D01*
X012200Y011829D02*
X012420Y011829D01*
X012432Y011790D02*
X012200Y011790D01*
X012200Y011752D02*
X012444Y011752D01*
X012456Y011713D02*
X012200Y011713D01*
X012200Y011674D02*
X012468Y011674D01*
X012480Y011636D02*
X012200Y011636D01*
X012200Y011597D02*
X012491Y011597D01*
X012498Y011559D02*
X012200Y011559D01*
X012200Y011520D02*
X012505Y011520D01*
X012512Y011482D02*
X012200Y011482D01*
X012200Y011983D02*
X012351Y011983D01*
X012333Y012021D02*
X012200Y012021D01*
X012200Y012060D02*
X012314Y012060D01*
X012290Y012098D02*
X012200Y012098D01*
X012200Y012137D02*
X012267Y012137D01*
X012243Y012176D02*
X012200Y012176D01*
X012200Y012214D02*
X012220Y012214D01*
X012524Y011470D02*
X012505Y011564D01*
X012482Y011656D01*
X012454Y011748D01*
X012422Y011838D01*
X012386Y011926D01*
X012345Y012012D01*
X012300Y012097D01*
X012250Y012179D01*
X012197Y012258D01*
X012140Y012335D01*
X012080Y012409D01*
X012015Y012480D01*
X011948Y012547D01*
X011877Y012611D01*
X011803Y012672D01*
X011726Y012729D01*
X011647Y012782D01*
X011565Y012831D01*
X011481Y012876D01*
X011394Y012917D01*
X011306Y012954D01*
X011216Y012986D01*
X011124Y013013D01*
X011032Y013037D01*
X010938Y013055D01*
X010843Y013069D01*
X010748Y013079D01*
X010653Y013083D01*
X010557Y013083D01*
X010462Y013079D01*
X010367Y013069D01*
X010272Y013055D01*
X010178Y013037D01*
X010086Y013013D01*
X009994Y012986D01*
X009904Y012954D01*
X009816Y012917D01*
X009729Y012876D01*
X009645Y012831D01*
X009563Y012782D01*
X009484Y012729D01*
X009407Y012672D01*
X009333Y012611D01*
X009262Y012547D01*
X009195Y012480D01*
X009130Y012409D01*
X009070Y012335D01*
X009013Y012258D01*
X008960Y012179D01*
X008910Y012097D01*
X008865Y012012D01*
X008824Y011926D01*
X008788Y011838D01*
X008756Y011748D01*
X008728Y011656D01*
X008705Y011564D01*
X008686Y011470D01*
X019498Y010512D02*
X019498Y010312D01*
X019565Y010245D01*
X019699Y010245D01*
X019765Y010312D01*
D12*
X019441Y016540D02*
X019441Y016760D01*
X019588Y016760D01*
X019514Y016650D02*
X019441Y016650D01*
X019358Y016650D02*
X019358Y016540D01*
X019358Y016650D02*
X019321Y016687D01*
X019211Y016687D01*
X019211Y016540D01*
X019127Y016577D02*
X019091Y016540D01*
X019017Y016540D01*
X018981Y016577D01*
X019127Y016724D01*
X019127Y016577D01*
X018981Y016577D02*
X018981Y016724D01*
X019017Y016760D01*
X019091Y016760D01*
X019127Y016724D01*
X018897Y016724D02*
X018861Y016760D01*
X018787Y016760D01*
X018750Y016724D01*
X018750Y016577D01*
X018897Y016724D01*
X018897Y016577D01*
X018861Y016540D01*
X018787Y016540D01*
X018750Y016577D01*
X018667Y016540D02*
X018520Y016540D01*
X018594Y016540D02*
X018594Y016760D01*
X018520Y016687D01*
X011017Y016201D02*
X010824Y016201D01*
X010920Y016201D02*
X010920Y015910D01*
X010722Y015959D02*
X010722Y016152D01*
X010674Y016201D01*
X010529Y016201D01*
X010529Y015910D01*
X010674Y015910D01*
X010722Y015959D01*
X010428Y015959D02*
X010428Y016055D01*
X010379Y016104D01*
X010331Y016104D01*
X010234Y016055D01*
X010234Y016201D01*
X010428Y016201D01*
X010428Y015959D02*
X010379Y015910D01*
X010283Y015910D01*
X010234Y015959D01*
X010133Y015959D02*
X010085Y015910D01*
X009988Y015910D01*
X009940Y015959D01*
X010133Y016152D01*
X010133Y015959D01*
X010133Y016152D02*
X010085Y016201D01*
X009988Y016201D01*
X009940Y016152D01*
X009940Y015959D01*
X009838Y015959D02*
X009790Y015910D01*
X009693Y015910D01*
X009645Y015959D01*
X009645Y016007D01*
X009693Y016055D01*
X009790Y016055D01*
X009838Y016007D01*
X009838Y015959D01*
X009790Y016055D02*
X009838Y016104D01*
X009838Y016152D01*
X009790Y016201D01*
X009693Y016201D01*
X009645Y016152D01*
X009645Y016104D01*
X009693Y016055D01*
X009544Y016152D02*
X009350Y015959D01*
X009350Y015910D01*
X009350Y016201D02*
X009544Y016201D01*
X009544Y016152D01*
X007662Y019690D02*
X007566Y019787D01*
X007614Y019787D02*
X007469Y019787D01*
X007469Y019690D02*
X007469Y019981D01*
X007614Y019981D01*
X007662Y019932D01*
X007662Y019835D01*
X007614Y019787D01*
X007368Y019690D02*
X007174Y019690D01*
X007174Y019981D01*
X007368Y019981D01*
X007271Y019835D02*
X007174Y019835D01*
X007073Y019690D02*
X007073Y019981D01*
X006880Y019981D02*
X006880Y019690D01*
X006976Y019787D01*
X007073Y019690D01*
X006778Y019739D02*
X006778Y019932D01*
X006730Y019981D01*
X006633Y019981D01*
X006585Y019932D01*
X006585Y019739D01*
X006633Y019690D01*
X006730Y019690D01*
X006778Y019739D01*
X006484Y019835D02*
X006484Y019932D01*
X006435Y019981D01*
X006290Y019981D01*
X006290Y019690D01*
X006290Y019787D02*
X006435Y019787D01*
X006484Y019835D01*
X008480Y021343D02*
X008700Y021343D01*
X008700Y021270D02*
X008700Y021417D01*
X008700Y021500D02*
X008480Y021500D01*
X008590Y021537D02*
X008700Y021647D01*
X008627Y021500D02*
X008480Y021647D01*
X008480Y021343D02*
X008554Y021270D01*
X004527Y005882D02*
X004527Y005821D01*
X004527Y005697D02*
X004527Y005450D01*
X004465Y005450D02*
X004589Y005450D01*
X004711Y005512D02*
X004772Y005450D01*
X004958Y005450D01*
X004958Y005389D02*
X004958Y005697D01*
X004772Y005697D01*
X004711Y005635D01*
X004711Y005512D01*
X004834Y005327D02*
X004896Y005327D01*
X004958Y005389D01*
X004884Y005291D02*
X004884Y004920D01*
X004762Y004920D02*
X004762Y005105D01*
X004700Y005167D01*
X004577Y005167D01*
X004515Y005105D01*
X004394Y005167D02*
X004209Y005167D01*
X004147Y005105D01*
X004147Y004982D01*
X004209Y004920D01*
X004394Y004920D01*
X004515Y004920D02*
X004515Y005291D01*
X004344Y005512D02*
X004282Y005574D01*
X004159Y005574D01*
X004097Y005635D01*
X004159Y005697D01*
X004344Y005697D01*
X004465Y005697D02*
X004527Y005697D01*
X004344Y005512D02*
X004282Y005450D01*
X004097Y005450D01*
X003975Y005574D02*
X003729Y005574D01*
X003729Y005635D02*
X003729Y005512D01*
X003790Y005450D01*
X003914Y005450D01*
X003975Y005574D02*
X003975Y005635D01*
X003914Y005697D01*
X003790Y005697D01*
X003729Y005635D01*
X003607Y005512D02*
X003607Y005759D01*
X003545Y005821D01*
X003360Y005821D01*
X003360Y005450D01*
X003545Y005450D01*
X003607Y005512D01*
X003657Y005291D02*
X003410Y005291D01*
X003657Y005291D02*
X003657Y005229D01*
X003410Y004982D01*
X003410Y004920D01*
X003657Y004920D01*
X003779Y004982D02*
X003840Y005044D01*
X004025Y005044D01*
X004025Y005105D02*
X004025Y004920D01*
X003840Y004920D01*
X003779Y004982D01*
X003840Y005167D02*
X003964Y005167D01*
X004025Y005105D01*
X004884Y005105D02*
X005130Y005105D01*
X005252Y005105D02*
X005252Y004982D01*
X005314Y004920D01*
X005437Y004920D01*
X005499Y004982D01*
X005499Y005105D01*
X005437Y005167D01*
X005314Y005167D01*
X005252Y005105D01*
X005130Y004920D02*
X005130Y005291D01*
X005079Y005450D02*
X005079Y005697D01*
X005264Y005697D01*
X005326Y005635D01*
X005326Y005450D01*
X005447Y005512D02*
X005447Y005635D01*
X005509Y005697D01*
X005632Y005697D01*
X005694Y005635D01*
X005694Y005574D01*
X005447Y005574D01*
X005447Y005512D02*
X005509Y005450D01*
X005632Y005450D01*
X005816Y005512D02*
X005816Y005635D01*
X005877Y005697D01*
X006062Y005697D01*
X006062Y005821D02*
X006062Y005450D01*
X005877Y005450D01*
X005816Y005512D01*
X005988Y005291D02*
X005988Y004920D01*
X005988Y005044D02*
X006174Y005167D01*
X006295Y005105D02*
X006357Y005167D01*
X006480Y005167D01*
X006542Y005105D01*
X006542Y005044D01*
X006295Y005044D01*
X006295Y005105D02*
X006295Y004982D01*
X006357Y004920D01*
X006480Y004920D01*
X006664Y004920D02*
X006664Y005167D01*
X006849Y005167D01*
X006910Y005105D01*
X006910Y004920D01*
X007032Y004920D02*
X007094Y004920D01*
X007094Y004982D01*
X007032Y004982D01*
X007032Y004920D01*
X007216Y004982D02*
X007216Y005105D01*
X007278Y005167D01*
X007463Y005167D01*
X007584Y005105D02*
X007584Y004982D01*
X007646Y004920D01*
X007770Y004920D01*
X007831Y004982D01*
X007831Y005105D01*
X007770Y005167D01*
X007646Y005167D01*
X007584Y005105D01*
X007463Y004920D02*
X007278Y004920D01*
X007216Y004982D01*
X007106Y005327D02*
X007044Y005327D01*
X007106Y005327D02*
X007167Y005389D01*
X007167Y005697D01*
X007289Y005697D02*
X007289Y005635D01*
X007351Y005635D01*
X007351Y005697D01*
X007289Y005697D01*
X007289Y005512D02*
X007289Y005450D01*
X007351Y005450D01*
X007351Y005512D01*
X007289Y005512D01*
X007167Y005450D02*
X006982Y005450D01*
X006921Y005512D01*
X006921Y005697D01*
X006799Y005697D02*
X006737Y005635D01*
X006552Y005635D01*
X006552Y005450D02*
X006552Y005821D01*
X006737Y005821D01*
X006799Y005759D01*
X006799Y005697D01*
X006737Y005635D02*
X006799Y005574D01*
X006799Y005512D01*
X006737Y005450D01*
X006552Y005450D01*
X006174Y004920D02*
X005988Y005044D01*
X005867Y005044D02*
X005620Y005044D01*
X005620Y005105D02*
X005620Y004982D01*
X005682Y004920D01*
X005805Y004920D01*
X005867Y005044D02*
X005867Y005105D01*
X005805Y005167D01*
X005682Y005167D01*
X005620Y005105D01*
X007953Y005167D02*
X007953Y004920D01*
X008076Y004920D02*
X008076Y005105D01*
X008138Y005167D01*
X008200Y005105D01*
X008200Y004920D01*
X008076Y005105D02*
X008014Y005167D01*
X007953Y005167D01*
D13*
X008293Y006052D02*
X008293Y007185D01*
X007795Y007185D01*
X007795Y007385D01*
X008295Y007385D01*
X008295Y007685D01*
X008293Y007685D02*
X006795Y007685D01*
X006795Y007885D01*
X008295Y007885D01*
X008295Y008185D01*
X007795Y008185D01*
X007795Y008385D01*
X008295Y008385D01*
X008293Y008385D02*
X008293Y008685D01*
X006795Y008685D01*
X006795Y008885D01*
X008295Y008885D01*
X008295Y009185D01*
X007795Y009185D01*
X007795Y009385D01*
X008295Y009385D01*
X008295Y009685D01*
X006795Y009685D01*
X006795Y009885D01*
X008295Y009885D01*
X008295Y010185D01*
X007795Y010185D01*
X007795Y010385D01*
X008293Y010385D01*
X008295Y010385D01*
X008293Y010385D02*
X008293Y010685D01*
X006795Y010685D01*
X006795Y010885D01*
X008295Y010885D01*
X008293Y012019D01*
X000190Y012019D01*
X000145Y011985D02*
X000145Y006085D01*
X000190Y006052D02*
X008293Y006052D01*
X008295Y007185D02*
X008293Y007185D01*
X008293Y007385D02*
X008293Y007685D01*
X008295Y008685D02*
X008293Y008685D01*
X008295Y010685D02*
X008293Y010685D01*
X008293Y012202D02*
X008293Y013335D01*
X007795Y013335D01*
X007795Y013535D01*
X008295Y013535D01*
X008295Y013835D01*
X008293Y013835D02*
X006795Y013835D01*
X006795Y014035D01*
X008295Y014035D01*
X008295Y014335D01*
X007795Y014335D01*
X007795Y014535D01*
X008295Y014535D01*
X008293Y014535D02*
X008293Y014835D01*
X006795Y014835D01*
X006795Y015035D01*
X008295Y015035D01*
X008295Y015335D01*
X007795Y015335D01*
X007795Y015535D01*
X008295Y015535D01*
X008295Y015835D01*
X006795Y015835D01*
X006795Y016035D01*
X008295Y016035D01*
X008295Y016335D01*
X007795Y016335D01*
X007795Y016535D01*
X008293Y016535D01*
X008295Y016535D01*
X008293Y016535D02*
X008293Y016835D01*
X006795Y016835D01*
X006795Y017035D01*
X008295Y017035D01*
X008293Y018169D01*
X000190Y018169D01*
X000145Y018135D02*
X000145Y012235D01*
X000190Y012202D02*
X008293Y012202D01*
X008295Y013335D02*
X008293Y013335D01*
X008293Y013535D02*
X008293Y013835D01*
X008915Y014036D02*
X011495Y014035D01*
X011495Y016395D01*
X008915Y016395D01*
X008915Y014035D01*
X009195Y013995D02*
X009195Y013715D01*
X009375Y013535D01*
X011035Y013535D01*
X011215Y013715D01*
X011215Y013995D01*
X009195Y013995D01*
X008295Y014835D02*
X008293Y014835D01*
X008295Y016835D02*
X008293Y016835D01*
X008557Y018919D02*
X008557Y021304D01*
X009345Y022092D01*
X016786Y022092D01*
X017573Y021304D01*
X017573Y018919D01*
X008557Y018919D01*
X013032Y013612D02*
X013032Y013415D01*
X013032Y010699D01*
X019158Y010699D01*
X019158Y013415D01*
X013032Y013415D01*
X013032Y013612D02*
X019158Y013612D01*
X019158Y013415D01*
X020146Y014406D02*
X021101Y014406D01*
X021101Y009715D01*
X020146Y009715D01*
X020146Y009006D01*
X023995Y009006D01*
X023995Y015114D01*
X020146Y015114D01*
X020146Y014406D01*
X020146Y009715D01*
X024235Y009652D02*
X024541Y009959D01*
X025155Y009959D01*
X024695Y009959D02*
X024695Y009345D01*
X024541Y009345D02*
X024235Y009652D01*
X024541Y009345D02*
X025155Y009345D01*
X025155Y010845D02*
X024235Y010845D01*
X024235Y011306D01*
X024388Y011459D01*
X024541Y011459D01*
X024695Y011306D01*
X024695Y010845D01*
X025155Y010845D02*
X025155Y011306D01*
X025002Y011459D01*
X024848Y011459D01*
X024695Y011306D01*
X024388Y012595D02*
X025002Y012595D01*
X025155Y012749D01*
X025155Y013056D01*
X025002Y013209D01*
X024388Y013209D02*
X024235Y013056D01*
X024235Y012749D01*
X024388Y012595D01*
X024235Y014095D02*
X024235Y014556D01*
X024388Y014709D01*
X025002Y014709D01*
X025155Y014556D01*
X025155Y014095D01*
X024235Y014095D01*
D14*
X009310Y007967D02*
X008520Y007967D01*
X008520Y007440D02*
X009310Y007967D01*
X009310Y007440D02*
X008520Y007440D01*
X008520Y007176D02*
X008520Y006912D01*
X008520Y007044D02*
X009310Y007044D01*
X009310Y006912D02*
X009310Y007176D01*
X009310Y006647D02*
X008520Y006647D01*
X008783Y006384D01*
X008520Y006120D01*
X009310Y006120D01*
X007941Y018220D02*
X007414Y019011D01*
X007149Y018747D02*
X007149Y018220D01*
X007414Y018220D02*
X007941Y019011D01*
X007149Y018747D02*
X006886Y019011D01*
X006622Y018747D01*
X006622Y018220D01*
X006357Y018220D02*
X006357Y019011D01*
X006094Y018747D01*
X005830Y019011D01*
X005830Y018220D01*
X006622Y018616D02*
X007149Y018616D01*
D15*
X004863Y019652D02*
X004863Y020552D01*
X004013Y021402D02*
X003113Y021402D01*
X004863Y022252D02*
X004863Y023152D01*
X005713Y021402D02*
X006613Y021402D01*
X001220Y018160D02*
X001220Y012210D01*
X001220Y012010D02*
X001220Y006060D01*
X003152Y002859D02*
X004052Y002859D01*
X004902Y002009D02*
X004902Y001109D01*
X005752Y002859D02*
X006652Y002859D01*
X004902Y003709D02*
X004902Y004609D01*
X009045Y004185D02*
X009045Y001485D01*
X011845Y001485D01*
X013445Y001485D02*
X013845Y001485D01*
X014445Y001485D02*
X016245Y001485D01*
X016245Y004185D01*
X009045Y004185D01*
X012743Y008065D02*
X012705Y008104D01*
X012705Y008180D01*
X012743Y008219D01*
X012782Y008219D01*
X012935Y008065D01*
X012935Y008219D01*
X012935Y008295D02*
X012935Y008334D01*
X012897Y008334D01*
X012897Y008295D01*
X012935Y008295D01*
X012935Y008411D02*
X012782Y008564D01*
X012743Y008564D01*
X012705Y008526D01*
X012705Y008449D01*
X012743Y008411D01*
X012935Y008411D02*
X012935Y008564D01*
X012935Y008641D02*
X012705Y008641D01*
X012820Y008679D02*
X012935Y008794D01*
X012859Y008641D02*
X012705Y008794D01*
X019394Y010385D02*
X019426Y010505D01*
X019514Y010594D01*
X019635Y010626D01*
X019755Y010594D01*
X019844Y010506D01*
X019876Y010385D01*
X019844Y010265D01*
X019756Y010176D01*
X019635Y010144D01*
X019515Y010176D01*
X019426Y010264D01*
X019394Y010385D01*
X023446Y004609D02*
X023446Y003709D01*
X024296Y002859D02*
X025196Y002859D01*
X023446Y002009D02*
X023446Y001109D01*
X022596Y002859D02*
X021696Y002859D01*
X017369Y017685D02*
X017254Y017800D01*
X017216Y017762D02*
X017369Y017915D01*
X017216Y017915D02*
X017216Y017685D01*
X017139Y017724D02*
X017101Y017685D01*
X017024Y017685D01*
X016985Y017724D01*
X017139Y017877D01*
X017139Y017724D01*
X017139Y017877D02*
X017101Y017915D01*
X017024Y017915D01*
X016985Y017877D01*
X016985Y017724D01*
X016909Y017685D02*
X016755Y017685D01*
X016832Y017685D02*
X016832Y017915D01*
X016755Y017839D01*
X021696Y021402D02*
X022596Y021402D01*
X023446Y020552D02*
X023446Y019652D01*
X024296Y021402D02*
X025196Y021402D01*
X023446Y022252D02*
X023446Y023152D01*
D16*
X014645Y003335D03*
X014645Y002335D03*
X013645Y002335D03*
X012645Y002335D03*
X011645Y002335D03*
X010645Y002335D03*
X010645Y003335D03*
X011645Y003335D03*
X012645Y003335D03*
X013645Y003335D03*
D17*
X012895Y004585D02*
X015645Y004585D01*
X015645Y004685D01*
X016145Y004685D01*
X016145Y004585D01*
X016645Y004585D01*
X016645Y001085D01*
X014795Y001085D01*
X014645Y001285D01*
X014445Y001285D01*
X013845Y001285D01*
X013645Y001285D01*
X013495Y001085D01*
X013445Y001085D01*
X013445Y001485D01*
X013445Y001585D01*
X013845Y001585D01*
X014445Y001585D01*
X014445Y001485D01*
X014445Y001285D01*
X014445Y001585D02*
X016145Y001585D01*
X016145Y004085D01*
X009145Y004085D01*
X009145Y001585D01*
X011845Y001585D01*
X011845Y001485D01*
X011845Y001085D01*
X010895Y001085D01*
X010895Y001135D01*
X010395Y001135D01*
X010395Y001085D01*
X008645Y001085D01*
X008645Y004585D01*
X009145Y004585D01*
X009145Y004685D01*
X009645Y004685D01*
X009645Y004585D01*
X012395Y004585D01*
X012395Y004685D01*
X012895Y004685D01*
X012895Y004585D01*
X013645Y006055D02*
X014400Y006055D01*
X014400Y006695D02*
X013645Y006695D01*
X013765Y007675D02*
X013765Y008430D01*
X013125Y008430D02*
X013125Y007675D01*
X016466Y008075D02*
X018335Y008075D01*
X018335Y009235D02*
X016466Y009235D01*
X017034Y005929D02*
X017284Y005929D01*
X018034Y005929D01*
X018534Y005929D01*
X019284Y005929D01*
X019284Y005779D01*
X018684Y005779D01*
X017884Y005779D01*
X017284Y005779D01*
X017284Y005929D01*
X017034Y005929D02*
X016934Y005829D01*
X016934Y005179D01*
X016934Y004679D01*
X016934Y003329D01*
X017034Y003229D01*
X019534Y003229D01*
X019634Y003329D01*
X019634Y004679D01*
X019634Y005179D01*
X019634Y005829D01*
X019534Y005929D01*
X019284Y005929D01*
X018434Y005179D02*
X018434Y004879D01*
X018134Y004879D01*
X018134Y004729D01*
X017984Y004579D01*
X017684Y004579D01*
X017684Y004279D01*
X017984Y004279D01*
X018134Y004129D01*
X018134Y003979D01*
X018134Y003679D01*
X018434Y003679D01*
X018434Y003979D01*
X018434Y004129D01*
X018584Y004279D01*
X018884Y004279D01*
X018884Y004579D01*
X018584Y004579D01*
X018434Y004729D01*
X018434Y004879D01*
X018434Y005179D02*
X018134Y005179D01*
X018134Y004879D01*
X017484Y004429D02*
X017523Y004676D01*
X017637Y004899D01*
X017814Y005076D01*
X018037Y005190D01*
X018284Y005229D01*
X018531Y005190D01*
X018754Y005076D01*
X018931Y004899D01*
X019045Y004676D01*
X019084Y004429D01*
X019045Y004182D01*
X018931Y003959D01*
X018754Y003782D01*
X018531Y003668D01*
X018284Y003629D01*
X018037Y003668D01*
X017814Y003782D01*
X017637Y003959D01*
X017523Y004182D01*
X017484Y004429D01*
X018134Y003979D02*
X018434Y003979D01*
X017996Y002332D02*
X018030Y002471D01*
X018126Y002579D01*
X018260Y002630D01*
X018402Y002613D01*
X018521Y002531D01*
X018587Y002404D01*
X018587Y002260D01*
X018521Y002133D01*
X018402Y002051D01*
X018260Y002034D01*
X018126Y002085D01*
X018030Y002193D01*
X017996Y002332D01*
X013845Y001585D02*
X013845Y001485D01*
X013845Y001285D01*
X013445Y001085D02*
X011845Y001085D01*
X011845Y001585D02*
X011845Y001885D01*
X013445Y001885D01*
X013445Y001585D01*
X020213Y007227D02*
X020213Y007982D01*
X020853Y007982D02*
X020853Y007227D01*
X022422Y002859D02*
X022460Y003135D01*
X022571Y003391D01*
X022747Y003607D01*
X022975Y003768D01*
X023238Y003862D01*
X023516Y003881D01*
X023789Y003824D01*
X024037Y003696D01*
X024240Y003505D01*
X024385Y003267D01*
X024460Y002998D01*
X024460Y002720D01*
X024385Y002451D01*
X024240Y002213D01*
X024037Y002022D01*
X023789Y001894D01*
X023516Y001837D01*
X023238Y001856D01*
X022975Y001950D01*
X022747Y002111D01*
X022571Y002327D01*
X022460Y002583D01*
X022422Y002859D01*
X021676Y002859D02*
X021715Y003227D01*
X021829Y003579D01*
X022014Y003899D01*
X022262Y004174D01*
X022561Y004392D01*
X022899Y004542D01*
X023261Y004619D01*
X023631Y004619D01*
X023993Y004542D01*
X024331Y004392D01*
X024630Y004174D01*
X024878Y003899D01*
X025063Y003579D01*
X025177Y003227D01*
X025216Y002859D01*
X025177Y002491D01*
X025063Y002139D01*
X024878Y001819D01*
X024630Y001544D01*
X024331Y001326D01*
X023993Y001176D01*
X023631Y001099D01*
X023261Y001099D01*
X022899Y001176D01*
X022561Y001326D01*
X022262Y001544D01*
X022014Y001819D01*
X021829Y002139D01*
X021715Y002491D01*
X021676Y002859D01*
X018425Y015285D02*
X016556Y015285D01*
X016556Y016445D02*
X018425Y016445D01*
X016870Y016905D02*
X016115Y016905D01*
X016115Y017545D02*
X016870Y017545D01*
X020222Y016915D02*
X020222Y016160D01*
X020862Y016160D02*
X020862Y016915D01*
X022422Y021402D02*
X022460Y021678D01*
X022571Y021934D01*
X022747Y022150D01*
X022975Y022311D01*
X023238Y022405D01*
X023516Y022424D01*
X023789Y022367D01*
X024037Y022239D01*
X024240Y022048D01*
X024385Y021810D01*
X024460Y021541D01*
X024460Y021263D01*
X024385Y020994D01*
X024240Y020756D01*
X024037Y020565D01*
X023789Y020437D01*
X023516Y020380D01*
X023238Y020399D01*
X022975Y020493D01*
X022747Y020654D01*
X022571Y020870D01*
X022460Y021126D01*
X022422Y021402D01*
X021676Y021402D02*
X021715Y021770D01*
X021829Y022122D01*
X022014Y022442D01*
X022262Y022717D01*
X022561Y022935D01*
X022899Y023085D01*
X023261Y023162D01*
X023631Y023162D01*
X023993Y023085D01*
X024331Y022935D01*
X024630Y022717D01*
X024878Y022442D01*
X025063Y022122D01*
X025177Y021770D01*
X025216Y021402D01*
X025177Y021034D01*
X025063Y020682D01*
X024878Y020362D01*
X024630Y020087D01*
X024331Y019869D01*
X023993Y019719D01*
X023631Y019642D01*
X023261Y019642D01*
X022899Y019719D01*
X022561Y019869D01*
X022262Y020087D01*
X022014Y020362D01*
X021829Y020682D01*
X021715Y021034D01*
X021676Y021402D01*
X008325Y021580D02*
X008325Y020825D01*
X007685Y020825D02*
X007685Y021580D01*
X003839Y021402D02*
X003877Y021678D01*
X003988Y021934D01*
X004164Y022150D01*
X004392Y022311D01*
X004655Y022405D01*
X004933Y022424D01*
X005206Y022367D01*
X005454Y022239D01*
X005657Y022048D01*
X005802Y021810D01*
X005877Y021541D01*
X005877Y021263D01*
X005802Y020994D01*
X005657Y020756D01*
X005454Y020565D01*
X005206Y020437D01*
X004933Y020380D01*
X004655Y020399D01*
X004392Y020493D01*
X004164Y020654D01*
X003988Y020870D01*
X003877Y021126D01*
X003839Y021402D01*
X003093Y021402D02*
X003132Y021770D01*
X003246Y022122D01*
X003431Y022442D01*
X003679Y022717D01*
X003978Y022935D01*
X004316Y023085D01*
X004678Y023162D01*
X005048Y023162D01*
X005410Y023085D01*
X005748Y022935D01*
X006047Y022717D01*
X006295Y022442D01*
X006480Y022122D01*
X006594Y021770D01*
X006633Y021402D01*
X006594Y021034D01*
X006480Y020682D01*
X006295Y020362D01*
X006047Y020087D01*
X005748Y019869D01*
X005410Y019719D01*
X005048Y019642D01*
X004678Y019642D01*
X004316Y019719D01*
X003978Y019869D01*
X003679Y020087D01*
X003431Y020362D01*
X003246Y020682D01*
X003132Y021034D01*
X003093Y021402D01*
X005482Y015024D02*
X005425Y014967D01*
X005425Y014854D01*
X005482Y014797D01*
X005425Y014656D02*
X005765Y014429D01*
X005765Y014656D02*
X005425Y014429D01*
X005765Y014797D02*
X005538Y015024D01*
X005482Y015024D01*
X005765Y015024D02*
X005765Y014797D01*
X005709Y008924D02*
X005765Y008867D01*
X005765Y008754D01*
X005709Y008697D01*
X005765Y008556D02*
X005425Y008329D01*
X005425Y008556D02*
X005765Y008329D01*
X005482Y008697D02*
X005425Y008754D01*
X005425Y008867D01*
X005482Y008924D01*
X005538Y008924D01*
X005595Y008867D01*
X005652Y008924D01*
X005709Y008924D01*
X005595Y008867D02*
X005595Y008810D01*
X003878Y002859D02*
X003916Y003135D01*
X004027Y003391D01*
X004203Y003607D01*
X004431Y003768D01*
X004694Y003862D01*
X004972Y003881D01*
X005245Y003824D01*
X005493Y003696D01*
X005696Y003505D01*
X005841Y003267D01*
X005916Y002998D01*
X005916Y002720D01*
X005841Y002451D01*
X005696Y002213D01*
X005493Y002022D01*
X005245Y001894D01*
X004972Y001837D01*
X004694Y001856D01*
X004431Y001950D01*
X004203Y002111D01*
X004027Y002327D01*
X003916Y002583D01*
X003878Y002859D01*
X003132Y002859D02*
X003171Y003227D01*
X003285Y003579D01*
X003470Y003899D01*
X003718Y004174D01*
X004017Y004392D01*
X004355Y004542D01*
X004717Y004619D01*
X005087Y004619D01*
X005449Y004542D01*
X005787Y004392D01*
X006086Y004174D01*
X006334Y003899D01*
X006519Y003579D01*
X006633Y003227D01*
X006672Y002859D01*
X006633Y002491D01*
X006519Y002139D01*
X006334Y001819D01*
X006086Y001544D01*
X005787Y001326D01*
X005449Y001176D01*
X005087Y001099D01*
X004717Y001099D01*
X004355Y001176D01*
X004017Y001326D01*
X003718Y001544D01*
X003470Y001819D01*
X003285Y002139D01*
X003171Y002491D01*
X003132Y002859D01*
D18*
X009300Y007010D02*
X009601Y007010D01*
X009450Y007010D02*
X009450Y007461D01*
X009300Y007311D01*
X009761Y007386D02*
X009761Y007085D01*
X010061Y007386D01*
X010061Y007085D01*
X009986Y007010D01*
X009836Y007010D01*
X009761Y007085D01*
X009761Y007386D02*
X009836Y007461D01*
X009986Y007461D01*
X010061Y007386D01*
X010221Y007386D02*
X010296Y007461D01*
X010446Y007461D01*
X010521Y007386D01*
X010221Y007085D01*
X010296Y007010D01*
X010446Y007010D01*
X010521Y007085D01*
X010521Y007386D01*
X010681Y007311D02*
X010906Y007311D01*
X010982Y007235D01*
X010982Y007010D01*
X011142Y007010D02*
X011142Y007461D01*
X011442Y007461D01*
X011575Y007610D02*
X011500Y007685D01*
X011500Y007835D01*
X011575Y007911D01*
X011575Y008071D02*
X011500Y008146D01*
X011500Y008296D01*
X011575Y008371D01*
X011650Y008371D01*
X011725Y008296D01*
X011725Y008146D01*
X011650Y008071D01*
X011575Y008071D01*
X011725Y008146D02*
X011800Y008071D01*
X011875Y008071D01*
X011950Y008146D01*
X011950Y008296D01*
X011875Y008371D01*
X011800Y008371D01*
X011725Y008296D01*
X011875Y007911D02*
X011950Y007835D01*
X011950Y007685D01*
X011875Y007610D01*
X011575Y007610D01*
X011292Y007235D02*
X011142Y007235D01*
X010681Y007311D02*
X010681Y007010D01*
X010221Y007085D02*
X010221Y007386D01*
X012310Y006331D02*
X012460Y006481D01*
X012460Y006030D01*
X012310Y006030D02*
X012611Y006030D01*
X012771Y006030D02*
X012771Y006481D01*
X012846Y006255D02*
X013071Y006030D01*
X012771Y006180D02*
X013071Y006481D01*
X015100Y006501D02*
X015100Y006050D01*
X015100Y006200D02*
X015325Y006200D01*
X015401Y006275D01*
X015401Y006426D01*
X015325Y006501D01*
X015100Y006501D01*
X015250Y006200D02*
X015401Y006050D01*
X015561Y006050D02*
X015861Y006050D01*
X015711Y006050D02*
X015711Y006501D01*
X015561Y006351D01*
X016021Y006501D02*
X016321Y006501D01*
X016321Y006426D01*
X016021Y006125D01*
X016021Y006050D01*
X017000Y005598D02*
X017057Y005655D01*
X017170Y005655D01*
X017227Y005598D01*
X017227Y005541D01*
X017170Y005484D01*
X017227Y005428D01*
X017227Y005371D01*
X017170Y005314D01*
X017057Y005314D01*
X017000Y005371D01*
X017114Y005484D02*
X017170Y005484D01*
X019100Y005541D02*
X019214Y005655D01*
X019214Y005314D01*
X019327Y005314D02*
X019100Y005314D01*
X021038Y006756D02*
X021488Y006756D01*
X021488Y006606D02*
X021488Y006906D01*
X021488Y007066D02*
X021038Y007066D01*
X021263Y007141D02*
X021488Y007367D01*
X021338Y007066D02*
X021038Y007367D01*
X021008Y007756D02*
X021008Y007981D01*
X021083Y008056D01*
X021233Y008056D01*
X021308Y007981D01*
X021308Y007756D01*
X021308Y007906D02*
X021458Y008056D01*
X021383Y008216D02*
X021458Y008291D01*
X021458Y008441D01*
X021383Y008517D01*
X021233Y008517D01*
X021158Y008441D01*
X021158Y008366D01*
X021233Y008216D01*
X021008Y008216D01*
X021008Y008517D01*
X021008Y007756D02*
X021458Y007756D01*
X021038Y006756D02*
X021188Y006606D01*
X021890Y006315D02*
X021890Y006090D01*
X022340Y006090D01*
X022340Y006315D01*
X022265Y006390D01*
X022190Y006390D01*
X022115Y006315D01*
X022115Y006090D01*
X022115Y006315D02*
X022040Y006390D01*
X021965Y006390D01*
X021890Y006315D01*
X023430Y006190D02*
X023580Y006040D01*
X023880Y006040D01*
X023655Y006040D02*
X023655Y006340D01*
X023580Y006340D02*
X023880Y006340D01*
X023580Y006340D02*
X023430Y006190D01*
X019550Y008250D02*
X019100Y008250D01*
X019100Y008475D01*
X019175Y008550D01*
X019325Y008550D01*
X019400Y008475D01*
X019400Y008250D01*
X019400Y008400D02*
X019550Y008550D01*
X019475Y008710D02*
X019550Y008785D01*
X019550Y008935D01*
X019475Y009010D01*
X019400Y009010D01*
X019325Y008935D01*
X019325Y008860D01*
X019325Y008935D02*
X019250Y009010D01*
X019175Y009010D01*
X019100Y008935D01*
X019100Y008785D01*
X019175Y008710D01*
X018820Y007901D02*
X018520Y007901D01*
X018520Y007675D01*
X018670Y007751D01*
X018745Y007751D01*
X018820Y007675D01*
X018820Y007525D01*
X018745Y007450D01*
X018595Y007450D01*
X018520Y007525D01*
X018360Y007450D02*
X018059Y007450D01*
X018360Y007751D01*
X018360Y007826D01*
X018285Y007901D01*
X018134Y007901D01*
X018059Y007826D01*
X017904Y007525D02*
X017829Y007525D01*
X017829Y007450D01*
X017904Y007450D01*
X017904Y007525D01*
X017669Y007525D02*
X017669Y007826D01*
X017369Y007525D01*
X017444Y007450D01*
X017594Y007450D01*
X017669Y007525D01*
X017369Y007525D02*
X017369Y007826D01*
X017444Y007901D01*
X017594Y007901D01*
X017669Y007826D01*
X015540Y007970D02*
X015540Y007670D01*
X015240Y007970D01*
X015165Y007970D01*
X015090Y007895D01*
X015090Y007745D01*
X015165Y007670D01*
X015165Y007510D02*
X015090Y007435D01*
X015090Y007285D01*
X015165Y007210D01*
X015465Y007210D01*
X015540Y007285D01*
X015540Y007435D01*
X015465Y007510D01*
X015071Y009130D02*
X015071Y009581D01*
X015371Y009581D01*
X015221Y009355D02*
X015071Y009355D01*
X014911Y009355D02*
X014911Y009130D01*
X014911Y009355D02*
X014836Y009431D01*
X014611Y009431D01*
X014611Y009130D01*
X014451Y009130D02*
X014150Y009130D01*
X014300Y009130D02*
X014300Y009581D01*
X014150Y009431D01*
X011320Y011760D02*
X011320Y012211D01*
X011620Y012211D01*
X011470Y011985D02*
X011320Y011985D01*
X011160Y012061D02*
X011160Y011760D01*
X010934Y011760D01*
X010859Y011835D01*
X010859Y012061D01*
X010699Y012136D02*
X010699Y011835D01*
X010624Y011760D01*
X010474Y011760D01*
X010399Y011835D01*
X010699Y012136D01*
X010624Y012211D01*
X010474Y012211D01*
X010399Y012136D01*
X010399Y011835D01*
X010239Y011835D02*
X010164Y011760D01*
X010014Y011760D01*
X009939Y011835D01*
X010239Y012136D01*
X010239Y011835D01*
X009939Y011835D02*
X009939Y012136D01*
X010014Y012211D01*
X010164Y012211D01*
X010239Y012136D01*
X009779Y011760D02*
X009478Y011760D01*
X009628Y011760D02*
X009628Y012211D01*
X009478Y012061D01*
X010024Y010311D02*
X009949Y010236D01*
X009949Y009935D01*
X010024Y009860D01*
X010174Y009860D01*
X010249Y009935D01*
X010409Y009860D02*
X010710Y009860D01*
X010560Y009860D02*
X010560Y010311D01*
X010409Y010161D01*
X010249Y010236D02*
X010174Y010311D01*
X010024Y010311D01*
X010870Y010161D02*
X011020Y010311D01*
X011020Y009860D01*
X010870Y009860D02*
X011170Y009860D01*
X015440Y015229D02*
X015440Y015454D01*
X015515Y015529D01*
X015665Y015529D01*
X015740Y015454D01*
X015740Y015229D01*
X015740Y015379D02*
X015890Y015529D01*
X015890Y015689D02*
X015890Y015990D01*
X015890Y015840D02*
X015440Y015840D01*
X015590Y015689D01*
X015665Y016150D02*
X015665Y016375D01*
X015740Y016450D01*
X015815Y016450D01*
X015890Y016375D01*
X015890Y016225D01*
X015815Y016150D01*
X015665Y016150D01*
X015515Y016300D01*
X015440Y016450D01*
X015440Y015229D02*
X015890Y015229D01*
X018930Y017875D02*
X019005Y017800D01*
X019155Y017800D01*
X019231Y017875D01*
X019391Y017875D02*
X019466Y017800D01*
X019616Y017800D01*
X019691Y017875D01*
X019691Y017950D01*
X019616Y018025D01*
X019391Y018025D01*
X019391Y017875D01*
X019391Y018025D02*
X019541Y018176D01*
X019691Y018251D01*
X019231Y018176D02*
X019155Y018251D01*
X019005Y018251D01*
X018930Y018176D01*
X018930Y017875D01*
X020195Y017757D02*
X020420Y017757D01*
X020496Y017832D01*
X020496Y017982D01*
X020420Y018057D01*
X020195Y018057D01*
X020195Y017607D01*
X020345Y017757D02*
X020496Y017607D01*
X020656Y017682D02*
X020656Y017757D01*
X020731Y017832D01*
X020881Y017832D01*
X020956Y017757D01*
X020956Y017682D01*
X020881Y017607D01*
X020731Y017607D01*
X020656Y017682D01*
X020731Y017832D02*
X020656Y017907D01*
X020656Y017982D01*
X020731Y018057D01*
X020881Y018057D01*
X020956Y017982D01*
X020956Y017907D01*
X020881Y017832D01*
X021950Y017795D02*
X022025Y017720D01*
X022325Y017720D01*
X022400Y017795D01*
X022400Y017945D01*
X022325Y018021D01*
X022025Y018021D02*
X021950Y017945D01*
X021950Y017795D01*
X021487Y016375D02*
X021262Y016150D01*
X021337Y016075D02*
X021036Y016375D01*
X021036Y016075D02*
X021487Y016075D01*
X021487Y015915D02*
X021487Y015615D01*
X021487Y015765D02*
X021036Y015765D01*
X021186Y015615D01*
X019520Y015639D02*
X019220Y015940D01*
X019145Y015940D01*
X019070Y015865D01*
X019070Y015714D01*
X019145Y015639D01*
X019445Y015484D02*
X019520Y015484D01*
X019520Y015409D01*
X019445Y015409D01*
X019445Y015484D01*
X019520Y015639D02*
X019520Y015940D01*
X019445Y016100D02*
X019520Y016175D01*
X019520Y016325D01*
X019445Y016400D01*
X019295Y016400D01*
X019220Y016325D01*
X019220Y016250D01*
X019295Y016100D01*
X019070Y016100D01*
X019070Y016400D01*
X019145Y015249D02*
X019445Y014949D01*
X019520Y015024D01*
X019520Y015174D01*
X019445Y015249D01*
X019145Y015249D01*
X019070Y015174D01*
X019070Y015024D01*
X019145Y014949D01*
X019445Y014949D01*
X019115Y012545D02*
X019072Y012544D01*
X019030Y012539D01*
X018988Y012531D01*
X018947Y012519D01*
X018908Y012503D01*
X018870Y012484D01*
X018833Y012462D01*
X018799Y012436D01*
X018767Y012408D01*
X018738Y012377D01*
X018712Y012344D01*
X018688Y012308D01*
X018668Y012271D01*
X018651Y012232D01*
X018638Y012191D01*
X018628Y012150D01*
X018622Y012108D01*
X018620Y012065D01*
X018621Y012022D01*
X018627Y011980D01*
X018635Y011939D01*
X018648Y011898D01*
X018664Y011858D01*
X018683Y011820D01*
X018706Y011784D01*
X018732Y011750D01*
X018760Y011719D01*
X018792Y011690D01*
X018825Y011664D01*
X018861Y011641D01*
X018899Y011621D01*
X018938Y011605D01*
X018979Y011592D01*
X019020Y011582D01*
X019062Y011577D01*
X019105Y011575D01*
X023510Y017670D02*
X023510Y017895D01*
X023585Y017971D01*
X023885Y017971D01*
X023960Y017895D01*
X023960Y017670D01*
X023510Y017670D01*
X021000Y020024D02*
X021000Y020174D01*
X020925Y020249D01*
X021000Y020409D02*
X021000Y020710D01*
X021000Y020560D02*
X020550Y020560D01*
X020700Y020409D01*
X020625Y020249D02*
X020550Y020174D01*
X020550Y020024D01*
X020625Y019949D01*
X020925Y019949D01*
X021000Y020024D01*
X020925Y020870D02*
X020625Y020870D01*
X020550Y020945D01*
X020550Y021095D01*
X020625Y021170D01*
X020925Y020870D01*
X021000Y020945D01*
X021000Y021095D01*
X020925Y021170D01*
X020625Y021170D01*
X019200Y021110D02*
X019200Y020884D01*
X019125Y020809D01*
X018900Y020809D01*
X018825Y020649D02*
X019125Y020349D01*
X019200Y020424D01*
X019200Y020574D01*
X019125Y020649D01*
X018825Y020649D01*
X018750Y020574D01*
X018750Y020424D01*
X018825Y020349D01*
X019125Y020349D01*
X019125Y020189D02*
X019200Y020114D01*
X019200Y019964D01*
X019125Y019889D01*
X018825Y020189D01*
X019125Y020189D01*
X018825Y020189D02*
X018750Y020114D01*
X018750Y019964D01*
X018825Y019889D01*
X019125Y019889D01*
X019200Y019729D02*
X019200Y019428D01*
X019200Y019578D02*
X018750Y019578D01*
X018900Y019428D01*
X018900Y021110D02*
X019200Y021110D01*
X019200Y021270D02*
X018750Y021270D01*
X018750Y021570D01*
X018975Y021420D02*
X018975Y021270D01*
X008280Y019891D02*
X008205Y019891D01*
X007905Y020191D01*
X007830Y020191D01*
X007830Y019891D01*
X007905Y019731D02*
X007830Y019655D01*
X007830Y019430D01*
X008280Y019430D01*
X008130Y019430D02*
X008130Y019655D01*
X008055Y019731D01*
X007905Y019731D01*
X008130Y019580D02*
X008280Y019731D01*
X009745Y003561D02*
X009670Y003486D01*
X009745Y003561D02*
X009895Y003561D01*
X009971Y003486D01*
X009971Y003411D01*
X009670Y003110D01*
X009971Y003110D01*
X009820Y002561D02*
X009820Y002110D01*
X009670Y002110D02*
X009971Y002110D01*
X009670Y002411D02*
X009820Y002561D01*
X012270Y001561D02*
X012420Y001711D01*
X012420Y001260D01*
X012270Y001260D02*
X012571Y001260D01*
X012731Y001335D02*
X012731Y001636D01*
X012806Y001711D01*
X012956Y001711D01*
X013031Y001636D01*
X012731Y001335D01*
X012806Y001260D01*
X012956Y001260D01*
X013031Y001335D01*
X013031Y001636D01*
X017721Y001758D02*
X018021Y001758D01*
X017871Y001758D02*
X017871Y001307D01*
X018181Y001307D02*
X018181Y001758D01*
X018406Y001758D01*
X018482Y001683D01*
X018482Y001532D01*
X018406Y001457D01*
X018181Y001457D01*
X018642Y001307D02*
X018942Y001307D01*
X018792Y001307D02*
X018792Y001758D01*
X018642Y001608D01*
D19*
X005945Y007535D02*
X005195Y007535D01*
X005195Y010535D01*
X005945Y010535D01*
X005945Y007535D01*
X005195Y007535D02*
X003445Y007535D01*
X003445Y010535D01*
X005195Y010535D01*
X005195Y013685D02*
X003445Y013685D01*
X003445Y016685D01*
X005195Y016685D01*
X005195Y013685D01*
X005945Y013685D01*
X005945Y016685D01*
X005195Y016685D01*
D20*
X006851Y021809D03*
X021909Y017180D03*
X023931Y015930D03*
X023459Y008180D03*
X022381Y006930D03*
D21*
X022436Y007009D03*
X023405Y008102D03*
X023986Y016009D03*
X021855Y017102D03*
X006797Y021730D03*
D22*
X006935Y021711D03*
X021993Y017082D03*
X023848Y016029D03*
X023543Y008082D03*
X022298Y007029D03*
D23*
X022318Y007048D03*
X023523Y008062D03*
X023868Y016048D03*
X021973Y017062D03*
X006915Y021691D03*
D24*
X007324Y021765D03*
X022381Y017136D03*
X023459Y015975D03*
X023931Y008136D03*
X021909Y006975D03*
D25*
X021929Y007048D03*
X023912Y008062D03*
X023479Y016048D03*
X022362Y017062D03*
X007304Y021691D03*
D26*
X007087Y021617D03*
X022145Y016988D03*
X023695Y016122D03*
X023695Y007988D03*
X022145Y007122D03*
D27*
X022145Y008067D03*
X023695Y007043D03*
X022145Y016043D03*
X023695Y017067D03*
X007087Y020672D03*
D28*
X006817Y021406D03*
X007358Y021406D03*
X021875Y016777D03*
X022416Y016777D03*
X023425Y016334D03*
X023966Y016334D03*
X023966Y007777D03*
X023425Y007777D03*
X022416Y007334D03*
X021875Y007334D03*
D29*
X022145Y007486D03*
X023695Y007624D03*
X023695Y016486D03*
X022145Y016624D03*
X007087Y021253D03*
D30*
X008005Y021725D03*
X008005Y020685D03*
X020542Y017060D03*
X020542Y016020D03*
X013445Y008575D03*
X013445Y007535D03*
X020533Y007082D03*
X020533Y008122D03*
D31*
X018498Y008655D03*
X016308Y008655D03*
X016398Y015865D03*
X018588Y015865D03*
D32*
X017015Y017225D03*
X015975Y017225D03*
X014545Y006375D03*
X013505Y006375D03*
D33*
X011007Y007985D03*
X009944Y007985D03*
X018224Y017275D03*
X019287Y017275D03*
D34*
X014565Y008637D03*
X014565Y007574D03*
D35*
X011105Y017005D03*
X009305Y017005D03*
D36*
X010205Y016585D03*
D37*
X009195Y013995D02*
X011215Y013995D01*
X011215Y013715D01*
X011035Y013535D01*
X009375Y013535D01*
X009195Y013715D01*
X009195Y013995D01*
X009195Y013975D02*
X011215Y013975D01*
X011215Y013898D02*
X009195Y013898D01*
X009195Y013820D02*
X011215Y013820D01*
X011215Y013743D02*
X009195Y013743D01*
X009245Y013666D02*
X011166Y013666D01*
X011089Y013589D02*
X009322Y013589D01*
D38*
X018296Y002332D03*
D39*
X020763Y003994D03*
X020762Y005039D03*
X013996Y015733D03*
X013046Y015733D03*
X012096Y015733D03*
X012095Y016778D03*
X013045Y016778D03*
X013995Y016778D03*
D40*
X013845Y013951D03*
X013345Y013951D03*
X014345Y013951D03*
X014845Y013951D03*
X015345Y013951D03*
X015845Y013951D03*
X016345Y013951D03*
X016845Y013951D03*
X017345Y013951D03*
X017845Y013951D03*
X018345Y013951D03*
X018845Y013951D03*
X018845Y010360D03*
X018345Y010360D03*
X017845Y010360D03*
X017345Y010360D03*
X016845Y010360D03*
X016345Y010360D03*
X015845Y010360D03*
X015345Y010360D03*
X014845Y010360D03*
X014345Y010360D03*
X013845Y010360D03*
X013345Y010360D03*
D41*
X013680Y015090D02*
X013780Y015090D01*
X013730Y015090D02*
X013730Y015240D01*
X013680Y015190D01*
X013828Y015215D02*
X013853Y015240D01*
X013903Y015240D01*
X013928Y015215D01*
X013828Y015115D01*
X013853Y015090D01*
X013903Y015090D01*
X013928Y015115D01*
X013928Y015215D01*
X013975Y015215D02*
X014000Y015240D01*
X014050Y015240D01*
X014075Y015215D01*
X013975Y015115D01*
X014000Y015090D01*
X014050Y015090D01*
X014075Y015115D01*
X014075Y015215D01*
X014122Y015190D02*
X014197Y015190D01*
X014222Y015165D01*
X014222Y015090D01*
X014270Y015090D02*
X014270Y015240D01*
X014370Y015240D01*
X014320Y015165D02*
X014270Y015165D01*
X014122Y015190D02*
X014122Y015090D01*
X013975Y015115D02*
X013975Y015215D01*
X013828Y015215D02*
X013828Y015115D01*
X012460Y015240D02*
X012360Y015240D01*
X012360Y015090D01*
X012312Y015090D02*
X012312Y015165D01*
X012287Y015190D01*
X012212Y015190D01*
X012212Y015090D01*
X012165Y015115D02*
X012140Y015090D01*
X012090Y015090D01*
X012065Y015115D01*
X012165Y015215D01*
X012165Y015115D01*
X012065Y015115D02*
X012065Y015215D01*
X012090Y015240D01*
X012140Y015240D01*
X012165Y015215D01*
X012018Y015215D02*
X011993Y015240D01*
X011943Y015240D01*
X011918Y015215D01*
X011870Y015215D02*
X011845Y015240D01*
X011795Y015240D01*
X011770Y015215D01*
X011870Y015215D02*
X011870Y015190D01*
X011770Y015090D01*
X011870Y015090D01*
X011918Y015090D02*
X012018Y015190D01*
X012018Y015215D01*
X012018Y015090D02*
X011918Y015090D01*
X012360Y015165D02*
X012410Y015165D01*
X012720Y017240D02*
X012820Y017240D01*
X012770Y017240D02*
X012770Y017390D01*
X012720Y017340D01*
X012868Y017365D02*
X012893Y017390D01*
X012943Y017390D01*
X012968Y017365D01*
X012868Y017265D01*
X012893Y017240D01*
X012943Y017240D01*
X012968Y017265D01*
X012968Y017365D01*
X013015Y017365D02*
X013040Y017390D01*
X013090Y017390D01*
X013115Y017365D01*
X013015Y017265D01*
X013040Y017240D01*
X013090Y017240D01*
X013115Y017265D01*
X013115Y017365D01*
X013162Y017340D02*
X013237Y017340D01*
X013262Y017315D01*
X013262Y017240D01*
X013310Y017240D02*
X013310Y017390D01*
X013410Y017390D01*
X013360Y017315D02*
X013310Y017315D01*
X013162Y017340D02*
X013162Y017240D01*
X013015Y017265D02*
X013015Y017365D01*
X012868Y017365D02*
X012868Y017265D01*
D42*
X004563Y021402D02*
X004597Y021541D01*
X004693Y021649D01*
X004827Y021700D01*
X004969Y021683D01*
X005088Y021601D01*
X005154Y021474D01*
X005154Y021330D01*
X005088Y021203D01*
X004969Y021121D01*
X004827Y021104D01*
X004693Y021155D01*
X004597Y021263D01*
X004563Y021402D01*
X023146Y021402D02*
X023180Y021541D01*
X023276Y021649D01*
X023410Y021700D01*
X023552Y021683D01*
X023671Y021601D01*
X023737Y021474D01*
X023737Y021330D01*
X023671Y021203D01*
X023552Y021121D01*
X023410Y021104D01*
X023276Y021155D01*
X023180Y021263D01*
X023146Y021402D01*
X023146Y002859D02*
X023180Y002998D01*
X023276Y003106D01*
X023410Y003157D01*
X023552Y003140D01*
X023671Y003058D01*
X023737Y002931D01*
X023737Y002787D01*
X023671Y002660D01*
X023552Y002578D01*
X023410Y002561D01*
X023276Y002612D01*
X023180Y002720D01*
X023146Y002859D01*
X004602Y002859D02*
X004636Y002998D01*
X004732Y003106D01*
X004866Y003157D01*
X005008Y003140D01*
X005127Y003058D01*
X005193Y002931D01*
X005193Y002787D01*
X005127Y002660D01*
X005008Y002578D01*
X004866Y002561D01*
X004732Y002612D01*
X004636Y002720D01*
X004602Y002859D01*
D43*
X006595Y002933D02*
X005197Y002933D01*
X005198Y002933D02*
X005188Y002965D01*
X005175Y002995D01*
X005159Y003023D01*
X005140Y003050D01*
X005118Y003075D01*
X005093Y003097D01*
X005066Y003116D01*
X005038Y003132D01*
X005008Y003145D01*
X004976Y003155D01*
X004976Y004552D01*
X004977Y004552D01*
X005058Y004547D01*
X005138Y004537D01*
X005218Y004524D01*
X005298Y004507D01*
X005376Y004486D01*
X005453Y004462D01*
X005529Y004434D01*
X005604Y004402D01*
X005677Y004367D01*
X005748Y004328D01*
X005817Y004286D01*
X005884Y004240D01*
X005949Y004192D01*
X006012Y004140D01*
X006072Y004086D01*
X006129Y004029D01*
X006183Y003969D01*
X006235Y003906D01*
X006283Y003841D01*
X006329Y003774D01*
X006371Y003705D01*
X006410Y003634D01*
X006445Y003561D01*
X006477Y003486D01*
X006505Y003410D01*
X006529Y003333D01*
X006550Y003255D01*
X006567Y003175D01*
X006580Y003095D01*
X006590Y003015D01*
X006595Y002934D01*
X006453Y002934D01*
X006448Y003010D01*
X006438Y003086D01*
X006425Y003161D01*
X006409Y003235D01*
X006388Y003309D01*
X006364Y003381D01*
X006337Y003453D01*
X006306Y003522D01*
X006272Y003591D01*
X006234Y003657D01*
X006193Y003722D01*
X006150Y003784D01*
X006103Y003844D01*
X006053Y003902D01*
X006000Y003957D01*
X005945Y004010D01*
X005887Y004060D01*
X005827Y004107D01*
X005765Y004150D01*
X005700Y004191D01*
X005634Y004229D01*
X005565Y004263D01*
X005496Y004294D01*
X005424Y004321D01*
X005352Y004345D01*
X005278Y004366D01*
X005204Y004382D01*
X005129Y004395D01*
X005053Y004405D01*
X004977Y004410D01*
X004977Y004268D01*
X005051Y004262D01*
X005124Y004252D01*
X005196Y004239D01*
X005268Y004222D01*
X005339Y004201D01*
X005408Y004176D01*
X005476Y004148D01*
X005543Y004116D01*
X005608Y004081D01*
X005671Y004042D01*
X005732Y004000D01*
X005790Y003955D01*
X005846Y003908D01*
X005900Y003857D01*
X005951Y003803D01*
X005998Y003747D01*
X006043Y003689D01*
X006085Y003628D01*
X006124Y003565D01*
X006159Y003500D01*
X006191Y003433D01*
X006219Y003365D01*
X006244Y003296D01*
X006265Y003225D01*
X006282Y003153D01*
X006295Y003081D01*
X006305Y003008D01*
X006311Y002934D01*
X006169Y002934D01*
X006163Y003005D01*
X006153Y003075D01*
X006139Y003144D01*
X006121Y003213D01*
X006099Y003280D01*
X006074Y003347D01*
X006045Y003411D01*
X006012Y003474D01*
X005976Y003535D01*
X005936Y003594D01*
X005894Y003651D01*
X005848Y003705D01*
X005799Y003756D01*
X005748Y003805D01*
X005694Y003851D01*
X005637Y003893D01*
X005578Y003933D01*
X005517Y003969D01*
X005454Y004002D01*
X005390Y004031D01*
X005323Y004056D01*
X005256Y004078D01*
X005187Y004096D01*
X005118Y004110D01*
X005048Y004120D01*
X004977Y004126D01*
X004977Y003984D01*
X005041Y003977D01*
X005106Y003967D01*
X005169Y003954D01*
X005231Y003937D01*
X005293Y003916D01*
X005353Y003892D01*
X005412Y003864D01*
X005468Y003833D01*
X005524Y003799D01*
X005577Y003762D01*
X005627Y003722D01*
X005676Y003678D01*
X005721Y003633D01*
X005765Y003584D01*
X005805Y003534D01*
X005842Y003481D01*
X005876Y003425D01*
X005907Y003369D01*
X005935Y003310D01*
X005959Y003250D01*
X005980Y003188D01*
X005997Y003126D01*
X006010Y003063D01*
X006020Y002998D01*
X006027Y002934D01*
X005884Y002934D01*
X005878Y002994D01*
X005867Y003054D01*
X005854Y003113D01*
X005836Y003172D01*
X005815Y003228D01*
X005791Y003284D01*
X005763Y003338D01*
X005732Y003390D01*
X005697Y003440D01*
X005660Y003488D01*
X005620Y003534D01*
X005577Y003577D01*
X005531Y003617D01*
X005483Y003654D01*
X005433Y003689D01*
X005381Y003720D01*
X005327Y003748D01*
X005271Y003772D01*
X005215Y003793D01*
X005156Y003811D01*
X005097Y003824D01*
X005037Y003835D01*
X004977Y003841D01*
X004977Y003699D01*
X005032Y003692D01*
X005087Y003681D01*
X005141Y003667D01*
X005194Y003650D01*
X005246Y003629D01*
X005296Y003604D01*
X005345Y003576D01*
X005392Y003545D01*
X005436Y003511D01*
X005478Y003475D01*
X005518Y003435D01*
X005554Y003393D01*
X005588Y003349D01*
X005619Y003302D01*
X005647Y003253D01*
X005672Y003203D01*
X005693Y003151D01*
X005710Y003098D01*
X005724Y003044D01*
X005735Y002989D01*
X005742Y002934D01*
X005599Y002934D01*
X005592Y002983D01*
X005581Y003032D01*
X005567Y003080D01*
X005550Y003127D01*
X005529Y003173D01*
X005505Y003217D01*
X005478Y003259D01*
X005448Y003299D01*
X005415Y003337D01*
X005380Y003372D01*
X005342Y003405D01*
X005302Y003435D01*
X005260Y003462D01*
X005216Y003486D01*
X005170Y003507D01*
X005123Y003524D01*
X005075Y003538D01*
X005026Y003549D01*
X004977Y003556D01*
X004977Y003413D01*
X005022Y003405D01*
X005066Y003394D01*
X005109Y003378D01*
X005150Y003360D01*
X005190Y003338D01*
X005228Y003313D01*
X005264Y003285D01*
X005297Y003254D01*
X005328Y003221D01*
X005356Y003185D01*
X005381Y003147D01*
X005403Y003107D01*
X005421Y003066D01*
X005437Y003023D01*
X005448Y002979D01*
X005456Y002934D01*
X005312Y002934D01*
X005304Y002971D01*
X005291Y003008D01*
X005276Y003044D01*
X005257Y003078D01*
X005235Y003110D01*
X005210Y003140D01*
X005183Y003167D01*
X005153Y003192D01*
X005121Y003214D01*
X005087Y003233D01*
X005051Y003248D01*
X005014Y003261D01*
X004977Y003269D01*
X003209Y002785D02*
X004607Y002785D01*
X004606Y002785D02*
X004616Y002753D01*
X004629Y002723D01*
X004645Y002695D01*
X004664Y002668D01*
X004686Y002643D01*
X004711Y002621D01*
X004738Y002602D01*
X004766Y002586D01*
X004796Y002573D01*
X004828Y002563D01*
X004828Y001166D01*
X004827Y001166D01*
X004746Y001171D01*
X004666Y001181D01*
X004586Y001194D01*
X004506Y001211D01*
X004428Y001232D01*
X004351Y001256D01*
X004275Y001284D01*
X004200Y001316D01*
X004127Y001351D01*
X004056Y001390D01*
X003987Y001432D01*
X003920Y001478D01*
X003855Y001526D01*
X003792Y001578D01*
X003732Y001632D01*
X003675Y001689D01*
X003621Y001749D01*
X003569Y001812D01*
X003521Y001877D01*
X003475Y001944D01*
X003433Y002013D01*
X003394Y002084D01*
X003359Y002157D01*
X003327Y002232D01*
X003299Y002308D01*
X003275Y002385D01*
X003254Y002463D01*
X003237Y002543D01*
X003224Y002623D01*
X003214Y002703D01*
X003209Y002784D01*
X003351Y002784D01*
X003356Y002708D01*
X003366Y002632D01*
X003379Y002557D01*
X003395Y002483D01*
X003416Y002409D01*
X003440Y002337D01*
X003467Y002265D01*
X003498Y002196D01*
X003532Y002127D01*
X003570Y002061D01*
X003611Y001996D01*
X003654Y001934D01*
X003701Y001874D01*
X003751Y001816D01*
X003804Y001761D01*
X003859Y001708D01*
X003917Y001658D01*
X003977Y001611D01*
X004039Y001568D01*
X004104Y001527D01*
X004170Y001489D01*
X004239Y001455D01*
X004308Y001424D01*
X004380Y001397D01*
X004452Y001373D01*
X004526Y001352D01*
X004600Y001336D01*
X004675Y001323D01*
X004751Y001313D01*
X004827Y001308D01*
X004827Y001450D01*
X004753Y001456D01*
X004680Y001466D01*
X004608Y001479D01*
X004536Y001496D01*
X004465Y001517D01*
X004396Y001542D01*
X004328Y001570D01*
X004261Y001602D01*
X004196Y001637D01*
X004133Y001676D01*
X004072Y001718D01*
X004014Y001763D01*
X003958Y001810D01*
X003904Y001861D01*
X003853Y001915D01*
X003806Y001971D01*
X003761Y002029D01*
X003719Y002090D01*
X003680Y002153D01*
X003645Y002218D01*
X003613Y002285D01*
X003585Y002353D01*
X003560Y002422D01*
X003539Y002493D01*
X003522Y002565D01*
X003509Y002637D01*
X003499Y002710D01*
X003493Y002784D01*
X003635Y002784D01*
X003641Y002713D01*
X003651Y002643D01*
X003665Y002574D01*
X003683Y002505D01*
X003705Y002438D01*
X003730Y002371D01*
X003759Y002307D01*
X003792Y002244D01*
X003828Y002183D01*
X003868Y002124D01*
X003910Y002067D01*
X003956Y002013D01*
X004005Y001962D01*
X004056Y001913D01*
X004110Y001867D01*
X004167Y001825D01*
X004226Y001785D01*
X004287Y001749D01*
X004350Y001716D01*
X004414Y001687D01*
X004481Y001662D01*
X004548Y001640D01*
X004617Y001622D01*
X004686Y001608D01*
X004756Y001598D01*
X004827Y001592D01*
X004827Y001734D01*
X004763Y001741D01*
X004698Y001751D01*
X004635Y001764D01*
X004573Y001781D01*
X004511Y001802D01*
X004451Y001826D01*
X004392Y001854D01*
X004336Y001885D01*
X004280Y001919D01*
X004227Y001956D01*
X004177Y001996D01*
X004128Y002040D01*
X004083Y002085D01*
X004039Y002134D01*
X003999Y002184D01*
X003962Y002237D01*
X003928Y002293D01*
X003897Y002349D01*
X003869Y002408D01*
X003845Y002468D01*
X003824Y002530D01*
X003807Y002592D01*
X003794Y002655D01*
X003784Y002720D01*
X003777Y002784D01*
X003920Y002784D01*
X003926Y002724D01*
X003937Y002664D01*
X003950Y002605D01*
X003968Y002546D01*
X003989Y002490D01*
X004013Y002434D01*
X004041Y002380D01*
X004072Y002328D01*
X004107Y002278D01*
X004144Y002230D01*
X004184Y002184D01*
X004227Y002141D01*
X004273Y002101D01*
X004321Y002064D01*
X004371Y002029D01*
X004423Y001998D01*
X004477Y001970D01*
X004533Y001946D01*
X004589Y001925D01*
X004648Y001907D01*
X004707Y001894D01*
X004767Y001883D01*
X004827Y001877D01*
X004827Y002019D01*
X004772Y002026D01*
X004717Y002037D01*
X004663Y002051D01*
X004610Y002068D01*
X004558Y002089D01*
X004508Y002114D01*
X004459Y002142D01*
X004412Y002173D01*
X004368Y002207D01*
X004326Y002243D01*
X004286Y002283D01*
X004250Y002325D01*
X004216Y002369D01*
X004185Y002416D01*
X004157Y002465D01*
X004132Y002515D01*
X004111Y002567D01*
X004094Y002620D01*
X004080Y002674D01*
X004069Y002729D01*
X004062Y002784D01*
X004205Y002784D01*
X004212Y002735D01*
X004223Y002686D01*
X004237Y002638D01*
X004254Y002591D01*
X004275Y002545D01*
X004299Y002501D01*
X004326Y002459D01*
X004356Y002419D01*
X004389Y002381D01*
X004424Y002346D01*
X004462Y002313D01*
X004502Y002283D01*
X004544Y002256D01*
X004588Y002232D01*
X004634Y002211D01*
X004681Y002194D01*
X004729Y002180D01*
X004778Y002169D01*
X004827Y002162D01*
X004827Y002305D01*
X004782Y002313D01*
X004738Y002324D01*
X004695Y002340D01*
X004654Y002358D01*
X004614Y002380D01*
X004576Y002405D01*
X004540Y002433D01*
X004507Y002464D01*
X004476Y002497D01*
X004448Y002533D01*
X004423Y002571D01*
X004401Y002611D01*
X004383Y002652D01*
X004367Y002695D01*
X004356Y002739D01*
X004348Y002784D01*
X004492Y002784D01*
X004500Y002747D01*
X004513Y002710D01*
X004528Y002674D01*
X004547Y002640D01*
X004569Y002608D01*
X004594Y002578D01*
X004621Y002551D01*
X004651Y002526D01*
X004683Y002504D01*
X004717Y002485D01*
X004753Y002470D01*
X004790Y002457D01*
X004827Y002449D01*
X025139Y002933D02*
X023741Y002933D01*
X023742Y002933D02*
X023732Y002965D01*
X023719Y002995D01*
X023703Y003023D01*
X023684Y003050D01*
X023662Y003075D01*
X023637Y003097D01*
X023610Y003116D01*
X023582Y003132D01*
X023552Y003145D01*
X023520Y003155D01*
X023520Y004552D01*
X023521Y004552D01*
X023602Y004547D01*
X023682Y004537D01*
X023762Y004524D01*
X023842Y004507D01*
X023920Y004486D01*
X023997Y004462D01*
X024073Y004434D01*
X024148Y004402D01*
X024221Y004367D01*
X024292Y004328D01*
X024361Y004286D01*
X024428Y004240D01*
X024493Y004192D01*
X024556Y004140D01*
X024616Y004086D01*
X024673Y004029D01*
X024727Y003969D01*
X024779Y003906D01*
X024827Y003841D01*
X024873Y003774D01*
X024915Y003705D01*
X024954Y003634D01*
X024989Y003561D01*
X025021Y003486D01*
X025049Y003410D01*
X025073Y003333D01*
X025094Y003255D01*
X025111Y003175D01*
X025124Y003095D01*
X025134Y003015D01*
X025139Y002934D01*
X024997Y002934D01*
X024992Y003010D01*
X024982Y003086D01*
X024969Y003161D01*
X024953Y003235D01*
X024932Y003309D01*
X024908Y003381D01*
X024881Y003453D01*
X024850Y003522D01*
X024816Y003591D01*
X024778Y003657D01*
X024737Y003722D01*
X024694Y003784D01*
X024647Y003844D01*
X024597Y003902D01*
X024544Y003957D01*
X024489Y004010D01*
X024431Y004060D01*
X024371Y004107D01*
X024309Y004150D01*
X024244Y004191D01*
X024178Y004229D01*
X024109Y004263D01*
X024040Y004294D01*
X023968Y004321D01*
X023896Y004345D01*
X023822Y004366D01*
X023748Y004382D01*
X023673Y004395D01*
X023597Y004405D01*
X023521Y004410D01*
X023521Y004268D01*
X023595Y004262D01*
X023668Y004252D01*
X023740Y004239D01*
X023812Y004222D01*
X023883Y004201D01*
X023952Y004176D01*
X024020Y004148D01*
X024087Y004116D01*
X024152Y004081D01*
X024215Y004042D01*
X024276Y004000D01*
X024334Y003955D01*
X024390Y003908D01*
X024444Y003857D01*
X024495Y003803D01*
X024542Y003747D01*
X024587Y003689D01*
X024629Y003628D01*
X024668Y003565D01*
X024703Y003500D01*
X024735Y003433D01*
X024763Y003365D01*
X024788Y003296D01*
X024809Y003225D01*
X024826Y003153D01*
X024839Y003081D01*
X024849Y003008D01*
X024855Y002934D01*
X024713Y002934D01*
X024707Y003005D01*
X024697Y003075D01*
X024683Y003144D01*
X024665Y003213D01*
X024643Y003280D01*
X024618Y003347D01*
X024589Y003411D01*
X024556Y003474D01*
X024520Y003535D01*
X024480Y003594D01*
X024438Y003651D01*
X024392Y003705D01*
X024343Y003756D01*
X024292Y003805D01*
X024238Y003851D01*
X024181Y003893D01*
X024122Y003933D01*
X024061Y003969D01*
X023998Y004002D01*
X023934Y004031D01*
X023867Y004056D01*
X023800Y004078D01*
X023731Y004096D01*
X023662Y004110D01*
X023592Y004120D01*
X023521Y004126D01*
X023521Y003984D01*
X023585Y003977D01*
X023650Y003967D01*
X023713Y003954D01*
X023775Y003937D01*
X023837Y003916D01*
X023897Y003892D01*
X023956Y003864D01*
X024012Y003833D01*
X024068Y003799D01*
X024121Y003762D01*
X024171Y003722D01*
X024220Y003678D01*
X024265Y003633D01*
X024309Y003584D01*
X024349Y003534D01*
X024386Y003481D01*
X024420Y003425D01*
X024451Y003369D01*
X024479Y003310D01*
X024503Y003250D01*
X024524Y003188D01*
X024541Y003126D01*
X024554Y003063D01*
X024564Y002998D01*
X024571Y002934D01*
X024428Y002934D01*
X024422Y002994D01*
X024411Y003054D01*
X024398Y003113D01*
X024380Y003172D01*
X024359Y003228D01*
X024335Y003284D01*
X024307Y003338D01*
X024276Y003390D01*
X024241Y003440D01*
X024204Y003488D01*
X024164Y003534D01*
X024121Y003577D01*
X024075Y003617D01*
X024027Y003654D01*
X023977Y003689D01*
X023925Y003720D01*
X023871Y003748D01*
X023815Y003772D01*
X023759Y003793D01*
X023700Y003811D01*
X023641Y003824D01*
X023581Y003835D01*
X023521Y003841D01*
X023521Y003699D01*
X023576Y003692D01*
X023631Y003681D01*
X023685Y003667D01*
X023738Y003650D01*
X023790Y003629D01*
X023840Y003604D01*
X023889Y003576D01*
X023936Y003545D01*
X023980Y003511D01*
X024022Y003475D01*
X024062Y003435D01*
X024098Y003393D01*
X024132Y003349D01*
X024163Y003302D01*
X024191Y003253D01*
X024216Y003203D01*
X024237Y003151D01*
X024254Y003098D01*
X024268Y003044D01*
X024279Y002989D01*
X024286Y002934D01*
X024143Y002934D01*
X024136Y002983D01*
X024125Y003032D01*
X024111Y003080D01*
X024094Y003127D01*
X024073Y003173D01*
X024049Y003217D01*
X024022Y003259D01*
X023992Y003299D01*
X023959Y003337D01*
X023924Y003372D01*
X023886Y003405D01*
X023846Y003435D01*
X023804Y003462D01*
X023760Y003486D01*
X023714Y003507D01*
X023667Y003524D01*
X023619Y003538D01*
X023570Y003549D01*
X023521Y003556D01*
X023521Y003413D01*
X023566Y003405D01*
X023610Y003394D01*
X023653Y003378D01*
X023694Y003360D01*
X023734Y003338D01*
X023772Y003313D01*
X023808Y003285D01*
X023841Y003254D01*
X023872Y003221D01*
X023900Y003185D01*
X023925Y003147D01*
X023947Y003107D01*
X023965Y003066D01*
X023981Y003023D01*
X023992Y002979D01*
X024000Y002934D01*
X023856Y002934D01*
X023848Y002971D01*
X023835Y003008D01*
X023820Y003044D01*
X023801Y003078D01*
X023779Y003110D01*
X023754Y003140D01*
X023727Y003167D01*
X023697Y003192D01*
X023665Y003214D01*
X023631Y003233D01*
X023595Y003248D01*
X023558Y003261D01*
X023521Y003269D01*
X021753Y002785D02*
X023151Y002785D01*
X023150Y002785D02*
X023160Y002753D01*
X023173Y002723D01*
X023189Y002695D01*
X023208Y002668D01*
X023230Y002643D01*
X023255Y002621D01*
X023282Y002602D01*
X023310Y002586D01*
X023340Y002573D01*
X023372Y002563D01*
X023372Y001166D01*
X023371Y001166D01*
X023290Y001171D01*
X023210Y001181D01*
X023130Y001194D01*
X023050Y001211D01*
X022972Y001232D01*
X022895Y001256D01*
X022819Y001284D01*
X022744Y001316D01*
X022671Y001351D01*
X022600Y001390D01*
X022531Y001432D01*
X022464Y001478D01*
X022399Y001526D01*
X022336Y001578D01*
X022276Y001632D01*
X022219Y001689D01*
X022165Y001749D01*
X022113Y001812D01*
X022065Y001877D01*
X022019Y001944D01*
X021977Y002013D01*
X021938Y002084D01*
X021903Y002157D01*
X021871Y002232D01*
X021843Y002308D01*
X021819Y002385D01*
X021798Y002463D01*
X021781Y002543D01*
X021768Y002623D01*
X021758Y002703D01*
X021753Y002784D01*
X021895Y002784D01*
X021900Y002708D01*
X021910Y002632D01*
X021923Y002557D01*
X021939Y002483D01*
X021960Y002409D01*
X021984Y002337D01*
X022011Y002265D01*
X022042Y002196D01*
X022076Y002127D01*
X022114Y002061D01*
X022155Y001996D01*
X022198Y001934D01*
X022245Y001874D01*
X022295Y001816D01*
X022348Y001761D01*
X022403Y001708D01*
X022461Y001658D01*
X022521Y001611D01*
X022583Y001568D01*
X022648Y001527D01*
X022714Y001489D01*
X022783Y001455D01*
X022852Y001424D01*
X022924Y001397D01*
X022996Y001373D01*
X023070Y001352D01*
X023144Y001336D01*
X023219Y001323D01*
X023295Y001313D01*
X023371Y001308D01*
X023371Y001450D01*
X023297Y001456D01*
X023224Y001466D01*
X023152Y001479D01*
X023080Y001496D01*
X023009Y001517D01*
X022940Y001542D01*
X022872Y001570D01*
X022805Y001602D01*
X022740Y001637D01*
X022677Y001676D01*
X022616Y001718D01*
X022558Y001763D01*
X022502Y001810D01*
X022448Y001861D01*
X022397Y001915D01*
X022350Y001971D01*
X022305Y002029D01*
X022263Y002090D01*
X022224Y002153D01*
X022189Y002218D01*
X022157Y002285D01*
X022129Y002353D01*
X022104Y002422D01*
X022083Y002493D01*
X022066Y002565D01*
X022053Y002637D01*
X022043Y002710D01*
X022037Y002784D01*
X022179Y002784D01*
X022185Y002713D01*
X022195Y002643D01*
X022209Y002574D01*
X022227Y002505D01*
X022249Y002438D01*
X022274Y002371D01*
X022303Y002307D01*
X022336Y002244D01*
X022372Y002183D01*
X022412Y002124D01*
X022454Y002067D01*
X022500Y002013D01*
X022549Y001962D01*
X022600Y001913D01*
X022654Y001867D01*
X022711Y001825D01*
X022770Y001785D01*
X022831Y001749D01*
X022894Y001716D01*
X022958Y001687D01*
X023025Y001662D01*
X023092Y001640D01*
X023161Y001622D01*
X023230Y001608D01*
X023300Y001598D01*
X023371Y001592D01*
X023371Y001734D01*
X023307Y001741D01*
X023242Y001751D01*
X023179Y001764D01*
X023117Y001781D01*
X023055Y001802D01*
X022995Y001826D01*
X022936Y001854D01*
X022880Y001885D01*
X022824Y001919D01*
X022771Y001956D01*
X022721Y001996D01*
X022672Y002040D01*
X022627Y002085D01*
X022583Y002134D01*
X022543Y002184D01*
X022506Y002237D01*
X022472Y002293D01*
X022441Y002349D01*
X022413Y002408D01*
X022389Y002468D01*
X022368Y002530D01*
X022351Y002592D01*
X022338Y002655D01*
X022328Y002720D01*
X022321Y002784D01*
X022464Y002784D01*
X022470Y002724D01*
X022481Y002664D01*
X022494Y002605D01*
X022512Y002546D01*
X022533Y002490D01*
X022557Y002434D01*
X022585Y002380D01*
X022616Y002328D01*
X022651Y002278D01*
X022688Y002230D01*
X022728Y002184D01*
X022771Y002141D01*
X022817Y002101D01*
X022865Y002064D01*
X022915Y002029D01*
X022967Y001998D01*
X023021Y001970D01*
X023077Y001946D01*
X023133Y001925D01*
X023192Y001907D01*
X023251Y001894D01*
X023311Y001883D01*
X023371Y001877D01*
X023371Y002019D01*
X023316Y002026D01*
X023261Y002037D01*
X023207Y002051D01*
X023154Y002068D01*
X023102Y002089D01*
X023052Y002114D01*
X023003Y002142D01*
X022956Y002173D01*
X022912Y002207D01*
X022870Y002243D01*
X022830Y002283D01*
X022794Y002325D01*
X022760Y002369D01*
X022729Y002416D01*
X022701Y002465D01*
X022676Y002515D01*
X022655Y002567D01*
X022638Y002620D01*
X022624Y002674D01*
X022613Y002729D01*
X022606Y002784D01*
X022749Y002784D01*
X022756Y002735D01*
X022767Y002686D01*
X022781Y002638D01*
X022798Y002591D01*
X022819Y002545D01*
X022843Y002501D01*
X022870Y002459D01*
X022900Y002419D01*
X022933Y002381D01*
X022968Y002346D01*
X023006Y002313D01*
X023046Y002283D01*
X023088Y002256D01*
X023132Y002232D01*
X023178Y002211D01*
X023225Y002194D01*
X023273Y002180D01*
X023322Y002169D01*
X023371Y002162D01*
X023371Y002305D01*
X023326Y002313D01*
X023282Y002324D01*
X023239Y002340D01*
X023198Y002358D01*
X023158Y002380D01*
X023120Y002405D01*
X023084Y002433D01*
X023051Y002464D01*
X023020Y002497D01*
X022992Y002533D01*
X022967Y002571D01*
X022945Y002611D01*
X022927Y002652D01*
X022911Y002695D01*
X022900Y002739D01*
X022892Y002784D01*
X023036Y002784D01*
X023044Y002747D01*
X023057Y002710D01*
X023072Y002674D01*
X023091Y002640D01*
X023113Y002608D01*
X023138Y002578D01*
X023165Y002551D01*
X023195Y002526D01*
X023227Y002504D01*
X023261Y002485D01*
X023297Y002470D01*
X023334Y002457D01*
X023371Y002449D01*
X025139Y021476D02*
X023741Y021476D01*
X023742Y021476D02*
X023732Y021508D01*
X023719Y021538D01*
X023703Y021566D01*
X023684Y021593D01*
X023662Y021618D01*
X023637Y021640D01*
X023610Y021659D01*
X023582Y021675D01*
X023552Y021688D01*
X023520Y021698D01*
X023520Y023095D01*
X023521Y023095D01*
X023602Y023090D01*
X023682Y023080D01*
X023762Y023067D01*
X023842Y023050D01*
X023920Y023029D01*
X023997Y023005D01*
X024073Y022977D01*
X024148Y022945D01*
X024221Y022910D01*
X024292Y022871D01*
X024361Y022829D01*
X024428Y022783D01*
X024493Y022735D01*
X024556Y022683D01*
X024616Y022629D01*
X024673Y022572D01*
X024727Y022512D01*
X024779Y022449D01*
X024827Y022384D01*
X024873Y022317D01*
X024915Y022248D01*
X024954Y022177D01*
X024989Y022104D01*
X025021Y022029D01*
X025049Y021953D01*
X025073Y021876D01*
X025094Y021798D01*
X025111Y021718D01*
X025124Y021638D01*
X025134Y021558D01*
X025139Y021477D01*
X024997Y021477D01*
X024992Y021553D01*
X024982Y021629D01*
X024969Y021704D01*
X024953Y021778D01*
X024932Y021852D01*
X024908Y021924D01*
X024881Y021996D01*
X024850Y022065D01*
X024816Y022134D01*
X024778Y022200D01*
X024737Y022265D01*
X024694Y022327D01*
X024647Y022387D01*
X024597Y022445D01*
X024544Y022500D01*
X024489Y022553D01*
X024431Y022603D01*
X024371Y022650D01*
X024309Y022693D01*
X024244Y022734D01*
X024178Y022772D01*
X024109Y022806D01*
X024040Y022837D01*
X023968Y022864D01*
X023896Y022888D01*
X023822Y022909D01*
X023748Y022925D01*
X023673Y022938D01*
X023597Y022948D01*
X023521Y022953D01*
X023521Y022811D01*
X023595Y022805D01*
X023668Y022795D01*
X023740Y022782D01*
X023812Y022765D01*
X023883Y022744D01*
X023952Y022719D01*
X024020Y022691D01*
X024087Y022659D01*
X024152Y022624D01*
X024215Y022585D01*
X024276Y022543D01*
X024334Y022498D01*
X024390Y022451D01*
X024444Y022400D01*
X024495Y022346D01*
X024542Y022290D01*
X024587Y022232D01*
X024629Y022171D01*
X024668Y022108D01*
X024703Y022043D01*
X024735Y021976D01*
X024763Y021908D01*
X024788Y021839D01*
X024809Y021768D01*
X024826Y021696D01*
X024839Y021624D01*
X024849Y021551D01*
X024855Y021477D01*
X024713Y021477D01*
X024707Y021548D01*
X024697Y021618D01*
X024683Y021687D01*
X024665Y021756D01*
X024643Y021823D01*
X024618Y021890D01*
X024589Y021954D01*
X024556Y022017D01*
X024520Y022078D01*
X024480Y022137D01*
X024438Y022194D01*
X024392Y022248D01*
X024343Y022299D01*
X024292Y022348D01*
X024238Y022394D01*
X024181Y022436D01*
X024122Y022476D01*
X024061Y022512D01*
X023998Y022545D01*
X023934Y022574D01*
X023867Y022599D01*
X023800Y022621D01*
X023731Y022639D01*
X023662Y022653D01*
X023592Y022663D01*
X023521Y022669D01*
X023521Y022527D01*
X023585Y022520D01*
X023650Y022510D01*
X023713Y022497D01*
X023775Y022480D01*
X023837Y022459D01*
X023897Y022435D01*
X023956Y022407D01*
X024012Y022376D01*
X024068Y022342D01*
X024121Y022305D01*
X024171Y022265D01*
X024220Y022221D01*
X024265Y022176D01*
X024309Y022127D01*
X024349Y022077D01*
X024386Y022024D01*
X024420Y021968D01*
X024451Y021912D01*
X024479Y021853D01*
X024503Y021793D01*
X024524Y021731D01*
X024541Y021669D01*
X024554Y021606D01*
X024564Y021541D01*
X024571Y021477D01*
X024428Y021477D01*
X024422Y021537D01*
X024411Y021597D01*
X024398Y021656D01*
X024380Y021715D01*
X024359Y021771D01*
X024335Y021827D01*
X024307Y021881D01*
X024276Y021933D01*
X024241Y021983D01*
X024204Y022031D01*
X024164Y022077D01*
X024121Y022120D01*
X024075Y022160D01*
X024027Y022197D01*
X023977Y022232D01*
X023925Y022263D01*
X023871Y022291D01*
X023815Y022315D01*
X023759Y022336D01*
X023700Y022354D01*
X023641Y022367D01*
X023581Y022378D01*
X023521Y022384D01*
X023521Y022242D01*
X023576Y022235D01*
X023631Y022224D01*
X023685Y022210D01*
X023738Y022193D01*
X023790Y022172D01*
X023840Y022147D01*
X023889Y022119D01*
X023936Y022088D01*
X023980Y022054D01*
X024022Y022018D01*
X024062Y021978D01*
X024098Y021936D01*
X024132Y021892D01*
X024163Y021845D01*
X024191Y021796D01*
X024216Y021746D01*
X024237Y021694D01*
X024254Y021641D01*
X024268Y021587D01*
X024279Y021532D01*
X024286Y021477D01*
X024143Y021477D01*
X024136Y021526D01*
X024125Y021575D01*
X024111Y021623D01*
X024094Y021670D01*
X024073Y021716D01*
X024049Y021760D01*
X024022Y021802D01*
X023992Y021842D01*
X023959Y021880D01*
X023924Y021915D01*
X023886Y021948D01*
X023846Y021978D01*
X023804Y022005D01*
X023760Y022029D01*
X023714Y022050D01*
X023667Y022067D01*
X023619Y022081D01*
X023570Y022092D01*
X023521Y022099D01*
X023521Y021956D01*
X023566Y021948D01*
X023610Y021937D01*
X023653Y021921D01*
X023694Y021903D01*
X023734Y021881D01*
X023772Y021856D01*
X023808Y021828D01*
X023841Y021797D01*
X023872Y021764D01*
X023900Y021728D01*
X023925Y021690D01*
X023947Y021650D01*
X023965Y021609D01*
X023981Y021566D01*
X023992Y021522D01*
X024000Y021477D01*
X023856Y021477D01*
X023848Y021514D01*
X023835Y021551D01*
X023820Y021587D01*
X023801Y021621D01*
X023779Y021653D01*
X023754Y021683D01*
X023727Y021710D01*
X023697Y021735D01*
X023665Y021757D01*
X023631Y021776D01*
X023595Y021791D01*
X023558Y021804D01*
X023521Y021812D01*
X021753Y021328D02*
X023151Y021328D01*
X023150Y021328D02*
X023160Y021296D01*
X023173Y021266D01*
X023189Y021238D01*
X023208Y021211D01*
X023230Y021186D01*
X023255Y021164D01*
X023282Y021145D01*
X023310Y021129D01*
X023340Y021116D01*
X023372Y021106D01*
X023372Y019709D01*
X023371Y019709D01*
X023290Y019714D01*
X023210Y019724D01*
X023130Y019737D01*
X023050Y019754D01*
X022972Y019775D01*
X022895Y019799D01*
X022819Y019827D01*
X022744Y019859D01*
X022671Y019894D01*
X022600Y019933D01*
X022531Y019975D01*
X022464Y020021D01*
X022399Y020069D01*
X022336Y020121D01*
X022276Y020175D01*
X022219Y020232D01*
X022165Y020292D01*
X022113Y020355D01*
X022065Y020420D01*
X022019Y020487D01*
X021977Y020556D01*
X021938Y020627D01*
X021903Y020700D01*
X021871Y020775D01*
X021843Y020851D01*
X021819Y020928D01*
X021798Y021006D01*
X021781Y021086D01*
X021768Y021166D01*
X021758Y021246D01*
X021753Y021327D01*
X021895Y021327D01*
X021900Y021251D01*
X021910Y021175D01*
X021923Y021100D01*
X021939Y021026D01*
X021960Y020952D01*
X021984Y020880D01*
X022011Y020808D01*
X022042Y020739D01*
X022076Y020670D01*
X022114Y020604D01*
X022155Y020539D01*
X022198Y020477D01*
X022245Y020417D01*
X022295Y020359D01*
X022348Y020304D01*
X022403Y020251D01*
X022461Y020201D01*
X022521Y020154D01*
X022583Y020111D01*
X022648Y020070D01*
X022714Y020032D01*
X022783Y019998D01*
X022852Y019967D01*
X022924Y019940D01*
X022996Y019916D01*
X023070Y019895D01*
X023144Y019879D01*
X023219Y019866D01*
X023295Y019856D01*
X023371Y019851D01*
X023371Y019993D01*
X023297Y019999D01*
X023224Y020009D01*
X023152Y020022D01*
X023080Y020039D01*
X023009Y020060D01*
X022940Y020085D01*
X022872Y020113D01*
X022805Y020145D01*
X022740Y020180D01*
X022677Y020219D01*
X022616Y020261D01*
X022558Y020306D01*
X022502Y020353D01*
X022448Y020404D01*
X022397Y020458D01*
X022350Y020514D01*
X022305Y020572D01*
X022263Y020633D01*
X022224Y020696D01*
X022189Y020761D01*
X022157Y020828D01*
X022129Y020896D01*
X022104Y020965D01*
X022083Y021036D01*
X022066Y021108D01*
X022053Y021180D01*
X022043Y021253D01*
X022037Y021327D01*
X022179Y021327D01*
X022185Y021256D01*
X022195Y021186D01*
X022209Y021117D01*
X022227Y021048D01*
X022249Y020981D01*
X022274Y020914D01*
X022303Y020850D01*
X022336Y020787D01*
X022372Y020726D01*
X022412Y020667D01*
X022454Y020610D01*
X022500Y020556D01*
X022549Y020505D01*
X022600Y020456D01*
X022654Y020410D01*
X022711Y020368D01*
X022770Y020328D01*
X022831Y020292D01*
X022894Y020259D01*
X022958Y020230D01*
X023025Y020205D01*
X023092Y020183D01*
X023161Y020165D01*
X023230Y020151D01*
X023300Y020141D01*
X023371Y020135D01*
X023371Y020277D01*
X023307Y020284D01*
X023242Y020294D01*
X023179Y020307D01*
X023117Y020324D01*
X023055Y020345D01*
X022995Y020369D01*
X022936Y020397D01*
X022880Y020428D01*
X022824Y020462D01*
X022771Y020499D01*
X022721Y020539D01*
X022672Y020583D01*
X022627Y020628D01*
X022583Y020677D01*
X022543Y020727D01*
X022506Y020780D01*
X022472Y020836D01*
X022441Y020892D01*
X022413Y020951D01*
X022389Y021011D01*
X022368Y021073D01*
X022351Y021135D01*
X022338Y021198D01*
X022328Y021263D01*
X022321Y021327D01*
X022464Y021327D01*
X022470Y021267D01*
X022481Y021207D01*
X022494Y021148D01*
X022512Y021089D01*
X022533Y021033D01*
X022557Y020977D01*
X022585Y020923D01*
X022616Y020871D01*
X022651Y020821D01*
X022688Y020773D01*
X022728Y020727D01*
X022771Y020684D01*
X022817Y020644D01*
X022865Y020607D01*
X022915Y020572D01*
X022967Y020541D01*
X023021Y020513D01*
X023077Y020489D01*
X023133Y020468D01*
X023192Y020450D01*
X023251Y020437D01*
X023311Y020426D01*
X023371Y020420D01*
X023371Y020562D01*
X023316Y020569D01*
X023261Y020580D01*
X023207Y020594D01*
X023154Y020611D01*
X023102Y020632D01*
X023052Y020657D01*
X023003Y020685D01*
X022956Y020716D01*
X022912Y020750D01*
X022870Y020786D01*
X022830Y020826D01*
X022794Y020868D01*
X022760Y020912D01*
X022729Y020959D01*
X022701Y021008D01*
X022676Y021058D01*
X022655Y021110D01*
X022638Y021163D01*
X022624Y021217D01*
X022613Y021272D01*
X022606Y021327D01*
X022749Y021327D01*
X022756Y021278D01*
X022767Y021229D01*
X022781Y021181D01*
X022798Y021134D01*
X022819Y021088D01*
X022843Y021044D01*
X022870Y021002D01*
X022900Y020962D01*
X022933Y020924D01*
X022968Y020889D01*
X023006Y020856D01*
X023046Y020826D01*
X023088Y020799D01*
X023132Y020775D01*
X023178Y020754D01*
X023225Y020737D01*
X023273Y020723D01*
X023322Y020712D01*
X023371Y020705D01*
X023371Y020848D01*
X023326Y020856D01*
X023282Y020867D01*
X023239Y020883D01*
X023198Y020901D01*
X023158Y020923D01*
X023120Y020948D01*
X023084Y020976D01*
X023051Y021007D01*
X023020Y021040D01*
X022992Y021076D01*
X022967Y021114D01*
X022945Y021154D01*
X022927Y021195D01*
X022911Y021238D01*
X022900Y021282D01*
X022892Y021327D01*
X023036Y021327D01*
X023044Y021290D01*
X023057Y021253D01*
X023072Y021217D01*
X023091Y021183D01*
X023113Y021151D01*
X023138Y021121D01*
X023165Y021094D01*
X023195Y021069D01*
X023227Y021047D01*
X023261Y021028D01*
X023297Y021013D01*
X023334Y021000D01*
X023371Y020992D01*
X006556Y021476D02*
X005158Y021476D01*
X005159Y021476D02*
X005149Y021508D01*
X005136Y021538D01*
X005120Y021566D01*
X005101Y021593D01*
X005079Y021618D01*
X005054Y021640D01*
X005027Y021659D01*
X004999Y021675D01*
X004969Y021688D01*
X004937Y021698D01*
X004937Y023095D01*
X004938Y023095D01*
X005019Y023090D01*
X005099Y023080D01*
X005179Y023067D01*
X005259Y023050D01*
X005337Y023029D01*
X005414Y023005D01*
X005490Y022977D01*
X005565Y022945D01*
X005638Y022910D01*
X005709Y022871D01*
X005778Y022829D01*
X005845Y022783D01*
X005910Y022735D01*
X005973Y022683D01*
X006033Y022629D01*
X006090Y022572D01*
X006144Y022512D01*
X006196Y022449D01*
X006244Y022384D01*
X006290Y022317D01*
X006332Y022248D01*
X006371Y022177D01*
X006406Y022104D01*
X006438Y022029D01*
X006466Y021953D01*
X006490Y021876D01*
X006511Y021798D01*
X006528Y021718D01*
X006541Y021638D01*
X006551Y021558D01*
X006556Y021477D01*
X006414Y021477D01*
X006409Y021553D01*
X006399Y021629D01*
X006386Y021704D01*
X006370Y021778D01*
X006349Y021852D01*
X006325Y021924D01*
X006298Y021996D01*
X006267Y022065D01*
X006233Y022134D01*
X006195Y022200D01*
X006154Y022265D01*
X006111Y022327D01*
X006064Y022387D01*
X006014Y022445D01*
X005961Y022500D01*
X005906Y022553D01*
X005848Y022603D01*
X005788Y022650D01*
X005726Y022693D01*
X005661Y022734D01*
X005595Y022772D01*
X005526Y022806D01*
X005457Y022837D01*
X005385Y022864D01*
X005313Y022888D01*
X005239Y022909D01*
X005165Y022925D01*
X005090Y022938D01*
X005014Y022948D01*
X004938Y022953D01*
X004938Y022811D01*
X005012Y022805D01*
X005085Y022795D01*
X005157Y022782D01*
X005229Y022765D01*
X005300Y022744D01*
X005369Y022719D01*
X005437Y022691D01*
X005504Y022659D01*
X005569Y022624D01*
X005632Y022585D01*
X005693Y022543D01*
X005751Y022498D01*
X005807Y022451D01*
X005861Y022400D01*
X005912Y022346D01*
X005959Y022290D01*
X006004Y022232D01*
X006046Y022171D01*
X006085Y022108D01*
X006120Y022043D01*
X006152Y021976D01*
X006180Y021908D01*
X006205Y021839D01*
X006226Y021768D01*
X006243Y021696D01*
X006256Y021624D01*
X006266Y021551D01*
X006272Y021477D01*
X006130Y021477D01*
X006124Y021548D01*
X006114Y021618D01*
X006100Y021687D01*
X006082Y021756D01*
X006060Y021823D01*
X006035Y021890D01*
X006006Y021954D01*
X005973Y022017D01*
X005937Y022078D01*
X005897Y022137D01*
X005855Y022194D01*
X005809Y022248D01*
X005760Y022299D01*
X005709Y022348D01*
X005655Y022394D01*
X005598Y022436D01*
X005539Y022476D01*
X005478Y022512D01*
X005415Y022545D01*
X005351Y022574D01*
X005284Y022599D01*
X005217Y022621D01*
X005148Y022639D01*
X005079Y022653D01*
X005009Y022663D01*
X004938Y022669D01*
X004938Y022527D01*
X005002Y022520D01*
X005067Y022510D01*
X005130Y022497D01*
X005192Y022480D01*
X005254Y022459D01*
X005314Y022435D01*
X005373Y022407D01*
X005429Y022376D01*
X005485Y022342D01*
X005538Y022305D01*
X005588Y022265D01*
X005637Y022221D01*
X005682Y022176D01*
X005726Y022127D01*
X005766Y022077D01*
X005803Y022024D01*
X005837Y021968D01*
X005868Y021912D01*
X005896Y021853D01*
X005920Y021793D01*
X005941Y021731D01*
X005958Y021669D01*
X005971Y021606D01*
X005981Y021541D01*
X005988Y021477D01*
X005845Y021477D01*
X005839Y021537D01*
X005828Y021597D01*
X005815Y021656D01*
X005797Y021715D01*
X005776Y021771D01*
X005752Y021827D01*
X005724Y021881D01*
X005693Y021933D01*
X005658Y021983D01*
X005621Y022031D01*
X005581Y022077D01*
X005538Y022120D01*
X005492Y022160D01*
X005444Y022197D01*
X005394Y022232D01*
X005342Y022263D01*
X005288Y022291D01*
X005232Y022315D01*
X005176Y022336D01*
X005117Y022354D01*
X005058Y022367D01*
X004998Y022378D01*
X004938Y022384D01*
X004938Y022242D01*
X004993Y022235D01*
X005048Y022224D01*
X005102Y022210D01*
X005155Y022193D01*
X005207Y022172D01*
X005257Y022147D01*
X005306Y022119D01*
X005353Y022088D01*
X005397Y022054D01*
X005439Y022018D01*
X005479Y021978D01*
X005515Y021936D01*
X005549Y021892D01*
X005580Y021845D01*
X005608Y021796D01*
X005633Y021746D01*
X005654Y021694D01*
X005671Y021641D01*
X005685Y021587D01*
X005696Y021532D01*
X005703Y021477D01*
X005560Y021477D01*
X005553Y021526D01*
X005542Y021575D01*
X005528Y021623D01*
X005511Y021670D01*
X005490Y021716D01*
X005466Y021760D01*
X005439Y021802D01*
X005409Y021842D01*
X005376Y021880D01*
X005341Y021915D01*
X005303Y021948D01*
X005263Y021978D01*
X005221Y022005D01*
X005177Y022029D01*
X005131Y022050D01*
X005084Y022067D01*
X005036Y022081D01*
X004987Y022092D01*
X004938Y022099D01*
X004938Y021956D01*
X004983Y021948D01*
X005027Y021937D01*
X005070Y021921D01*
X005111Y021903D01*
X005151Y021881D01*
X005189Y021856D01*
X005225Y021828D01*
X005258Y021797D01*
X005289Y021764D01*
X005317Y021728D01*
X005342Y021690D01*
X005364Y021650D01*
X005382Y021609D01*
X005398Y021566D01*
X005409Y021522D01*
X005417Y021477D01*
X005273Y021477D01*
X005265Y021514D01*
X005252Y021551D01*
X005237Y021587D01*
X005218Y021621D01*
X005196Y021653D01*
X005171Y021683D01*
X005144Y021710D01*
X005114Y021735D01*
X005082Y021757D01*
X005048Y021776D01*
X005012Y021791D01*
X004975Y021804D01*
X004938Y021812D01*
X003170Y021328D02*
X004568Y021328D01*
X004567Y021328D02*
X004577Y021296D01*
X004590Y021266D01*
X004606Y021238D01*
X004625Y021211D01*
X004647Y021186D01*
X004672Y021164D01*
X004699Y021145D01*
X004727Y021129D01*
X004757Y021116D01*
X004789Y021106D01*
X004789Y019709D01*
X004788Y019709D01*
X004707Y019714D01*
X004627Y019724D01*
X004547Y019737D01*
X004467Y019754D01*
X004389Y019775D01*
X004312Y019799D01*
X004236Y019827D01*
X004161Y019859D01*
X004088Y019894D01*
X004017Y019933D01*
X003948Y019975D01*
X003881Y020021D01*
X003816Y020069D01*
X003753Y020121D01*
X003693Y020175D01*
X003636Y020232D01*
X003582Y020292D01*
X003530Y020355D01*
X003482Y020420D01*
X003436Y020487D01*
X003394Y020556D01*
X003355Y020627D01*
X003320Y020700D01*
X003288Y020775D01*
X003260Y020851D01*
X003236Y020928D01*
X003215Y021006D01*
X003198Y021086D01*
X003185Y021166D01*
X003175Y021246D01*
X003170Y021327D01*
X003312Y021327D01*
X003317Y021251D01*
X003327Y021175D01*
X003340Y021100D01*
X003356Y021026D01*
X003377Y020952D01*
X003401Y020880D01*
X003428Y020808D01*
X003459Y020739D01*
X003493Y020670D01*
X003531Y020604D01*
X003572Y020539D01*
X003615Y020477D01*
X003662Y020417D01*
X003712Y020359D01*
X003765Y020304D01*
X003820Y020251D01*
X003878Y020201D01*
X003938Y020154D01*
X004000Y020111D01*
X004065Y020070D01*
X004131Y020032D01*
X004200Y019998D01*
X004269Y019967D01*
X004341Y019940D01*
X004413Y019916D01*
X004487Y019895D01*
X004561Y019879D01*
X004636Y019866D01*
X004712Y019856D01*
X004788Y019851D01*
X004788Y019993D01*
X004714Y019999D01*
X004641Y020009D01*
X004569Y020022D01*
X004497Y020039D01*
X004426Y020060D01*
X004357Y020085D01*
X004289Y020113D01*
X004222Y020145D01*
X004157Y020180D01*
X004094Y020219D01*
X004033Y020261D01*
X003975Y020306D01*
X003919Y020353D01*
X003865Y020404D01*
X003814Y020458D01*
X003767Y020514D01*
X003722Y020572D01*
X003680Y020633D01*
X003641Y020696D01*
X003606Y020761D01*
X003574Y020828D01*
X003546Y020896D01*
X003521Y020965D01*
X003500Y021036D01*
X003483Y021108D01*
X003470Y021180D01*
X003460Y021253D01*
X003454Y021327D01*
X003596Y021327D01*
X003602Y021256D01*
X003612Y021186D01*
X003626Y021117D01*
X003644Y021048D01*
X003666Y020981D01*
X003691Y020914D01*
X003720Y020850D01*
X003753Y020787D01*
X003789Y020726D01*
X003829Y020667D01*
X003871Y020610D01*
X003917Y020556D01*
X003966Y020505D01*
X004017Y020456D01*
X004071Y020410D01*
X004128Y020368D01*
X004187Y020328D01*
X004248Y020292D01*
X004311Y020259D01*
X004375Y020230D01*
X004442Y020205D01*
X004509Y020183D01*
X004578Y020165D01*
X004647Y020151D01*
X004717Y020141D01*
X004788Y020135D01*
X004788Y020277D01*
X004724Y020284D01*
X004659Y020294D01*
X004596Y020307D01*
X004534Y020324D01*
X004472Y020345D01*
X004412Y020369D01*
X004353Y020397D01*
X004297Y020428D01*
X004241Y020462D01*
X004188Y020499D01*
X004138Y020539D01*
X004089Y020583D01*
X004044Y020628D01*
X004000Y020677D01*
X003960Y020727D01*
X003923Y020780D01*
X003889Y020836D01*
X003858Y020892D01*
X003830Y020951D01*
X003806Y021011D01*
X003785Y021073D01*
X003768Y021135D01*
X003755Y021198D01*
X003745Y021263D01*
X003738Y021327D01*
X003881Y021327D01*
X003887Y021267D01*
X003898Y021207D01*
X003911Y021148D01*
X003929Y021089D01*
X003950Y021033D01*
X003974Y020977D01*
X004002Y020923D01*
X004033Y020871D01*
X004068Y020821D01*
X004105Y020773D01*
X004145Y020727D01*
X004188Y020684D01*
X004234Y020644D01*
X004282Y020607D01*
X004332Y020572D01*
X004384Y020541D01*
X004438Y020513D01*
X004494Y020489D01*
X004550Y020468D01*
X004609Y020450D01*
X004668Y020437D01*
X004728Y020426D01*
X004788Y020420D01*
X004788Y020562D01*
X004733Y020569D01*
X004678Y020580D01*
X004624Y020594D01*
X004571Y020611D01*
X004519Y020632D01*
X004469Y020657D01*
X004420Y020685D01*
X004373Y020716D01*
X004329Y020750D01*
X004287Y020786D01*
X004247Y020826D01*
X004211Y020868D01*
X004177Y020912D01*
X004146Y020959D01*
X004118Y021008D01*
X004093Y021058D01*
X004072Y021110D01*
X004055Y021163D01*
X004041Y021217D01*
X004030Y021272D01*
X004023Y021327D01*
X004166Y021327D01*
X004173Y021278D01*
X004184Y021229D01*
X004198Y021181D01*
X004215Y021134D01*
X004236Y021088D01*
X004260Y021044D01*
X004287Y021002D01*
X004317Y020962D01*
X004350Y020924D01*
X004385Y020889D01*
X004423Y020856D01*
X004463Y020826D01*
X004505Y020799D01*
X004549Y020775D01*
X004595Y020754D01*
X004642Y020737D01*
X004690Y020723D01*
X004739Y020712D01*
X004788Y020705D01*
X004788Y020848D01*
X004743Y020856D01*
X004699Y020867D01*
X004656Y020883D01*
X004615Y020901D01*
X004575Y020923D01*
X004537Y020948D01*
X004501Y020976D01*
X004468Y021007D01*
X004437Y021040D01*
X004409Y021076D01*
X004384Y021114D01*
X004362Y021154D01*
X004344Y021195D01*
X004328Y021238D01*
X004317Y021282D01*
X004309Y021327D01*
X004453Y021327D01*
X004461Y021290D01*
X004474Y021253D01*
X004489Y021217D01*
X004508Y021183D01*
X004530Y021151D01*
X004555Y021121D01*
X004582Y021094D01*
X004612Y021069D01*
X004644Y021047D01*
X004678Y021028D01*
X004714Y021013D01*
X004751Y021000D01*
X004788Y020992D01*
D44*
X017484Y005229D02*
X017584Y005129D01*
X017344Y004429D02*
X017194Y004429D01*
X017584Y003779D02*
X017484Y003679D01*
X018284Y003509D02*
X018284Y003359D01*
X019034Y003779D02*
X019134Y003679D01*
X019224Y004429D02*
X019374Y004429D01*
X018984Y005129D02*
X019084Y005229D01*
M02*
