%
M48
M72
T01C0.0200
T02C0.0240
T03C0.0320
T04C0.0350
T05C0.0360
T06C0.0390
T07C0.0520
T08C0.0630
T09C0.0670
T10C0.1280
T11C0.1970
%
T01
X11405Y5345
X11655Y6115
X12375Y5395
X13275Y5615
X12525Y6905
X12745Y10205
X10545Y10605
X12745Y14005
X16925Y13045
X16925Y11165
X15925Y17865
T02
X13045Y17585
X17295Y14725
X17345Y9585
X9945Y12885
T03
X17284Y4579
X18284Y3579
X19284Y4579
T04
X7445Y7285
X7445Y8285
X7445Y9285
X7445Y10285
X6445Y9785
X6445Y8785
X6445Y7785
X6445Y10785
X7445Y13435
X7445Y14435
X7445Y15435
X7445Y16435
X6445Y15935
X6445Y14935
X6445Y13935
X6445Y16935
T05
X10645Y3335
X10645Y2335
X11645Y2335
X11645Y3335
X12645Y3335
X13645Y3335
X13645Y2335
X12645Y2335
X14645Y2335
X14645Y3335
T06
X4695Y8035
X4695Y9035
X4695Y10035
X4695Y14185
X4695Y15185
X4695Y16185
T07
X18296Y2332
T08
X16065Y20505
X14065Y20505
X12065Y20505
X10065Y20505
T09
X22095Y14394
X22095Y12835
X22095Y11276
X22095Y9717
T10
X3945Y11285
X3945Y12935
X3945Y17435
X3945Y6785
T11
X4902Y2859
X23446Y2859
X23446Y21402
X4863Y21402
M30
