G75*
G70*
%OFA0B0*%
%FSLAX24Y24*%
%IPPOS*%
%LPD*%
%AMOC8*
5,1,8,0,0,1.08239X$1,22.5*
%
%ADD10OC8,0.0680*%
%ADD11C,0.0720*%
%ADD12C,0.1261*%
%ADD13C,0.0640*%
%ADD14C,0.0905*%
%ADD15C,0.0670*%
%ADD16C,0.1360*%
%ADD17OC8,0.0640*%
D10*
X005931Y002681D03*
X005931Y003681D03*
X006931Y003681D03*
X006931Y002681D03*
X007931Y002681D03*
X007931Y003681D03*
X008931Y003681D03*
X008931Y002681D03*
X009931Y002681D03*
X009931Y003681D03*
X009081Y008331D03*
X008081Y008331D03*
X008081Y009331D03*
X008081Y010331D03*
X009081Y010331D03*
X009081Y009331D03*
D11*
X009001Y013331D02*
X008361Y013331D01*
X008361Y014331D02*
X009001Y014331D01*
X009001Y015331D02*
X008361Y015331D01*
X008361Y016331D02*
X009001Y016331D01*
X013011Y016681D02*
X013651Y016681D01*
X014561Y016681D02*
X015201Y016681D01*
X015201Y017681D02*
X014561Y017681D01*
X013651Y017681D02*
X013011Y017681D01*
X013011Y018681D02*
X013651Y018681D01*
X014561Y018681D02*
X015201Y018681D01*
X020131Y018901D02*
X020131Y018261D01*
X020131Y017401D02*
X020131Y016761D01*
X021131Y016761D02*
X021131Y017401D01*
X021131Y018261D02*
X021131Y018901D01*
X022131Y018901D02*
X022131Y018261D01*
X022131Y017401D02*
X022131Y016761D01*
X004271Y009131D02*
X004271Y008491D01*
X002491Y008491D02*
X002491Y009131D01*
X002261Y010531D02*
X002901Y010531D01*
X002901Y011531D02*
X002261Y011531D01*
X002261Y012531D02*
X002901Y012531D01*
X002901Y013531D02*
X002261Y013531D01*
X002261Y014531D02*
X002901Y014531D01*
X002901Y015531D02*
X002261Y015531D01*
X002491Y006571D02*
X002491Y005931D01*
X004271Y005931D02*
X004271Y006571D01*
D12*
X002231Y002131D03*
X002131Y027481D03*
X026681Y027581D03*
X026731Y002081D03*
D13*
X016031Y003731D03*
X014131Y003731D03*
D14*
X025519Y004981D02*
X026344Y004981D01*
X026344Y006981D02*
X025519Y006981D01*
X025519Y008981D02*
X026344Y008981D01*
X026344Y010981D02*
X025519Y010981D01*
X015131Y026169D02*
X015131Y026994D01*
X013131Y026994D02*
X013131Y026169D01*
X011131Y026169D02*
X011131Y026994D01*
X009131Y026994D02*
X009131Y026169D01*
X007131Y026169D02*
X007131Y026994D01*
X005131Y026994D02*
X005131Y026169D01*
X003844Y019581D02*
X003019Y019581D01*
X003019Y017581D02*
X003844Y017581D01*
D15*
X018231Y024381D03*
X019231Y024381D03*
X018731Y025381D03*
X019731Y025381D03*
X020731Y025381D03*
X020231Y024381D03*
X021231Y024381D03*
X021731Y025381D03*
D16*
X022231Y027881D03*
X017731Y027881D03*
D17*
X012081Y017731D03*
X011081Y016731D03*
X010081Y017731D03*
M02*
