G75*
G70*
%OFA0B0*%
%FSLAX24Y24*%
%IPPOS*%
%LPD*%
%AMOC8*
5,1,8,0,0,1.08239X$1,22.5*
%
%ADD10C,0.0000*%
%ADD11R,0.1417X0.0512*%
%ADD12R,0.0709X0.0630*%
%ADD13R,0.0630X0.0709*%
%ADD14R,0.2441X0.2126*%
%ADD15R,0.0630X0.0394*%
%ADD16R,0.0866X0.0236*%
%ADD17R,0.0710X0.0630*%
%ADD18R,0.0630X0.0710*%
%ADD19R,0.0787X0.0630*%
%ADD20R,0.0591X0.0591*%
%ADD21R,0.0480X0.0880*%
%ADD22R,0.1417X0.0866*%
%ADD23R,0.0236X0.0866*%
%ADD24R,0.0787X0.0591*%
%ADD25R,0.0591X0.0787*%
%ADD26R,0.0394X0.1102*%
%ADD27R,0.0220X0.0500*%
%ADD28R,0.0500X0.0220*%
%ADD29R,0.0500X0.0500*%
D10*
X000546Y000483D02*
X000546Y029129D01*
X028316Y029229D01*
X028316Y000483D01*
X000546Y000483D01*
X001640Y002131D02*
X001676Y002333D01*
X001778Y002511D01*
X001935Y002643D01*
X002128Y002713D01*
X002334Y002713D01*
X002526Y002643D01*
X002684Y002511D01*
X002786Y002333D01*
X002822Y002131D01*
X002786Y001929D01*
X002684Y001751D01*
X002527Y001619D01*
X002334Y001549D01*
X002128Y001549D01*
X001935Y001619D01*
X001778Y001751D01*
X001676Y001929D01*
X001640Y002131D01*
X001540Y027481D02*
X001576Y027683D01*
X001678Y027861D01*
X001835Y027993D01*
X002028Y028063D01*
X002234Y028063D01*
X002426Y027993D01*
X002584Y027861D01*
X002686Y027683D01*
X002722Y027481D01*
X002686Y027279D01*
X002584Y027101D01*
X002427Y026969D01*
X002234Y026899D01*
X002028Y026899D01*
X001835Y026969D01*
X001678Y027101D01*
X001576Y027279D01*
X001540Y027481D01*
X017091Y027881D02*
X017130Y028100D01*
X017241Y028292D01*
X017411Y028435D01*
X017620Y028511D01*
X017842Y028511D01*
X018051Y028435D01*
X018221Y028292D01*
X018332Y028100D01*
X018371Y027881D01*
X018332Y027662D01*
X018221Y027470D01*
X018051Y027327D01*
X017842Y027251D01*
X017620Y027251D01*
X017411Y027327D01*
X017241Y027470D01*
X017130Y027662D01*
X017091Y027881D01*
X021591Y027881D02*
X021630Y028100D01*
X021741Y028292D01*
X021911Y028435D01*
X022120Y028511D01*
X022342Y028511D01*
X022551Y028435D01*
X022721Y028292D01*
X022832Y028100D01*
X022871Y027881D01*
X022832Y027662D01*
X022721Y027470D01*
X022551Y027327D01*
X022342Y027251D01*
X022120Y027251D01*
X021911Y027327D01*
X021741Y027470D01*
X021630Y027662D01*
X021591Y027881D01*
X026090Y027581D02*
X026126Y027783D01*
X026228Y027961D01*
X026385Y028093D01*
X026578Y028163D01*
X026784Y028163D01*
X026976Y028093D01*
X027134Y027961D01*
X027236Y027783D01*
X027272Y027581D01*
X027236Y027379D01*
X027134Y027201D01*
X026977Y027069D01*
X026784Y026999D01*
X026578Y026999D01*
X026385Y027069D01*
X026228Y027201D01*
X026126Y027379D01*
X026090Y027581D01*
X026140Y002081D02*
X026176Y002283D01*
X026278Y002461D01*
X026435Y002593D01*
X026628Y002663D01*
X026834Y002663D01*
X027026Y002593D01*
X027184Y002461D01*
X027286Y002283D01*
X027322Y002081D01*
X027286Y001879D01*
X027184Y001701D01*
X027027Y001569D01*
X026834Y001499D01*
X026628Y001499D01*
X026435Y001569D01*
X026278Y001701D01*
X026176Y001879D01*
X026140Y002081D01*
D11*
X027237Y014781D03*
X024136Y014781D03*
X024236Y023831D03*
X027337Y023831D03*
D12*
X022831Y022733D03*
X022831Y021630D03*
X016131Y018683D03*
X016131Y017580D03*
D13*
X025430Y017731D03*
X026533Y017731D03*
X016633Y002231D03*
X015530Y002231D03*
X014633Y002231D03*
X013530Y002231D03*
X005383Y010531D03*
X004280Y010531D03*
D14*
X026566Y019881D03*
D15*
X023692Y018984D03*
X023692Y020779D03*
D16*
X021055Y021381D03*
X021055Y021881D03*
X021055Y022381D03*
X021055Y022881D03*
X019008Y022881D03*
X019008Y022381D03*
X019008Y021881D03*
X019008Y021381D03*
D17*
X016031Y021022D03*
X016031Y022141D03*
X011631Y022041D03*
X011631Y020922D03*
X016381Y013841D03*
X017431Y013841D03*
X017431Y012722D03*
X016381Y012722D03*
X016381Y009141D03*
X016381Y008022D03*
X017481Y008022D03*
X017481Y009141D03*
X023131Y009622D03*
X023131Y010741D03*
X023131Y003491D03*
X023131Y002372D03*
X010981Y011622D03*
X010981Y012741D03*
X005581Y006841D03*
X005581Y005722D03*
X024531Y026772D03*
X024531Y027891D03*
D18*
X007491Y014581D03*
X007491Y013531D03*
X006372Y013531D03*
X006372Y014581D03*
X005391Y012531D03*
X005391Y011531D03*
X004272Y011531D03*
X004272Y012531D03*
X010572Y005731D03*
X011691Y005731D03*
X002591Y004831D03*
X001472Y004831D03*
X001472Y024781D03*
X002591Y024781D03*
D19*
X007131Y022033D03*
X007131Y020930D03*
X008581Y018683D03*
X008581Y017580D03*
D20*
X007131Y022892D03*
X007131Y024270D03*
X002820Y023481D03*
X001442Y023481D03*
X011581Y022942D03*
X011581Y024320D03*
X015981Y024270D03*
X015981Y022892D03*
X016381Y011770D03*
X017431Y011770D03*
X017431Y010392D03*
X016381Y010392D03*
X016381Y006970D03*
X017431Y006970D03*
X017431Y005592D03*
X016381Y005592D03*
X005581Y007942D03*
X005581Y009320D03*
D21*
X005891Y021561D03*
X004981Y021561D03*
X004072Y021561D03*
X008772Y021561D03*
X009681Y021561D03*
X010591Y021561D03*
X013172Y021561D03*
X014081Y021561D03*
X014991Y021561D03*
D22*
X014081Y024001D03*
X009681Y024001D03*
X004981Y024001D03*
D23*
X018631Y013342D03*
X019131Y013342D03*
X019631Y013342D03*
X020131Y013342D03*
X020631Y013342D03*
X021131Y013342D03*
X021631Y013342D03*
X022131Y013342D03*
X022131Y009720D03*
X021631Y009720D03*
X021131Y009720D03*
X020631Y009720D03*
X020131Y009720D03*
X019631Y009720D03*
X019131Y009720D03*
X018631Y009720D03*
X018631Y006092D03*
X019131Y006092D03*
X019631Y006092D03*
X020131Y006092D03*
X020631Y006092D03*
X021131Y006092D03*
X021631Y006092D03*
X022131Y006092D03*
X022131Y002470D03*
X021631Y002470D03*
X021131Y002470D03*
X020631Y002470D03*
X020131Y002470D03*
X019631Y002470D03*
X019131Y002470D03*
X018631Y002470D03*
D24*
X018631Y007141D03*
X018631Y008322D03*
X022131Y008322D03*
X022131Y007141D03*
X022131Y014391D03*
X022131Y015572D03*
X018731Y015572D03*
X018731Y014391D03*
D25*
X020041Y014881D03*
X021222Y014881D03*
X021172Y007581D03*
X019991Y007581D03*
D26*
X006631Y016756D03*
X006631Y018607D03*
D27*
X012179Y010721D03*
X012494Y010721D03*
X012809Y010721D03*
X013124Y010721D03*
X013439Y010721D03*
X013754Y010721D03*
X014069Y010721D03*
X014384Y010721D03*
X014384Y007341D03*
X014069Y007341D03*
X013754Y007341D03*
X013439Y007341D03*
X013124Y007341D03*
X012809Y007341D03*
X012494Y007341D03*
X012179Y007341D03*
D28*
X011591Y007929D03*
X011591Y008244D03*
X011591Y008559D03*
X011591Y008874D03*
X011591Y009189D03*
X011591Y009504D03*
X011591Y009819D03*
X011591Y010134D03*
X014971Y010134D03*
X014971Y009819D03*
X014971Y009504D03*
X014971Y009189D03*
X014971Y008874D03*
X014971Y008559D03*
X014971Y008244D03*
X014971Y007929D03*
D29*
X012431Y004681D03*
X012431Y003681D03*
M02*
